<svg width="520" height="146" viewBox="0 0 520 146" fill="none" xmlns="http://www.w3.org/2000/svg">
<g clip-path="url(#clip0_657_5001)">
<path fill-rule="evenodd" clip-rule="evenodd" d="M404.675 2.96191L389.621 32.5666H438.844V142.949H477.621V32.5666H520.001V2.96191H404.675Z" fill="white"/>
<path fill-rule="evenodd" clip-rule="evenodd" d="M404.675 2.96191L389.621 32.5666H438.844V142.949H477.621V32.5666H520.001V2.96191H404.675Z" fill="white" fill-opacity="0.2"/>
<path fill-rule="evenodd" clip-rule="evenodd" d="M404.675 2.96191L389.621 32.5666H438.844V142.949H477.621V32.5666H520.001V2.96191H404.675Z" fill="white" fill-opacity="0.2"/>
<path fill-rule="evenodd" clip-rule="evenodd" d="M404.675 2.96191L389.621 32.5666H438.844V142.949H477.621V32.5666H520.001V2.96191H404.675Z" fill="white" fill-opacity="0.2"/>
<path fill-rule="evenodd" clip-rule="evenodd" d="M117.936 47.2411C117.936 20.8383 100.844 2.6333 63.076 2.6333H0V142.647H38.5476V91.2544H59.3476L84.0736 142.657H127.39L96.4496 80.663C110.464 72.6322 117.931 62.2338 117.931 47.2359L117.936 47.2411ZM57.0232 65.6338H38.5424V28.233H57.044C71.5104 28.233 77.5476 34.6368 77.5476 46.8291C77.5476 59.0214 71.5208 65.6338 57.0232 65.6338Z" fill="white"/>
<path fill-rule="evenodd" clip-rule="evenodd" d="M117.936 47.2411C117.936 20.8383 100.844 2.6333 63.076 2.6333H0V142.647H38.5476V91.2544H59.3476L84.0736 142.657H127.39L96.4496 80.663C110.464 72.6322 117.931 62.2338 117.931 47.2359L117.936 47.2411ZM57.0232 65.6338H38.5424V28.233H57.044C71.5104 28.233 77.5476 34.6368 77.5476 46.8291C77.5476 59.0214 71.5208 65.6338 57.0232 65.6338Z" fill="white" fill-opacity="0.2"/>
<path fill-rule="evenodd" clip-rule="evenodd" d="M117.936 47.2411C117.936 20.8383 100.844 2.6333 63.076 2.6333H0V142.647H38.5476V91.2544H59.3476L84.0736 142.657H127.39L96.4496 80.663C110.464 72.6322 117.931 62.2338 117.931 47.2359L117.936 47.2411ZM57.0232 65.6338H38.5424V28.233H57.044C71.5104 28.233 77.5476 34.6368 77.5476 46.8291C77.5476 59.0214 71.5208 65.6338 57.0232 65.6338Z" fill="white" fill-opacity="0.2"/>
<path fill-rule="evenodd" clip-rule="evenodd" d="M117.936 47.2411C117.936 20.8383 100.844 2.6333 63.076 2.6333H0V142.647H38.5476V91.2544H59.3476L84.0736 142.657H127.39L96.4496 80.663C110.464 72.6322 117.931 62.2338 117.931 47.2359L117.936 47.2411ZM57.0232 65.6338H38.5424V28.233H57.044C71.5104 28.233 77.5476 34.6368 77.5476 46.8291C77.5476 59.0214 71.5208 65.6338 57.0232 65.6338Z" fill="white" fill-opacity="0.2"/>
<path fill-rule="evenodd" clip-rule="evenodd" d="M360.729 65.3369L392.724 2.80566H392.002H370.91H370.905H370.692L370.541 3.07162L309.732 46.7564V2.91518H271.148V142.71H309.732V70.4057L351.774 35.8626L325.842 81.1691L325.743 81.2108L355.191 142.537H398.689L360.666 65.3629L360.729 65.3369Z" fill="white"/>
<path fill-rule="evenodd" clip-rule="evenodd" d="M360.729 65.3369L392.724 2.80566H392.002H370.91H370.905H370.692L370.541 3.07162L309.732 46.7564V2.91518H271.148V142.71H309.732V70.4057L351.774 35.8626L325.842 81.1691L325.743 81.2108L355.191 142.537H398.689L360.666 65.3629L360.729 65.3369Z" fill="white" fill-opacity="0.2"/>
<path fill-rule="evenodd" clip-rule="evenodd" d="M360.729 65.3369L392.724 2.80566H392.002H370.91H370.905H370.692L370.541 3.07162L309.732 46.7564V2.91518H271.148V142.71H309.732V70.4057L351.774 35.8626L325.842 81.1691L325.743 81.2108L355.191 142.537H398.689L360.666 65.3629L360.729 65.3369Z" fill="white" fill-opacity="0.2"/>
<path fill-rule="evenodd" clip-rule="evenodd" d="M360.729 65.3369L392.724 2.80566H392.002H370.91H370.905H370.692L370.541 3.07162L309.732 46.7564V2.91518H271.148V142.71H309.732V70.4057L351.774 35.8626L325.842 81.1691L325.743 81.2108L355.191 142.537H398.689L360.666 65.3629L360.729 65.3369Z" fill="white" fill-opacity="0.2"/>
<path fill-rule="evenodd" clip-rule="evenodd" d="M193.492 0C173.591 0 157.523 6.56549 145.491 19.6026C133.463 32.6449 127.41 50.1981 127.41 72.794V73.1956C127.41 95.8071 133.437 113.605 145.491 126.601C157.555 139.596 173.612 146 193.492 146C213.371 146 229.45 139.596 241.301 126.601C253.354 113.6 259.381 95.7967 259.381 73.1956V72.794C259.381 50.1824 253.354 32.6136 241.301 19.6026C229.45 6.60199 213.382 0 193.492 0ZM220.199 74.1916C220.199 88.3186 217.651 99.4471 212.815 107.572C207.979 115.697 201.417 119.691 193.305 119.691C185.193 119.691 178.635 115.697 173.711 107.572C168.792 99.4523 166.327 88.3238 166.327 74.1916V73.9413C166.327 59.8143 168.792 48.8318 173.711 40.6966C178.625 32.5667 185.187 28.4418 193.305 28.4418V28.473C201.458 28.473 207.896 32.5667 212.815 40.6966C217.739 48.8266 220.199 59.8143 220.199 73.9413V74.1916Z" fill="white"/>
<path fill-rule="evenodd" clip-rule="evenodd" d="M193.492 0C173.591 0 157.523 6.56549 145.491 19.6026C133.463 32.6449 127.41 50.1981 127.41 72.794V73.1956C127.41 95.8071 133.437 113.605 145.491 126.601C157.555 139.596 173.612 146 193.492 146C213.371 146 229.45 139.596 241.301 126.601C253.354 113.6 259.381 95.7967 259.381 73.1956V72.794C259.381 50.1824 253.354 32.6136 241.301 19.6026C229.45 6.60199 213.382 0 193.492 0ZM220.199 74.1916C220.199 88.3186 217.651 99.4471 212.815 107.572C207.979 115.697 201.417 119.691 193.305 119.691C185.193 119.691 178.635 115.697 173.711 107.572C168.792 99.4523 166.327 88.3238 166.327 74.1916V73.9413C166.327 59.8143 168.792 48.8318 173.711 40.6966C178.625 32.5667 185.187 28.4418 193.305 28.4418V28.473C201.458 28.473 207.896 32.5667 212.815 40.6966C217.739 48.8266 220.199 59.8143 220.199 73.9413V74.1916Z" fill="white" fill-opacity="0.2"/>
<path fill-rule="evenodd" clip-rule="evenodd" d="M193.492 0C173.591 0 157.523 6.56549 145.491 19.6026C133.463 32.6449 127.41 50.1981 127.41 72.794V73.1956C127.41 95.8071 133.437 113.605 145.491 126.601C157.555 139.596 173.612 146 193.492 146C213.371 146 229.45 139.596 241.301 126.601C253.354 113.6 259.381 95.7967 259.381 73.1956V72.794C259.381 50.1824 253.354 32.6136 241.301 19.6026C229.45 6.60199 213.382 0 193.492 0ZM220.199 74.1916C220.199 88.3186 217.651 99.4471 212.815 107.572C207.979 115.697 201.417 119.691 193.305 119.691C185.193 119.691 178.635 115.697 173.711 107.572C168.792 99.4523 166.327 88.3238 166.327 74.1916V73.9413C166.327 59.8143 168.792 48.8318 173.711 40.6966C178.625 32.5667 185.187 28.4418 193.305 28.4418V28.473C201.458 28.473 207.896 32.5667 212.815 40.6966C217.739 48.8266 220.199 59.8143 220.199 73.9413V74.1916Z" fill="white" fill-opacity="0.2"/>
<path fill-rule="evenodd" clip-rule="evenodd" d="M193.492 0C173.591 0 157.523 6.56549 145.491 19.6026C133.463 32.6449 127.41 50.1981 127.41 72.794V73.1956C127.41 95.8071 133.437 113.605 145.491 126.601C157.555 139.596 173.612 146 193.492 146C213.371 146 229.45 139.596 241.301 126.601C253.354 113.6 259.381 95.7967 259.381 73.1956V72.794C259.381 50.1824 253.354 32.6136 241.301 19.6026C229.45 6.60199 213.382 0 193.492 0ZM220.199 74.1916C220.199 88.3186 217.651 99.4471 212.815 107.572C207.979 115.697 201.417 119.691 193.305 119.691C185.193 119.691 178.635 115.697 173.711 107.572C168.792 99.4523 166.327 88.3238 166.327 74.1916V73.9413C166.327 59.8143 168.792 48.8318 173.711 40.6966C178.625 32.5667 185.187 28.4418 193.305 28.4418V28.473C201.458 28.473 207.896 32.5667 212.815 40.6966C217.739 48.8266 220.199 59.8143 220.199 73.9413V74.1916Z" fill="white" fill-opacity="0.2"/>
</g>
<defs>
<clipPath id="clip0_657_5001">
<rect width="520" height="146" fill="white"/>
</clipPath>
</defs>
</svg>
