<svg width="132" height="35" viewBox="0 0 132 35" fill="none" xmlns="http://www.w3.org/2000/svg">
<g clip-path="url(#clip0_195_7953)">
<path d="M96.0128 32.4059C95.6822 32.4059 95.3859 32.3388 95.1247 32.2045C94.8634 32.0702 94.6474 31.8666 94.4795 31.5922H94.4138L94.3299 32.2936H93.6753V25.5312H94.4985V27.9907H94.5547C94.6671 27.8162 94.7977 27.6761 94.9473 27.5696C95.0969 27.4638 95.2655 27.3857 95.4524 27.3353C95.6392 27.2857 95.8391 27.2601 96.0508 27.2601C96.431 27.2601 96.7645 27.3506 97.0513 27.5316C97.3381 27.7126 97.5607 27.9899 97.7198 28.3643C97.8789 28.7387 97.9585 29.2153 97.9585 29.7955C97.9585 30.4063 97.8804 30.904 97.7249 31.2872C97.5688 31.6703 97.3476 31.9527 97.0608 32.1337C96.774 32.3147 96.4252 32.4052 96.0136 32.4052L96.0128 32.4059ZM95.8165 31.6856C96.0968 31.6856 96.3325 31.6294 96.523 31.517C96.7134 31.4047 96.8579 31.2193 96.9579 30.9609C97.0579 30.7026 97.1075 30.361 97.1075 29.937V29.7407C97.1075 29.3291 97.0608 28.9941 96.9674 28.7351C96.874 28.4767 96.7302 28.2862 96.5368 28.1644C96.3434 28.0425 96.0938 27.9819 95.7888 27.9819C95.6144 27.9819 95.4487 28.0096 95.2933 28.0658C95.1371 28.122 94.9984 28.2191 94.8773 28.3556C94.7554 28.4928 94.662 28.6767 94.597 28.9073C94.5313 29.1379 94.4985 29.4218 94.4985 29.7582V29.9078C94.4985 30.2946 94.5438 30.6187 94.6342 30.8807C94.7247 31.1427 94.8678 31.3419 95.0648 31.4791C95.2611 31.6163 95.5122 31.6849 95.818 31.6849L95.8165 31.6856Z" fill="black"/>
<path d="M99.3801 33.9962C99.2305 33.9962 99.1014 33.9853 98.9919 33.9634C98.8824 33.9415 98.8094 33.9276 98.7722 33.921V33.3226H99.1838C99.3334 33.3226 99.4801 33.2912 99.6232 33.2292C99.7662 33.1664 99.9005 33.0606 100.025 32.911C100.15 32.7614 100.256 32.5556 100.343 32.2936L98.4358 27.374H99.2962L100.279 29.9086C100.322 30.0268 100.373 30.1721 100.433 30.3436C100.492 30.5151 100.551 30.691 100.61 30.8719C100.669 31.0529 100.717 31.212 100.755 31.3492H100.811C100.836 31.2492 100.867 31.1376 100.905 31.0128C100.942 30.888 100.981 30.7588 101.021 30.6245C101.062 30.4903 101.102 30.3625 101.143 30.2414C101.183 30.1195 101.216 30.0122 101.242 29.9188L102.075 27.3748H102.907L101.243 32.1542C101.149 32.422 101.046 32.6702 100.934 32.8979C100.821 33.1256 100.697 33.3204 100.559 33.4824C100.422 33.6444 100.257 33.7707 100.064 33.8612C99.8706 33.9517 99.6429 33.9969 99.3809 33.9969L99.3801 33.9962Z" fill="black"/>
<path d="M109.127 27.3987C109.127 26.7828 108.821 26.4595 108.089 26.4595H107.154V28.3482H108.089C108.822 28.3482 109.127 28.0351 109.127 27.3987ZM111.172 27.4191C111.172 28.1759 110.794 28.7014 110.085 29.1072L111.651 32.2358H109.458L108.205 29.6406H107.154V32.2351H105.201V25.167H108.395C110.307 25.167 111.173 26.0858 111.173 27.4191H111.172Z" fill="black"/>
<path d="M125.692 25.1836L124.93 26.6782H127.422V32.2517H129.385V26.6782H131.531V25.1836H125.692Z" fill="black"/>
<path d="M123.979 25.1758H125.049L120.847 28.6182V27.4206L123.98 25.1758H123.979Z" fill="black"/>
<path d="M123.971 25.1755H125.086L123.464 28.3326L121.695 29.134L123.971 25.1748V25.1755Z" fill="black"/>
<path d="M121.694 29.1353L123.463 28.334L125.389 32.2318H123.187L121.694 29.136V29.1353Z" fill="black"/>
<path d="M120.884 25.1816H118.93V32.2395H120.884V25.1816Z" fill="black"/>
<path fill-rule="evenodd" clip-rule="evenodd" d="M114.998 25.0342C113.991 25.0342 113.176 25.367 112.566 26.0238C111.956 26.6799 111.65 27.5688 111.65 28.7094V28.7291C111.65 29.8705 111.956 30.7697 112.566 31.4257C113.177 32.0818 113.99 32.4051 114.998 32.4051C116.006 32.4051 116.819 32.0818 117.419 31.4257C118.029 30.7689 118.334 29.8705 118.334 28.7291V28.7094C118.334 27.568 118.029 26.6806 117.419 26.0238C116.819 25.367 116.006 25.0342 114.998 25.0342ZM114.988 26.4719C114.577 26.4719 114.245 26.6799 113.996 27.0907C113.747 27.5009 113.622 28.0563 113.622 28.7693V28.7817C113.622 29.4954 113.747 30.0566 113.996 30.4668C114.245 30.8769 114.577 31.0791 114.988 31.0791C115.4 31.0791 115.731 30.8769 115.976 30.4668C116.225 30.0566 116.35 29.4947 116.35 28.7817V28.7693C116.35 28.0563 116.225 27.5009 115.976 27.0907C115.731 26.6806 115.399 26.4719 114.988 26.4719Z" fill="black"/>
<path d="M21.9866 20.6084V27.4772L32.9802 20.6084V13.7402L21.9866 20.6084Z" fill="black"/>
<path d="M10.9937 20.6084V27.4772L21.9866 20.6084V13.7402L10.9937 20.6084Z" fill="black"/>
<path d="M0 20.6084V27.4772L10.9937 20.6084V13.7402L0 20.6084Z" fill="black"/>
<path d="M32.9802 0L21.9866 6.86958V13.7384L32.9802 6.86958V0Z" fill="black"/>
<path d="M21.9866 0L10.9937 6.86958V13.7384L21.9866 6.86958V0Z" fill="black"/>
<path d="M10.9937 0L0 6.86958V13.7384L10.9937 6.86958V0Z" fill="black"/>
<path d="M55.8236 14.1517V20.6563H53.0117V14.3677C53.0117 13.0927 52.4067 12.4651 51.239 12.4651C50.372 12.4651 49.613 12.8329 48.962 13.5678V20.66H46.1567V14.3684C46.1567 13.0935 45.5728 12.4658 44.4052 12.4658C43.5192 12.4658 42.7624 12.8548 42.1136 13.6335V20.6607H39.2805V10.2823H41.918V11.258C42.8463 10.4873 44.0191 10.0735 45.2254 10.0903C46.6529 10.0903 47.6907 10.5669 48.2957 11.5178C49.4415 10.5662 50.696 10.0903 52.0585 10.0903C54.5026 10.0874 55.8214 11.52 55.8214 14.1524L55.8236 14.1517Z" fill="black"/>
<path d="M68.1812 12.6373C69.4255 14.8391 69.0643 17.5984 67.2953 19.4054C66.3202 20.3505 65.0198 20.8847 63.6623 20.8986C62.6815 20.9219 61.7269 20.5826 60.9803 19.9455V25.5036H58.1553V10.2808H60.9022V11.0806C61.6773 10.4326 62.6567 10.0793 63.6667 10.0852C65.5189 10.0684 67.2398 11.0412 68.1812 12.6365V12.6373ZM66.0838 15.4492C66.0838 13.6116 64.7826 12.465 63.3193 12.465C62.41 12.4519 61.5408 12.8394 60.9416 13.524V17.4824C61.5174 18.1348 62.348 18.5056 63.2186 18.499C64.8088 18.499 66.0838 17.3525 66.0838 15.4499V15.4492Z" fill="black"/>
<path d="M80.8112 20.6592H78.1591V19.7733C77.3993 20.5199 76.3696 20.9256 75.3048 20.8986C73.4438 20.9132 71.7215 19.917 70.8064 18.2969C70.3035 17.4467 70.0488 16.4724 70.0715 15.485C70.0715 13.389 71.153 11.6375 72.7535 10.7493C73.5373 10.3042 74.4247 10.0735 75.326 10.0794C76.3696 10.0531 77.3804 10.4421 78.1379 11.1609V10.275H80.8177L80.8112 20.66V20.6592ZM78.0219 17.5029V13.481C77.4322 12.8256 76.5893 12.4549 75.7077 12.4644C74.1933 12.4644 72.8972 13.632 72.8972 15.4908C72.8972 17.3496 74.1722 18.4976 75.6865 18.4976C76.5739 18.5282 77.4293 18.1641 78.0219 17.5021V17.5029Z" fill="black"/>
<path d="M85.8716 10.2818V11.2334C86.7138 10.389 87.6443 10.0869 89.2447 10.0869V12.7689C88.9908 12.7018 88.728 12.6726 88.466 12.6828C87.5304 12.7083 86.6532 13.1433 86.0657 13.8716V20.6609H83.2341V10.2825H85.8716V10.2818Z" fill="black"/>
<path d="M97.7805 10.2815V12.6169H95.4452V20.66H92.6318V12.6169H90.4512V10.2815H92.6318V6.82227H95.4452V10.2815H97.7805Z" fill="black"/>
<path d="M99.3743 6.04297H102.337V8.89721H99.3743V6.04297ZM102.272 20.6594V10.2809H99.4392V20.6594H102.272Z" fill="black"/>
<path d="M114.18 18.5612C113.186 19.9887 111.5 20.8754 109.574 20.8754C107.541 20.8754 105.748 19.9237 104.752 18.2737C103.225 15.688 104.082 12.3528 106.668 10.8254C106.699 10.8064 106.731 10.7881 106.764 10.7699C107.62 10.3087 108.579 10.07 109.553 10.0773C111.606 10.0773 113.142 10.856 114.159 12.4353L111.995 13.7752C111.39 12.9104 110.591 12.474 109.574 12.474C107.931 12.474 106.829 13.7504 106.829 15.5231C106.829 17.2957 107.888 18.4634 109.553 18.4634C110.561 18.4838 111.515 18.0066 112.104 17.1885L114.179 18.5612H114.18Z" fill="black"/>
<path d="M118.849 20.6602H116.039V5.11328H118.849V20.6602Z" fill="black"/>
<path d="M128.58 17.2559C127.943 18.0332 126.983 18.474 125.978 18.4514C124.514 18.4514 123.471 17.6515 123.255 16.1386H131.233C131.25 15.9949 131.257 15.8504 131.254 15.7059C131.254 12.2678 129.114 10.0609 125.978 10.0609C124.971 10.039 123.976 10.2937 123.103 10.7958C121.415 11.7715 120.487 13.4778 120.487 15.4891C120.473 16.8962 121.008 18.2536 121.978 19.2731C122.908 20.2488 124.357 20.8502 125.978 20.8502C127.881 20.8502 129.525 20.0292 130.563 18.5586L128.581 17.2545L128.58 17.2559ZM126.048 12.3772C127.366 12.3772 128.187 13.0049 128.534 14.2798H123.368C123.755 13.0457 124.685 12.3758 126.048 12.3758V12.3772Z" fill="black"/>
</g>
<defs>
<clipPath id="clip0_195_7953">
<rect width="132" height="34.2222" fill="white"/>
</clipPath>
</defs>
</svg>
