<svg width="393" height="398" viewBox="0 0 393 398" fill="none" xmlns="http://www.w3.org/2000/svg">
<rect width="353" height="326" transform="translate(20.5 16)" fill="#FAF9F8"/>
<g filter="url(#filter0_d_1_9214)">
<rect x="20.5" y="16.5" width="352" height="325" rx="15.5" stroke="#BABBB5" shape-rendering="crispEdges"/>
</g>
<rect x="111" y="87" width="170" height="184" rx="16" fill="#ECEAE9"/>
<g filter="url(#filter1_d_1_9214)">
<rect x="137" y="103" width="120" height="72" rx="8" fill="white" shape-rendering="crispEdges"/>
<rect x="137.5" y="103.5" width="119" height="71" rx="7.5" stroke="#EBE8F8" shape-rendering="crispEdges"/>
<rect x="185" y="115" width="24" height="24" rx="12" fill="#EBE8F8"/>
<path opacity="0.4" d="M197.042 126.816L196 126.816L196 127.851L197.042 127.851L197.042 131.126C197.042 131.221 196.948 131.299 196.833 131.299L196 131.299L196 132.333L196.833 132.333C197.638 132.333 198.292 131.792 198.292 131.126L198.292 127.851L199.333 127.851L199.333 126.816L198.292 126.816L198.292 123.54C198.292 122.874 197.638 122.333 196.833 122.333L196 122.333L196 123.368L196.833 123.368C196.948 123.368 197.042 123.445 197.042 123.54L197.042 126.816Z" fill="#3600D1"/>
<path d="M201.333 125.174C201.885 125.174 202.333 125.647 202.333 126.23L202.333 127.637C202.333 128.22 201.885 128.693 201.333 128.693L200 128.693C199.448 128.693 199 128.22 199 127.637L199 126.23C199 125.647 199.448 125.174 200 125.174L201.333 125.174ZM196.333 121.656L196.333 123.063C196.333 123.646 195.885 124.119 195.333 124.119L194 124.119C193.448 124.119 193 123.646 193 123.063L193 121.656C193 121.073 193.448 120.6 194 120.6L195.333 120.6C195.885 120.6 196.333 121.073 196.333 121.656ZM196.333 126.23L196.333 127.637C196.333 128.22 195.885 128.693 195.333 128.693L194 128.693C193.448 128.693 193 128.22 193 127.637L193 126.23C193 125.647 193.448 125.174 194 125.174L195.333 125.174C195.885 125.174 196.333 125.647 196.333 126.23ZM196.333 130.804L196.333 132.211C196.333 132.794 195.885 133.267 195.333 133.267L194 133.267C193.448 133.267 193 132.794 193 132.211L193 130.804C193 130.221 193.448 129.748 194 129.748L195.333 129.748C195.885 129.748 196.333 130.221 196.333 130.804Z" fill="#3600D1"/>
<path d="M159.056 148.48H162.128C162.952 148.48 163.676 148.656 164.3 149.008C164.924 149.36 165.404 149.856 165.74 150.496C166.084 151.136 166.256 151.872 166.256 152.704C166.256 153.544 166.084 154.288 165.74 154.936C165.404 155.584 164.92 156.092 164.288 156.46C163.664 156.82 162.936 157 162.104 157H159.056V148.48ZM162.056 155.788C162.592 155.788 163.052 155.652 163.436 155.38C163.828 155.108 164.124 154.74 164.324 154.276C164.532 153.804 164.636 153.28 164.636 152.704C164.636 151.808 164.412 151.084 163.964 150.532C163.516 149.972 162.888 149.692 162.08 149.692H160.604V155.788H162.056ZM169.297 157.144C168.681 157.144 168.185 156.984 167.809 156.664C167.433 156.336 167.245 155.904 167.245 155.368C167.245 155.08 167.305 154.82 167.425 154.588C167.553 154.356 167.737 154.164 167.977 154.012C168.193 153.884 168.453 153.78 168.757 153.7C169.061 153.612 169.453 153.536 169.933 153.472L171.205 153.316V153.16C171.205 152.712 171.113 152.388 170.929 152.188C170.753 151.98 170.473 151.876 170.089 151.876C169.737 151.876 169.457 151.968 169.249 152.152C169.049 152.328 168.937 152.588 168.913 152.932H167.437C167.485 152.292 167.745 151.788 168.217 151.42C168.689 151.044 169.313 150.856 170.089 150.856C170.977 150.856 171.625 151.056 172.033 151.456C172.449 151.848 172.657 152.48 172.657 153.352V155.14C172.657 155.956 172.717 156.576 172.837 157H171.397C171.341 156.672 171.309 156.328 171.301 155.968C171.157 156.336 170.905 156.624 170.545 156.832C170.193 157.04 169.777 157.144 169.297 157.144ZM169.753 156.124C170.201 156.124 170.561 155.98 170.833 155.692C171.105 155.396 171.241 155.012 171.241 154.54V154.156L169.885 154.36C169.485 154.424 169.193 154.532 169.009 154.684C168.825 154.836 168.733 155.04 168.733 155.296C168.733 155.552 168.821 155.756 168.997 155.908C169.181 156.052 169.433 156.124 169.753 156.124ZM173.542 151H174.622V149.488L176.062 148.912V151H177.526V152.044H176.062V154.912C176.062 155.232 176.134 155.472 176.278 155.632C176.422 155.784 176.642 155.86 176.938 155.86C177.074 155.86 177.27 155.836 177.526 155.788V157C177.174 157.072 176.846 157.108 176.542 157.108C175.854 157.108 175.362 156.94 175.066 156.604C174.77 156.268 174.622 155.78 174.622 155.14V152.044H173.542V151ZM180.359 157.144C179.743 157.144 179.247 156.984 178.871 156.664C178.495 156.336 178.307 155.904 178.307 155.368C178.307 155.08 178.367 154.82 178.487 154.588C178.615 154.356 178.799 154.164 179.039 154.012C179.255 153.884 179.515 153.78 179.819 153.7C180.123 153.612 180.515 153.536 180.995 153.472L182.267 153.316V153.16C182.267 152.712 182.175 152.388 181.991 152.188C181.815 151.98 181.535 151.876 181.151 151.876C180.799 151.876 180.519 151.968 180.311 152.152C180.111 152.328 179.999 152.588 179.975 152.932H178.499C178.547 152.292 178.807 151.788 179.279 151.42C179.751 151.044 180.375 150.856 181.151 150.856C182.039 150.856 182.687 151.056 183.095 151.456C183.511 151.848 183.719 152.48 183.719 153.352V155.14C183.719 155.956 183.779 156.576 183.899 157H182.459C182.403 156.672 182.371 156.328 182.363 155.968C182.219 156.336 181.967 156.624 181.607 156.832C181.255 157.04 180.839 157.144 180.359 157.144ZM180.815 156.124C181.263 156.124 181.623 155.98 181.895 155.692C182.167 155.396 182.303 155.012 182.303 154.54V154.156L180.947 154.36C180.547 154.424 180.255 154.532 180.071 154.684C179.887 154.836 179.795 155.04 179.795 155.296C179.795 155.552 179.883 155.756 180.059 155.908C180.243 156.052 180.495 156.124 180.815 156.124ZM192.006 148.48C192.606 148.48 193.13 148.588 193.578 148.804C194.026 149.012 194.37 149.312 194.61 149.704C194.858 150.096 194.982 150.552 194.982 151.072C194.982 151.88 194.714 152.52 194.178 152.992C193.642 153.464 192.914 153.7 191.994 153.7H190.182V157H188.634V148.48H192.006ZM191.718 152.524C192.222 152.524 192.618 152.396 192.906 152.14C193.202 151.884 193.35 151.536 193.35 151.096C193.35 150.656 193.202 150.308 192.906 150.052C192.618 149.796 192.222 149.668 191.718 149.668H190.182V152.524H191.718ZM197.644 157H196.204V148.3H197.644V157ZM201.136 157.144C200.52 157.144 200.024 156.984 199.648 156.664C199.272 156.336 199.084 155.904 199.084 155.368C199.084 155.08 199.144 154.82 199.264 154.588C199.392 154.356 199.576 154.164 199.816 154.012C200.032 153.884 200.292 153.78 200.596 153.7C200.9 153.612 201.292 153.536 201.772 153.472L203.044 153.316V153.16C203.044 152.712 202.952 152.388 202.768 152.188C202.592 151.98 202.312 151.876 201.928 151.876C201.576 151.876 201.296 151.968 201.088 152.152C200.888 152.328 200.776 152.588 200.752 152.932H199.276C199.324 152.292 199.584 151.788 200.056 151.42C200.528 151.044 201.152 150.856 201.928 150.856C202.816 150.856 203.464 151.056 203.872 151.456C204.288 151.848 204.496 152.48 204.496 153.352V155.14C204.496 155.956 204.556 156.576 204.676 157H203.236C203.18 156.672 203.148 156.328 203.14 155.968C202.996 156.336 202.744 156.624 202.384 156.832C202.032 157.04 201.616 157.144 201.136 157.144ZM201.592 156.124C202.04 156.124 202.4 155.98 202.672 155.692C202.944 155.396 203.08 155.012 203.08 154.54V154.156L201.724 154.36C201.324 154.424 201.032 154.532 200.848 154.684C200.664 154.836 200.572 155.04 200.572 155.296C200.572 155.552 200.66 155.756 200.836 155.908C201.02 156.052 201.272 156.124 201.592 156.124ZM205.382 151H206.462V149.488L207.902 148.912V151H209.366V152.044H207.902V154.912C207.902 155.232 207.974 155.472 208.118 155.632C208.262 155.784 208.482 155.86 208.778 155.86C208.914 155.86 209.11 155.836 209.366 155.788V157C209.014 157.072 208.686 157.108 208.382 157.108C207.694 157.108 207.202 156.94 206.906 156.604C206.61 156.268 206.462 155.78 206.462 155.14V152.044H205.382V151ZM214.148 152.044H212.696V157H211.256V152.044H210.224V151H211.256V150.232C211.256 149.608 211.436 149.12 211.796 148.768C212.156 148.408 212.656 148.228 213.296 148.228C213.584 148.228 213.868 148.26 214.148 148.324V149.44C213.908 149.4 213.704 149.38 213.536 149.38C213.248 149.38 213.036 149.46 212.9 149.62C212.764 149.772 212.696 150.008 212.696 150.328V151H214.148V152.044ZM217.646 157.144C217.07 157.144 216.558 157.02 216.11 156.772C215.67 156.524 215.326 156.164 215.078 155.692C214.83 155.212 214.706 154.644 214.706 153.988C214.706 153.332 214.83 152.768 215.078 152.296C215.326 151.824 215.67 151.468 216.11 151.228C216.558 150.98 217.07 150.856 217.646 150.856C218.222 150.856 218.73 150.98 219.17 151.228C219.618 151.468 219.966 151.824 220.214 152.296C220.462 152.768 220.586 153.332 220.586 153.988C220.586 154.644 220.462 155.212 220.214 155.692C219.966 156.164 219.618 156.524 219.17 156.772C218.73 157.02 218.222 157.144 217.646 157.144ZM217.646 156.052C218.11 156.052 218.47 155.88 218.726 155.536C218.982 155.184 219.11 154.668 219.11 153.988C219.11 153.316 218.982 152.808 218.726 152.464C218.478 152.12 218.118 151.948 217.646 151.948C217.174 151.948 216.81 152.12 216.554 152.464C216.298 152.808 216.17 153.316 216.17 153.988C216.17 154.66 216.298 155.172 216.554 155.524C216.81 155.876 217.174 156.052 217.646 156.052ZM223.351 152.452C223.511 151.956 223.751 151.568 224.071 151.288C224.391 151 224.787 150.856 225.259 150.856C225.331 150.856 225.387 150.86 225.427 150.868V152.248L225.235 152.236C224.707 152.236 224.291 152.38 223.987 152.668C223.771 152.876 223.627 153.132 223.555 153.436C223.483 153.732 223.447 154.08 223.447 154.48V157H222.007V151H223.351V152.452ZM227.98 151V152.056C228.34 151.256 228.932 150.856 229.756 150.856C230.604 150.856 231.172 151.26 231.46 152.068C231.868 151.26 232.492 150.856 233.332 150.856C233.908 150.856 234.356 151.052 234.676 151.444C235.004 151.828 235.168 152.372 235.168 153.076V157H233.728V153.304C233.728 152.44 233.4 152.008 232.744 152.008C232.376 152.008 232.092 152.136 231.892 152.392C231.7 152.648 231.604 153.016 231.604 153.496V157H230.164V153.268C230.164 152.852 230.08 152.54 229.912 152.332C229.752 152.116 229.512 152.008 229.192 152.008C228.832 152.008 228.552 152.144 228.352 152.416C228.152 152.68 228.052 153.052 228.052 153.532V157H226.612V151H227.98Z" fill="black"/>
</g>
<g filter="url(#filter2_d_1_9214)">
<rect x="136" y="187" width="120" height="72" rx="8" fill="white" shape-rendering="crispEdges"/>
<rect x="136.5" y="187.5" width="119" height="71" rx="7.5" stroke="#EBE8F8" shape-rendering="crispEdges"/>
<rect x="184" y="199" width="24" height="24" rx="12" fill="#EBE8F8"/>
<g clip-path="url(#clip0_1_9214)">
<path opacity="0.4" d="M190.556 205.75C189.698 205.75 189 206.423 189 207.25V214.75C189 215.577 189.698 216.25 190.556 216.25H201.444C202.302 216.25 203 215.577 203 214.75V207.25C203 206.423 202.302 205.75 201.444 205.75H190.556ZM192.5 211.75H194.056C195.13 211.75 196 212.589 196 213.625C196 213.831 195.825 214 195.611 214H190.944C190.731 214 190.556 213.831 190.556 213.625C190.556 212.589 191.426 211.75 192.5 211.75ZM191.722 209.5C191.722 209.102 191.886 208.721 192.178 208.439C192.47 208.158 192.865 208 193.278 208C193.69 208 194.086 208.158 194.378 208.439C194.669 208.721 194.833 209.102 194.833 209.5C194.833 209.898 194.669 210.279 194.378 210.561C194.086 210.842 193.69 211 193.278 211C192.865 211 192.47 210.842 192.178 210.561C191.886 210.279 191.722 209.898 191.722 209.5ZM197.944 208.75H201.056C201.269 208.75 201.444 208.919 201.444 209.125C201.444 209.331 201.269 209.5 201.056 209.5H197.944C197.731 209.5 197.556 209.331 197.556 209.125C197.556 208.919 197.731 208.75 197.944 208.75ZM197.944 210.25H201.056C201.269 210.25 201.444 210.419 201.444 210.625C201.444 210.831 201.269 211 201.056 211H197.944C197.731 211 197.556 210.831 197.556 210.625C197.556 210.419 197.731 210.25 197.944 210.25ZM197.944 211.75H201.056C201.269 211.75 201.444 211.919 201.444 212.125C201.444 212.331 201.269 212.5 201.056 212.5H197.944C197.731 212.5 197.556 212.331 197.556 212.125C197.556 211.919 197.731 211.75 197.944 211.75Z" fill="#3600D1"/>
<path d="M193.278 211C193.69 211 194.086 210.842 194.378 210.561C194.669 210.279 194.833 209.898 194.833 209.5C194.833 209.102 194.669 208.721 194.378 208.439C194.086 208.158 193.69 208 193.278 208C192.865 208 192.47 208.158 192.178 208.439C191.886 208.721 191.722 209.102 191.722 209.5C191.722 209.898 191.886 210.279 192.178 210.561C192.47 210.842 192.865 211 193.278 211ZM192.5 211.75C191.426 211.75 190.556 212.589 190.556 213.625C190.556 213.831 190.731 214 190.944 214H195.611C195.825 214 196 213.831 196 213.625C196 212.589 195.13 211.75 194.056 211.75H192.5Z" fill="#3600D1"/>
</g>
<path d="M160.44 241.204C159.576 241.204 158.844 241.016 158.244 240.64C157.644 240.256 157.196 239.728 156.9 239.056C156.604 238.384 156.456 237.608 156.456 236.728C156.456 235.84 156.612 235.064 156.924 234.4C157.244 233.728 157.704 233.208 158.304 232.84C158.904 232.464 159.624 232.276 160.464 232.276C161.504 232.276 162.328 232.548 162.936 233.092C163.544 233.636 163.908 234.372 164.028 235.3L162.444 235.528C162.372 234.912 162.16 234.428 161.808 234.076C161.456 233.724 160.992 233.548 160.416 233.548C159.672 233.548 159.092 233.836 158.676 234.412C158.26 234.98 158.052 235.748 158.052 236.716C158.052 237.676 158.26 238.448 158.676 239.032C159.1 239.616 159.692 239.908 160.452 239.908C160.996 239.908 161.444 239.74 161.796 239.404C162.156 239.06 162.392 238.584 162.504 237.976L164.04 238.288C163.848 239.184 163.448 239.896 162.84 240.424C162.24 240.944 161.44 241.204 160.44 241.204ZM167.34 241.144C165.988 241.144 165.312 240.38 165.312 238.852V235H166.752V238.636C166.752 239.076 166.84 239.412 167.016 239.644C167.2 239.876 167.464 239.992 167.808 239.992C168.208 239.992 168.528 239.84 168.768 239.536C169.008 239.232 169.128 238.828 169.128 238.324V235H170.58V241H169.212V239.884C169.068 240.26 168.824 240.564 168.48 240.796C168.144 241.028 167.764 241.144 167.34 241.144ZM174.671 241.144C173.983 241.144 173.395 241.004 172.907 240.724C172.427 240.444 172.091 240.04 171.899 239.512L172.979 239.032C173.115 239.368 173.327 239.628 173.615 239.812C173.911 239.996 174.271 240.088 174.695 240.088C175.055 240.088 175.331 240.02 175.523 239.884C175.723 239.748 175.823 239.568 175.823 239.344C175.823 239.136 175.755 238.98 175.619 238.876C175.491 238.772 175.271 238.696 174.959 238.648L173.891 238.456C173.331 238.352 172.903 238.156 172.607 237.868C172.319 237.572 172.175 237.184 172.175 236.704C172.175 236.152 172.395 235.708 172.835 235.372C173.275 235.028 173.871 234.856 174.623 234.856C175.263 234.856 175.807 234.98 176.255 235.228C176.711 235.468 177.011 235.804 177.155 236.236L176.159 236.776C176.007 236.496 175.795 236.28 175.523 236.128C175.259 235.976 174.935 235.9 174.551 235.9C174.215 235.9 173.955 235.964 173.771 236.092C173.587 236.212 173.495 236.388 173.495 236.62C173.495 236.82 173.559 236.972 173.687 237.076C173.823 237.18 174.027 237.256 174.299 237.304L175.475 237.52C176.043 237.624 176.459 237.82 176.723 238.108C176.995 238.388 177.131 238.768 177.131 239.248C177.131 239.824 176.911 240.284 176.471 240.628C176.039 240.972 175.439 241.144 174.671 241.144ZM177.8 235H178.88V233.488L180.32 232.912V235H181.784V236.044H180.32V238.912C180.32 239.232 180.392 239.472 180.536 239.632C180.68 239.784 180.9 239.86 181.196 239.86C181.332 239.86 181.528 239.836 181.784 239.788V241C181.432 241.072 181.104 241.108 180.8 241.108C180.112 241.108 179.62 240.94 179.324 240.604C179.028 240.268 178.88 239.78 178.88 239.14V236.044H177.8V235ZM185.482 241.144C184.906 241.144 184.394 241.02 183.946 240.772C183.506 240.524 183.162 240.164 182.914 239.692C182.666 239.212 182.542 238.644 182.542 237.988C182.542 237.332 182.666 236.768 182.914 236.296C183.162 235.824 183.506 235.468 183.946 235.228C184.394 234.98 184.906 234.856 185.482 234.856C186.058 234.856 186.566 234.98 187.006 235.228C187.454 235.468 187.802 235.824 188.05 236.296C188.298 236.768 188.422 237.332 188.422 237.988C188.422 238.644 188.298 239.212 188.05 239.692C187.802 240.164 187.454 240.524 187.006 240.772C186.566 241.02 186.058 241.144 185.482 241.144ZM185.482 240.052C185.946 240.052 186.306 239.88 186.562 239.536C186.818 239.184 186.946 238.668 186.946 237.988C186.946 237.316 186.818 236.808 186.562 236.464C186.314 236.12 185.954 235.948 185.482 235.948C185.01 235.948 184.646 236.12 184.39 236.464C184.134 236.808 184.006 237.316 184.006 237.988C184.006 238.66 184.134 239.172 184.39 239.524C184.646 239.876 185.01 240.052 185.482 240.052ZM191.211 235V236.056C191.571 235.256 192.163 234.856 192.987 234.856C193.835 234.856 194.403 235.26 194.691 236.068C195.099 235.26 195.723 234.856 196.563 234.856C197.139 234.856 197.587 235.052 197.907 235.444C198.235 235.828 198.399 236.372 198.399 237.076V241H196.959V237.304C196.959 236.44 196.631 236.008 195.975 236.008C195.607 236.008 195.323 236.136 195.123 236.392C194.931 236.648 194.835 237.016 194.835 237.496V241H193.395V237.268C193.395 236.852 193.311 236.54 193.143 236.332C192.983 236.116 192.743 236.008 192.423 236.008C192.063 236.008 191.783 236.144 191.583 236.416C191.383 236.68 191.283 237.052 191.283 237.532V241H189.843V235H191.211ZM205.267 238.36H201.055C201.063 238.864 201.211 239.268 201.499 239.572C201.795 239.868 202.179 240.016 202.651 240.016C202.995 240.016 203.291 239.932 203.539 239.764C203.787 239.596 203.979 239.348 204.115 239.02L205.219 239.524C204.995 240.044 204.655 240.444 204.199 240.724C203.751 241.004 203.219 241.144 202.603 241.144C201.683 241.144 200.963 240.876 200.443 240.34C199.923 239.796 199.663 239.036 199.663 238.06C199.663 237.068 199.915 236.288 200.419 235.72C200.931 235.144 201.635 234.856 202.531 234.856C203.403 234.856 204.075 235.104 204.547 235.6C205.027 236.088 205.267 236.788 205.267 237.7V238.36ZM203.851 237.316C203.851 236.828 203.735 236.456 203.503 236.2C203.271 235.944 202.939 235.816 202.507 235.816C202.051 235.816 201.699 235.956 201.451 236.236C201.203 236.516 201.071 236.908 201.055 237.412H203.851V237.316ZM208.085 236.452C208.245 235.956 208.485 235.568 208.805 235.288C209.125 235 209.521 234.856 209.993 234.856C210.065 234.856 210.121 234.86 210.161 234.868V236.248L209.969 236.236C209.441 236.236 209.025 236.38 208.721 236.668C208.505 236.876 208.361 237.132 208.289 237.436C208.217 237.732 208.181 238.08 208.181 238.48V241H206.741V235H208.085V236.452ZM216.902 241.18C216.286 241.18 215.746 241.072 215.282 240.856C214.818 240.64 214.458 240.336 214.202 239.944C213.946 239.544 213.814 239.08 213.806 238.552L215.27 238.396C215.286 238.9 215.442 239.296 215.738 239.584C216.042 239.864 216.442 240.004 216.938 240.004C217.418 240.004 217.782 239.884 218.03 239.644C218.286 239.404 218.414 239.056 218.414 238.6C218.414 238.16 218.274 237.828 217.994 237.604C217.714 237.372 217.298 237.256 216.746 237.256H216.278V236.164H216.71C217.19 236.164 217.554 236.052 217.802 235.828C218.05 235.604 218.174 235.288 218.174 234.88C218.174 234.488 218.054 234.184 217.814 233.968C217.582 233.752 217.25 233.644 216.818 233.644C216.346 233.644 215.982 233.792 215.726 234.088C215.478 234.384 215.354 234.804 215.354 235.348L213.914 235.108C213.914 234.3 214.182 233.66 214.718 233.188C215.254 232.716 215.982 232.48 216.902 232.48C217.782 232.48 218.462 232.68 218.942 233.08C219.43 233.472 219.674 234.016 219.674 234.712C219.674 235.184 219.53 235.596 219.242 235.948C218.962 236.292 218.578 236.52 218.09 236.632C218.698 236.728 219.158 236.948 219.47 237.292C219.782 237.628 219.938 238.08 219.938 238.648C219.938 239.432 219.666 240.052 219.122 240.508C218.578 240.956 217.838 241.18 216.902 241.18ZM224.485 235.408C225.269 235.408 225.893 235.664 226.357 236.176C226.821 236.68 227.053 237.364 227.053 238.228C227.053 238.804 226.929 239.316 226.681 239.764C226.441 240.212 226.101 240.56 225.661 240.808C225.221 241.056 224.717 241.18 224.149 241.18C223.117 241.18 222.325 240.82 221.773 240.1C221.229 239.38 220.957 238.344 220.957 236.992C220.957 235.568 221.241 234.46 221.809 233.668C222.385 232.876 223.189 232.48 224.221 232.48C224.989 232.48 225.601 232.66 226.057 233.02C226.521 233.38 226.817 233.908 226.945 234.604L225.517 234.868C225.349 234.052 224.909 233.644 224.197 233.644C223.629 233.644 223.189 233.892 222.877 234.388C222.565 234.876 222.401 235.588 222.385 236.524C222.585 236.164 222.865 235.888 223.225 235.696C223.585 235.504 224.005 235.408 224.485 235.408ZM224.137 240.016C224.593 240.016 224.953 239.86 225.217 239.548C225.489 239.228 225.625 238.8 225.625 238.264C225.625 237.736 225.485 237.316 225.205 237.004C224.933 236.692 224.565 236.536 224.101 236.536C223.701 236.536 223.349 236.664 223.045 236.92C222.749 237.168 222.537 237.524 222.409 237.988C222.473 238.612 222.657 239.108 222.961 239.476C223.273 239.836 223.665 240.016 224.137 240.016ZM231.384 241.18C230.304 241.18 229.468 240.796 228.876 240.028C228.292 239.26 228 238.196 228 236.836C228 235.468 228.292 234.4 228.876 233.632C229.468 232.864 230.304 232.48 231.384 232.48C232.464 232.48 233.3 232.864 233.892 233.632C234.484 234.4 234.78 235.468 234.78 236.836C234.78 238.196 234.484 239.26 233.892 240.028C233.3 240.796 232.464 241.18 231.384 241.18ZM231.384 240.004C232 240.004 232.468 239.728 232.788 239.176C233.116 238.624 233.28 237.844 233.28 236.836C233.28 235.82 233.116 235.036 232.788 234.484C232.468 233.932 232 233.656 231.384 233.656C230.768 233.656 230.3 233.932 229.98 234.484C229.66 235.036 229.5 235.82 229.5 236.836C229.5 237.844 229.66 238.624 229.98 239.176C230.3 239.728 230.768 240.004 231.384 240.004Z" fill="black"/>
</g>
<g filter="url(#filter3_d_1_9214)">
<rect x="137" y="6" width="120" height="72" rx="8" fill="white" shape-rendering="crispEdges"/>
<rect x="137.5" y="6.5" width="119" height="71" rx="7.5" stroke="#EBE8F8" shape-rendering="crispEdges"/>
<rect x="185" y="18" width="24" height="24" rx="12" fill="#EBE8F8"/>
<g clip-path="url(#clip1_1_9214)">
<path opacity="0.4" d="M197.366 23.0793C197.252 23.0273 197.129 23 197 23C196.871 23 196.748 23.0273 196.634 23.0793L191.485 25.2641C190.883 25.5184 190.435 26.1117 190.438 26.8281C190.451 29.5406 191.567 34.5035 196.278 36.7594C196.735 36.9781 197.265 36.9781 197.722 36.7594C202.433 34.5035 203.549 29.5406 203.563 26.8281C203.565 26.1117 203.117 25.5184 202.515 25.2641L197.366 23.0793ZM198.531 28.6875C198.531 29.2973 198.173 29.825 197.656 30.0711V31.9687C197.656 32.3324 197.364 32.625 197 32.625C196.636 32.625 196.344 32.3324 196.344 31.9687V30.0711C195.827 29.825 195.469 29.2973 195.469 28.6875C195.469 27.8426 196.155 27.1562 197 27.1562C197.845 27.1562 198.531 27.8426 198.531 28.6875Z" fill="#3600D1"/>
<path d="M197.656 30.0711C198.173 29.825 198.531 29.2973 198.531 28.6875C198.531 27.8426 197.845 27.1562 197 27.1562C196.155 27.1562 195.469 27.8426 195.469 28.6875C195.469 29.2973 195.827 29.825 196.344 30.0711V31.9688C196.344 32.3324 196.636 32.625 197 32.625C197.364 32.625 197.656 32.3324 197.656 31.9688V30.0711Z" fill="#3600D1"/>
</g>
<path d="M174.488 60.204C173.68 60.204 172.972 60.024 172.364 59.664C171.756 59.296 171.284 58.776 170.948 58.104C170.62 57.424 170.456 56.636 170.456 55.74C170.456 54.828 170.62 54.036 170.948 53.364C171.284 52.692 171.752 52.176 172.352 51.816C172.96 51.456 173.672 51.276 174.488 51.276C175.304 51.276 176.012 51.456 176.612 51.816C177.22 52.176 177.688 52.692 178.016 53.364C178.352 54.036 178.52 54.828 178.52 55.74C178.52 56.644 178.352 57.432 178.016 58.104C177.688 58.776 177.22 59.296 176.612 59.664C176.004 60.024 175.296 60.204 174.488 60.204ZM174.488 58.956C175.256 58.956 175.852 58.672 176.276 58.104C176.7 57.536 176.912 56.748 176.912 55.74C176.912 54.732 176.7 53.944 176.276 53.376C175.852 52.808 175.256 52.524 174.488 52.524C173.728 52.524 173.132 52.808 172.7 53.376C172.276 53.944 172.064 54.732 172.064 55.74C172.064 56.732 172.276 57.516 172.7 58.092C173.132 58.668 173.728 58.956 174.488 58.956ZM179.225 54H180.737L181.913 57.804C182.009 58.108 182.081 58.404 182.129 58.692H182.165C182.213 58.404 182.285 58.108 182.381 57.804L183.545 54H185.057L182.921 60H181.361L179.225 54ZM191.083 57.36H186.871C186.879 57.864 187.027 58.268 187.315 58.572C187.611 58.868 187.995 59.016 188.467 59.016C188.811 59.016 189.107 58.932 189.355 58.764C189.603 58.596 189.795 58.348 189.931 58.02L191.035 58.524C190.811 59.044 190.471 59.444 190.015 59.724C189.567 60.004 189.035 60.144 188.419 60.144C187.499 60.144 186.779 59.876 186.259 59.34C185.739 58.796 185.479 58.036 185.479 57.06C185.479 56.068 185.731 55.288 186.235 54.72C186.747 54.144 187.451 53.856 188.347 53.856C189.219 53.856 189.891 54.104 190.363 54.6C190.843 55.088 191.083 55.788 191.083 56.7V57.36ZM189.667 56.316C189.667 55.828 189.551 55.456 189.319 55.2C189.087 54.944 188.755 54.816 188.323 54.816C187.867 54.816 187.515 54.956 187.267 55.236C187.019 55.516 186.887 55.908 186.871 56.412H189.667V56.316ZM193.902 55.452C194.062 54.956 194.302 54.568 194.622 54.288C194.942 54 195.338 53.856 195.81 53.856C195.882 53.856 195.938 53.86 195.978 53.868V55.248L195.786 55.236C195.258 55.236 194.842 55.38 194.538 55.668C194.322 55.876 194.178 56.132 194.106 56.436C194.034 56.732 193.998 57.08 193.998 57.48V60H192.558V54H193.902V55.452ZM199.3 60.144C198.612 60.144 198.024 60.004 197.536 59.724C197.056 59.444 196.72 59.04 196.528 58.512L197.608 58.032C197.744 58.368 197.956 58.628 198.244 58.812C198.54 58.996 198.9 59.088 199.324 59.088C199.684 59.088 199.96 59.02 200.152 58.884C200.352 58.748 200.452 58.568 200.452 58.344C200.452 58.136 200.384 57.98 200.248 57.876C200.12 57.772 199.9 57.696 199.588 57.648L198.52 57.456C197.96 57.352 197.532 57.156 197.236 56.868C196.948 56.572 196.804 56.184 196.804 55.704C196.804 55.152 197.024 54.708 197.464 54.372C197.904 54.028 198.5 53.856 199.252 53.856C199.892 53.856 200.436 53.98 200.884 54.228C201.34 54.468 201.64 54.804 201.784 55.236L200.788 55.776C200.636 55.496 200.424 55.28 200.152 55.128C199.888 54.976 199.564 54.9 199.18 54.9C198.844 54.9 198.584 54.964 198.4 55.092C198.216 55.212 198.124 55.388 198.124 55.62C198.124 55.82 198.188 55.972 198.316 56.076C198.452 56.18 198.656 56.256 198.928 56.304L200.104 56.52C200.672 56.624 201.088 56.82 201.352 57.108C201.624 57.388 201.76 57.768 201.76 58.248C201.76 58.824 201.54 59.284 201.1 59.628C200.668 59.972 200.068 60.144 199.3 60.144ZM203.187 54H204.627V60H203.187V54ZM203.115 51.504H204.675V53.004H203.115V51.504ZM211.53 54.048C211.13 54.048 210.846 54.176 210.678 54.432C211.102 54.808 211.314 55.288 211.314 55.872C211.314 56.272 211.214 56.628 211.014 56.94C210.814 57.244 210.526 57.484 210.15 57.66C209.782 57.836 209.346 57.924 208.842 57.924C208.378 57.924 207.978 57.852 207.642 57.708C207.442 57.812 207.342 57.964 207.342 58.164C207.342 58.532 207.646 58.716 208.254 58.716H209.826C210.522 58.716 211.05 58.864 211.41 59.16C211.77 59.456 211.95 59.884 211.95 60.444C211.95 61.076 211.678 61.572 211.134 61.932C210.598 62.3 209.802 62.484 208.746 62.484C207.77 62.484 207.054 62.34 206.598 62.052C206.15 61.772 205.926 61.4 205.926 60.936C205.926 60.672 206.01 60.436 206.178 60.228C206.354 60.02 206.602 59.864 206.922 59.76C206.418 59.552 206.166 59.192 206.166 58.68C206.166 58.376 206.246 58.12 206.406 57.912C206.574 57.696 206.81 57.528 207.114 57.408C206.882 57.224 206.702 57 206.574 56.736C206.446 56.472 206.382 56.184 206.382 55.872C206.382 55.272 206.602 54.788 207.042 54.42C207.49 54.044 208.09 53.856 208.842 53.856C209.322 53.856 209.746 53.936 210.114 54.096C210.21 53.752 210.39 53.484 210.654 53.292C210.926 53.092 211.27 52.992 211.686 52.992C211.79 52.992 211.902 53.004 212.022 53.028V54.108C211.846 54.068 211.682 54.048 211.53 54.048ZM208.842 57.048C209.17 57.048 209.434 56.94 209.634 56.724C209.842 56.508 209.946 56.228 209.946 55.884C209.946 55.54 209.846 55.264 209.646 55.056C209.446 54.84 209.178 54.732 208.842 54.732C208.506 54.732 208.238 54.84 208.038 55.056C207.838 55.264 207.738 55.536 207.738 55.872C207.738 56.216 207.838 56.5 208.038 56.724C208.238 56.94 208.506 57.048 208.842 57.048ZM208.05 59.952C207.922 59.952 207.754 59.944 207.546 59.928C207.266 60.104 207.126 60.352 207.126 60.672C207.126 61.256 207.698 61.548 208.842 61.548C210.042 61.548 210.642 61.26 210.642 60.684C210.642 60.196 210.298 59.952 209.61 59.952H208.05ZM213.243 51.3H214.683V55.104C215.043 54.272 215.687 53.856 216.615 53.856C217.263 53.856 217.755 54.06 218.091 54.468C218.427 54.876 218.595 55.476 218.595 56.268V60H217.155V56.388C217.155 55.932 217.059 55.588 216.867 55.356C216.683 55.124 216.407 55.008 216.039 55.008C215.607 55.008 215.271 55.168 215.031 55.488C214.799 55.8 214.683 56.244 214.683 56.82V60H213.243V51.3ZM219.409 54H220.489V52.488L221.929 51.912V54H223.393V55.044H221.929V57.912C221.929 58.232 222.001 58.472 222.145 58.632C222.289 58.784 222.509 58.86 222.805 58.86C222.941 58.86 223.137 58.836 223.393 58.788V60C223.041 60.072 222.713 60.108 222.409 60.108C221.721 60.108 221.229 59.94 220.933 59.604C220.637 59.268 220.489 58.78 220.489 58.14V55.044H219.409V54Z" fill="black"/>
</g>
<g filter="url(#filter4_d_1_9214)">
<rect x="11" y="318" width="120" height="72" rx="8" fill="white" shape-rendering="crispEdges"/>
<rect x="11.5" y="318.5" width="119" height="71" rx="7.5" stroke="#EBE8F8" shape-rendering="crispEdges"/>
<rect x="59" y="330" width="24" height="24" rx="12" fill="#EBE8F8"/>
<path opacity="0.4" d="M72.6758 337.997L74 337.5L74.4969 336.176C74.5367 336.07 74.6375 336 74.75 336C74.8625 336 74.9633 336.07 75.0031 336.176L75.5 337.5L76.8242 337.997C76.9297 338.037 77 338.138 77 338.25C77 338.363 76.9297 338.463 76.8242 338.503L75.5 339L75.0031 340.324C74.9633 340.43 74.8625 340.5 74.75 340.5C74.6375 340.5 74.5367 340.43 74.4969 340.324L74 339L72.6758 338.503C72.5703 338.463 72.5 338.363 72.5 338.25C72.5 338.138 72.5703 338.037 72.6758 337.997ZM72.6758 345.497L74 345L74.4969 343.676C74.5367 343.57 74.6375 343.5 74.75 343.5C74.8625 343.5 74.9633 343.57 75.0031 343.676L75.5 345L76.8242 345.497C76.9297 345.537 77 345.638 77 345.75C77 345.863 76.9297 345.963 76.8242 346.003L75.5 346.5L75.0031 347.824C74.9633 347.93 74.8625 348 74.75 348C74.6375 348 74.5367 347.93 74.4969 347.824L74 346.5L72.6758 346.003C72.5703 345.963 72.5 345.863 72.5 345.75C72.5 345.638 72.5703 345.537 72.6758 345.497Z" fill="#3600D1"/>
<path d="M69.807 337.718C69.7461 337.584 69.6125 337.5 69.4672 337.5C69.3219 337.5 69.1883 337.584 69.1273 337.718L67.8922 340.392L65.218 341.625C65.0844 341.686 65 341.82 65 341.967C65 342.115 65.0844 342.246 65.218 342.307L67.8922 343.542L69.125 346.214C69.1859 346.348 69.3195 346.432 69.4648 346.432C69.6102 346.432 69.7438 346.348 69.8047 346.214L71.0398 343.54L73.7141 342.305C73.8477 342.244 73.932 342.11 73.932 341.965C73.932 341.82 73.8477 341.686 73.7141 341.625L71.0422 340.392L69.807 337.718Z" fill="#3600D1"/>
<path d="M43.428 363.48C44.028 363.48 44.552 363.588 45 363.804C45.448 364.012 45.792 364.312 46.032 364.704C46.28 365.096 46.404 365.552 46.404 366.072C46.404 366.88 46.136 367.52 45.6 367.992C45.064 368.464 44.336 368.7 43.416 368.7H41.604V372H40.056V363.48H43.428ZM43.14 367.524C43.644 367.524 44.04 367.396 44.328 367.14C44.624 366.884 44.772 366.536 44.772 366.096C44.772 365.656 44.624 365.308 44.328 365.052C44.04 364.796 43.644 364.668 43.14 364.668H41.604V367.524H43.14ZM48.9095 367.452C49.0695 366.956 49.3095 366.568 49.6295 366.288C49.9495 366 50.3455 365.856 50.8175 365.856C50.8895 365.856 50.9455 365.86 50.9855 365.868V367.248L50.7935 367.236C50.2655 367.236 49.8495 367.38 49.5455 367.668C49.3295 367.876 49.1855 368.132 49.1135 368.436C49.0415 368.732 49.0055 369.08 49.0055 369.48V372H47.5655V366H48.9095V367.452ZM57.2123 369.36H53.0003C53.0083 369.864 53.1563 370.268 53.4443 370.572C53.7403 370.868 54.1243 371.016 54.5963 371.016C54.9403 371.016 55.2363 370.932 55.4843 370.764C55.7323 370.596 55.9243 370.348 56.0603 370.02L57.1643 370.524C56.9403 371.044 56.6003 371.444 56.1443 371.724C55.6963 372.004 55.1643 372.144 54.5483 372.144C53.6283 372.144 52.9083 371.876 52.3883 371.34C51.8683 370.796 51.6083 370.036 51.6083 369.06C51.6083 368.068 51.8603 367.288 52.3643 366.72C52.8763 366.144 53.5803 365.856 54.4763 365.856C55.3483 365.856 56.0203 366.104 56.4923 366.6C56.9723 367.088 57.2123 367.788 57.2123 368.7V369.36ZM55.7963 368.316C55.7963 367.828 55.6803 367.456 55.4483 367.2C55.2163 366.944 54.8843 366.816 54.4523 366.816C53.9963 366.816 53.6443 366.956 53.3963 367.236C53.1483 367.516 53.0163 367.908 53.0003 368.412H55.7963V368.316ZM60.6537 372.144C60.1737 372.144 59.7497 372.016 59.3817 371.76C59.0137 371.496 58.7297 371.128 58.5297 370.656C58.3297 370.176 58.2297 369.628 58.2297 369.012C58.2297 368.388 58.3337 367.84 58.5417 367.368C58.7577 366.888 59.0577 366.516 59.4417 366.252C59.8257 365.988 60.2657 365.856 60.7617 365.856C61.5857 365.856 62.1617 366.188 62.4897 366.852V363.3H63.9297V372H62.5737V370.92C62.4057 371.304 62.1537 371.604 61.8177 371.82C61.4897 372.036 61.1017 372.144 60.6537 372.144ZM61.1457 371.04C61.5697 371.04 61.9057 370.876 62.1537 370.548C62.4017 370.212 62.5257 369.764 62.5257 369.204V368.82C62.5257 368.236 62.4017 367.78 62.1537 367.452C61.9057 367.124 61.5657 366.96 61.1337 366.96C60.6937 366.96 60.3497 367.14 60.1017 367.5C59.8537 367.852 59.7297 368.348 59.7297 368.988C59.7297 369.628 59.8537 370.132 60.1017 370.5C60.3577 370.86 60.7057 371.04 61.1457 371.04ZM65.9053 366H67.3453V372H65.9053V366ZM65.8333 363.504H67.3933V365.004H65.8333V363.504ZM71.6929 372.144C71.1009 372.144 70.5809 372.016 70.1329 371.76C69.6929 371.496 69.3529 371.128 69.1129 370.656C68.8729 370.184 68.7529 369.632 68.7529 369C68.7529 368.024 69.0169 367.256 69.5449 366.696C70.0729 366.136 70.7929 365.856 71.7049 365.856C72.4489 365.856 73.0529 366.048 73.5169 366.432C73.9809 366.808 74.2569 367.336 74.3449 368.016L72.9409 368.244C72.8929 367.836 72.7569 367.524 72.5329 367.308C72.3169 367.092 72.0289 366.984 71.6689 366.984C71.2209 366.984 70.8689 367.16 70.6129 367.512C70.3569 367.864 70.2289 368.348 70.2289 368.964C70.2289 369.612 70.3569 370.116 70.6129 370.476C70.8689 370.828 71.2289 371.004 71.6929 371.004C72.0529 371.004 72.3409 370.896 72.5569 370.68C72.7809 370.464 72.9249 370.144 72.9889 369.72L74.3449 369.996C74.2409 370.66 73.9489 371.184 73.4689 371.568C72.9969 371.952 72.4049 372.144 71.6929 372.144ZM74.8859 366H75.9659V364.488L77.4059 363.912V366H78.8699V367.044H77.4059V369.912C77.4059 370.232 77.4779 370.472 77.6219 370.632C77.7659 370.784 77.9859 370.86 78.2819 370.86C78.4179 370.86 78.6139 370.836 78.8699 370.788V372C78.5179 372.072 78.1899 372.108 77.8859 372.108C77.1979 372.108 76.7059 371.94 76.4099 371.604C76.1139 371.268 75.9659 370.78 75.9659 370.14V367.044H74.8859V366ZM80.1905 366H81.6305V372H80.1905V366ZM80.1185 363.504H81.6785V365.004H80.1185V363.504ZM85.978 372.144C85.402 372.144 84.89 372.02 84.442 371.772C84.002 371.524 83.658 371.164 83.41 370.692C83.162 370.212 83.038 369.644 83.038 368.988C83.038 368.332 83.162 367.768 83.41 367.296C83.658 366.824 84.002 366.468 84.442 366.228C84.89 365.98 85.402 365.856 85.978 365.856C86.554 365.856 87.062 365.98 87.502 366.228C87.95 366.468 88.298 366.824 88.546 367.296C88.794 367.768 88.918 368.332 88.918 368.988C88.918 369.644 88.794 370.212 88.546 370.692C88.298 371.164 87.95 371.524 87.502 371.772C87.062 372.02 86.554 372.144 85.978 372.144ZM85.978 371.052C86.442 371.052 86.802 370.88 87.058 370.536C87.314 370.184 87.442 369.668 87.442 368.988C87.442 368.316 87.314 367.808 87.058 367.464C86.81 367.12 86.45 366.948 85.978 366.948C85.506 366.948 85.142 367.12 84.886 367.464C84.63 367.808 84.502 368.316 84.502 368.988C84.502 369.66 84.63 370.172 84.886 370.524C85.142 370.876 85.506 371.052 85.978 371.052ZM90.3389 366H91.7069V367.164C92.1149 366.292 92.7789 365.856 93.6989 365.856C94.3549 365.856 94.8509 366.06 95.1869 366.468C95.5229 366.876 95.6909 367.48 95.6909 368.28V372H94.2509V368.424C94.2509 367.48 93.8749 367.008 93.1229 367.008C92.6989 367.008 92.3669 367.168 92.1269 367.488C91.8949 367.808 91.7789 368.252 91.7789 368.82V372H90.3389V366ZM99.6362 372.144C98.9482 372.144 98.3602 372.004 97.8722 371.724C97.3922 371.444 97.0562 371.04 96.8642 370.512L97.9442 370.032C98.0802 370.368 98.2922 370.628 98.5802 370.812C98.8762 370.996 99.2362 371.088 99.6602 371.088C100.02 371.088 100.296 371.02 100.488 370.884C100.688 370.748 100.788 370.568 100.788 370.344C100.788 370.136 100.72 369.98 100.584 369.876C100.456 369.772 100.236 369.696 99.9242 369.648L98.8562 369.456C98.2962 369.352 97.8682 369.156 97.5722 368.868C97.2842 368.572 97.1402 368.184 97.1402 367.704C97.1402 367.152 97.3602 366.708 97.8002 366.372C98.2402 366.028 98.8362 365.856 99.5882 365.856C100.228 365.856 100.772 365.98 101.22 366.228C101.676 366.468 101.976 366.804 102.12 367.236L101.124 367.776C100.972 367.496 100.76 367.28 100.488 367.128C100.224 366.976 99.9002 366.9 99.5162 366.9C99.1802 366.9 98.9202 366.964 98.7362 367.092C98.5522 367.212 98.4602 367.388 98.4602 367.62C98.4602 367.82 98.5242 367.972 98.6522 368.076C98.7882 368.18 98.9922 368.256 99.2642 368.304L100.44 368.52C101.008 368.624 101.424 368.82 101.688 369.108C101.96 369.388 102.096 369.768 102.096 370.248C102.096 370.824 101.876 371.284 101.436 371.628C101.004 371.972 100.404 372.144 99.6362 372.144Z" fill="black"/>
</g>
<g filter="url(#filter5_d_1_9214)">
<rect x="139" y="318" width="120" height="72" rx="8" fill="white" shape-rendering="crispEdges"/>
<rect x="139.5" y="318.5" width="119" height="71" rx="7.5" stroke="#EBE8F8" shape-rendering="crispEdges"/>
<rect x="187" y="330" width="24" height="24" rx="12" fill="#EBE8F8"/>
<path d="M194.898 347.833C194.586 347.833 194.333 347.572 194.333 347.25V340.469C194.333 340.147 194.586 339.885 194.898 339.885H196.24C196.552 339.885 196.805 340.147 196.805 340.469V347.25C196.805 347.572 196.552 347.833 196.24 347.833H194.898Z" fill="#3600D1" fill-opacity="0.4"/>
<path d="M199.652 345.296H198.324C198.012 345.296 197.759 345.557 197.759 345.879V347.25C197.759 347.572 198.012 347.833 198.324 347.833H199.652C199.964 347.833 200.217 347.572 200.217 347.25V345.879C200.217 345.557 199.964 345.296 199.652 345.296Z" fill="#3600D1"/>
<path d="M196.226 336.167H194.898C194.586 336.167 194.333 336.428 194.333 336.75V338.121C194.333 338.443 194.586 338.704 194.898 338.704H196.226C196.538 338.704 196.791 338.443 196.791 338.121V336.75C196.791 336.428 196.538 336.167 196.226 336.167Z" fill="#3600D1"/>
<path d="M203.084 343.604H201.756C201.444 343.604 201.191 343.865 201.191 344.187V347.25C201.191 347.572 201.444 347.833 201.756 347.833H203.084C203.396 347.833 203.649 347.572 203.649 347.25V344.187C203.649 343.865 203.396 343.604 203.084 343.604Z" fill="#3600D1" fill-opacity="0.4"/>
<path d="M201.756 342.423C201.445 342.421 201.195 342.161 201.195 341.84V340.469C201.195 340.147 201.448 339.885 201.76 339.885H203.102C203.414 339.885 203.667 340.147 203.667 340.469V341.85C203.667 342.174 203.411 342.436 203.098 342.433L201.756 342.423Z" fill="#3600D1"/>
<path d="M198.324 344.115C198.012 344.115 197.759 343.853 197.759 343.531V340.469C197.759 340.147 198.012 339.885 198.324 339.885H199.666C199.978 339.885 200.231 340.147 200.231 340.469V343.531C200.231 343.853 199.978 344.115 199.666 344.115H198.324Z" fill="#3600D1" fill-opacity="0.4"/>
<path d="M178.38 369.756H175.044L174.276 372H172.704L175.872 363.48H177.552L180.72 372H179.148L178.38 369.756ZM177.972 368.58L176.976 365.7C176.88 365.42 176.796 365.116 176.724 364.788H176.7C176.628 365.116 176.544 365.42 176.448 365.7L175.452 368.58H177.972ZM181.886 366H183.254V367.164C183.662 366.292 184.326 365.856 185.246 365.856C185.902 365.856 186.398 366.06 186.734 366.468C187.07 366.876 187.238 367.48 187.238 368.28V372H185.798V368.424C185.798 367.48 185.422 367.008 184.67 367.008C184.246 367.008 183.914 367.168 183.674 367.488C183.442 367.808 183.326 368.252 183.326 368.82V372H181.886V366ZM190.523 372.144C189.907 372.144 189.411 371.984 189.035 371.664C188.659 371.336 188.471 370.904 188.471 370.368C188.471 370.08 188.531 369.82 188.651 369.588C188.779 369.356 188.963 369.164 189.203 369.012C189.419 368.884 189.679 368.78 189.983 368.7C190.287 368.612 190.679 368.536 191.159 368.472L192.431 368.316V368.16C192.431 367.712 192.339 367.388 192.155 367.188C191.979 366.98 191.699 366.876 191.315 366.876C190.963 366.876 190.683 366.968 190.475 367.152C190.275 367.328 190.163 367.588 190.139 367.932H188.663C188.711 367.292 188.971 366.788 189.443 366.42C189.915 366.044 190.539 365.856 191.315 365.856C192.203 365.856 192.851 366.056 193.259 366.456C193.675 366.848 193.883 367.48 193.883 368.352V370.14C193.883 370.956 193.943 371.576 194.063 372H192.623C192.567 371.672 192.535 371.328 192.527 370.968C192.383 371.336 192.131 371.624 191.771 371.832C191.419 372.04 191.003 372.144 190.523 372.144ZM190.979 371.124C191.427 371.124 191.787 370.98 192.059 370.692C192.331 370.396 192.467 370.012 192.467 369.54V369.156L191.111 369.36C190.711 369.424 190.419 369.532 190.235 369.684C190.051 369.836 189.959 370.04 189.959 370.296C189.959 370.552 190.047 370.756 190.223 370.908C190.407 371.052 190.659 371.124 190.979 371.124ZM197.155 372H195.715V363.3H197.155V372ZM199.328 374.4C199.152 374.4 198.932 374.38 198.668 374.34V373.2C198.812 373.232 198.98 373.248 199.172 373.248C199.516 373.248 199.788 373.172 199.988 373.02C200.196 372.876 200.356 372.636 200.468 372.3L200.588 371.94L198.248 366H199.832L201.14 369.924C201.212 370.14 201.272 370.376 201.32 370.632H201.344C201.36 370.488 201.42 370.252 201.524 369.924L202.712 366H204.212L201.956 372.336C201.692 373.08 201.352 373.608 200.936 373.92C200.52 374.24 199.984 374.4 199.328 374.4ZM204.812 366H205.892V364.488L207.332 363.912V366H208.796V367.044H207.332V369.912C207.332 370.232 207.404 370.472 207.548 370.632C207.692 370.784 207.912 370.86 208.208 370.86C208.344 370.86 208.54 370.836 208.796 370.788V372C208.444 372.072 208.116 372.108 207.812 372.108C207.124 372.108 206.632 371.94 206.336 371.604C206.04 371.268 205.892 370.78 205.892 370.14V367.044H204.812V366ZM210.116 366H211.556V372H210.116V366ZM210.044 363.504H211.604V365.004H210.044V363.504ZM215.904 372.144C215.312 372.144 214.792 372.016 214.344 371.76C213.904 371.496 213.564 371.128 213.324 370.656C213.084 370.184 212.964 369.632 212.964 369C212.964 368.024 213.228 367.256 213.756 366.696C214.284 366.136 215.004 365.856 215.916 365.856C216.66 365.856 217.264 366.048 217.728 366.432C218.192 366.808 218.468 367.336 218.556 368.016L217.152 368.244C217.104 367.836 216.968 367.524 216.744 367.308C216.528 367.092 216.24 366.984 215.88 366.984C215.432 366.984 215.08 367.16 214.824 367.512C214.568 367.864 214.44 368.348 214.44 368.964C214.44 369.612 214.568 370.116 214.824 370.476C215.08 370.828 215.44 371.004 215.904 371.004C216.264 371.004 216.552 370.896 216.768 370.68C216.992 370.464 217.136 370.144 217.2 369.72L218.556 369.996C218.452 370.66 218.16 371.184 217.68 371.568C217.208 371.952 216.616 372.144 215.904 372.144ZM222.109 372.144C221.421 372.144 220.833 372.004 220.345 371.724C219.865 371.444 219.529 371.04 219.337 370.512L220.417 370.032C220.553 370.368 220.765 370.628 221.053 370.812C221.349 370.996 221.709 371.088 222.133 371.088C222.493 371.088 222.769 371.02 222.961 370.884C223.161 370.748 223.261 370.568 223.261 370.344C223.261 370.136 223.193 369.98 223.057 369.876C222.929 369.772 222.709 369.696 222.397 369.648L221.329 369.456C220.769 369.352 220.341 369.156 220.045 368.868C219.757 368.572 219.613 368.184 219.613 367.704C219.613 367.152 219.833 366.708 220.273 366.372C220.713 366.028 221.309 365.856 222.061 365.856C222.701 365.856 223.245 365.98 223.693 366.228C224.149 366.468 224.449 366.804 224.593 367.236L223.597 367.776C223.445 367.496 223.233 367.28 222.961 367.128C222.697 366.976 222.373 366.9 221.989 366.9C221.653 366.9 221.393 366.964 221.209 367.092C221.025 367.212 220.933 367.388 220.933 367.62C220.933 367.82 220.997 367.972 221.125 368.076C221.261 368.18 221.465 368.256 221.737 368.304L222.913 368.52C223.481 368.624 223.897 368.82 224.161 369.108C224.433 369.388 224.569 369.768 224.569 370.248C224.569 370.824 224.349 371.284 223.909 371.628C223.477 371.972 222.877 372.144 222.109 372.144Z" fill="black"/>
</g>
<g filter="url(#filter6_d_1_9214)">
<rect x="267" y="318" width="120" height="72" rx="8" fill="white" shape-rendering="crispEdges"/>
<rect x="267.5" y="318.5" width="119" height="71" rx="7.5" stroke="#EBE8F8" shape-rendering="crispEdges"/>
<rect x="315" y="330" width="24" height="24" rx="12" fill="#EBE8F8"/>
<g clip-path="url(#clip2_1_9214)">
<path opacity="0.4" d="M324.9 338.15C324.9 337.686 324.716 337.241 324.387 336.913C324.059 336.584 323.614 336.4 323.15 336.4C322.686 336.4 322.241 336.584 321.913 336.913C321.584 337.241 321.4 337.686 321.4 338.15C321.4 338.614 321.584 339.059 321.913 339.387C322.241 339.716 322.686 339.9 323.15 339.9C323.614 339.9 324.059 339.716 324.387 339.387C324.716 339.059 324.9 338.614 324.9 338.15ZM332.95 338.15C332.95 337.686 332.766 337.241 332.437 336.913C332.109 336.584 331.664 336.4 331.2 336.4C330.736 336.4 330.291 336.584 329.963 336.913C329.634 337.241 329.45 337.686 329.45 338.15C329.45 338.614 329.634 339.059 329.963 339.387C330.291 339.716 330.736 339.9 331.2 339.9C331.664 339.9 332.109 339.716 332.437 339.387C332.766 339.059 332.95 338.614 332.95 338.15ZM322.334 340.6C321.046 340.6 320 341.646 320 342.934C320 343.19 320.21 343.4 320.466 343.4H325.134C325.138 343.4 325.143 343.4 325.149 343.4C324.567 342.886 324.202 342.136 324.202 341.3C324.202 341.134 324.217 340.972 324.244 340.812C323.946 340.674 323.616 340.6 323.268 340.6H322.334ZM328.853 343.4C328.857 343.4 328.862 343.4 328.868 343.4H333.534C333.792 343.4 334 343.19 334 342.934C334 341.646 332.954 340.6 331.666 340.6H330.734C330.386 340.6 330.056 340.677 329.758 340.812C329.787 340.97 329.8 341.134 329.8 341.3C329.8 342.136 329.433 342.886 328.853 343.4Z" fill="#3600D1"/>
<path d="M327.117 343.517C327.392 343.517 327.666 343.462 327.92 343.357C328.175 343.251 328.407 343.097 328.602 342.902C328.797 342.707 328.951 342.475 329.057 342.22C329.162 341.965 329.217 341.692 329.217 341.417C329.217 341.141 329.162 340.868 329.057 340.613C328.951 340.358 328.797 340.127 328.602 339.932C328.407 339.737 328.175 339.582 327.92 339.476C327.666 339.371 327.392 339.317 327.117 339.317C326.841 339.317 326.568 339.371 326.313 339.476C326.058 339.582 325.827 339.737 325.632 339.932C325.437 340.127 325.282 340.358 325.177 340.613C325.071 340.868 325.017 341.141 325.017 341.417C325.017 341.692 325.071 341.965 325.177 342.22C325.282 342.475 325.437 342.707 325.632 342.902C325.827 343.097 326.058 343.251 326.313 343.357C326.568 343.462 326.841 343.517 327.117 343.517ZM325.833 344.217C324.223 344.217 322.917 345.523 322.917 347.133C322.917 347.454 323.177 347.717 323.501 347.717H330.733C331.054 347.717 331.317 347.456 331.317 347.133C331.317 345.523 330.011 344.217 328.401 344.217H325.833Z" fill="#3600D1"/>
</g>
<path d="M291.756 372.204C290.78 372.204 289.984 371.988 289.368 371.556C288.76 371.124 288.364 370.544 288.18 369.816L289.5 369.24C289.66 369.76 289.928 370.18 290.304 370.5C290.68 370.812 291.18 370.968 291.804 370.968C292.284 370.968 292.684 370.868 293.004 370.668C293.332 370.46 293.496 370.148 293.496 369.732C293.496 369.34 293.38 369.052 293.148 368.868C292.924 368.676 292.56 368.528 292.056 368.424L290.868 368.172C289.38 367.868 288.636 367.052 288.636 365.724C288.636 365.236 288.76 364.808 289.008 364.44C289.264 364.072 289.628 363.788 290.1 363.588C290.572 363.38 291.124 363.276 291.756 363.276C292.596 363.276 293.304 363.452 293.88 363.804C294.464 364.148 294.848 364.664 295.032 365.352L293.796 366C293.66 365.504 293.412 365.124 293.052 364.86C292.7 364.588 292.244 364.452 291.684 364.452C291.22 364.452 290.844 364.556 290.556 364.764C290.276 364.964 290.136 365.244 290.136 365.604C290.136 365.948 290.236 366.22 290.436 366.42C290.644 366.612 290.984 366.76 291.456 366.864L292.692 367.128C293.452 367.288 294.032 367.56 294.432 367.944C294.832 368.32 295.032 368.868 295.032 369.588C295.032 370.084 294.908 370.532 294.66 370.932C294.412 371.324 294.04 371.636 293.544 371.868C293.056 372.092 292.46 372.204 291.756 372.204ZM301.525 369.36H297.313C297.321 369.864 297.469 370.268 297.757 370.572C298.053 370.868 298.437 371.016 298.909 371.016C299.253 371.016 299.549 370.932 299.797 370.764C300.045 370.596 300.237 370.348 300.373 370.02L301.477 370.524C301.253 371.044 300.913 371.444 300.457 371.724C300.009 372.004 299.477 372.144 298.861 372.144C297.941 372.144 297.221 371.876 296.701 371.34C296.181 370.796 295.921 370.036 295.921 369.06C295.921 368.068 296.173 367.288 296.677 366.72C297.189 366.144 297.893 365.856 298.789 365.856C299.661 365.856 300.333 366.104 300.805 366.6C301.285 367.088 301.525 367.788 301.525 368.7V369.36ZM300.109 368.316C300.109 367.828 299.993 367.456 299.761 367.2C299.529 366.944 299.197 366.816 298.765 366.816C298.309 366.816 297.957 366.956 297.709 367.236C297.461 367.516 297.329 367.908 297.313 368.412H300.109V368.316ZM307.968 366.048C307.568 366.048 307.284 366.176 307.116 366.432C307.54 366.808 307.752 367.288 307.752 367.872C307.752 368.272 307.652 368.628 307.452 368.94C307.252 369.244 306.964 369.484 306.588 369.66C306.22 369.836 305.784 369.924 305.28 369.924C304.816 369.924 304.416 369.852 304.08 369.708C303.88 369.812 303.78 369.964 303.78 370.164C303.78 370.532 304.084 370.716 304.692 370.716H306.264C306.96 370.716 307.488 370.864 307.848 371.16C308.208 371.456 308.388 371.884 308.388 372.444C308.388 373.076 308.116 373.572 307.572 373.932C307.036 374.3 306.24 374.484 305.184 374.484C304.208 374.484 303.492 374.34 303.036 374.052C302.588 373.772 302.364 373.4 302.364 372.936C302.364 372.672 302.448 372.436 302.616 372.228C302.792 372.02 303.04 371.864 303.36 371.76C302.856 371.552 302.604 371.192 302.604 370.68C302.604 370.376 302.684 370.12 302.844 369.912C303.012 369.696 303.248 369.528 303.552 369.408C303.32 369.224 303.14 369 303.012 368.736C302.884 368.472 302.82 368.184 302.82 367.872C302.82 367.272 303.04 366.788 303.48 366.42C303.928 366.044 304.528 365.856 305.28 365.856C305.76 365.856 306.184 365.936 306.552 366.096C306.648 365.752 306.828 365.484 307.092 365.292C307.364 365.092 307.708 364.992 308.124 364.992C308.228 364.992 308.34 365.004 308.46 365.028V366.108C308.284 366.068 308.12 366.048 307.968 366.048ZM305.28 369.048C305.608 369.048 305.872 368.94 306.072 368.724C306.28 368.508 306.384 368.228 306.384 367.884C306.384 367.54 306.284 367.264 306.084 367.056C305.884 366.84 305.616 366.732 305.28 366.732C304.944 366.732 304.676 366.84 304.476 367.056C304.276 367.264 304.176 367.536 304.176 367.872C304.176 368.216 304.276 368.5 304.476 368.724C304.676 368.94 304.944 369.048 305.28 369.048ZM304.488 371.952C304.36 371.952 304.192 371.944 303.984 371.928C303.704 372.104 303.564 372.352 303.564 372.672C303.564 373.256 304.136 373.548 305.28 373.548C306.48 373.548 307.08 373.26 307.08 372.684C307.08 372.196 306.736 371.952 306.048 371.952H304.488ZM310.953 366V367.056C311.313 366.256 311.905 365.856 312.729 365.856C313.577 365.856 314.145 366.26 314.433 367.068C314.841 366.26 315.465 365.856 316.305 365.856C316.881 365.856 317.329 366.052 317.649 366.444C317.977 366.828 318.141 367.372 318.141 368.076V372H316.701V368.304C316.701 367.44 316.373 367.008 315.717 367.008C315.349 367.008 315.065 367.136 314.865 367.392C314.673 367.648 314.577 368.016 314.577 368.496V372H313.137V368.268C313.137 367.852 313.053 367.54 312.885 367.332C312.725 367.116 312.485 367.008 312.165 367.008C311.805 367.008 311.525 367.144 311.325 367.416C311.125 367.68 311.025 368.052 311.025 368.532V372H309.585V366H310.953ZM325.009 369.36H320.797C320.805 369.864 320.953 370.268 321.241 370.572C321.537 370.868 321.921 371.016 322.393 371.016C322.737 371.016 323.033 370.932 323.281 370.764C323.529 370.596 323.721 370.348 323.857 370.02L324.961 370.524C324.737 371.044 324.397 371.444 323.941 371.724C323.493 372.004 322.961 372.144 322.345 372.144C321.425 372.144 320.705 371.876 320.185 371.34C319.665 370.796 319.405 370.036 319.405 369.06C319.405 368.068 319.657 367.288 320.161 366.72C320.673 366.144 321.377 365.856 322.273 365.856C323.145 365.856 323.817 366.104 324.289 366.6C324.769 367.088 325.009 367.788 325.009 368.7V369.36ZM323.593 368.316C323.593 367.828 323.477 367.456 323.245 367.2C323.013 366.944 322.681 366.816 322.249 366.816C321.793 366.816 321.441 366.956 321.193 367.236C320.945 367.516 320.813 367.908 320.797 368.412H323.593V368.316ZM326.483 366H327.851V367.164C328.259 366.292 328.923 365.856 329.843 365.856C330.499 365.856 330.995 366.06 331.331 366.468C331.667 366.876 331.835 367.48 331.835 368.28V372H330.395V368.424C330.395 367.48 330.019 367.008 329.267 367.008C328.843 367.008 328.511 367.168 328.271 367.488C328.039 367.808 327.923 368.252 327.923 368.82V372H326.483V366ZM332.652 366H333.732V364.488L335.172 363.912V366H336.636V367.044H335.172V369.912C335.172 370.232 335.244 370.472 335.388 370.632C335.532 370.784 335.752 370.86 336.048 370.86C336.184 370.86 336.38 370.836 336.636 370.788V372C336.284 372.072 335.956 372.108 335.652 372.108C334.964 372.108 334.472 371.94 334.176 371.604C333.88 371.268 333.732 370.78 333.732 370.14V367.044H332.652V366ZM339.468 372.144C338.852 372.144 338.356 371.984 337.98 371.664C337.604 371.336 337.416 370.904 337.416 370.368C337.416 370.08 337.476 369.82 337.596 369.588C337.724 369.356 337.908 369.164 338.148 369.012C338.364 368.884 338.624 368.78 338.928 368.7C339.232 368.612 339.624 368.536 340.104 368.472L341.376 368.316V368.16C341.376 367.712 341.284 367.388 341.1 367.188C340.924 366.98 340.644 366.876 340.26 366.876C339.908 366.876 339.628 366.968 339.42 367.152C339.22 367.328 339.108 367.588 339.084 367.932H337.608C337.656 367.292 337.916 366.788 338.388 366.42C338.86 366.044 339.484 365.856 340.26 365.856C341.148 365.856 341.796 366.056 342.204 366.456C342.62 366.848 342.828 367.48 342.828 368.352V370.14C342.828 370.956 342.888 371.576 343.008 372H341.568C341.512 371.672 341.48 371.328 341.472 370.968C341.328 371.336 341.076 371.624 340.716 371.832C340.364 372.04 339.948 372.144 339.468 372.144ZM339.924 371.124C340.372 371.124 340.732 370.98 341.004 370.692C341.276 370.396 341.412 370.012 341.412 369.54V369.156L340.056 369.36C339.656 369.424 339.364 369.532 339.18 369.684C338.996 369.836 338.904 370.04 338.904 370.296C338.904 370.552 338.992 370.756 339.168 370.908C339.352 371.052 339.604 371.124 339.924 371.124ZM343.714 366H344.794V364.488L346.234 363.912V366H347.698V367.044H346.234V369.912C346.234 370.232 346.306 370.472 346.45 370.632C346.594 370.784 346.814 370.86 347.11 370.86C347.246 370.86 347.442 370.836 347.698 370.788V372C347.346 372.072 347.018 372.108 346.714 372.108C346.026 372.108 345.534 371.94 345.238 371.604C344.942 371.268 344.794 370.78 344.794 370.14V367.044H343.714V366ZM349.019 366H350.459V372H349.019V366ZM348.947 363.504H350.507V365.004H348.947V363.504ZM354.806 372.144C354.23 372.144 353.718 372.02 353.27 371.772C352.83 371.524 352.486 371.164 352.238 370.692C351.99 370.212 351.866 369.644 351.866 368.988C351.866 368.332 351.99 367.768 352.238 367.296C352.486 366.824 352.83 366.468 353.27 366.228C353.718 365.98 354.23 365.856 354.806 365.856C355.382 365.856 355.89 365.98 356.33 366.228C356.778 366.468 357.126 366.824 357.374 367.296C357.622 367.768 357.746 368.332 357.746 368.988C357.746 369.644 357.622 370.212 357.374 370.692C357.126 371.164 356.778 371.524 356.33 371.772C355.89 372.02 355.382 372.144 354.806 372.144ZM354.806 371.052C355.27 371.052 355.63 370.88 355.886 370.536C356.142 370.184 356.27 369.668 356.27 368.988C356.27 368.316 356.142 367.808 355.886 367.464C355.638 367.12 355.278 366.948 354.806 366.948C354.334 366.948 353.97 367.12 353.714 367.464C353.458 367.808 353.33 368.316 353.33 368.988C353.33 369.66 353.458 370.172 353.714 370.524C353.97 370.876 354.334 371.052 354.806 371.052ZM359.167 366H360.535V367.164C360.943 366.292 361.607 365.856 362.527 365.856C363.183 365.856 363.679 366.06 364.015 366.468C364.351 366.876 364.519 367.48 364.519 368.28V372H363.079V368.424C363.079 367.48 362.703 367.008 361.951 367.008C361.527 367.008 361.195 367.168 360.955 367.488C360.723 367.808 360.607 368.252 360.607 368.82V372H359.167V366Z" fill="black"/>
</g>
<path d="M197 112L201.33 104.5L192.67 104.5L197 112ZM197.75 105.25L197.75 97L196.25 97L196.25 105.25L197.75 105.25Z" fill="#012437"/>
<path d="M198 295L198 315.5" stroke="#012437" stroke-width="1.5"/>
<path d="M197.437 295V295C197.437 302.168 191.626 304.941 184.458 304.941L79.4179 304.941C73.0419 304.941 67.8732 310.11 67.8732 316.486V316.486" stroke="#012437" stroke-width="1.5"/>
<path d="M198 295V295C198 301.111 202.94 305.02 209.051 304.994L314.978 304.53C321.609 304.501 327 309.869 327 316.5V316.5" stroke="#012437" stroke-width="1.5"/>
<path d="M198 318.857L202.33 311.357L193.67 311.357L198 318.857Z" fill="#012437"/>
<path d="M326.648 319L330.978 311.5L322.318 311.5L326.648 319Z" fill="#012437"/>
<path d="M68.4082 319L72.7383 311.5L64.078 311.5L68.4082 319Z" fill="#012437"/>
<defs>
<filter id="filter0_d_1_9214" x="0" y="0" width="393" height="366" filterUnits="userSpaceOnUse" color-interpolation-filters="sRGB">
<feFlood flood-opacity="0" result="BackgroundImageFix"/>
<feColorMatrix in="SourceAlpha" type="matrix" values="0 0 0 0 0 0 0 0 0 0 0 0 0 0 0 0 0 0 127 0" result="hardAlpha"/>
<feOffset dy="4"/>
<feGaussianBlur stdDeviation="10"/>
<feComposite in2="hardAlpha" operator="out"/>
<feColorMatrix type="matrix" values="0 0 0 0 0.211765 0 0 0 0 0 0 0 0 0 0.819608 0 0 0 0.1 0"/>
<feBlend mode="normal" in2="BackgroundImageFix" result="effect1_dropShadow_1_9214"/>
<feBlend mode="normal" in="SourceGraphic" in2="effect1_dropShadow_1_9214" result="shape"/>
</filter>
<filter id="filter1_d_1_9214" x="133" y="103" width="128" height="80" filterUnits="userSpaceOnUse" color-interpolation-filters="sRGB">
<feFlood flood-opacity="0" result="BackgroundImageFix"/>
<feColorMatrix in="SourceAlpha" type="matrix" values="0 0 0 0 0 0 0 0 0 0 0 0 0 0 0 0 0 0 127 0" result="hardAlpha"/>
<feOffset dy="4"/>
<feGaussianBlur stdDeviation="2"/>
<feComposite in2="hardAlpha" operator="out"/>
<feColorMatrix type="matrix" values="0 0 0 0 0.764706 0 0 0 0 0.682353 0 0 0 0 1 0 0 0 0.2 0"/>
<feBlend mode="normal" in2="BackgroundImageFix" result="effect1_dropShadow_1_9214"/>
<feBlend mode="normal" in="SourceGraphic" in2="effect1_dropShadow_1_9214" result="shape"/>
</filter>
<filter id="filter2_d_1_9214" x="132" y="187" width="128" height="80" filterUnits="userSpaceOnUse" color-interpolation-filters="sRGB">
<feFlood flood-opacity="0" result="BackgroundImageFix"/>
<feColorMatrix in="SourceAlpha" type="matrix" values="0 0 0 0 0 0 0 0 0 0 0 0 0 0 0 0 0 0 127 0" result="hardAlpha"/>
<feOffset dy="4"/>
<feGaussianBlur stdDeviation="2"/>
<feComposite in2="hardAlpha" operator="out"/>
<feColorMatrix type="matrix" values="0 0 0 0 0.764706 0 0 0 0 0.682353 0 0 0 0 1 0 0 0 0.2 0"/>
<feBlend mode="normal" in2="BackgroundImageFix" result="effect1_dropShadow_1_9214"/>
<feBlend mode="normal" in="SourceGraphic" in2="effect1_dropShadow_1_9214" result="shape"/>
</filter>
<filter id="filter3_d_1_9214" x="133" y="6" width="128" height="80" filterUnits="userSpaceOnUse" color-interpolation-filters="sRGB">
<feFlood flood-opacity="0" result="BackgroundImageFix"/>
<feColorMatrix in="SourceAlpha" type="matrix" values="0 0 0 0 0 0 0 0 0 0 0 0 0 0 0 0 0 0 127 0" result="hardAlpha"/>
<feOffset dy="4"/>
<feGaussianBlur stdDeviation="2"/>
<feComposite in2="hardAlpha" operator="out"/>
<feColorMatrix type="matrix" values="0 0 0 0 0.764706 0 0 0 0 0.682353 0 0 0 0 1 0 0 0 0.2 0"/>
<feBlend mode="normal" in2="BackgroundImageFix" result="effect1_dropShadow_1_9214"/>
<feBlend mode="normal" in="SourceGraphic" in2="effect1_dropShadow_1_9214" result="shape"/>
</filter>
<filter id="filter4_d_1_9214" x="7" y="318" width="128" height="80" filterUnits="userSpaceOnUse" color-interpolation-filters="sRGB">
<feFlood flood-opacity="0" result="BackgroundImageFix"/>
<feColorMatrix in="SourceAlpha" type="matrix" values="0 0 0 0 0 0 0 0 0 0 0 0 0 0 0 0 0 0 127 0" result="hardAlpha"/>
<feOffset dy="4"/>
<feGaussianBlur stdDeviation="2"/>
<feComposite in2="hardAlpha" operator="out"/>
<feColorMatrix type="matrix" values="0 0 0 0 0.764706 0 0 0 0 0.682353 0 0 0 0 1 0 0 0 0.2 0"/>
<feBlend mode="normal" in2="BackgroundImageFix" result="effect1_dropShadow_1_9214"/>
<feBlend mode="normal" in="SourceGraphic" in2="effect1_dropShadow_1_9214" result="shape"/>
</filter>
<filter id="filter5_d_1_9214" x="135" y="318" width="128" height="80" filterUnits="userSpaceOnUse" color-interpolation-filters="sRGB">
<feFlood flood-opacity="0" result="BackgroundImageFix"/>
<feColorMatrix in="SourceAlpha" type="matrix" values="0 0 0 0 0 0 0 0 0 0 0 0 0 0 0 0 0 0 127 0" result="hardAlpha"/>
<feOffset dy="4"/>
<feGaussianBlur stdDeviation="2"/>
<feComposite in2="hardAlpha" operator="out"/>
<feColorMatrix type="matrix" values="0 0 0 0 0.764706 0 0 0 0 0.682353 0 0 0 0 1 0 0 0 0.2 0"/>
<feBlend mode="normal" in2="BackgroundImageFix" result="effect1_dropShadow_1_9214"/>
<feBlend mode="normal" in="SourceGraphic" in2="effect1_dropShadow_1_9214" result="shape"/>
</filter>
<filter id="filter6_d_1_9214" x="263" y="318" width="128" height="80" filterUnits="userSpaceOnUse" color-interpolation-filters="sRGB">
<feFlood flood-opacity="0" result="BackgroundImageFix"/>
<feColorMatrix in="SourceAlpha" type="matrix" values="0 0 0 0 0 0 0 0 0 0 0 0 0 0 0 0 0 0 127 0" result="hardAlpha"/>
<feOffset dy="4"/>
<feGaussianBlur stdDeviation="2"/>
<feComposite in2="hardAlpha" operator="out"/>
<feColorMatrix type="matrix" values="0 0 0 0 0.764706 0 0 0 0 0.682353 0 0 0 0 1 0 0 0 0.2 0"/>
<feBlend mode="normal" in2="BackgroundImageFix" result="effect1_dropShadow_1_9214"/>
<feBlend mode="normal" in="SourceGraphic" in2="effect1_dropShadow_1_9214" result="shape"/>
</filter>
<clipPath id="clip0_1_9214">
<rect width="14" height="12" fill="white" transform="translate(189 205)"/>
</clipPath>
<clipPath id="clip1_1_9214">
<rect width="14" height="14" fill="white" transform="translate(190 23)"/>
</clipPath>
<clipPath id="clip2_1_9214">
<rect width="14" height="11.2" fill="white" transform="translate(320 336.4)"/>
</clipPath>
</defs>
</svg>
