<svg width="393" height="374" viewBox="0 0 393 374" fill="none" xmlns="http://www.w3.org/2000/svg">
<g filter="url(#filter0_d_7_386)">
<path d="M357 16H36C27.1634 16 20 23.1634 20 32V326C20 334.837 27.1634 342 36 342H357C365.837 342 373 334.837 373 326V32C373 23.1634 365.837 16 357 16Z" fill="#FAF9F8"/>
<path d="M357 16.5H36C27.4396 16.5 20.5 23.4396 20.5 32V326C20.5 334.56 27.4396 341.5 36 341.5H357C365.56 341.5 372.5 334.56 372.5 326V32C372.5 23.4396 365.56 16.5 357 16.5Z" stroke="#BABBB5"/>
</g>
<path d="M265 87H127C118.163 87 111 94.1634 111 103V255C111 263.837 118.163 271 127 271H265C273.837 271 281 263.837 281 255V103C281 94.1634 273.837 87 265 87Z" fill="#ECEAE9"/>
<g filter="url(#filter1_d_7_386)">
<path d="M249 103H145C140.582 103 137 106.582 137 111V167C137 171.418 140.582 175 145 175H249C253.418 175 257 171.418 257 167V111C257 106.582 253.418 103 249 103Z" fill="white"/>
<path d="M249 103.5H145C140.858 103.5 137.5 106.858 137.5 111V167C137.5 171.142 140.858 174.5 145 174.5H249C253.142 174.5 256.5 171.142 256.5 167V111C256.5 106.858 253.142 103.5 249 103.5Z" stroke="#EBE8F8"/>
<path d="M209 127C209 120.373 203.627 115 197 115C190.373 115 185 120.373 185 127C185 133.627 190.373 139 197 139C203.627 139 209 133.627 209 127Z" fill="#EBE8F8"/>
<path opacity="0.4" d="M197.042 126.816H196V127.85H197.042V131.126C197.042 131.221 196.948 131.299 196.833 131.299H196V132.333H196.833C197.638 132.333 198.292 131.792 198.292 131.126V127.85H199.333V126.816H198.292V123.54C198.292 122.874 197.638 122.333 196.833 122.333H196V123.368H196.833C196.948 123.368 197.042 123.445 197.042 123.54V126.816Z" fill="#3600D1"/>
<path d="M201.333 125.174C201.885 125.174 202.333 125.647 202.333 126.23V127.637C202.333 128.22 201.885 128.693 201.333 128.693H200C199.448 128.693 199 128.22 199 127.637V126.23C199 125.647 199.448 125.174 200 125.174H201.333ZM196.333 121.656V123.063C196.333 123.646 195.885 124.119 195.333 124.119H194C193.448 124.119 193 123.646 193 123.063V121.656C193 121.073 193.448 120.6 194 120.6H195.333C195.885 120.6 196.333 121.073 196.333 121.656ZM196.333 126.23V127.637C196.333 128.22 195.885 128.693 195.333 128.693H194C193.448 128.693 193 128.22 193 127.637V126.23C193 125.647 193.448 125.174 194 125.174H195.333C195.885 125.174 196.333 125.647 196.333 126.23ZM196.333 130.804V132.211C196.333 132.794 195.885 133.267 195.333 133.267H194C193.448 133.267 193 132.794 193 132.211V130.804C193 130.221 193.448 129.748 194 129.748H195.333C195.885 129.748 196.333 130.221 196.333 130.804Z" fill="#3600D1"/>
<path d="M159.056 148.48H162.128C162.952 148.48 163.676 148.656 164.3 149.008C164.924 149.36 165.404 149.856 165.74 150.496C166.084 151.136 166.256 151.872 166.256 152.704C166.256 153.544 166.084 154.288 165.74 154.936C165.404 155.584 164.92 156.092 164.288 156.46C163.664 156.82 162.936 157 162.104 157H159.056V148.48ZM162.056 155.788C162.592 155.788 163.052 155.652 163.436 155.38C163.828 155.108 164.124 154.74 164.324 154.276C164.532 153.804 164.636 153.28 164.636 152.704C164.636 151.808 164.412 151.084 163.964 150.532C163.516 149.972 162.888 149.692 162.08 149.692H160.604V155.788H162.056ZM169.297 157.144C168.681 157.144 168.185 156.984 167.809 156.664C167.433 156.336 167.245 155.904 167.245 155.368C167.245 155.08 167.305 154.82 167.425 154.588C167.553 154.356 167.737 154.164 167.977 154.012C168.193 153.884 168.453 153.78 168.757 153.7C169.061 153.612 169.453 153.536 169.933 153.472L171.205 153.316V153.16C171.205 152.712 171.113 152.388 170.929 152.188C170.753 151.98 170.473 151.876 170.089 151.876C169.737 151.876 169.457 151.968 169.249 152.152C169.049 152.328 168.937 152.588 168.913 152.932H167.437C167.485 152.292 167.745 151.788 168.217 151.42C168.689 151.044 169.313 150.856 170.089 150.856C170.977 150.856 171.625 151.056 172.033 151.456C172.449 151.848 172.657 152.48 172.657 153.352V155.14C172.657 155.956 172.717 156.576 172.837 157H171.397C171.341 156.672 171.309 156.328 171.301 155.968C171.157 156.336 170.905 156.624 170.545 156.832C170.193 157.04 169.777 157.144 169.297 157.144ZM169.753 156.124C170.201 156.124 170.561 155.98 170.833 155.692C171.105 155.396 171.241 155.012 171.241 154.54V154.156L169.885 154.36C169.485 154.424 169.193 154.532 169.009 154.684C168.825 154.836 168.733 155.04 168.733 155.296C168.733 155.552 168.821 155.756 168.997 155.908C169.181 156.052 169.433 156.124 169.753 156.124ZM173.542 151H174.622V149.488L176.062 148.912V151H177.526V152.044H176.062V154.912C176.062 155.232 176.134 155.472 176.278 155.632C176.422 155.784 176.642 155.86 176.938 155.86C177.074 155.86 177.27 155.836 177.526 155.788V157C177.174 157.072 176.846 157.108 176.542 157.108C175.854 157.108 175.362 156.94 175.066 156.604C174.77 156.268 174.622 155.78 174.622 155.14V152.044H173.542V151ZM180.359 157.144C179.743 157.144 179.247 156.984 178.871 156.664C178.495 156.336 178.307 155.904 178.307 155.368C178.307 155.08 178.367 154.82 178.487 154.588C178.615 154.356 178.799 154.164 179.039 154.012C179.255 153.884 179.515 153.78 179.819 153.7C180.123 153.612 180.515 153.536 180.995 153.472L182.267 153.316V153.16C182.267 152.712 182.175 152.388 181.991 152.188C181.815 151.98 181.535 151.876 181.151 151.876C180.799 151.876 180.519 151.968 180.311 152.152C180.111 152.328 179.999 152.588 179.975 152.932H178.499C178.547 152.292 178.807 151.788 179.279 151.42C179.751 151.044 180.375 150.856 181.151 150.856C182.039 150.856 182.687 151.056 183.095 151.456C183.511 151.848 183.719 152.48 183.719 153.352V155.14C183.719 155.956 183.779 156.576 183.899 157H182.459C182.403 156.672 182.371 156.328 182.363 155.968C182.219 156.336 181.967 156.624 181.607 156.832C181.255 157.04 180.839 157.144 180.359 157.144ZM180.815 156.124C181.263 156.124 181.623 155.98 181.895 155.692C182.167 155.396 182.303 155.012 182.303 154.54V154.156L180.947 154.36C180.547 154.424 180.255 154.532 180.071 154.684C179.887 154.836 179.795 155.04 179.795 155.296C179.795 155.552 179.883 155.756 180.059 155.908C180.243 156.052 180.495 156.124 180.815 156.124ZM192.006 148.48C192.606 148.48 193.13 148.588 193.578 148.804C194.026 149.012 194.37 149.312 194.61 149.704C194.858 150.096 194.982 150.552 194.982 151.072C194.982 151.88 194.714 152.52 194.178 152.992C193.642 153.464 192.914 153.7 191.994 153.7H190.182V157H188.634V148.48H192.006ZM191.718 152.524C192.222 152.524 192.618 152.396 192.906 152.14C193.202 151.884 193.35 151.536 193.35 151.096C193.35 150.656 193.202 150.308 192.906 150.052C192.618 149.796 192.222 149.668 191.718 149.668H190.182V152.524H191.718ZM197.644 157H196.204V148.3H197.644V157ZM201.136 157.144C200.52 157.144 200.024 156.984 199.648 156.664C199.272 156.336 199.084 155.904 199.084 155.368C199.084 155.08 199.144 154.82 199.264 154.588C199.392 154.356 199.576 154.164 199.816 154.012C200.032 153.884 200.292 153.78 200.596 153.7C200.9 153.612 201.292 153.536 201.772 153.472L203.044 153.316V153.16C203.044 152.712 202.952 152.388 202.768 152.188C202.592 151.98 202.312 151.876 201.928 151.876C201.576 151.876 201.296 151.968 201.088 152.152C200.888 152.328 200.776 152.588 200.752 152.932H199.276C199.324 152.292 199.584 151.788 200.056 151.42C200.528 151.044 201.152 150.856 201.928 150.856C202.816 150.856 203.464 151.056 203.872 151.456C204.288 151.848 204.496 152.48 204.496 153.352V155.14C204.496 155.956 204.556 156.576 204.676 157H203.236C203.18 156.672 203.148 156.328 203.14 155.968C202.996 156.336 202.744 156.624 202.384 156.832C202.032 157.04 201.616 157.144 201.136 157.144ZM201.592 156.124C202.04 156.124 202.4 155.98 202.672 155.692C202.944 155.396 203.08 155.012 203.08 154.54V154.156L201.724 154.36C201.324 154.424 201.032 154.532 200.848 154.684C200.664 154.836 200.572 155.04 200.572 155.296C200.572 155.552 200.66 155.756 200.836 155.908C201.02 156.052 201.272 156.124 201.592 156.124ZM205.382 151H206.462V149.488L207.902 148.912V151H209.366V152.044H207.902V154.912C207.902 155.232 207.974 155.472 208.118 155.632C208.262 155.784 208.482 155.86 208.778 155.86C208.914 155.86 209.11 155.836 209.366 155.788V157C209.014 157.072 208.686 157.108 208.382 157.108C207.694 157.108 207.202 156.94 206.906 156.604C206.61 156.268 206.462 155.78 206.462 155.14V152.044H205.382V151ZM214.148 152.044H212.696V157H211.256V152.044H210.224V151H211.256V150.232C211.256 149.608 211.436 149.12 211.796 148.768C212.156 148.408 212.656 148.228 213.296 148.228C213.584 148.228 213.868 148.26 214.148 148.324V149.44C213.908 149.4 213.704 149.38 213.536 149.38C213.248 149.38 213.036 149.46 212.9 149.62C212.764 149.772 212.696 150.008 212.696 150.328V151H214.148V152.044ZM217.646 157.144C217.07 157.144 216.558 157.02 216.11 156.772C215.67 156.524 215.326 156.164 215.078 155.692C214.83 155.212 214.706 154.644 214.706 153.988C214.706 153.332 214.83 152.768 215.078 152.296C215.326 151.824 215.67 151.468 216.11 151.228C216.558 150.98 217.07 150.856 217.646 150.856C218.222 150.856 218.73 150.98 219.17 151.228C219.618 151.468 219.966 151.824 220.214 152.296C220.462 152.768 220.586 153.332 220.586 153.988C220.586 154.644 220.462 155.212 220.214 155.692C219.966 156.164 219.618 156.524 219.17 156.772C218.73 157.02 218.222 157.144 217.646 157.144ZM217.646 156.052C218.11 156.052 218.47 155.88 218.726 155.536C218.982 155.184 219.11 154.668 219.11 153.988C219.11 153.316 218.982 152.808 218.726 152.464C218.478 152.12 218.118 151.948 217.646 151.948C217.174 151.948 216.81 152.12 216.554 152.464C216.298 152.808 216.17 153.316 216.17 153.988C216.17 154.66 216.298 155.172 216.554 155.524C216.81 155.876 217.174 156.052 217.646 156.052ZM223.351 152.452C223.511 151.956 223.751 151.568 224.071 151.288C224.391 151 224.787 150.856 225.259 150.856C225.331 150.856 225.387 150.86 225.427 150.868V152.248L225.235 152.236C224.707 152.236 224.291 152.38 223.987 152.668C223.771 152.876 223.627 153.132 223.555 153.436C223.483 153.732 223.447 154.08 223.447 154.48V157H222.007V151H223.351V152.452ZM227.98 151V152.056C228.34 151.256 228.932 150.856 229.756 150.856C230.604 150.856 231.172 151.26 231.46 152.068C231.868 151.26 232.492 150.856 233.332 150.856C233.908 150.856 234.356 151.052 234.676 151.444C235.004 151.828 235.168 152.372 235.168 153.076V157H233.728V153.304C233.728 152.44 233.4 152.008 232.744 152.008C232.376 152.008 232.092 152.136 231.892 152.392C231.7 152.648 231.604 153.016 231.604 153.496V157H230.164V153.268C230.164 152.852 230.08 152.54 229.912 152.332C229.752 152.116 229.512 152.008 229.192 152.008C228.832 152.008 228.552 152.144 228.352 152.416C228.152 152.68 228.052 153.052 228.052 153.532V157H226.612V151H227.98Z" fill="black"/>
</g>
<g filter="url(#filter2_d_7_386)">
<path d="M248 187H144C139.582 187 136 190.582 136 195V251C136 255.418 139.582 259 144 259H248C252.418 259 256 255.418 256 251V195C256 190.582 252.418 187 248 187Z" fill="white"/>
<path d="M248 187.5H144C139.858 187.5 136.5 190.858 136.5 195V251C136.5 255.142 139.858 258.5 144 258.5H248C252.142 258.5 255.5 255.142 255.5 251V195C255.5 190.858 252.142 187.5 248 187.5Z" stroke="#EBE8F8"/>
<path d="M208 211C208 204.373 202.627 199 196 199C189.373 199 184 204.373 184 211C184 217.627 189.373 223 196 223C202.627 223 208 217.627 208 211Z" fill="#EBE8F8"/>
<mask id="mask0_7_386" style="mask-type:luminance" maskUnits="userSpaceOnUse" x="189" y="205" width="14" height="12">
<path d="M203 205H189V217H203V205Z" fill="white"/>
</mask>
<g mask="url(#mask0_7_386)">
<path opacity="0.4" d="M190.556 205.75C189.698 205.75 189 206.423 189 207.25V214.75C189 215.577 189.698 216.25 190.556 216.25H201.444C202.302 216.25 203 215.577 203 214.75V207.25C203 206.423 202.302 205.75 201.444 205.75H190.556ZM192.5 211.75H194.056C195.13 211.75 196 212.589 196 213.625C196 213.831 195.825 214 195.611 214H190.944C190.731 214 190.556 213.831 190.556 213.625C190.556 212.589 191.426 211.75 192.5 211.75ZM191.722 209.5C191.722 209.102 191.886 208.721 192.178 208.439C192.47 208.158 192.865 208 193.278 208C193.69 208 194.086 208.158 194.378 208.439C194.669 208.721 194.833 209.102 194.833 209.5C194.833 209.898 194.669 210.279 194.378 210.561C194.086 210.842 193.69 211 193.278 211C192.865 211 192.47 210.842 192.178 210.561C191.886 210.279 191.722 209.898 191.722 209.5ZM197.944 208.75H201.056C201.269 208.75 201.444 208.919 201.444 209.125C201.444 209.331 201.269 209.5 201.056 209.5H197.944C197.731 209.5 197.556 209.331 197.556 209.125C197.556 208.919 197.731 208.75 197.944 208.75ZM197.944 210.25H201.056C201.269 210.25 201.444 210.419 201.444 210.625C201.444 210.831 201.269 211 201.056 211H197.944C197.731 211 197.556 210.831 197.556 210.625C197.556 210.419 197.731 210.25 197.944 210.25ZM197.944 211.75H201.056C201.269 211.75 201.444 211.919 201.444 212.125C201.444 212.331 201.269 212.5 201.056 212.5H197.944C197.731 212.5 197.556 212.331 197.556 212.125C197.556 211.919 197.731 211.75 197.944 211.75Z" fill="#3600D1"/>
<path d="M193.278 211C193.69 211 194.086 210.842 194.378 210.561C194.669 210.279 194.833 209.898 194.833 209.5C194.833 209.102 194.669 208.721 194.378 208.439C194.086 208.158 193.69 208 193.278 208C192.865 208 192.47 208.158 192.178 208.439C191.886 208.721 191.722 209.102 191.722 209.5C191.722 209.898 191.886 210.279 192.178 210.561C192.47 210.842 192.865 211 193.278 211ZM192.5 211.75C191.426 211.75 190.556 212.589 190.556 213.625C190.556 213.831 190.731 214 190.944 214H195.611C195.825 214 196 213.831 196 213.625C196 212.589 195.13 211.75 194.056 211.75H192.5Z" fill="#3600D1"/>
</g>
<path d="M160.44 241.204C159.576 241.204 158.844 241.016 158.244 240.64C157.644 240.256 157.196 239.728 156.9 239.056C156.604 238.384 156.456 237.608 156.456 236.728C156.456 235.84 156.612 235.064 156.924 234.4C157.244 233.728 157.704 233.208 158.304 232.84C158.904 232.464 159.624 232.276 160.464 232.276C161.504 232.276 162.328 232.548 162.936 233.092C163.544 233.636 163.908 234.372 164.028 235.3L162.444 235.528C162.372 234.912 162.16 234.428 161.808 234.076C161.456 233.724 160.992 233.548 160.416 233.548C159.672 233.548 159.092 233.836 158.676 234.412C158.26 234.98 158.052 235.748 158.052 236.716C158.052 237.676 158.26 238.448 158.676 239.032C159.1 239.616 159.692 239.908 160.452 239.908C160.996 239.908 161.444 239.74 161.796 239.404C162.156 239.06 162.392 238.584 162.504 237.976L164.04 238.288C163.848 239.184 163.448 239.896 162.84 240.424C162.24 240.944 161.44 241.204 160.44 241.204ZM167.34 241.144C165.988 241.144 165.312 240.38 165.312 238.852V235H166.752V238.636C166.752 239.076 166.84 239.412 167.016 239.644C167.2 239.876 167.464 239.992 167.808 239.992C168.208 239.992 168.528 239.84 168.768 239.536C169.008 239.232 169.128 238.828 169.128 238.324V235H170.58V241H169.212V239.884C169.068 240.26 168.824 240.564 168.48 240.796C168.144 241.028 167.764 241.144 167.34 241.144ZM174.671 241.144C173.983 241.144 173.395 241.004 172.907 240.724C172.427 240.444 172.091 240.04 171.899 239.512L172.979 239.032C173.115 239.368 173.327 239.628 173.615 239.812C173.911 239.996 174.271 240.088 174.695 240.088C175.055 240.088 175.331 240.02 175.523 239.884C175.723 239.748 175.823 239.568 175.823 239.344C175.823 239.136 175.755 238.98 175.619 238.876C175.491 238.772 175.271 238.696 174.959 238.648L173.891 238.456C173.331 238.352 172.903 238.156 172.607 237.868C172.319 237.572 172.175 237.184 172.175 236.704C172.175 236.152 172.395 235.708 172.835 235.372C173.275 235.028 173.871 234.856 174.623 234.856C175.263 234.856 175.807 234.98 176.255 235.228C176.711 235.468 177.011 235.804 177.155 236.236L176.159 236.776C176.007 236.496 175.795 236.28 175.523 236.128C175.259 235.976 174.935 235.9 174.551 235.9C174.215 235.9 173.955 235.964 173.771 236.092C173.587 236.212 173.495 236.388 173.495 236.62C173.495 236.82 173.559 236.972 173.687 237.076C173.823 237.18 174.027 237.256 174.299 237.304L175.475 237.52C176.043 237.624 176.459 237.82 176.723 238.108C176.995 238.388 177.131 238.768 177.131 239.248C177.131 239.824 176.911 240.284 176.471 240.628C176.039 240.972 175.439 241.144 174.671 241.144ZM177.8 235H178.88V233.488L180.32 232.912V235H181.784V236.044H180.32V238.912C180.32 239.232 180.392 239.472 180.536 239.632C180.68 239.784 180.9 239.86 181.196 239.86C181.332 239.86 181.528 239.836 181.784 239.788V241C181.432 241.072 181.104 241.108 180.8 241.108C180.112 241.108 179.62 240.94 179.324 240.604C179.028 240.268 178.88 239.78 178.88 239.14V236.044H177.8V235ZM185.482 241.144C184.906 241.144 184.394 241.02 183.946 240.772C183.506 240.524 183.162 240.164 182.914 239.692C182.666 239.212 182.542 238.644 182.542 237.988C182.542 237.332 182.666 236.768 182.914 236.296C183.162 235.824 183.506 235.468 183.946 235.228C184.394 234.98 184.906 234.856 185.482 234.856C186.058 234.856 186.566 234.98 187.006 235.228C187.454 235.468 187.802 235.824 188.05 236.296C188.298 236.768 188.422 237.332 188.422 237.988C188.422 238.644 188.298 239.212 188.05 239.692C187.802 240.164 187.454 240.524 187.006 240.772C186.566 241.02 186.058 241.144 185.482 241.144ZM185.482 240.052C185.946 240.052 186.306 239.88 186.562 239.536C186.818 239.184 186.946 238.668 186.946 237.988C186.946 237.316 186.818 236.808 186.562 236.464C186.314 236.12 185.954 235.948 185.482 235.948C185.01 235.948 184.646 236.12 184.39 236.464C184.134 236.808 184.006 237.316 184.006 237.988C184.006 238.66 184.134 239.172 184.39 239.524C184.646 239.876 185.01 240.052 185.482 240.052ZM191.211 235V236.056C191.571 235.256 192.163 234.856 192.987 234.856C193.835 234.856 194.403 235.26 194.691 236.068C195.099 235.26 195.723 234.856 196.563 234.856C197.139 234.856 197.587 235.052 197.907 235.444C198.235 235.828 198.399 236.372 198.399 237.076V241H196.959V237.304C196.959 236.44 196.631 236.008 195.975 236.008C195.607 236.008 195.323 236.136 195.123 236.392C194.931 236.648 194.835 237.016 194.835 237.496V241H193.395V237.268C193.395 236.852 193.311 236.54 193.143 236.332C192.983 236.116 192.743 236.008 192.423 236.008C192.063 236.008 191.783 236.144 191.583 236.416C191.383 236.68 191.283 237.052 191.283 237.532V241H189.843V235H191.211ZM205.267 238.36H201.055C201.063 238.864 201.211 239.268 201.499 239.572C201.795 239.868 202.179 240.016 202.651 240.016C202.995 240.016 203.291 239.932 203.539 239.764C203.787 239.596 203.979 239.348 204.115 239.02L205.219 239.524C204.995 240.044 204.655 240.444 204.199 240.724C203.751 241.004 203.219 241.144 202.603 241.144C201.683 241.144 200.963 240.876 200.443 240.34C199.923 239.796 199.663 239.036 199.663 238.06C199.663 237.068 199.915 236.288 200.419 235.72C200.931 235.144 201.635 234.856 202.531 234.856C203.403 234.856 204.075 235.104 204.547 235.6C205.027 236.088 205.267 236.788 205.267 237.7V238.36ZM203.851 237.316C203.851 236.828 203.735 236.456 203.503 236.2C203.271 235.944 202.939 235.816 202.507 235.816C202.051 235.816 201.699 235.956 201.451 236.236C201.203 236.516 201.071 236.908 201.055 237.412H203.851V237.316ZM208.085 236.452C208.245 235.956 208.485 235.568 208.805 235.288C209.125 235 209.521 234.856 209.993 234.856C210.065 234.856 210.121 234.86 210.161 234.868V236.248L209.969 236.236C209.441 236.236 209.025 236.38 208.721 236.668C208.505 236.876 208.361 237.132 208.289 237.436C208.217 237.732 208.181 238.08 208.181 238.48V241H206.741V235H208.085V236.452ZM216.902 241.18C216.286 241.18 215.746 241.072 215.282 240.856C214.818 240.64 214.458 240.336 214.202 239.944C213.946 239.544 213.814 239.08 213.806 238.552L215.27 238.396C215.286 238.9 215.442 239.296 215.738 239.584C216.042 239.864 216.442 240.004 216.938 240.004C217.418 240.004 217.782 239.884 218.03 239.644C218.286 239.404 218.414 239.056 218.414 238.6C218.414 238.16 218.274 237.828 217.994 237.604C217.714 237.372 217.298 237.256 216.746 237.256H216.278V236.164H216.71C217.19 236.164 217.554 236.052 217.802 235.828C218.05 235.604 218.174 235.288 218.174 234.88C218.174 234.488 218.054 234.184 217.814 233.968C217.582 233.752 217.25 233.644 216.818 233.644C216.346 233.644 215.982 233.792 215.726 234.088C215.478 234.384 215.354 234.804 215.354 235.348L213.914 235.108C213.914 234.3 214.182 233.66 214.718 233.188C215.254 232.716 215.982 232.48 216.902 232.48C217.782 232.48 218.462 232.68 218.942 233.08C219.43 233.472 219.674 234.016 219.674 234.712C219.674 235.184 219.53 235.596 219.242 235.948C218.962 236.292 218.578 236.52 218.09 236.632C218.698 236.728 219.158 236.948 219.47 237.292C219.782 237.628 219.938 238.08 219.938 238.648C219.938 239.432 219.666 240.052 219.122 240.508C218.578 240.956 217.838 241.18 216.902 241.18ZM224.485 235.408C225.269 235.408 225.893 235.664 226.357 236.176C226.821 236.68 227.053 237.364 227.053 238.228C227.053 238.804 226.929 239.316 226.681 239.764C226.441 240.212 226.101 240.56 225.661 240.808C225.221 241.056 224.717 241.18 224.149 241.18C223.117 241.18 222.325 240.82 221.773 240.1C221.229 239.38 220.957 238.344 220.957 236.992C220.957 235.568 221.241 234.46 221.809 233.668C222.385 232.876 223.189 232.48 224.221 232.48C224.989 232.48 225.601 232.66 226.057 233.02C226.521 233.38 226.817 233.908 226.945 234.604L225.517 234.868C225.349 234.052 224.909 233.644 224.197 233.644C223.629 233.644 223.189 233.892 222.877 234.388C222.565 234.876 222.401 235.588 222.385 236.524C222.585 236.164 222.865 235.888 223.225 235.696C223.585 235.504 224.005 235.408 224.485 235.408ZM224.137 240.016C224.593 240.016 224.953 239.86 225.217 239.548C225.489 239.228 225.625 238.8 225.625 238.264C225.625 237.736 225.485 237.316 225.205 237.004C224.933 236.692 224.565 236.536 224.101 236.536C223.701 236.536 223.349 236.664 223.045 236.92C222.749 237.168 222.537 237.524 222.409 237.988C222.473 238.612 222.657 239.108 222.961 239.476C223.273 239.836 223.665 240.016 224.137 240.016ZM231.384 241.18C230.304 241.18 229.468 240.796 228.876 240.028C228.292 239.26 228 238.196 228 236.836C228 235.468 228.292 234.4 228.876 233.632C229.468 232.864 230.304 232.48 231.384 232.48C232.464 232.48 233.3 232.864 233.892 233.632C234.484 234.4 234.78 235.468 234.78 236.836C234.78 238.196 234.484 239.26 233.892 240.028C233.3 240.796 232.464 241.18 231.384 241.18ZM231.384 240.004C232 240.004 232.468 239.728 232.788 239.176C233.116 238.624 233.28 237.844 233.28 236.836C233.28 235.82 233.116 235.036 232.788 234.484C232.468 233.932 232 233.656 231.384 233.656C230.768 233.656 230.3 233.932 229.98 234.484C229.66 235.036 229.5 235.82 229.5 236.836C229.5 237.844 229.66 238.624 229.98 239.176C230.3 239.728 230.768 240.004 231.384 240.004Z" fill="black"/>
</g>
<g filter="url(#filter3_d_7_386)">
<path d="M249 1H145C140.582 1 137 4.58172 137 9V65C137 69.4183 140.582 73 145 73H249C253.418 73 257 69.4183 257 65V9C257 4.58172 253.418 1 249 1Z" fill="white"/>
<path d="M249 1.5H145C140.858 1.5 137.5 4.85786 137.5 9V65C137.5 69.1421 140.858 72.5 145 72.5H249C253.142 72.5 256.5 69.1421 256.5 65V9C256.5 4.85786 253.142 1.5 249 1.5Z" stroke="#EBE8F8"/>
<path d="M209 25C209 18.3726 203.627 13 197 13C190.373 13 185 18.3726 185 25C185 31.6274 190.373 37 197 37C203.627 37 209 31.6274 209 25Z" fill="#EBE8F8"/>
<mask id="mask1_7_386" style="mask-type:luminance" maskUnits="userSpaceOnUse" x="190" y="18" width="14" height="14">
<path d="M204 18H190V32H204V18Z" fill="white"/>
</mask>
<g mask="url(#mask1_7_386)">
<path opacity="0.4" d="M197.366 18.0793C197.252 18.0273 197.129 18 197 18C196.871 18 196.748 18.0273 196.634 18.0793L191.485 20.2641C190.883 20.5184 190.435 21.1117 190.438 21.8281C190.451 24.5406 191.567 29.5035 196.278 31.7594C196.735 31.9781 197.265 31.9781 197.722 31.7594C202.433 29.5035 203.549 24.5406 203.563 21.8281C203.565 21.1117 203.117 20.5184 202.515 20.2641L197.366 18.0793ZM198.531 23.6875C198.531 24.2973 198.173 24.825 197.656 25.0711V26.9687C197.656 27.3324 197.364 27.625 197 27.625C196.636 27.625 196.344 27.3324 196.344 26.9687V25.0711C195.827 24.825 195.469 24.2973 195.469 23.6875C195.469 22.8426 196.155 22.1562 197 22.1562C197.845 22.1562 198.531 22.8426 198.531 23.6875Z" fill="#3600D1"/>
<path d="M197.656 25.0711C198.173 24.825 198.531 24.2973 198.531 23.6875C198.531 22.8426 197.845 22.1562 197 22.1562C196.155 22.1562 195.469 22.8426 195.469 23.6875C195.469 24.2973 195.827 24.825 196.344 25.0711V26.9688C196.344 27.3324 196.636 27.625 197 27.625C197.364 27.625 197.656 27.3324 197.656 26.9688V25.0711Z" fill="#3600D1"/>
</g>
<path d="M174.488 55.204C173.68 55.204 172.972 55.024 172.364 54.664C171.756 54.296 171.284 53.776 170.948 53.104C170.62 52.424 170.456 51.636 170.456 50.74C170.456 49.828 170.62 49.036 170.948 48.364C171.284 47.692 171.752 47.176 172.352 46.816C172.96 46.456 173.672 46.276 174.488 46.276C175.304 46.276 176.012 46.456 176.612 46.816C177.22 47.176 177.688 47.692 178.016 48.364C178.352 49.036 178.52 49.828 178.52 50.74C178.52 51.644 178.352 52.432 178.016 53.104C177.688 53.776 177.22 54.296 176.612 54.664C176.004 55.024 175.296 55.204 174.488 55.204ZM174.488 53.956C175.256 53.956 175.852 53.672 176.276 53.104C176.7 52.536 176.912 51.748 176.912 50.74C176.912 49.732 176.7 48.944 176.276 48.376C175.852 47.808 175.256 47.524 174.488 47.524C173.728 47.524 173.132 47.808 172.7 48.376C172.276 48.944 172.064 49.732 172.064 50.74C172.064 51.732 172.276 52.516 172.7 53.092C173.132 53.668 173.728 53.956 174.488 53.956ZM179.225 49H180.737L181.913 52.804C182.009 53.108 182.081 53.404 182.129 53.692H182.165C182.213 53.404 182.285 53.108 182.381 52.804L183.545 49H185.057L182.921 55H181.361L179.225 49ZM191.083 52.36H186.871C186.879 52.864 187.027 53.268 187.315 53.572C187.611 53.868 187.995 54.016 188.467 54.016C188.811 54.016 189.107 53.932 189.355 53.764C189.603 53.596 189.795 53.348 189.931 53.02L191.035 53.524C190.811 54.044 190.471 54.444 190.015 54.724C189.567 55.004 189.035 55.144 188.419 55.144C187.499 55.144 186.779 54.876 186.259 54.34C185.739 53.796 185.479 53.036 185.479 52.06C185.479 51.068 185.731 50.288 186.235 49.72C186.747 49.144 187.451 48.856 188.347 48.856C189.219 48.856 189.891 49.104 190.363 49.6C190.843 50.088 191.083 50.788 191.083 51.7V52.36ZM189.667 51.316C189.667 50.828 189.551 50.456 189.319 50.2C189.087 49.944 188.755 49.816 188.323 49.816C187.867 49.816 187.515 49.956 187.267 50.236C187.019 50.516 186.887 50.908 186.871 51.412H189.667V51.316ZM193.902 50.452C194.062 49.956 194.302 49.568 194.622 49.288C194.942 49 195.338 48.856 195.81 48.856C195.882 48.856 195.938 48.86 195.978 48.868V50.248L195.786 50.236C195.258 50.236 194.842 50.38 194.538 50.668C194.322 50.876 194.178 51.132 194.106 51.436C194.034 51.732 193.998 52.08 193.998 52.48V55H192.558V49H193.902V50.452ZM199.3 55.144C198.612 55.144 198.024 55.004 197.536 54.724C197.056 54.444 196.72 54.04 196.528 53.512L197.608 53.032C197.744 53.368 197.956 53.628 198.244 53.812C198.54 53.996 198.9 54.088 199.324 54.088C199.684 54.088 199.96 54.02 200.152 53.884C200.352 53.748 200.452 53.568 200.452 53.344C200.452 53.136 200.384 52.98 200.248 52.876C200.12 52.772 199.9 52.696 199.588 52.648L198.52 52.456C197.96 52.352 197.532 52.156 197.236 51.868C196.948 51.572 196.804 51.184 196.804 50.704C196.804 50.152 197.024 49.708 197.464 49.372C197.904 49.028 198.5 48.856 199.252 48.856C199.892 48.856 200.436 48.98 200.884 49.228C201.34 49.468 201.64 49.804 201.784 50.236L200.788 50.776C200.636 50.496 200.424 50.28 200.152 50.128C199.888 49.976 199.564 49.9 199.18 49.9C198.844 49.9 198.584 49.964 198.4 50.092C198.216 50.212 198.124 50.388 198.124 50.62C198.124 50.82 198.188 50.972 198.316 51.076C198.452 51.18 198.656 51.256 198.928 51.304L200.104 51.52C200.672 51.624 201.088 51.82 201.352 52.108C201.624 52.388 201.76 52.768 201.76 53.248C201.76 53.824 201.54 54.284 201.1 54.628C200.668 54.972 200.068 55.144 199.3 55.144ZM203.187 49H204.627V55H203.187V49ZM203.115 46.504H204.675V48.004H203.115V46.504ZM211.53 49.048C211.13 49.048 210.846 49.176 210.678 49.432C211.102 49.808 211.314 50.288 211.314 50.872C211.314 51.272 211.214 51.628 211.014 51.94C210.814 52.244 210.526 52.484 210.15 52.66C209.782 52.836 209.346 52.924 208.842 52.924C208.378 52.924 207.978 52.852 207.642 52.708C207.442 52.812 207.342 52.964 207.342 53.164C207.342 53.532 207.646 53.716 208.254 53.716H209.826C210.522 53.716 211.05 53.864 211.41 54.16C211.77 54.456 211.95 54.884 211.95 55.444C211.95 56.076 211.678 56.572 211.134 56.932C210.598 57.3 209.802 57.484 208.746 57.484C207.77 57.484 207.054 57.34 206.598 57.052C206.15 56.772 205.926 56.4 205.926 55.936C205.926 55.672 206.01 55.436 206.178 55.228C206.354 55.02 206.602 54.864 206.922 54.76C206.418 54.552 206.166 54.192 206.166 53.68C206.166 53.376 206.246 53.12 206.406 52.912C206.574 52.696 206.81 52.528 207.114 52.408C206.882 52.224 206.702 52 206.574 51.736C206.446 51.472 206.382 51.184 206.382 50.872C206.382 50.272 206.602 49.788 207.042 49.42C207.49 49.044 208.09 48.856 208.842 48.856C209.322 48.856 209.746 48.936 210.114 49.096C210.21 48.752 210.39 48.484 210.654 48.292C210.926 48.092 211.27 47.992 211.686 47.992C211.79 47.992 211.902 48.004 212.022 48.028V49.108C211.846 49.068 211.682 49.048 211.53 49.048ZM208.842 52.048C209.17 52.048 209.434 51.94 209.634 51.724C209.842 51.508 209.946 51.228 209.946 50.884C209.946 50.54 209.846 50.264 209.646 50.056C209.446 49.84 209.178 49.732 208.842 49.732C208.506 49.732 208.238 49.84 208.038 50.056C207.838 50.264 207.738 50.536 207.738 50.872C207.738 51.216 207.838 51.5 208.038 51.724C208.238 51.94 208.506 52.048 208.842 52.048ZM208.05 54.952C207.922 54.952 207.754 54.944 207.546 54.928C207.266 55.104 207.126 55.352 207.126 55.672C207.126 56.256 207.698 56.548 208.842 56.548C210.042 56.548 210.642 56.26 210.642 55.684C210.642 55.196 210.298 54.952 209.61 54.952H208.05ZM213.243 46.3H214.683V50.104C215.043 49.272 215.687 48.856 216.615 48.856C217.263 48.856 217.755 49.06 218.091 49.468C218.427 49.876 218.595 50.476 218.595 51.268V55H217.155V51.388C217.155 50.932 217.059 50.588 216.867 50.356C216.683 50.124 216.407 50.008 216.039 50.008C215.607 50.008 215.271 50.168 215.031 50.488C214.799 50.8 214.683 51.244 214.683 51.82V55H213.243V46.3ZM219.409 49H220.489V47.488L221.929 46.912V49H223.393V50.044H221.929V52.912C221.929 53.232 222.001 53.472 222.145 53.632C222.289 53.784 222.509 53.86 222.805 53.86C222.941 53.86 223.137 53.836 223.393 53.788V55C223.041 55.072 222.713 55.108 222.409 55.108C221.721 55.108 221.229 54.94 220.933 54.604C220.637 54.268 220.489 53.78 220.489 53.14V50.044H219.409V49Z" fill="black"/>
</g>
<path d="M200.5 87L204.83 79.5H196.17L200.5 87ZM201.25 80.25V72H199.75V80.25H201.25Z" fill="#012437"/>
<g filter="url(#filter4_d_7_386)">
<path d="M121 294H17C12.5817 294 9 297.582 9 302V358C9 362.418 12.5817 366 17 366H121C125.418 366 129 362.418 129 358V302C129 297.582 125.418 294 121 294Z" fill="white"/>
<path d="M121 294.5H17C12.8579 294.5 9.5 297.858 9.5 302V358C9.5 362.142 12.8579 365.5 17 365.5H121C125.142 365.5 128.5 362.142 128.5 358V302C128.5 297.858 125.142 294.5 121 294.5Z" stroke="#EBE8F8"/>
<path d="M81 318C81 311.373 75.6274 306 69 306C62.3726 306 57 311.373 57 318C57 324.627 62.3726 330 69 330C75.6274 330 81 324.627 81 318Z" fill="#EBE8F8"/>
<path opacity="0.4" d="M70.6758 313.997L72 313.5L72.4969 312.176C72.5367 312.07 72.6375 312 72.75 312C72.8625 312 72.9633 312.07 73.0031 312.176L73.5 313.5L74.8242 313.997C74.9297 314.037 75 314.138 75 314.25C75 314.363 74.9297 314.463 74.8242 314.503L73.5 315L73.0031 316.324C72.9633 316.43 72.8625 316.5 72.75 316.5C72.6375 316.5 72.5367 316.43 72.4969 316.324L72 315L70.6758 314.503C70.5703 314.463 70.5 314.363 70.5 314.25C70.5 314.138 70.5703 314.037 70.6758 313.997ZM70.6758 321.497L72 321L72.4969 319.676C72.5367 319.57 72.6375 319.5 72.75 319.5C72.8625 319.5 72.9633 319.57 73.0031 319.676L73.5 321L74.8242 321.497C74.9297 321.537 75 321.638 75 321.75C75 321.863 74.9297 321.963 74.8242 322.003L73.5 322.5L73.0031 323.824C72.9633 323.93 72.8625 324 72.75 324C72.6375 324 72.5367 323.93 72.4969 323.824L72 322.5L70.6758 322.003C70.5703 321.963 70.5 321.863 70.5 321.75C70.5 321.638 70.5703 321.537 70.6758 321.497Z" fill="#3600D1"/>
<path d="M67.807 313.718C67.7461 313.584 67.6125 313.5 67.4672 313.5C67.3219 313.5 67.1883 313.584 67.1273 313.718L65.8922 316.392L63.218 317.625C63.0844 317.686 63 317.82 63 317.967C63 318.115 63.0844 318.246 63.218 318.307L65.8922 319.542L67.125 322.214C67.1859 322.348 67.3195 322.432 67.4648 322.432C67.6102 322.432 67.7438 322.348 67.8047 322.214L69.0398 319.54L71.7141 318.305C71.8477 318.244 71.932 318.11 71.932 317.965C71.932 317.82 71.8477 317.686 71.7141 317.625L69.0422 316.392L67.807 313.718Z" fill="#3600D1"/>
<path d="M41.428 339.48C42.028 339.48 42.552 339.588 43 339.804C43.448 340.012 43.792 340.312 44.032 340.704C44.28 341.096 44.404 341.552 44.404 342.072C44.404 342.88 44.136 343.52 43.6 343.992C43.064 344.464 42.336 344.7 41.416 344.7H39.604V348H38.056V339.48H41.428ZM41.14 343.524C41.644 343.524 42.04 343.396 42.328 343.14C42.624 342.884 42.772 342.536 42.772 342.096C42.772 341.656 42.624 341.308 42.328 341.052C42.04 340.796 41.644 340.668 41.14 340.668H39.604V343.524H41.14ZM46.9095 343.452C47.0695 342.956 47.3095 342.568 47.6295 342.288C47.9495 342 48.3455 341.856 48.8175 341.856C48.8895 341.856 48.9455 341.86 48.9855 341.868V343.248L48.7935 343.236C48.2655 343.236 47.8495 343.38 47.5455 343.668C47.3295 343.876 47.1855 344.132 47.1135 344.436C47.0415 344.732 47.0055 345.08 47.0055 345.48V348H45.5655V342H46.9095V343.452ZM55.2123 345.36H51.0003C51.0083 345.864 51.1563 346.268 51.4443 346.572C51.7403 346.868 52.1243 347.016 52.5963 347.016C52.9403 347.016 53.2363 346.932 53.4843 346.764C53.7323 346.596 53.9243 346.348 54.0603 346.02L55.1643 346.524C54.9403 347.044 54.6003 347.444 54.1443 347.724C53.6963 348.004 53.1643 348.144 52.5483 348.144C51.6283 348.144 50.9083 347.876 50.3883 347.34C49.8683 346.796 49.6083 346.036 49.6083 345.06C49.6083 344.068 49.8603 343.288 50.3643 342.72C50.8763 342.144 51.5803 341.856 52.4763 341.856C53.3483 341.856 54.0203 342.104 54.4923 342.6C54.9723 343.088 55.2123 343.788 55.2123 344.7V345.36ZM53.7963 344.316C53.7963 343.828 53.6803 343.456 53.4483 343.2C53.2163 342.944 52.8843 342.816 52.4523 342.816C51.9963 342.816 51.6443 342.956 51.3963 343.236C51.1483 343.516 51.0163 343.908 51.0003 344.412H53.7963V344.316ZM58.6537 348.144C58.1737 348.144 57.7497 348.016 57.3817 347.76C57.0137 347.496 56.7297 347.128 56.5297 346.656C56.3297 346.176 56.2297 345.628 56.2297 345.012C56.2297 344.388 56.3337 343.84 56.5417 343.368C56.7577 342.888 57.0577 342.516 57.4417 342.252C57.8257 341.988 58.2657 341.856 58.7617 341.856C59.5857 341.856 60.1617 342.188 60.4897 342.852V339.3H61.9297V348H60.5737V346.92C60.4057 347.304 60.1537 347.604 59.8177 347.82C59.4897 348.036 59.1017 348.144 58.6537 348.144ZM59.1457 347.04C59.5697 347.04 59.9057 346.876 60.1537 346.548C60.4017 346.212 60.5257 345.764 60.5257 345.204V344.82C60.5257 344.236 60.4017 343.78 60.1537 343.452C59.9057 343.124 59.5657 342.96 59.1337 342.96C58.6937 342.96 58.3497 343.14 58.1017 343.5C57.8537 343.852 57.7297 344.348 57.7297 344.988C57.7297 345.628 57.8537 346.132 58.1017 346.5C58.3577 346.86 58.7057 347.04 59.1457 347.04ZM63.9053 342H65.3453V348H63.9053V342ZM63.8333 339.504H65.3933V341.004H63.8333V339.504ZM69.6929 348.144C69.1009 348.144 68.5809 348.016 68.1329 347.76C67.6929 347.496 67.3529 347.128 67.1129 346.656C66.8729 346.184 66.7529 345.632 66.7529 345C66.7529 344.024 67.0169 343.256 67.5449 342.696C68.0729 342.136 68.7929 341.856 69.7049 341.856C70.4489 341.856 71.0529 342.048 71.5169 342.432C71.9809 342.808 72.2569 343.336 72.3449 344.016L70.9409 344.244C70.8929 343.836 70.7569 343.524 70.5329 343.308C70.3169 343.092 70.0289 342.984 69.6689 342.984C69.2209 342.984 68.8689 343.16 68.6129 343.512C68.3569 343.864 68.2289 344.348 68.2289 344.964C68.2289 345.612 68.3569 346.116 68.6129 346.476C68.8689 346.828 69.2289 347.004 69.6929 347.004C70.0529 347.004 70.3409 346.896 70.5569 346.68C70.7809 346.464 70.9249 346.144 70.9889 345.72L72.3449 345.996C72.2409 346.66 71.9489 347.184 71.4689 347.568C70.9969 347.952 70.4049 348.144 69.6929 348.144ZM72.8859 342H73.9659V340.488L75.4059 339.912V342H76.8699V343.044H75.4059V345.912C75.4059 346.232 75.4779 346.472 75.6219 346.632C75.7659 346.784 75.9859 346.86 76.2819 346.86C76.4179 346.86 76.6139 346.836 76.8699 346.788V348C76.5179 348.072 76.1899 348.108 75.8859 348.108C75.1979 348.108 74.7059 347.94 74.4099 347.604C74.1139 347.268 73.9659 346.78 73.9659 346.14V343.044H72.8859V342ZM78.1905 342H79.6305V348H78.1905V342ZM78.1185 339.504H79.6785V341.004H78.1185V339.504ZM83.978 348.144C83.402 348.144 82.89 348.02 82.442 347.772C82.002 347.524 81.658 347.164 81.41 346.692C81.162 346.212 81.038 345.644 81.038 344.988C81.038 344.332 81.162 343.768 81.41 343.296C81.658 342.824 82.002 342.468 82.442 342.228C82.89 341.98 83.402 341.856 83.978 341.856C84.554 341.856 85.062 341.98 85.502 342.228C85.95 342.468 86.298 342.824 86.546 343.296C86.794 343.768 86.918 344.332 86.918 344.988C86.918 345.644 86.794 346.212 86.546 346.692C86.298 347.164 85.95 347.524 85.502 347.772C85.062 348.02 84.554 348.144 83.978 348.144ZM83.978 347.052C84.442 347.052 84.802 346.88 85.058 346.536C85.314 346.184 85.442 345.668 85.442 344.988C85.442 344.316 85.314 343.808 85.058 343.464C84.81 343.12 84.45 342.948 83.978 342.948C83.506 342.948 83.142 343.12 82.886 343.464C82.63 343.808 82.502 344.316 82.502 344.988C82.502 345.66 82.63 346.172 82.886 346.524C83.142 346.876 83.506 347.052 83.978 347.052ZM88.339 342H89.707V343.164C90.115 342.292 90.779 341.856 91.699 341.856C92.355 341.856 92.851 342.06 93.187 342.468C93.523 342.876 93.691 343.48 93.691 344.28V348H92.251V344.424C92.251 343.48 91.875 343.008 91.123 343.008C90.699 343.008 90.367 343.168 90.127 343.488C89.895 343.808 89.779 344.252 89.779 344.82V348H88.339V342ZM97.636 348.144C96.948 348.144 96.36 348.004 95.872 347.724C95.392 347.444 95.056 347.04 94.864 346.512L95.944 346.032C96.08 346.368 96.292 346.628 96.58 346.812C96.876 346.996 97.236 347.088 97.66 347.088C98.02 347.088 98.296 347.02 98.488 346.884C98.688 346.748 98.788 346.568 98.788 346.344C98.788 346.136 98.72 345.98 98.584 345.876C98.456 345.772 98.236 345.696 97.924 345.648L96.856 345.456C96.296 345.352 95.868 345.156 95.572 344.868C95.284 344.572 95.14 344.184 95.14 343.704C95.14 343.152 95.36 342.708 95.8 342.372C96.24 342.028 96.836 341.856 97.588 341.856C98.228 341.856 98.772 341.98 99.22 342.228C99.676 342.468 99.976 342.804 100.12 343.236L99.124 343.776C98.972 343.496 98.76 343.28 98.488 343.128C98.224 342.976 97.9 342.9 97.516 342.9C97.18 342.9 96.92 342.964 96.736 343.092C96.552 343.212 96.46 343.388 96.46 343.62C96.46 343.82 96.524 343.972 96.652 344.076C96.788 344.18 96.992 344.256 97.264 344.304L98.44 344.52C99.008 344.624 99.424 344.82 99.688 345.108C99.96 345.388 100.096 345.768 100.096 346.248C100.096 346.824 99.876 347.284 99.436 347.628C99.004 347.972 98.404 348.144 97.636 348.144Z" fill="black"/>
</g>
<g filter="url(#filter5_d_7_386)">
<path d="M249 294H145C140.582 294 137 297.582 137 302V358C137 362.418 140.582 366 145 366H249C253.418 366 257 362.418 257 358V302C257 297.582 253.418 294 249 294Z" fill="white"/>
<path d="M249 294.5H145C140.858 294.5 137.5 297.858 137.5 302V358C137.5 362.142 140.858 365.5 145 365.5H249C253.142 365.5 256.5 362.142 256.5 358V302C256.5 297.858 253.142 294.5 249 294.5Z" stroke="#EBE8F8"/>
<path d="M209 318C209 311.373 203.627 306 197 306C190.373 306 185 311.373 185 318C185 324.627 190.373 330 197 330C203.627 330 209 324.627 209 318Z" fill="#EBE8F8"/>
<path d="M192.898 323.833C192.586 323.833 192.333 323.572 192.333 323.25V316.469C192.333 316.147 192.586 315.886 192.898 315.886H194.24C194.552 315.886 194.805 316.147 194.805 316.469V323.25C194.805 323.572 194.552 323.833 194.24 323.833H192.898Z" fill="#3600D1" fill-opacity="0.4"/>
<path d="M197.652 321.296H196.324C196.012 321.296 195.759 321.557 195.759 321.879V323.25C195.759 323.572 196.012 323.833 196.324 323.833H197.652C197.964 323.833 198.217 323.572 198.217 323.25V321.879C198.217 321.557 197.964 321.296 197.652 321.296Z" fill="#3600D1"/>
<path d="M194.226 312.167H192.898C192.586 312.167 192.333 312.428 192.333 312.75V314.121C192.333 314.443 192.586 314.704 192.898 314.704H194.226C194.538 314.704 194.791 314.443 194.791 314.121V312.75C194.791 312.428 194.538 312.167 194.226 312.167Z" fill="#3600D1"/>
<path d="M201.084 319.604H199.756C199.444 319.604 199.191 319.865 199.191 320.188V323.25C199.191 323.572 199.444 323.833 199.756 323.833H201.084C201.396 323.833 201.649 323.572 201.649 323.25V320.188C201.649 319.865 201.396 319.604 201.084 319.604Z" fill="#3600D1" fill-opacity="0.4"/>
<path d="M199.756 318.424C199.445 318.421 199.195 318.161 199.195 317.84V316.469C199.195 316.147 199.448 315.886 199.76 315.886H201.102C201.414 315.886 201.667 316.147 201.667 316.469V317.85C201.667 318.174 201.411 318.436 201.098 318.433L199.756 318.424Z" fill="#3600D1"/>
<path d="M196.324 320.115C196.012 320.115 195.759 319.854 195.759 319.531V316.469C195.759 316.147 196.012 315.886 196.324 315.886H197.666C197.978 315.886 198.231 316.147 198.231 316.469V319.531C198.231 319.854 197.978 320.115 197.666 320.115H196.324Z" fill="#3600D1" fill-opacity="0.4"/>
<path d="M176.38 345.756H173.044L172.276 348H170.704L173.872 339.48H175.552L178.72 348H177.148L176.38 345.756ZM175.972 344.58L174.976 341.7C174.88 341.42 174.796 341.116 174.724 340.788H174.7C174.628 341.116 174.544 341.42 174.448 341.7L173.452 344.58H175.972ZM179.886 342H181.254V343.164C181.662 342.292 182.326 341.856 183.246 341.856C183.902 341.856 184.398 342.06 184.734 342.468C185.07 342.876 185.238 343.48 185.238 344.28V348H183.798V344.424C183.798 343.48 183.422 343.008 182.67 343.008C182.246 343.008 181.914 343.168 181.674 343.488C181.442 343.808 181.326 344.252 181.326 344.82V348H179.886V342ZM188.523 348.144C187.907 348.144 187.411 347.984 187.035 347.664C186.659 347.336 186.471 346.904 186.471 346.368C186.471 346.08 186.531 345.82 186.651 345.588C186.779 345.356 186.963 345.164 187.203 345.012C187.419 344.884 187.679 344.78 187.983 344.7C188.287 344.612 188.679 344.536 189.159 344.472L190.431 344.316V344.16C190.431 343.712 190.339 343.388 190.155 343.188C189.979 342.98 189.699 342.876 189.315 342.876C188.963 342.876 188.683 342.968 188.475 343.152C188.275 343.328 188.163 343.588 188.139 343.932H186.663C186.711 343.292 186.971 342.788 187.443 342.42C187.915 342.044 188.539 341.856 189.315 341.856C190.203 341.856 190.851 342.056 191.259 342.456C191.675 342.848 191.883 343.48 191.883 344.352V346.14C191.883 346.956 191.943 347.576 192.063 348H190.623C190.567 347.672 190.535 347.328 190.527 346.968C190.383 347.336 190.131 347.624 189.771 347.832C189.419 348.04 189.003 348.144 188.523 348.144ZM188.979 347.124C189.427 347.124 189.787 346.98 190.059 346.692C190.331 346.396 190.467 346.012 190.467 345.54V345.156L189.111 345.36C188.711 345.424 188.419 345.532 188.235 345.684C188.051 345.836 187.959 346.04 187.959 346.296C187.959 346.552 188.047 346.756 188.223 346.908C188.407 347.052 188.659 347.124 188.979 347.124ZM195.155 348H193.715V339.3H195.155V348ZM197.328 350.4C197.152 350.4 196.932 350.38 196.668 350.34V349.2C196.812 349.232 196.98 349.248 197.172 349.248C197.516 349.248 197.788 349.172 197.988 349.02C198.196 348.876 198.356 348.636 198.468 348.3L198.588 347.94L196.248 342H197.832L199.14 345.924C199.212 346.14 199.272 346.376 199.32 346.632H199.344C199.36 346.488 199.42 346.252 199.524 345.924L200.712 342H202.212L199.956 348.336C199.692 349.08 199.352 349.608 198.936 349.92C198.52 350.24 197.984 350.4 197.328 350.4ZM202.812 342H203.892V340.488L205.332 339.912V342H206.796V343.044H205.332V345.912C205.332 346.232 205.404 346.472 205.548 346.632C205.692 346.784 205.912 346.86 206.208 346.86C206.344 346.86 206.54 346.836 206.796 346.788V348C206.444 348.072 206.116 348.108 205.812 348.108C205.124 348.108 204.632 347.94 204.336 347.604C204.04 347.268 203.892 346.78 203.892 346.14V343.044H202.812V342ZM208.116 342H209.556V348H208.116V342ZM208.044 339.504H209.604V341.004H208.044V339.504ZM213.904 348.144C213.312 348.144 212.792 348.016 212.344 347.76C211.904 347.496 211.564 347.128 211.324 346.656C211.084 346.184 210.964 345.632 210.964 345C210.964 344.024 211.228 343.256 211.756 342.696C212.284 342.136 213.004 341.856 213.916 341.856C214.66 341.856 215.264 342.048 215.728 342.432C216.192 342.808 216.468 343.336 216.556 344.016L215.152 344.244C215.104 343.836 214.968 343.524 214.744 343.308C214.528 343.092 214.24 342.984 213.88 342.984C213.432 342.984 213.08 343.16 212.824 343.512C212.568 343.864 212.44 344.348 212.44 344.964C212.44 345.612 212.568 346.116 212.824 346.476C213.08 346.828 213.44 347.004 213.904 347.004C214.264 347.004 214.552 346.896 214.768 346.68C214.992 346.464 215.136 346.144 215.2 345.72L216.556 345.996C216.452 346.66 216.16 347.184 215.68 347.568C215.208 347.952 214.616 348.144 213.904 348.144ZM220.109 348.144C219.421 348.144 218.833 348.004 218.345 347.724C217.865 347.444 217.529 347.04 217.337 346.512L218.417 346.032C218.553 346.368 218.765 346.628 219.053 346.812C219.349 346.996 219.709 347.088 220.133 347.088C220.493 347.088 220.769 347.02 220.961 346.884C221.161 346.748 221.261 346.568 221.261 346.344C221.261 346.136 221.193 345.98 221.057 345.876C220.929 345.772 220.709 345.696 220.397 345.648L219.329 345.456C218.769 345.352 218.341 345.156 218.045 344.868C217.757 344.572 217.613 344.184 217.613 343.704C217.613 343.152 217.833 342.708 218.273 342.372C218.713 342.028 219.309 341.856 220.061 341.856C220.701 341.856 221.245 341.98 221.693 342.228C222.149 342.468 222.449 342.804 222.593 343.236L221.597 343.776C221.445 343.496 221.233 343.28 220.961 343.128C220.697 342.976 220.373 342.9 219.989 342.9C219.653 342.9 219.393 342.964 219.209 343.092C219.025 343.212 218.933 343.388 218.933 343.62C218.933 343.82 218.997 343.972 219.125 344.076C219.261 344.18 219.465 344.256 219.737 344.304L220.913 344.52C221.481 344.624 221.897 344.82 222.161 345.108C222.433 345.388 222.569 345.768 222.569 346.248C222.569 346.824 222.349 347.284 221.909 347.628C221.477 347.972 220.877 348.144 220.109 348.144Z" fill="black"/>
</g>
<g filter="url(#filter6_d_7_386)">
<path d="M377 294H273C268.582 294 265 297.582 265 302V358C265 362.418 268.582 366 273 366H377C381.418 366 385 362.418 385 358V302C385 297.582 381.418 294 377 294Z" fill="white"/>
<path d="M377 294.5H273C268.858 294.5 265.5 297.858 265.5 302V358C265.5 362.142 268.858 365.5 273 365.5H377C381.142 365.5 384.5 362.142 384.5 358V302C384.5 297.858 381.142 294.5 377 294.5Z" stroke="#EBE8F8"/>
<path d="M337 318C337 311.373 331.627 306 325 306C318.373 306 313 311.373 313 318C313 324.627 318.373 330 325 330C331.627 330 337 324.627 337 318Z" fill="#EBE8F8"/>
<mask id="mask2_7_386" style="mask-type:luminance" maskUnits="userSpaceOnUse" x="318" y="312" width="14" height="12">
<path d="M332 312.4H318V323.6H332V312.4Z" fill="white"/>
</mask>
<g mask="url(#mask2_7_386)">
<path opacity="0.4" d="M322.9 314.15C322.9 313.686 322.716 313.241 322.387 312.912C322.059 312.584 321.614 312.4 321.15 312.4C320.686 312.4 320.241 312.584 319.913 312.912C319.584 313.241 319.4 313.686 319.4 314.15C319.4 314.614 319.584 315.059 319.913 315.387C320.241 315.716 320.686 315.9 321.15 315.9C321.614 315.9 322.059 315.716 322.387 315.387C322.716 315.059 322.9 314.614 322.9 314.15ZM330.95 314.15C330.95 313.686 330.766 313.241 330.437 312.912C330.109 312.584 329.664 312.4 329.2 312.4C328.736 312.4 328.291 312.584 327.963 312.912C327.634 313.241 327.45 313.686 327.45 314.15C327.45 314.614 327.634 315.059 327.963 315.387C328.291 315.716 328.736 315.9 329.2 315.9C329.664 315.9 330.109 315.716 330.437 315.387C330.766 315.059 330.95 314.614 330.95 314.15ZM320.334 316.6C319.046 316.6 318 317.646 318 318.934C318 319.19 318.21 319.4 318.466 319.4H323.134C323.138 319.4 323.143 319.4 323.149 319.4C322.567 318.886 322.202 318.136 322.202 317.3C322.202 317.134 322.217 316.972 322.244 316.812C321.946 316.674 321.616 316.6 321.268 316.6H320.334ZM326.853 319.4C326.857 319.4 326.862 319.4 326.868 319.4H331.534C331.792 319.4 332 319.19 332 318.934C332 317.646 330.954 316.6 329.666 316.6H328.734C328.386 316.6 328.056 316.676 327.758 316.812C327.787 316.97 327.8 317.134 327.8 317.3C327.8 318.136 327.433 318.886 326.853 319.4Z" fill="#3600D1"/>
<path d="M325.117 319.517C325.392 319.517 325.665 319.462 325.92 319.357C326.175 319.251 326.407 319.097 326.602 318.902C326.797 318.707 326.951 318.475 327.057 318.22C327.162 317.966 327.217 317.692 327.217 317.417C327.217 317.141 327.162 316.868 327.057 316.613C326.951 316.358 326.797 316.127 326.602 315.932C326.407 315.737 326.175 315.582 325.92 315.477C325.665 315.371 325.392 315.317 325.117 315.317C324.841 315.317 324.568 315.371 324.313 315.477C324.058 315.582 323.827 315.737 323.632 315.932C323.437 316.127 323.282 316.358 323.176 316.613C323.071 316.868 323.017 317.141 323.017 317.417C323.017 317.692 323.071 317.966 323.176 318.22C323.282 318.475 323.437 318.707 323.632 318.902C323.827 319.097 324.058 319.251 324.313 319.357C324.568 319.462 324.841 319.517 325.117 319.517ZM323.833 320.217C322.223 320.217 320.917 321.523 320.917 323.133C320.917 323.454 321.177 323.717 321.501 323.717H328.733C329.054 323.717 329.317 323.456 329.317 323.133C329.317 321.523 328.011 320.217 326.401 320.217H323.833Z" fill="#3600D1"/>
</g>
<path d="M289.756 348.204C288.78 348.204 287.984 347.988 287.368 347.556C286.76 347.124 286.364 346.544 286.18 345.816L287.5 345.24C287.66 345.76 287.928 346.18 288.304 346.5C288.68 346.812 289.18 346.968 289.804 346.968C290.284 346.968 290.684 346.868 291.004 346.668C291.332 346.46 291.496 346.148 291.496 345.732C291.496 345.34 291.38 345.052 291.148 344.868C290.924 344.676 290.56 344.528 290.056 344.424L288.868 344.172C287.38 343.868 286.636 343.052 286.636 341.724C286.636 341.236 286.76 340.808 287.008 340.44C287.264 340.072 287.628 339.788 288.1 339.588C288.572 339.38 289.124 339.276 289.756 339.276C290.596 339.276 291.304 339.452 291.88 339.804C292.464 340.148 292.848 340.664 293.032 341.352L291.796 342C291.66 341.504 291.412 341.124 291.052 340.86C290.7 340.588 290.244 340.452 289.684 340.452C289.22 340.452 288.844 340.556 288.556 340.764C288.276 340.964 288.136 341.244 288.136 341.604C288.136 341.948 288.236 342.22 288.436 342.42C288.644 342.612 288.984 342.76 289.456 342.864L290.692 343.128C291.452 343.288 292.032 343.56 292.432 343.944C292.832 344.32 293.032 344.868 293.032 345.588C293.032 346.084 292.908 346.532 292.66 346.932C292.412 347.324 292.04 347.636 291.544 347.868C291.056 348.092 290.46 348.204 289.756 348.204ZM299.525 345.36H295.313C295.321 345.864 295.469 346.268 295.757 346.572C296.053 346.868 296.437 347.016 296.909 347.016C297.253 347.016 297.549 346.932 297.797 346.764C298.045 346.596 298.237 346.348 298.373 346.02L299.477 346.524C299.253 347.044 298.913 347.444 298.457 347.724C298.009 348.004 297.477 348.144 296.861 348.144C295.941 348.144 295.221 347.876 294.701 347.34C294.181 346.796 293.921 346.036 293.921 345.06C293.921 344.068 294.173 343.288 294.677 342.72C295.189 342.144 295.893 341.856 296.789 341.856C297.661 341.856 298.333 342.104 298.805 342.6C299.285 343.088 299.525 343.788 299.525 344.7V345.36ZM298.109 344.316C298.109 343.828 297.993 343.456 297.761 343.2C297.529 342.944 297.197 342.816 296.765 342.816C296.309 342.816 295.957 342.956 295.709 343.236C295.461 343.516 295.329 343.908 295.313 344.412H298.109V344.316ZM305.968 342.048C305.568 342.048 305.284 342.176 305.116 342.432C305.54 342.808 305.752 343.288 305.752 343.872C305.752 344.272 305.652 344.628 305.452 344.94C305.252 345.244 304.964 345.484 304.588 345.66C304.22 345.836 303.784 345.924 303.28 345.924C302.816 345.924 302.416 345.852 302.08 345.708C301.88 345.812 301.78 345.964 301.78 346.164C301.78 346.532 302.084 346.716 302.692 346.716H304.264C304.96 346.716 305.488 346.864 305.848 347.16C306.208 347.456 306.388 347.884 306.388 348.444C306.388 349.076 306.116 349.572 305.572 349.932C305.036 350.3 304.24 350.484 303.184 350.484C302.208 350.484 301.492 350.34 301.036 350.052C300.588 349.772 300.364 349.4 300.364 348.936C300.364 348.672 300.448 348.436 300.616 348.228C300.792 348.02 301.04 347.864 301.36 347.76C300.856 347.552 300.604 347.192 300.604 346.68C300.604 346.376 300.684 346.12 300.844 345.912C301.012 345.696 301.248 345.528 301.552 345.408C301.32 345.224 301.14 345 301.012 344.736C300.884 344.472 300.82 344.184 300.82 343.872C300.82 343.272 301.04 342.788 301.48 342.42C301.928 342.044 302.528 341.856 303.28 341.856C303.76 341.856 304.184 341.936 304.552 342.096C304.648 341.752 304.828 341.484 305.092 341.292C305.364 341.092 305.708 340.992 306.124 340.992C306.228 340.992 306.34 341.004 306.46 341.028V342.108C306.284 342.068 306.12 342.048 305.968 342.048ZM303.28 345.048C303.608 345.048 303.872 344.94 304.072 344.724C304.28 344.508 304.384 344.228 304.384 343.884C304.384 343.54 304.284 343.264 304.084 343.056C303.884 342.84 303.616 342.732 303.28 342.732C302.944 342.732 302.676 342.84 302.476 343.056C302.276 343.264 302.176 343.536 302.176 343.872C302.176 344.216 302.276 344.5 302.476 344.724C302.676 344.94 302.944 345.048 303.28 345.048ZM302.488 347.952C302.36 347.952 302.192 347.944 301.984 347.928C301.704 348.104 301.564 348.352 301.564 348.672C301.564 349.256 302.136 349.548 303.28 349.548C304.48 349.548 305.08 349.26 305.08 348.684C305.08 348.196 304.736 347.952 304.048 347.952H302.488ZM308.953 342V343.056C309.313 342.256 309.905 341.856 310.729 341.856C311.577 341.856 312.145 342.26 312.433 343.068C312.841 342.26 313.465 341.856 314.305 341.856C314.881 341.856 315.329 342.052 315.649 342.444C315.977 342.828 316.141 343.372 316.141 344.076V348H314.701V344.304C314.701 343.44 314.373 343.008 313.717 343.008C313.349 343.008 313.065 343.136 312.865 343.392C312.673 343.648 312.577 344.016 312.577 344.496V348H311.137V344.268C311.137 343.852 311.053 343.54 310.885 343.332C310.725 343.116 310.485 343.008 310.165 343.008C309.805 343.008 309.525 343.144 309.325 343.416C309.125 343.68 309.025 344.052 309.025 344.532V348H307.585V342H308.953ZM323.009 345.36H318.797C318.805 345.864 318.953 346.268 319.241 346.572C319.537 346.868 319.921 347.016 320.393 347.016C320.737 347.016 321.033 346.932 321.281 346.764C321.529 346.596 321.721 346.348 321.857 346.02L322.961 346.524C322.737 347.044 322.397 347.444 321.941 347.724C321.493 348.004 320.961 348.144 320.345 348.144C319.425 348.144 318.705 347.876 318.185 347.34C317.665 346.796 317.405 346.036 317.405 345.06C317.405 344.068 317.657 343.288 318.161 342.72C318.673 342.144 319.377 341.856 320.273 341.856C321.145 341.856 321.817 342.104 322.289 342.6C322.769 343.088 323.009 343.788 323.009 344.7V345.36ZM321.593 344.316C321.593 343.828 321.477 343.456 321.245 343.2C321.013 342.944 320.681 342.816 320.249 342.816C319.793 342.816 319.441 342.956 319.193 343.236C318.945 343.516 318.813 343.908 318.797 344.412H321.593V344.316ZM324.483 342H325.851V343.164C326.259 342.292 326.923 341.856 327.843 341.856C328.499 341.856 328.995 342.06 329.331 342.468C329.667 342.876 329.835 343.48 329.835 344.28V348H328.395V344.424C328.395 343.48 328.019 343.008 327.267 343.008C326.843 343.008 326.511 343.168 326.271 343.488C326.039 343.808 325.923 344.252 325.923 344.82V348H324.483V342ZM330.652 342H331.732V340.488L333.172 339.912V342H334.636V343.044H333.172V345.912C333.172 346.232 333.244 346.472 333.388 346.632C333.532 346.784 333.752 346.86 334.048 346.86C334.184 346.86 334.38 346.836 334.636 346.788V348C334.284 348.072 333.956 348.108 333.652 348.108C332.964 348.108 332.472 347.94 332.176 347.604C331.88 347.268 331.732 346.78 331.732 346.14V343.044H330.652V342ZM337.468 348.144C336.852 348.144 336.356 347.984 335.98 347.664C335.604 347.336 335.416 346.904 335.416 346.368C335.416 346.08 335.476 345.82 335.596 345.588C335.724 345.356 335.908 345.164 336.148 345.012C336.364 344.884 336.624 344.78 336.928 344.7C337.232 344.612 337.624 344.536 338.104 344.472L339.376 344.316V344.16C339.376 343.712 339.284 343.388 339.1 343.188C338.924 342.98 338.644 342.876 338.26 342.876C337.908 342.876 337.628 342.968 337.42 343.152C337.22 343.328 337.108 343.588 337.084 343.932H335.608C335.656 343.292 335.916 342.788 336.388 342.42C336.86 342.044 337.484 341.856 338.26 341.856C339.148 341.856 339.796 342.056 340.204 342.456C340.62 342.848 340.828 343.48 340.828 344.352V346.14C340.828 346.956 340.888 347.576 341.008 348H339.568C339.512 347.672 339.48 347.328 339.472 346.968C339.328 347.336 339.076 347.624 338.716 347.832C338.364 348.04 337.948 348.144 337.468 348.144ZM337.924 347.124C338.372 347.124 338.732 346.98 339.004 346.692C339.276 346.396 339.412 346.012 339.412 345.54V345.156L338.056 345.36C337.656 345.424 337.364 345.532 337.18 345.684C336.996 345.836 336.904 346.04 336.904 346.296C336.904 346.552 336.992 346.756 337.168 346.908C337.352 347.052 337.604 347.124 337.924 347.124ZM341.714 342H342.794V340.488L344.234 339.912V342H345.698V343.044H344.234V345.912C344.234 346.232 344.306 346.472 344.45 346.632C344.594 346.784 344.814 346.86 345.11 346.86C345.246 346.86 345.442 346.836 345.698 346.788V348C345.346 348.072 345.018 348.108 344.714 348.108C344.026 348.108 343.534 347.94 343.238 347.604C342.942 347.268 342.794 346.78 342.794 346.14V343.044H341.714V342ZM347.019 342H348.459V348H347.019V342ZM346.947 339.504H348.507V341.004H346.947V339.504ZM352.806 348.144C352.23 348.144 351.718 348.02 351.27 347.772C350.83 347.524 350.486 347.164 350.238 346.692C349.99 346.212 349.866 345.644 349.866 344.988C349.866 344.332 349.99 343.768 350.238 343.296C350.486 342.824 350.83 342.468 351.27 342.228C351.718 341.98 352.23 341.856 352.806 341.856C353.382 341.856 353.89 341.98 354.33 342.228C354.778 342.468 355.126 342.824 355.374 343.296C355.622 343.768 355.746 344.332 355.746 344.988C355.746 345.644 355.622 346.212 355.374 346.692C355.126 347.164 354.778 347.524 354.33 347.772C353.89 348.02 353.382 348.144 352.806 348.144ZM352.806 347.052C353.27 347.052 353.63 346.88 353.886 346.536C354.142 346.184 354.27 345.668 354.27 344.988C354.27 344.316 354.142 343.808 353.886 343.464C353.638 343.12 353.278 342.948 352.806 342.948C352.334 342.948 351.97 343.12 351.714 343.464C351.458 343.808 351.33 344.316 351.33 344.988C351.33 345.66 351.458 346.172 351.714 346.524C351.97 346.876 352.334 347.052 352.806 347.052ZM357.167 342H358.535V343.164C358.943 342.292 359.607 341.856 360.527 341.856C361.183 341.856 361.679 342.06 362.015 342.468C362.351 342.876 362.519 343.48 362.519 344.28V348H361.079V344.424C361.079 343.48 360.703 343.008 359.951 343.008C359.527 343.008 359.195 343.168 358.955 343.488C358.723 343.808 358.607 344.252 358.607 344.82V348H357.167V342Z" fill="black"/>
</g>
<path d="M196 271V291.5" stroke="#012437" stroke-width="1.5"/>
<path d="M195.436 271C195.436 278.168 189.626 280.941 182.458 280.941H77.4178C71.0418 280.941 65.873 286.11 65.873 292.486" stroke="#012437" stroke-width="1.5"/>
<path d="M196 271C196 277.111 200.94 281.02 207.051 280.994L312.978 280.53C319.609 280.501 325 285.869 325 292.5" stroke="#012437" stroke-width="1.5"/>
<path d="M196 294.857L200.33 287.357H191.67L196 294.857Z" fill="#012437"/>
<path d="M324.648 295L328.978 287.5H320.318L324.648 295Z" fill="#012437"/>
<path d="M66.4081 295L70.7382 287.5H62.0779L66.4081 295Z" fill="#012437"/>
<defs>
<filter id="filter0_d_7_386" x="0" y="0" width="393" height="366" filterUnits="userSpaceOnUse" color-interpolation-filters="sRGB">
<feFlood flood-opacity="0" result="BackgroundImageFix"/>
<feColorMatrix in="SourceAlpha" type="matrix" values="0 0 0 0 0 0 0 0 0 0 0 0 0 0 0 0 0 0 127 0" result="hardAlpha"/>
<feOffset dy="4"/>
<feGaussianBlur stdDeviation="10"/>
<feComposite in2="hardAlpha" operator="out"/>
<feColorMatrix type="matrix" values="0 0 0 0 0.211765 0 0 0 0 0 0 0 0 0 0.819608 0 0 0 0.1 0"/>
<feBlend mode="normal" in2="BackgroundImageFix" result="effect1_dropShadow_7_386"/>
<feBlend mode="normal" in="SourceGraphic" in2="effect1_dropShadow_7_386" result="shape"/>
</filter>
<filter id="filter1_d_7_386" x="133" y="103" width="128" height="80" filterUnits="userSpaceOnUse" color-interpolation-filters="sRGB">
<feFlood flood-opacity="0" result="BackgroundImageFix"/>
<feColorMatrix in="SourceAlpha" type="matrix" values="0 0 0 0 0 0 0 0 0 0 0 0 0 0 0 0 0 0 127 0" result="hardAlpha"/>
<feOffset dy="4"/>
<feGaussianBlur stdDeviation="2"/>
<feComposite in2="hardAlpha" operator="out"/>
<feColorMatrix type="matrix" values="0 0 0 0 0.764706 0 0 0 0 0.682353 0 0 0 0 1 0 0 0 0.2 0"/>
<feBlend mode="normal" in2="BackgroundImageFix" result="effect1_dropShadow_7_386"/>
<feBlend mode="normal" in="SourceGraphic" in2="effect1_dropShadow_7_386" result="shape"/>
</filter>
<filter id="filter2_d_7_386" x="132" y="187" width="128" height="80" filterUnits="userSpaceOnUse" color-interpolation-filters="sRGB">
<feFlood flood-opacity="0" result="BackgroundImageFix"/>
<feColorMatrix in="SourceAlpha" type="matrix" values="0 0 0 0 0 0 0 0 0 0 0 0 0 0 0 0 0 0 127 0" result="hardAlpha"/>
<feOffset dy="4"/>
<feGaussianBlur stdDeviation="2"/>
<feComposite in2="hardAlpha" operator="out"/>
<feColorMatrix type="matrix" values="0 0 0 0 0.764706 0 0 0 0 0.682353 0 0 0 0 1 0 0 0 0.2 0"/>
<feBlend mode="normal" in2="BackgroundImageFix" result="effect1_dropShadow_7_386"/>
<feBlend mode="normal" in="SourceGraphic" in2="effect1_dropShadow_7_386" result="shape"/>
</filter>
<filter id="filter3_d_7_386" x="133" y="1" width="128" height="80" filterUnits="userSpaceOnUse" color-interpolation-filters="sRGB">
<feFlood flood-opacity="0" result="BackgroundImageFix"/>
<feColorMatrix in="SourceAlpha" type="matrix" values="0 0 0 0 0 0 0 0 0 0 0 0 0 0 0 0 0 0 127 0" result="hardAlpha"/>
<feOffset dy="4"/>
<feGaussianBlur stdDeviation="2"/>
<feComposite in2="hardAlpha" operator="out"/>
<feColorMatrix type="matrix" values="0 0 0 0 0.764706 0 0 0 0 0.682353 0 0 0 0 1 0 0 0 0.2 0"/>
<feBlend mode="normal" in2="BackgroundImageFix" result="effect1_dropShadow_7_386"/>
<feBlend mode="normal" in="SourceGraphic" in2="effect1_dropShadow_7_386" result="shape"/>
</filter>
<filter id="filter4_d_7_386" x="5" y="294" width="128" height="80" filterUnits="userSpaceOnUse" color-interpolation-filters="sRGB">
<feFlood flood-opacity="0" result="BackgroundImageFix"/>
<feColorMatrix in="SourceAlpha" type="matrix" values="0 0 0 0 0 0 0 0 0 0 0 0 0 0 0 0 0 0 127 0" result="hardAlpha"/>
<feOffset dy="4"/>
<feGaussianBlur stdDeviation="2"/>
<feComposite in2="hardAlpha" operator="out"/>
<feColorMatrix type="matrix" values="0 0 0 0 0.764706 0 0 0 0 0.682353 0 0 0 0 1 0 0 0 0.2 0"/>
<feBlend mode="normal" in2="BackgroundImageFix" result="effect1_dropShadow_7_386"/>
<feBlend mode="normal" in="SourceGraphic" in2="effect1_dropShadow_7_386" result="shape"/>
</filter>
<filter id="filter5_d_7_386" x="133" y="294" width="128" height="80" filterUnits="userSpaceOnUse" color-interpolation-filters="sRGB">
<feFlood flood-opacity="0" result="BackgroundImageFix"/>
<feColorMatrix in="SourceAlpha" type="matrix" values="0 0 0 0 0 0 0 0 0 0 0 0 0 0 0 0 0 0 127 0" result="hardAlpha"/>
<feOffset dy="4"/>
<feGaussianBlur stdDeviation="2"/>
<feComposite in2="hardAlpha" operator="out"/>
<feColorMatrix type="matrix" values="0 0 0 0 0.764706 0 0 0 0 0.682353 0 0 0 0 1 0 0 0 0.2 0"/>
<feBlend mode="normal" in2="BackgroundImageFix" result="effect1_dropShadow_7_386"/>
<feBlend mode="normal" in="SourceGraphic" in2="effect1_dropShadow_7_386" result="shape"/>
</filter>
<filter id="filter6_d_7_386" x="261" y="294" width="128" height="80" filterUnits="userSpaceOnUse" color-interpolation-filters="sRGB">
<feFlood flood-opacity="0" result="BackgroundImageFix"/>
<feColorMatrix in="SourceAlpha" type="matrix" values="0 0 0 0 0 0 0 0 0 0 0 0 0 0 0 0 0 0 127 0" result="hardAlpha"/>
<feOffset dy="4"/>
<feGaussianBlur stdDeviation="2"/>
<feComposite in2="hardAlpha" operator="out"/>
<feColorMatrix type="matrix" values="0 0 0 0 0.764706 0 0 0 0 0.682353 0 0 0 0 1 0 0 0 0.2 0"/>
<feBlend mode="normal" in2="BackgroundImageFix" result="effect1_dropShadow_7_386"/>
<feBlend mode="normal" in="SourceGraphic" in2="effect1_dropShadow_7_386" result="shape"/>
</filter>
</defs>
</svg>
