<svg width="20" height="20" viewBox="0 0 20 20" fill="none" xmlns="http://www.w3.org/2000/svg">
<path d="M10.4744 4.30016C10.4744 4.03891 10.2606 3.82516 9.99935 3.82516C9.7381 3.82516 9.52436 4.03891 9.52436 4.30016V9.52517H4.29937C4.03812 9.52517 3.82437 9.73892 3.82437 10.0002C3.82437 10.2614 4.03812 10.4752 4.29937 10.4752H9.52436V15.7002C9.52436 15.9614 9.7381 16.1752 9.99935 16.1752C10.2606 16.1752 10.4744 15.9614 10.4744 15.7002V10.4752H15.6994C15.9606 10.4752 16.1744 10.2614 16.1744 10.0002C16.1744 9.73892 15.9606 9.52517 15.6994 9.52517H10.4744V4.30016Z" fill="black"/>
</svg>