<svg width="24" height="24" viewBox="0 0 24 24" fill="currentColor" xmlns="http://www.w3.org/2000/svg" id="add-colorable">>
    <path d="M12.5992 4.8002C12.5992 4.4702 12.3292 4.2002 11.9992 4.2002C11.6692 4.2002 11.3992 4.4702 11.3992 4.8002V11.4002H4.79922C4.46922 11.4002 4.19922 11.6702 4.19922 12.0002C4.19922 12.3302 4.46922 12.6002 4.79922 12.6002H11.3992V19.2002C11.3992 19.5302 11.6692 19.8002 11.9992 19.8002C12.3292 19.8002 12.5992 19.5302 12.5992 19.2002V12.6002H19.1992C19.5292 12.6002 19.7992 12.3302 19.7992 12.0002C19.7992 11.6702 19.5292 11.4002 19.1992 11.4002H12.5992V4.8002Z"
          fill="currentColor"/>
</svg>