<svg width="24" height="24" viewBox="0 0 24 24" fill="none" xmlns="http://www.w3.org/2000/svg">
<path d="M12.5813 7.95414C12.5625 8.02539 12.5325 8.08914 12.4875 8.14914C12.435 8.22039 12.3713 8.27664 12.3 8.31789C12.2288 8.35914 12.1463 8.38539 12.06 8.39664C11.94 8.40789 11.8125 8.38539 11.7 8.32164L6.37125 5.27289C6.63375 7.23039 7.57875 8.69289 8.53875 9.71289C9.105 10.3129 9.6675 10.7554 10.0913 11.0441C10.3013 11.1904 10.4775 11.2954 10.5975 11.3666C10.6575 11.4004 10.7025 11.4266 10.7325 11.4416L10.7663 11.4604L10.7737 11.4641C11.07 11.6141 11.19 11.9741 11.04 12.2704C10.89 12.5666 10.53 12.6866 10.2338 12.5404L10.5 12.0004C10.23 12.5366 10.23 12.5366 10.23 12.5366L10.2263 12.5329L10.2112 12.5254C10.2 12.5179 10.185 12.5104 10.1625 12.4991C10.1213 12.4766 10.065 12.4466 9.99375 12.4054C9.85125 12.3229 9.64875 12.1991 9.4125 12.0341C8.93625 11.7079 8.3025 11.2091 7.665 10.5341C6.39 9.18414 5.1 7.09539 5.1 4.20039C5.1 3.98664 5.2125 3.78789 5.4 3.68289C5.5875 3.57789 5.8125 3.57414 6 3.67914L11.49 6.81789C11.9513 4.30539 14.1525 2.40039 16.8 2.40039H17.7H18H18.2175H20.4C20.73 2.40039 21 2.67039 21 3.00039C21 3.26289 20.8313 3.48789 20.595 3.56664C20.8688 3.92289 21.0638 4.33914 21.1575 4.80039H23.6513C23.8425 4.80039 24 4.95789 24 5.14914C24 5.29914 23.9025 5.43414 23.76 5.47914L21.315 6.29289L21.4912 8.14539C21.5775 9.04164 21.1463 9.91164 20.3813 10.3916C19.29 11.0741 17.8538 10.7666 17.1375 9.69414L17.0738 9.60039H16.8V11.1004C16.8 11.1266 16.7963 11.1566 16.7963 11.1829C16.8 11.2541 16.8 11.3291 16.8 11.4004C16.8 12.5591 16.335 13.5904 15.6 14.3404V20.1004C15.6 20.9291 14.9288 21.6004 14.1 21.6004H12.9C12.0713 21.6004 11.4 20.9291 11.4 20.1004V15.4354L8.09625 14.6929C8.0775 15.2291 7.96125 15.7541 7.75125 16.2454L7.4475 16.9579C7.365 17.1454 7.35375 17.3554 7.40625 17.5541L8.0025 19.6991C8.26875 20.6554 7.54875 21.6004 6.55875 21.6004H5.31C4.635 21.6004 4.04625 21.1504 3.86625 20.5016L3.36 18.6791C3.04875 17.5616 3.1275 16.3729 3.585 15.3041L3.88875 14.5916C3.89625 14.5766 3.9 14.5616 3.9 14.5429C3.9 14.5279 3.89625 14.5129 3.8925 14.4979L2.64 11.4941C2.4825 11.1154 2.4 10.7141 2.4 10.3054C1.7025 10.5529 1.2 11.2204 1.2 12.0041V13.8041C1.2 14.1341 0.93 14.4041 0.6 14.4041C0.27 14.4041 0 14.1341 0 13.8041V12.0004C0 10.4516 1.17375 9.18039 2.6775 9.01914C3.015 8.27664 3.6375 7.69164 4.4025 7.40289C4.53 7.79289 4.68 8.16789 4.845 8.52039C4.1175 8.78289 3.6 9.48039 3.6 10.3016C3.6 10.5529 3.64875 10.8004 3.74625 11.0329L4.99875 14.0366C5.06625 14.1979 5.1 14.3704 5.1 14.5429C5.1 14.7229 5.0625 14.8991 4.995 15.0641L4.69125 15.7766C4.3425 16.5904 4.2825 17.5016 4.51875 18.3566L5.025 20.1791C5.0625 20.3104 5.17875 20.4004 5.31375 20.4004H6.55875C6.7575 20.4004 6.9 20.2129 6.8475 20.0216L6.25125 17.8766C6.12375 17.4154 6.1575 16.9279 6.345 16.4891L6.64875 15.7766C6.81375 15.3866 6.9 14.9704 6.9 14.5466C6.9 14.3741 6.885 14.2016 6.85875 14.0329C6.825 13.8341 6.8925 13.6354 7.03875 13.4966C7.185 13.3579 7.3875 13.3016 7.5825 13.3466L11.94 14.3254C11.9925 14.3366 12.045 14.3479 12.1013 14.3554C12.39 14.4041 12.6 14.6554 12.6 14.9479V20.1004C12.6 20.2654 12.735 20.4004 12.9 20.4004H14.1C14.265 20.4004 14.4 20.2654 14.4 20.1004V14.0854C14.4 13.9129 14.4713 13.7516 14.5988 13.6391C15.21 13.0916 15.6 12.3004 15.6 11.4004C15.6 11.3141 15.5963 11.2316 15.5888 11.1491C15.585 11.0929 15.5888 11.0329 15.6 10.9804V9.00039C15.6 8.67039 15.87 8.40039 16.2 8.40039H17.4C17.6025 8.40039 17.7863 8.50164 17.8988 8.66664L18.1388 9.02664C18.4913 9.55914 19.2075 9.71289 19.7475 9.37164C20.1262 9.13539 20.34 8.70414 20.2988 8.25789L20.01 5.22789C19.9237 4.30539 19.1475 3.60039 18.2175 3.60039H18H17.7H16.8C14.4825 3.60039 12.6038 5.47539 12.6 7.78914C12.6 7.84539 12.5963 7.89789 12.5813 7.95414ZM17.4 6.00039C17.4 5.84126 17.4632 5.68865 17.5757 5.57613C17.6883 5.4636 17.8409 5.40039 18 5.40039C18.1591 5.40039 18.3117 5.4636 18.4243 5.57613C18.5368 5.68865 18.6 5.84126 18.6 6.00039C18.6 6.15952 18.5368 6.31213 18.4243 6.42465C18.3117 6.53718 18.1591 6.60039 18 6.60039C17.8409 6.60039 17.6883 6.53718 17.5757 6.42465C17.4632 6.31213 17.4 6.15952 17.4 6.00039Z" fill="black"/>
</svg>
