<svg width="20" height="20" viewBox="0 0 20 20" xmlns="http://www.w3.org/2000/svg" >
<g clip-path="url(#clip0_1_2)">
<path d="M10.4602 6.79703C10.4453 6.85344 10.4216 6.90391 10.3859 6.95141C10.3444 7.00781 10.2939 7.05235 10.2375 7.085C10.1811 7.11766 10.1158 7.13844 10.0475 7.14735C9.9525 7.15625 9.85156 7.13844 9.7625 7.08797L5.54391 4.67438C5.75172 6.22406 6.49984 7.38188 7.25984 8.18938C7.70812 8.66438 8.15344 9.0147 8.48895 9.24325C8.6552 9.35907 8.79469 9.4422 8.88969 9.49856C8.93719 9.52532 8.97281 9.54606 8.99656 9.55794L9.02332 9.57282L9.02918 9.57575C9.26375 9.6945 9.35875 9.9795 9.24 10.2141C9.12125 10.4486 8.83625 10.5436 8.60176 10.4278L8.8125 10.0003C8.59875 10.4248 8.59875 10.4248 8.59875 10.4248L8.59582 10.4219L8.58387 10.4159C8.575 10.41 8.56313 10.4041 8.54531 10.3951C8.5127 10.3773 8.46812 10.3536 8.41172 10.3209C8.29891 10.2556 8.13859 10.1576 7.95156 10.027C7.57453 9.76876 7.07281 9.37388 6.56813 8.8395C5.55875 7.77078 4.5375 6.11719 4.5375 3.82531C4.5375 3.6561 4.62656 3.49875 4.775 3.41563C4.92344 3.3325 5.10156 3.32953 5.25 3.41266L9.59625 5.8975C9.96145 3.90844 11.7041 2.40031 13.8 2.40031H14.5125H14.75H14.9222H16.65C16.9113 2.40031 17.125 2.61406 17.125 2.87531C17.125 3.08313 16.9914 3.26125 16.8044 3.3236C17.0211 3.60563 17.1755 3.93516 17.2497 4.30031H19.2239C19.3753 4.30031 19.5 4.425 19.5 4.57641C19.5 4.69516 19.4228 4.80203 19.31 4.83766L17.3744 5.48188L17.5139 6.94844C17.5822 7.65797 17.2408 8.34672 16.6352 8.72669C15.7713 9.267 14.6343 9.02356 14.0672 8.17453L14.0168 8.10031H13.8V9.28782C13.8 9.30856 13.7971 9.33231 13.7971 9.35313C13.8 9.4095 13.8 9.46888 13.8 9.52532C13.8 10.4426 13.4319 11.2591 12.85 11.8528V16.4128C12.85 17.0689 12.3186 17.6003 11.6625 17.6003H10.7125C10.0564 17.6003 9.525 17.0689 9.525 16.4128V12.7197L6.90953 12.1319C6.89469 12.5564 6.80266 12.972 6.63641 13.3609L6.39594 13.925C6.33063 14.0734 6.32172 14.2397 6.36328 14.397L6.83531 16.0951C7.04609 16.8522 6.47609 17.6003 5.69234 17.6003H4.70375C4.16938 17.6003 3.70328 17.2441 3.56078 16.7304L3.16 15.2876C2.91359 14.4029 2.97594 13.4619 3.33813 12.6158L3.57859 12.0517C3.58453 12.0398 3.5875 12.0279 3.5875 12.0131C3.5875 12.0013 3.58453 11.9894 3.58156 11.9775L2.59 9.5995C2.46531 9.2997 2.4 8.982 2.4 8.65845C1.84781 8.85438 1.45 9.38282 1.45 10.0033V11.4283C1.45 11.6895 1.23625 11.9033 0.975 11.9033C0.71375 11.9033 0.5 11.6895 0.5 11.4283V10.0003C0.5 8.77419 1.42922 7.76781 2.61969 7.64016C2.88688 7.05235 3.37969 6.58922 3.98531 6.36063C4.08625 6.66938 4.205 6.96625 4.33562 7.24531C3.75969 7.45313 3.35 8.00531 3.35 8.65544C3.35 8.85439 3.38859 9.05032 3.46578 9.23438L4.45734 11.6123C4.51078 11.74 4.5375 11.8766 4.5375 12.0131C4.5375 12.1556 4.50781 12.2951 4.45438 12.4258L4.21391 12.9898C3.93781 13.6341 3.89031 14.3554 4.07734 15.0323L4.47813 16.4751C4.50781 16.5791 4.59984 16.6503 4.70672 16.6503H5.69234C5.84969 16.6503 5.9625 16.5019 5.92094 16.3504L5.44891 14.6523C5.34797 14.2872 5.37469 13.9013 5.52312 13.5539L5.76359 12.9898C5.89422 12.6811 5.9625 12.3516 5.9625 12.0161C5.9625 11.8795 5.95063 11.7429 5.92984 11.6094C5.90313 11.452 5.95656 11.2947 6.07234 11.1848C6.18813 11.075 6.34844 11.0304 6.50281 11.0661L9.9525 11.8409C9.99406 11.8498 10.0356 11.8588 10.0802 11.8647C10.3088 11.9033 10.475 12.1022 10.475 12.3338V16.4128C10.475 16.5434 10.5819 16.6503 10.7125 16.6503H11.6625C11.7931 16.6503 11.9 16.5434 11.9 16.4128V11.6509C11.9 11.5144 11.9564 11.3867 12.0574 11.2976C12.5413 10.8642 12.85 10.2378 12.85 9.52532C12.85 9.457 12.8471 9.39169 12.8411 9.32638C12.8381 9.28188 12.8411 9.23438 12.85 9.19282V7.62531C12.85 7.36406 13.0638 7.15031 13.325 7.15031H14.275C14.4353 7.15031 14.5808 7.23047 14.6699 7.3611L14.8599 7.6461C15.1389 8.06766 15.7059 8.18938 16.1334 7.91922C16.4332 7.73219 16.6025 7.39078 16.5699 7.0375L16.3413 4.63875C16.2729 3.90844 15.6584 3.35031 14.9222 3.35031H14.75H14.5125H13.8C11.9653 3.35031 10.478 4.83469 10.475 6.66641C10.475 6.71094 10.4721 6.7525 10.4602 6.79703ZM14.275 5.25031C14.275 5.12434 14.325 5.00352 14.4141 4.91444C14.5032 4.82536 14.624 4.77531 14.75 4.77531C14.876 4.77531 14.9968 4.82536 15.0859 4.91444C15.175 5.00352 15.225 5.12434 15.225 5.25031C15.225 5.37629 15.175 5.49711 15.0859 5.58619C14.9968 5.67527 14.876 5.72531 14.75 5.72531C14.624 5.72531 14.5032 5.67527 14.4141 5.58619C14.325 5.49711 14.275 5.37629 14.275 5.25031Z" fill="currentColor"/>
</g>
<defs>
</defs>
</svg>
