<svg width="20" height="20" viewBox="0 0 20 20" fill="none" xmlns="http://www.w3.org/2000/svg">
<path d="M4.43349 17.9167C4.00999 17.9167 3.66667 17.5622 3.66667 17.125V7.92197C3.66667 7.48474 4.00999 7.13029 4.43349 7.13029H6.25465C6.67816 7.13029 7.02147 7.48474 7.02147 7.92197V17.125C7.02147 17.5622 6.67816 17.9167 6.25465 17.9167H4.43349Z" fill="#9F9F9F"/>
<path d="M10.8843 14.4729H9.08231C8.65884 14.4729 8.31549 14.8273 8.31549 15.2646V17.1249C8.31549 17.5622 8.65884 17.9166 9.08231 17.9166H10.8843C11.3078 17.9166 11.6511 17.5622 11.6511 17.1249V15.2646C11.6511 14.8273 11.3078 14.4729 10.8843 14.4729Z" fill="black"/>
<path d="M6.23549 2.08333H4.43349C4.00999 2.08333 3.66667 2.43777 3.66667 2.87499V4.73538C3.66667 5.17261 4.00999 5.52705 4.43349 5.52705H6.23549C6.65899 5.52705 7.0023 5.17261 7.0023 4.73538V2.87499C7.0023 2.43777 6.65899 2.08333 6.23549 2.08333Z" fill="black"/>
<path d="M15.5425 12.177H13.7405C13.317 12.177 12.9737 12.5314 12.9737 12.9687V17.1249C12.9737 17.5621 13.317 17.9166 13.7405 17.9166H15.5425C15.966 17.9166 16.3093 17.5621 16.3093 17.1249V12.9687C16.3093 12.5314 15.966 12.177 15.5425 12.177Z" fill="#9F9F9F"/>
<path d="M13.7398 10.5747C13.3185 10.5716 12.9786 10.218 12.9786 9.783V7.92197C12.9786 7.48474 13.3218 7.13029 13.7454 7.13029H15.5665C15.99 7.13029 16.3333 7.48474 16.3333 7.92197V9.79646C16.3333 10.2359 15.9867 10.5912 15.5611 10.5881L13.7398 10.5747Z" fill="black"/>
<path d="M9.08231 12.8699C8.65884 12.8699 8.31549 12.5154 8.31549 12.0781V7.92197C8.31549 7.48474 8.65884 7.13029 9.08231 7.13029H10.9035C11.327 7.13029 11.6703 7.48474 11.6703 7.92197V12.0781C11.6703 12.5154 11.327 12.8699 10.9035 12.8699H9.08231Z" fill="#9F9F9F"/>
</svg>
