<svg width="24" height="24" viewBox="0 0 24 24" fill="none" xmlns="http://www.w3.org/2000/svg">
    <path d="M4.96861 22C4.43366 22 4 21.5523 4 21V9.37512C4 8.82283 4.43366 8.37511 4.96861 8.37511H7.26903C7.80398 8.37511 8.23764 8.82283 8.23764 9.37512V21C8.23764 21.5523 7.80398 22 7.26903 22H4.96861Z"
          fill="#9F9F9F"/>
    <path d="M13.117 17.65H10.8408C10.3059 17.65 9.87219 18.0977 9.87219 18.65V20.9999C9.87219 21.5522 10.3059 21.9999 10.8408 21.9999H13.117C13.652 21.9999 14.0856 21.5522 14.0856 20.9999V18.65C14.0856 18.0977 13.652 17.65 13.117 17.65Z"
          fill="black"/>
    <path d="M7.24482 2H4.96861C4.43366 2 4 2.44772 4 3V5.34996C4 5.90225 4.43366 6.34996 4.96861 6.34996H7.24482C7.77977 6.34996 8.21343 5.90225 8.21343 5.34996V3C8.21343 2.44772 7.77977 2 7.24482 2Z"
          fill="black"/>
    <path d="M19.001 14.7499H16.7248C16.1899 14.7499 15.7562 15.1976 15.7562 15.7499V20.9999C15.7562 21.5521 16.1899 21.9999 16.7248 21.9999H19.001C19.536 21.9999 19.9696 21.5521 19.9696 20.9999V15.7499C19.9696 15.1976 19.536 14.7499 19.001 14.7499Z"
          fill="#9F9F9F"/>
    <path d="M16.724 12.7259C16.1918 12.722 15.7624 12.2754 15.7624 11.7259V9.37512C15.7624 8.82283 16.196 8.37511 16.731 8.37511H19.0314C19.5663 8.37511 20 8.82283 20 9.37512V11.7429C20 12.298 19.5621 12.7468 19.0245 12.7429L16.724 12.7259Z"
          fill="black"/>
    <path d="M10.8408 15.6251C10.3059 15.6251 9.87219 15.1773 9.87219 14.625V9.37512C9.87219 8.82283 10.3059 8.37511 10.8408 8.37511H13.1412C13.6762 8.37511 14.1098 8.82283 14.1098 9.37512V14.625C14.1098 15.1773 13.6762 15.6251 13.1412 15.6251H10.8408Z"
          fill="#9F9F9F"/>
</svg>