<svg width="24" height="24" viewBox="0 0 24 24" fill="currentColor" xmlns="http://www.w3.org/2000/svg">
<path d="M20.2234 12.4236C20.4559 12.1911 20.4559 11.8086 20.2234 11.5761L15.4234 6.77605C15.1909 6.54355 14.8084 6.54355 14.5759 6.77605C14.3434 7.00855 14.3434 7.39105 14.5759 7.62355L18.3521 11.3998H14.3996H7.79961C7.46961 11.3998 7.19961 11.6698 7.19961 11.9998C7.19961 12.3298 7.46961 12.5998 7.79961 12.5998H14.3996H18.3521L14.5759 16.3761C14.3434 16.6086 14.3434 16.9911 14.5759 17.2236C14.8084 17.4561 15.1909 17.4561 15.4234 17.2236L20.2234 12.4236ZM4.79961 5.3998C4.79961 5.0698 4.52961 4.7998 4.19961 4.7998C3.86961 4.7998 3.59961 5.0698 3.59961 5.3998V18.5998C3.59961 18.9298 3.86961 19.1998 4.19961 19.1998C4.52961 19.1998 4.79961 18.9298 4.79961 18.5998V5.3998Z" fill="black"/>
</svg>
