<svg width="25" height="24" viewBox="0 0 25 24" fill="none" xmlns="http://www.w3.org/2000/svg">
  <g clip-path="url(#clip0_1068_3010)">
    <path opacity="0.4" d="M11 2.32504C11 1.89379 10.6344 1.54692 10.2031 1.60317C4.72344 2.35786 0.5 7.06411 0.5 12.75C0.5 18.9657 5.53906 24 11.75 24C17.4406 24 22.1422 19.7766 22.8922 14.2969C22.9531 13.8657 22.6062 13.5 22.1703 13.5H11V2.32504Z" fill="#20007A" />
    <path d="M13.25 11.25H23.7219C24.1437 11.25 24.5 10.9219 24.5 10.5C24.5 4.70156 19.7984 0 14 0C13.5781 0 13.25 0.35625 13.25 0.778125V11.25Z" fill="#20007A" />
  </g>
  <defs>
    <clipPath id="clip0_1068_3010">
      <rect width="24" height="24" fill="white" transform="translate(0.5)" />
    </clipPath>
  </defs>
</svg>