<svg width="24" height="24" viewBox="0 0 24 24" fill="currentColor" xmlns="http://www.w3.org/2000/svg">
    <path d="M7.04922 3.59961C8.72172 3.59961 10.413 3.92211 11.9992 4.44711C13.5855 3.92211 15.2767 3.59961 16.9492 3.59961C19.0267 3.59961 20.9692 4.14711 21.783 4.40961C22.413 4.61211 22.7992 5.19336 22.7992 5.81586V17.4934C22.7992 18.5021 21.858 19.1734 20.9617 19.0159C20.268 18.8959 19.038 18.7459 17.2492 18.7459C15.0405 18.7459 13.5817 19.6571 13.0792 20.0246C12.798 20.2309 12.4342 20.3846 12.0217 20.3959C12.0142 20.3959 12.003 20.3959 11.9955 20.3959C11.9917 20.3959 11.9917 20.3959 11.988 20.3959C11.9842 20.3959 11.9805 20.3959 11.9767 20.3959C11.5942 20.3959 11.2417 20.2684 10.9642 20.0809C10.4055 19.7059 8.77422 18.7496 6.74922 18.7496C5.05422 18.7496 3.74547 18.9146 2.99922 19.0384C2.09922 19.1884 1.19922 18.5096 1.19922 17.5309V5.81586C1.19922 5.19336 1.58547 4.61211 2.21547 4.40961C3.02922 4.14711 4.97172 3.59961 7.04922 3.59961ZM12.5992 18.8996C13.3605 18.3934 14.9655 17.5496 17.2492 17.5496C19.1055 17.5496 20.403 17.7071 21.1642 17.8346C21.258 17.8496 21.378 17.8234 21.4717 17.7484C21.5542 17.6809 21.5992 17.5984 21.5992 17.4934V5.81586C21.5992 5.68461 21.5205 5.58711 21.4155 5.55336C20.6467 5.30586 18.843 4.79961 16.9492 4.79961C15.5017 4.79961 14.0205 5.06586 12.5992 5.51211V18.8996ZM11.3992 5.51211C9.97797 5.06211 8.49672 4.79961 7.04922 4.79961C5.15547 4.79961 3.35172 5.30586 2.58297 5.54961C2.47797 5.58336 2.39922 5.68461 2.39922 5.81211V17.5309C2.39922 17.6321 2.44047 17.7146 2.51547 17.7746C2.59797 17.8421 2.70672 17.8684 2.80047 17.8534C3.59922 17.7184 4.97547 17.5459 6.74922 17.5459C8.87922 17.5459 10.6042 18.4346 11.3992 18.9296V5.51211Z" fill="black"/>
</svg>
