<svg width="24" height="24" viewBox="0 0 24 24" fill="none" xmlns="http://www.w3.org/2000/svg">
<path opacity="0.4" d="M5 5C5.55313 5 6 5.44687 6 6V16.5C6 16.775 6.225 17 6.5 17H19C19.5531 17 20 17.4469 20 18C20 18.5531 19.5531 19 19 19H6.5C5.11875 19 4 17.8813 4 16.5V6C4 5.44687 4.44687 5 5 5Z" fill="black"/>
<path d="M19 7C19 6.44687 18.5531 6 18 6C17.4469 6 17 6.44687 17 7V14C17 14.5531 17.4469 15 18 15C18.5531 15 19 14.5531 19 14V7ZM13 9C13 8.44688 12.5531 8 12 8C11.4469 8 11 8.44688 11 9V14C11 14.5531 11.4469 15 12 15C12.5531 15 13 14.5531 13 14V9ZM10 12C10 11.4469 9.55313 11 9 11C8.44687 11 8 11.4469 8 12V14C8 14.5531 8.44687 15 9 15C9.55313 15 10 14.5531 10 14V12ZM15 10C14.4469 10 14 10.4469 14 11V14C14 14.5531 14.4469 15 15 15C15.5531 15 16 14.5531 16 14V11C16 10.4469 15.5531 10 15 10Z" fill="black"/>
</svg>
