<svg width="20" height="20" viewBox="0 0 20 20"  xmlns="http://www.w3.org/2000/svg">
<path d="M4.45833 4.85416C4.45833 4.63645 4.28021 4.45833 4.0625 4.45833C3.84479 4.45833 3.66667 4.63645 3.66667 4.85416V13.5625C3.66667 14.656 4.55234 15.5417 5.64583 15.5417H15.9375C16.1552 15.5417 16.3333 15.3635 16.3333 15.1458C16.3333 14.9281 16.1552 14.75 15.9375 14.75H5.64583C4.99024 14.75 4.45833 14.2181 4.45833 13.5625V4.85416ZM15.4254 7.50872C15.5788 7.35534 15.5788 7.10299 15.4254 6.9496C15.272 6.79621 15.0196 6.79621 14.8663 6.9496L11.5833 10.2325L9.48787 8.1371C9.33452 7.98371 9.08214 7.98371 8.9288 8.1371L6.15794 10.908C6.00455 11.0613 6.00455 11.3137 6.15794 11.467C6.31132 11.6205 6.56367 11.6205 6.71706 11.467L9.20833 8.97582L11.3038 11.0712C11.4571 11.2246 11.7095 11.2246 11.8629 11.0712L15.4254 7.50872Z" fill="currentColor"/>
</svg>
