<svg viewBox="0 0 24 24" xmlns="http://www.w3.org/2000/svg">
    <path d="M5 5.5C5 5.225 4.775 5 4.5 5C4.225 5 4 5.225 4 5.5V16.5C4 17.8813 5.11875 19 6.5 19H19.5C19.775 19 20 18.775 20 18.5C20 18.225 19.775 18 19.5 18H6.5C5.67188 18 5 17.3281 5 16.5V5.5ZM18.8531 8.85313C19.0469 8.65938 19.0469 8.34062 18.8531 8.14687C18.6594 7.95312 18.3406 7.95312 18.1469 8.14687L14 12.2937L11.3531 9.64687C11.1594 9.45312 10.8406 9.45312 10.6469 9.64687L7.14687 13.1469C6.95312 13.3406 6.95312 13.6594 7.14687 13.8531C7.34062 14.0469 7.65938 14.0469 7.85313 13.8531L11 10.7063L13.6469 13.3531C13.8406 13.5469 14.1594 13.5469 14.3531 13.3531L18.8531 8.85313Z"
          fill="currentColor"/>
</svg>