<svg width="20" height="20" viewBox="0 0 20 20"  xmlns="http://www.w3.org/2000/svg">
<path opacity="0.4" d="M4.45833 4.45833C4.89623 4.45833 5.25 4.8121 5.25 5.24999V13.5625C5.25 13.7802 5.42812 13.9583 5.64583 13.9583H15.5417C15.9795 13.9583 16.3333 14.3121 16.3333 14.75C16.3333 15.1879 15.9795 15.5417 15.5417 15.5417H5.64583C4.55234 15.5417 3.66666 14.656 3.66666 13.5625V5.24999C3.66666 4.8121 4.02044 4.45833 4.45833 4.45833Z" fill="currentColor"/>
<path d="M15.5417 6.04167C15.5417 5.60377 15.1879 5.25 14.75 5.25C14.3121 5.25 13.9583 5.60377 13.9583 6.04167V11.5833C13.9583 12.0212 14.3121 12.375 14.75 12.375C15.1879 12.375 15.5417 12.0212 15.5417 11.5833V6.04167ZM10.7917 7.625C10.7917 7.18711 10.4379 6.83333 10 6.83333C9.56213 6.83333 9.20834 7.18711 9.20834 7.625V11.5833C9.20834 12.0212 9.56213 12.375 10 12.375C10.4379 12.375 10.7917 12.0212 10.7917 11.5833V7.625ZM8.41667 10C8.41667 9.56213 8.0629 9.20833 7.625 9.20833C7.18711 9.20833 6.83334 9.56213 6.83334 10V11.5833C6.83334 12.0212 7.18711 12.375 7.625 12.375C8.0629 12.375 8.41667 12.0212 8.41667 11.5833V10ZM12.375 8.41667C11.9371 8.41667 11.5833 8.77046 11.5833 9.20833V11.5833C11.5833 12.0212 11.9371 12.375 12.375 12.375C12.8129 12.375 13.1667 12.0212 13.1667 11.5833V9.20833C13.1667 8.77046 12.8129 8.41667 12.375 8.41667Z" fill="currentColor"/>
</svg>
