<svg width="24" height="24" viewBox="0 0 24 24" fill="none" xmlns="http://www.w3.org/2000/svg">
<g id="circle-dashed">
<path id="Vector" d="M3.10416 11.1001C3.41166 11.1001 3.67041 10.8676 3.72291 10.5639C3.93666 9.31513 4.42791 8.16013 5.12916 7.16263C5.30541 6.91138 5.29041 6.56263 5.07291 6.34513C4.82166 6.09388 4.40541 6.11263 4.19916 6.40138C3.35541 7.57888 2.76666 8.95138 2.52666 10.4401C2.46666 10.7926 2.74791 11.1001 3.10416 11.1001ZM7.16166 5.13013C8.15541 4.42888 9.31041 3.93763 10.5592 3.72013C10.8667 3.67138 11.0992 3.41263 11.0992 3.10513C11.0992 2.74888 10.7917 2.46763 10.4429 2.52763C8.95041 2.76763 7.57791 3.35638 6.40041 4.20013C6.11166 4.40638 6.09291 4.82263 6.34416 5.07388C6.56166 5.29138 6.91041 5.31013 7.16166 5.13013ZM12.8992 20.8951C12.8992 21.2514 13.2067 21.5326 13.5554 21.4726C15.0442 21.2289 16.4204 20.6439 17.5942 19.8001C17.8829 19.5939 17.9017 19.1776 17.6504 18.9264C17.4329 18.7089 17.0842 18.6901 16.8329 18.8701C15.8392 19.5714 14.6842 20.0626 13.4354 20.2801C13.1317 20.3326 12.8992 20.5876 12.8992 20.8989V20.8951ZM18.8692 16.8376C18.6929 17.0889 18.7079 17.4376 18.9254 17.6551C19.1767 17.9064 19.5929 17.8876 19.7992 17.5989C20.6429 16.4214 21.2317 15.0489 21.4717 13.5601C21.5279 13.2076 21.2504 12.9039 20.8942 12.9039C20.5867 12.9039 20.3279 13.1364 20.2754 13.4401C20.0617 14.6889 19.5704 15.8439 18.8654 16.8376H18.8692ZM6.34416 18.9264C6.09291 19.1776 6.11166 19.5939 6.40041 19.8001C7.57791 20.6439 8.95041 21.2326 10.4392 21.4726C10.7917 21.5289 11.0954 21.2514 11.0954 20.8951C11.0954 20.5876 10.8629 20.3289 10.5592 20.2764C9.31041 20.0626 8.15541 19.5714 7.16166 18.8664C6.91041 18.6901 6.56166 18.7051 6.34416 18.9226V18.9264ZM4.19916 17.5989C4.40541 17.8876 4.82166 17.9064 5.07291 17.6551C5.29041 17.4376 5.30916 17.0889 5.12916 16.8376C4.42791 15.8401 3.93666 14.6851 3.72291 13.4364C3.67041 13.1326 3.41166 12.9001 3.10416 12.9001C2.74791 12.9001 2.46666 13.2076 2.52666 13.5564C2.76666 15.0489 3.35541 16.4214 4.19916 17.5989ZM17.6542 5.07388C17.9054 4.82263 17.8867 4.40638 17.5979 4.20013C16.4204 3.35638 15.0479 2.76763 13.5592 2.52763C13.2067 2.46763 12.8992 2.74888 12.8992 3.10513C12.8992 3.41263 13.1317 3.67138 13.4354 3.72388C14.6842 3.93763 15.8392 4.42888 16.8367 5.13013C17.0879 5.30638 17.4367 5.29138 17.6542 5.07388ZM18.8692 7.16263C19.5704 8.15638 20.0617 9.31139 20.2792 10.5601C20.3317 10.8639 20.5867 11.0964 20.8979 11.0964C21.2542 11.0964 21.5354 10.7889 21.4754 10.4401C21.2317 8.95138 20.6467 7.57513 19.8029 6.40138C19.5967 6.11263 19.1804 6.09388 18.9292 6.34513C18.7117 6.56263 18.6929 6.91138 18.8729 7.16263H18.8692Z" fill="#0F0E0E"/>
</g>
</svg>
