<svg  viewBox="0 0 20 20"  xmlns="http://www.w3.org/2000/svg">
<path d="M12.9737 6.67748C13.1469 6.77643 13.3497 6.83334 13.5625 6.83334C13.6269 6.83334 13.6911 6.82839 13.7505 6.81849C14.317 6.72696 14.75 6.23712 14.75 5.64584C14.75 4.99024 14.2181 4.45834 13.5625 4.45834C12.9069 4.45834 12.375 4.99024 12.375 5.64584C12.375 5.66315 12.375 5.678 12.375 5.69532C12.3873 5.97735 12.4962 6.23216 12.6694 6.43008C12.7559 6.52904 12.8574 6.61315 12.9712 6.67748H12.9737ZM12.8277 7.48399C12.4517 7.33308 12.13 7.06837 11.9099 6.73438L7.59282 8.45871C7.61262 8.57255 7.62499 8.6913 7.62499 8.8125C7.62499 9.16875 7.53098 9.50276 7.36523 9.79219L10.7793 12.7807C11.1009 12.5358 11.5017 12.3849 11.9347 12.3775L12.8253 7.48646L12.8277 7.48399ZM12.7164 12.516C13.4437 12.808 13.9583 13.5205 13.9583 14.3542C13.9583 15.4477 13.0727 16.3333 11.9792 16.3333C10.8856 16.3333 9.99999 15.4477 9.99999 14.3542C9.99999 13.9979 10.094 13.6639 10.2597 13.3745L6.84569 10.3859C6.51171 10.6408 6.09608 10.7917 5.64582 10.7917C4.55233 10.7917 3.66666 9.90595 3.66666 8.8125C3.66666 7.71902 4.55233 6.83334 5.64582 6.83334C6.33606 6.83334 6.94465 7.18712 7.29843 7.72396L11.6155 5.99962C11.5957 5.88582 11.5833 5.76707 11.5833 5.64584C11.5833 4.55235 12.469 3.66667 13.5625 3.66667C14.656 3.66667 15.5417 4.55235 15.5417 5.64584C15.5417 6.72448 14.6783 7.60274 13.6045 7.625L12.7139 12.516H12.7164ZM6.63046 9.47553C6.64777 9.45083 6.66262 9.42605 6.67746 9.39881C6.77642 9.22568 6.83332 9.02523 6.83332 8.81005C6.83332 8.15443 6.30142 7.62253 5.64582 7.62253C4.99023 7.62253 4.45832 8.15443 4.45832 8.81005C4.45832 9.46563 4.99023 9.99755 5.64582 9.99755C5.85611 9.99755 6.0565 9.94308 6.22721 9.84413C6.38801 9.75261 6.52655 9.62642 6.63046 9.47307V9.47553ZM10.8757 13.9138C10.8213 14.0499 10.7917 14.1983 10.7917 14.3542C10.7917 15.0098 11.3236 15.5417 11.9792 15.5417C12.6347 15.5417 13.1667 15.0098 13.1667 14.3542C13.1667 13.6986 12.6347 13.1667 11.9792 13.1667C11.6328 13.1667 11.3211 13.3151 11.1059 13.5502C11.0391 13.6219 10.9821 13.701 10.9351 13.7877C10.9129 13.8272 10.8931 13.8717 10.8757 13.9138Z" fill="currentColor"/>
</svg>
