<svg width="24" height="24" viewBox="0 0 24 24" fill="none" xmlns="http://www.w3.org/2000/svg">
<path d="M15.7563 7.80312C15.975 7.92812 16.2312 8 16.5 8C16.5813 8 16.6625 7.99375 16.7375 7.98125C17.4531 7.86563 18 7.24688 18 6.5C18 5.67188 17.3281 5 16.5 5C15.6719 5 15 5.67188 15 6.5C15 6.52187 15 6.54063 15 6.5625C15.0156 6.91875 15.1531 7.24062 15.3719 7.49062C15.4812 7.61562 15.6094 7.72187 15.7531 7.80312H15.7563ZM15.5719 8.82188C15.0969 8.63125 14.6906 8.29688 14.4125 7.875L8.95937 10.0531C8.98438 10.1969 9 10.3469 9 10.5C9 10.95 8.88125 11.3719 8.67188 11.7375L12.9844 15.5125C13.3906 15.2031 13.8969 15.0125 14.4438 15.0031L15.5688 8.825L15.5719 8.82188ZM15.4312 15.1781C16.35 15.5469 17 16.4469 17 17.5C17 18.8813 15.8813 20 14.5 20C13.1187 20 12 18.8813 12 17.5C12 17.05 12.1187 16.6281 12.3281 16.2625L8.01562 12.4875C7.59375 12.8094 7.06875 13 6.5 13C5.11875 13 4 11.8812 4 10.5C4 9.11875 5.11875 8 6.5 8C7.37188 8 8.14062 8.44688 8.5875 9.125L14.0406 6.94688C14.0156 6.80313 14 6.65313 14 6.5C14 5.11875 15.1187 4 16.5 4C17.8813 4 19 5.11875 19 6.5C19 7.8625 17.9094 8.97188 16.5531 9L15.4281 15.1781H15.4312ZM7.74375 11.3375C7.76562 11.3063 7.78437 11.275 7.80312 11.2406C7.92812 11.0219 8 10.7687 8 10.4969C8 9.66875 7.32812 8.99687 6.5 8.99687C5.67188 8.99687 5 9.66875 5 10.4969C5 11.325 5.67188 11.9969 6.5 11.9969C6.76562 11.9969 7.01875 11.9281 7.23438 11.8031C7.4375 11.6875 7.6125 11.5281 7.74375 11.3344V11.3375ZM13.1062 16.9438C13.0375 17.1156 13 17.3031 13 17.5C13 18.3281 13.6719 19 14.5 19C15.3281 19 16 18.3281 16 17.5C16 16.6719 15.3281 16 14.5 16C14.0625 16 13.6688 16.1875 13.3969 16.4844C13.3125 16.575 13.2406 16.675 13.1812 16.7844C13.1531 16.8344 13.1281 16.8906 13.1062 16.9438Z" fill="black"/>
</svg>
