<svg width="24" height="24" viewBox="0 0 24 24" fill="none" xmlns="http://www.w3.org/2000/svg">
<path d="M15.4281 8.24062C15.75 8.0875 16.1125 8 16.5 8C17.8813 8 19 9.11875 19 10.5C19 10.7406 18.9656 10.9688 18.9062 11.1875C18.7781 11.6406 18.9844 12.125 19.4 12.3469C20.3531 12.85 21 13.85 21 15C21 16.6562 19.6562 18 18 18H6.5C4.56562 18 3 16.4344 3 14.5C3 12.975 3.975 11.6781 5.3375 11.1969C5.72188 11.0625 5.9875 10.7063 6.00313 10.2969C6.10938 7.90625 8.08125 6 10.5 6C12.0219 6 13.3656 6.75312 14.1812 7.9125C14.4625 8.30937 14.9875 8.45 15.4281 8.24062ZM15 7.3375C14.0031 5.92188 12.3594 5 10.5 5C7.54375 5 5.13437 7.33125 5.00625 10.2531C3.25625 10.8719 2 12.5375 2 14.5C2 16.9844 4.01562 19 6.5 19H18C20.2094 19 22 17.2094 22 15C22 13.4656 21.1344 12.1312 19.8656 11.4625C19.9531 11.1562 20 10.8344 20 10.5C20 8.56562 18.4344 7 16.5 7C15.9625 7 15.4531 7.12188 15 7.3375Z" fill="black"/>
</svg>
