<svg width="20" height="20" viewBox="0 0 20 20" fill="none" xmlns="http://www.w3.org/2000/svg">
<path d="M12.7139 7.02382C12.9687 6.9026 13.2557 6.83333 13.5625 6.83333C14.656 6.83333 15.5417 7.71901 15.5417 8.8125C15.5417 9.00297 15.5144 9.18363 15.4674 9.35677C15.366 9.71547 15.5293 10.099 15.8583 10.2746C16.6129 10.6729 17.125 11.4646 17.125 12.375C17.125 13.6862 16.0612 14.75 14.75 14.75H5.64583C4.11444 14.75 2.87499 13.5106 2.87499 11.9792C2.87499 10.7719 3.64687 9.74516 4.72552 9.36421C5.02982 9.25781 5.2401 8.97582 5.25247 8.65171C5.33659 6.75911 6.89765 5.24999 8.81249 5.24999C10.0173 5.24999 11.0811 5.84621 11.7268 6.76406C11.9495 7.07825 12.3651 7.18958 12.7139 7.02382ZM12.375 6.30885C11.5858 5.18815 10.2845 4.45833 8.81249 4.45833C6.47213 4.45833 4.5647 6.3039 4.46328 8.61703C3.07786 9.10692 2.08333 10.4255 2.08333 11.9792C2.08333 13.946 3.67903 15.5417 5.64583 15.5417H14.75C16.4991 15.5417 17.9167 14.1241 17.9167 12.375C17.9167 11.1603 17.2314 10.1039 16.2269 9.57447C16.2962 9.33199 16.3333 9.07723 16.3333 8.8125C16.3333 7.28111 15.0939 6.04166 13.5625 6.04166C13.137 6.04166 12.7337 6.13815 12.375 6.30885Z" fill="currentColor"/>
</svg>
