<svg width="24" height="24" viewBox="0 0 24 24" fill="none" xmlns="http://www.w3.org/2000/svg">
<path d="M18 13C18 13.275 17.775 13.5 17.5 13.5H15.5C15.225 13.5 15 13.275 15 13V11C15 10.725 15.225 10.5 15.5 10.5H17.5C17.775 10.5 18 10.725 18 11V13ZM14 11V11.5H12.5V6.5C12.5 5.67188 11.8281 5 11 5H10V4.5C10 3.67188 9.32812 3 8.5 3H6.5C5.67188 3 5 3.67188 5 4.5V6.5C5 7.32812 5.67188 8 6.5 8H8.5C9.32812 8 10 7.32812 10 6.5V6H11C11.275 6 11.5 6.225 11.5 6.5V11.5H10V11C10 10.1719 9.32812 9.5 8.5 9.5H6.5C5.67188 9.5 5 10.1719 5 11V13C5 13.8281 5.67188 14.5 6.5 14.5H8.5C9.32812 14.5 10 13.8281 10 13V12.5H11.5V17.5C11.5 17.775 11.275 18 11 18H10V17.5C10 16.6719 9.32812 16 8.5 16H6.5C5.67188 16 5 16.6719 5 17.5V19.5C5 20.3281 5.67188 21 6.5 21H8.5C9.32812 21 10 20.3281 10 19.5V19H11C11.8281 19 12.5 18.3281 12.5 17.5V12.5H14V13C14 13.8281 14.6719 14.5 15.5 14.5H17.5C18.3281 14.5 19 13.8281 19 13V11C19 10.1719 18.3281 9.5 17.5 9.5H15.5C14.6719 9.5 14 10.1719 14 11ZM9 4.5V6.5C9 6.775 8.775 7 8.5 7H6.5C6.225 7 6 6.775 6 6.5V4.5C6 4.225 6.225 4 6.5 4H8.5C8.775 4 9 4.225 9 4.5ZM9 11V13C9 13.275 8.775 13.5 8.5 13.5H6.5C6.225 13.5 6 13.275 6 13V11C6 10.725 6.225 10.5 6.5 10.5H8.5C8.775 10.5 9 10.725 9 11ZM9 17.5V19.5C9 19.775 8.775 20 8.5 20H6.5C6.225 20 6 19.775 6 19.5V17.5C6 17.225 6.225 17 6.5 17H8.5C8.775 17 9 17.225 9 17.5Z" fill="black"/>
</svg>
