<svg width="20" height="20" viewBox="0 0 20 20"  xmlns="http://www.w3.org/2000/svg">
<path d="M14.75 10.7917C14.75 11.0094 14.5719 11.1875 14.3542 11.1875H12.7708C12.5531 11.1875 12.375 11.0094 12.375 10.7917V9.20833C12.375 8.99063 12.5531 8.8125 12.7708 8.8125H14.3542C14.5719 8.8125 14.75 8.99063 14.75 9.20833V10.7917ZM11.5833 9.20833V9.60417H10.3958V5.64583C10.3958 4.99024 9.86391 4.45833 9.20833 4.45833H8.41666V4.0625C8.41666 3.40691 7.88476 2.875 7.22916 2.875H5.64583C4.99023 2.875 4.45833 3.40691 4.45833 4.0625V5.64583C4.45833 6.30143 4.99023 6.83333 5.64583 6.83333H7.22916C7.88476 6.83333 8.41666 6.30143 8.41666 5.64583V5.25H9.20833C9.42604 5.25 9.60416 5.42813 9.60416 5.64583V9.60417H8.41666V9.20833C8.41666 8.55275 7.88476 8.02083 7.22916 8.02083H5.64583C4.99023 8.02083 4.45833 8.55275 4.45833 9.20833V10.7917C4.45833 11.4472 4.99023 11.9792 5.64583 11.9792H7.22916C7.88476 11.9792 8.41666 11.4472 8.41666 10.7917V10.3958H9.60416V14.3542C9.60416 14.5719 9.42604 14.75 9.20833 14.75H8.41666V14.3542C8.41666 13.6986 7.88476 13.1667 7.22916 13.1667H5.64583C4.99023 13.1667 4.45833 13.6986 4.45833 14.3542V15.9375C4.45833 16.5931 4.99023 17.125 5.64583 17.125H7.22916C7.88476 17.125 8.41666 16.5931 8.41666 15.9375V15.5417H9.20833C9.86391 15.5417 10.3958 15.0097 10.3958 14.3542V10.3958H11.5833V10.7917C11.5833 11.4472 12.1152 11.9792 12.7708 11.9792H14.3542C15.0097 11.9792 15.5417 11.4472 15.5417 10.7917V9.20833C15.5417 8.55275 15.0097 8.02083 14.3542 8.02083H12.7708C12.1152 8.02083 11.5833 8.55275 11.5833 9.20833ZM7.62499 4.0625V5.64583C7.62499 5.86354 7.44687 6.04167 7.22916 6.04167H5.64583C5.42812 6.04167 5.24999 5.86354 5.24999 5.64583V4.0625C5.24999 3.84479 5.42812 3.66667 5.64583 3.66667H7.22916C7.44687 3.66667 7.62499 3.84479 7.62499 4.0625ZM7.62499 9.20833V10.7917C7.62499 11.0094 7.44687 11.1875 7.22916 11.1875H5.64583C5.42812 11.1875 5.24999 11.0094 5.24999 10.7917V9.20833C5.24999 8.99063 5.42812 8.8125 5.64583 8.8125H7.22916C7.44687 8.8125 7.62499 8.99063 7.62499 9.20833ZM7.62499 14.3542V15.9375C7.62499 16.1552 7.44687 16.3333 7.22916 16.3333H5.64583C5.42812 16.3333 5.24999 16.1552 5.24999 15.9375V14.3542C5.24999 14.1365 5.42812 13.9583 5.64583 13.9583H7.22916C7.44687 13.9583 7.62499 14.1365 7.62499 14.3542Z" fill="currentColor"/>
</svg>
