<svg viewBox="0 0 20 20" xmlns="http://www.w3.org/2000/svg" fill="currentColor">
<path d="M16.9812 9.5H14C13.725 9.5 13.5 9.725 13.5 10C13.5 10.275 13.725 10.5 14 10.5H16.9812C16.7375 13.9688 13.9688 16.7375 10.5 16.9812V14C10.5 13.725 10.275 13.5 10 13.5C9.725 13.5 9.5 13.725 9.5 14V16.9812C6.03125 16.7375 3.2625 13.9688 3.01875 10.5H6C6.275 10.5 6.5 10.275 6.5 10C6.5 9.725 6.275 9.5 6 9.5H3.01875C3.2625 6.03125 6.03125 3.2625 9.5 3.01875V6C9.5 6.275 9.725 6.5 10 6.5C10.275 6.5 10.5 6.275 10.5 6V3.01875C13.9688 3.2625 16.7375 6.03125 16.9812 9.5ZM2 10C2 12.1217 2.84285 14.1566 4.34315 15.6569C5.84344 17.1571 7.87827 18 10 18C12.1217 18 14.1566 17.1571 15.6569 15.6569C17.1571 14.1566 18 12.1217 18 10C18 7.87827 17.1571 5.84344 15.6569 4.34315C14.1566 2.84285 12.1217 2 10 2C7.87827 2 5.84344 2.84285 4.34315 4.34315C2.84285 5.84344 2 7.87827 2 10Z"></path>
</svg>