<svg viewBox="0 0 24 24" xmlns="http://www.w3.org/2000/svg">
    <path d="M18 17C18 17.075 17.9688 17.2312 17.7375 17.4656C17.5031 17.7031 17.1156 17.9625 16.5562 18.2031C15.4406 18.6812 13.8313 19 12 19C10.1687 19 8.55937 18.6812 7.44375 18.2031C6.88437 17.9625 6.49688 17.7031 6.2625 17.4656C6.03125 17.2312 6 17.075 6 17V14.3594C6.5375 14.6375 7.19062 14.8687 7.9125 15.0437C9.08437 15.3344 10.4938 15.5 12 15.5C13.5063 15.5 14.9156 15.3344 16.0875 15.0469C16.8094 14.8687 17.4625 14.6406 18 14.3625V17ZM18 10.3594V13.1906C17.5469 13.5219 16.8156 13.8344 15.8469 14.075C14.7656 14.3406 13.4375 14.5 12 14.5C10.5625 14.5 9.23438 14.3406 8.15313 14.075C7.18438 13.8375 6.45312 13.5219 6 13.1906V10.3594C6.5375 10.6375 7.19062 10.8687 7.9125 11.0437C9.08437 11.3344 10.4938 11.5 12 11.5C13.5063 11.5 14.9156 11.3344 16.0875 11.0469C16.8094 10.8688 17.4625 10.6406 18 10.3625V10.3594ZM18 9.19063C17.5469 9.52188 16.8156 9.83437 15.8469 10.075C14.7656 10.3406 13.4375 10.5 12 10.5C10.5625 10.5 9.23438 10.3406 8.15313 10.075C7.18438 9.8375 6.45312 9.52188 6 9.19063V7C6 6.925 6.03125 6.76875 6.2625 6.53437C6.49688 6.29688 6.88437 6.0375 7.44375 5.79688C8.55937 5.31875 10.1687 5 12 5C13.8313 5 15.4406 5.31875 16.5562 5.79688C17.1156 6.0375 17.5031 6.29688 17.7375 6.53437C17.9688 6.76875 18 6.925 18 7V9.19063ZM19 17V7C19 5.34375 15.8656 4 12 4C8.13438 4 5 5.34375 5 7V17C5 18.6562 8.13438 20 12 20C15.8656 20 19 18.6562 19 17Z"
          fill="currentColor"/>
</svg>