<svg  viewBox="0 0 20 20"  xmlns="http://www.w3.org/2000/svg">
<path d="M14.75 13.9583C14.75 14.0177 14.7253 14.1414 14.5422 14.3269C14.3566 14.515 14.0499 14.7203 13.607 14.9108C12.7238 15.2893 11.4498 15.5417 10 15.5417C8.55022 15.5417 7.27617 15.2893 6.39297 14.9108C5.95013 14.7203 5.64337 14.515 5.45781 14.3269C5.27474 14.1414 5.25 14.0177 5.25 13.9583V11.8679C5.67552 12.088 6.19258 12.2711 6.76407 12.4096C7.6918 12.6397 8.80759 12.7708 10 12.7708C11.1925 12.7708 12.3082 12.6397 13.2359 12.4121C13.8074 12.2711 14.3245 12.0905 14.75 11.8703V13.9583ZM14.75 8.7012V10.9426C14.3913 11.2048 13.8124 11.4522 13.0455 11.6427C12.1894 11.853 11.138 11.9792 10 11.9792C8.86198 11.9792 7.81055 11.853 6.95456 11.6427C6.18764 11.4547 5.60872 11.2048 5.25 10.9426V8.7012C5.67552 8.92136 6.19258 9.10439 6.76407 9.24293C7.6918 9.47307 8.80759 9.60417 10 9.60417C11.1925 9.60417 12.3082 9.47307 13.2359 9.24547C13.8074 9.10447 14.3245 8.92381 14.75 8.70365V8.7012ZM14.75 7.77592C14.3913 8.03816 13.8124 8.28555 13.0455 8.47605C12.1894 8.68631 11.138 8.8125 10 8.8125C8.86198 8.8125 7.81055 8.68631 6.95456 8.47605C6.18764 8.28803 5.60872 8.03816 5.25 7.77592V6.04167C5.25 5.9823 5.27474 5.8586 5.45781 5.67305C5.64337 5.48503 5.95013 5.27969 6.39297 5.0892C7.27617 4.71068 8.55022 4.45834 10 4.45834C11.4498 4.45834 12.7238 4.71068 13.607 5.0892C14.0499 5.27969 14.3566 5.48503 14.5422 5.67305C14.7253 5.8586 14.75 5.9823 14.75 6.04167V7.77592ZM15.5417 13.9583V6.04167C15.5417 4.73047 13.0603 3.66667 10 3.66667C6.93972 3.66667 4.45834 4.73047 4.45834 6.04167V13.9583C4.45834 15.2695 6.93972 16.3333 10 16.3333C13.0603 16.3333 15.5417 15.2695 15.5417 13.9583Z" fill="currentColor"/>
</svg>
