<svg width="24" height="24" viewBox="0 0 24 24" fill="currentColor" xmlns="http://www.w3.org/2000/svg">
<path d="M19.2008 11.9998C19.2008 12.3181 19.0744 12.6233 18.8493 12.8483C18.6243 13.0734 18.319 13.1998 18.0008 13.1998C17.6825 13.1998 17.3773 13.0734 17.1523 12.8483C16.9272 12.6233 16.8008 12.3181 16.8008 11.9998C16.8008 11.6815 16.9272 11.3763 17.1523 11.1513C17.3773 10.9262 17.6825 10.7998 18.0008 10.7998C18.319 10.7998 18.6243 10.9262 18.8493 11.1513C19.0744 11.3763 19.2008 11.6815 19.2008 11.9998ZM13.2008 11.9998C13.2008 12.3181 13.0744 12.6233 12.8493 12.8483C12.6243 13.0734 12.319 13.1998 12.0008 13.1998C11.6825 13.1998 11.3773 13.0734 11.1523 12.8483C10.9272 12.6233 10.8008 12.3181 10.8008 11.9998C10.8008 11.6815 10.9272 11.3763 11.1523 11.1513C11.3773 10.9262 11.6825 10.7998 12.0008 10.7998C12.319 10.7998 12.6243 10.9262 12.8493 11.1513C13.0744 11.3763 13.2008 11.6815 13.2008 11.9998ZM6.00078 13.1998C5.68252 13.1998 5.3773 13.0734 5.15225 12.8483C4.92721 12.6233 4.80078 12.3181 4.80078 11.9998C4.80078 11.6815 4.92721 11.3763 5.15225 11.1513C5.3773 10.9262 5.68252 10.7998 6.00078 10.7998C6.31904 10.7998 6.62427 10.9262 6.84931 11.1513C7.07435 11.3763 7.20078 11.6815 7.20078 11.9998C7.20078 12.3181 7.07435 12.6233 6.84931 12.8483C6.62427 13.0734 6.31904 13.1998 6.00078 13.1998Z" fill="black"/>
</svg>
