<svg viewBox="0 0 20 20" fill="currentColor" xmlns="http://www.w3.org/2000/svg">
<path d="M2.58664 9.25011C2.84289 9.25011 3.05851 9.05636 3.10226 8.80324C3.28039 7.76261 3.68976 6.80011 4.27414 5.96886C4.42101 5.75949 4.40851 5.46886 4.22726 5.28761C4.01789 5.07824 3.67101 5.09386 3.49914 5.33449C2.79601 6.31574 2.30539 7.45949 2.10539 8.70011C2.05539 8.99386 2.28976 9.25011 2.58664 9.25011ZM5.96789 4.27511C6.79601 3.69074 7.75851 3.28136 8.79914 3.10011C9.05539 3.05949 9.24914 2.84386 9.24914 2.58761C9.24914 2.29074 8.99289 2.05636 8.70226 2.10636C7.45851 2.30636 6.31476 2.79699 5.33351 3.50011C5.09289 3.67199 5.07726 4.01886 5.28664 4.22824C5.46789 4.40949 5.75851 4.42511 5.96789 4.27511ZM10.7491 17.4126C10.7491 17.7095 11.0054 17.9439 11.296 17.8939C12.5366 17.6907 13.6835 17.2032 14.6616 16.5001C14.9023 16.3282 14.9179 15.9814 14.7085 15.772C14.5273 15.5907 14.2366 15.5751 14.0273 15.7251C13.1991 16.3095 12.2366 16.7189 11.196 16.9001C10.9429 16.9439 10.7491 17.1564 10.7491 17.4157V17.4126ZM15.7241 14.0314C15.5773 14.2407 15.5898 14.5314 15.771 14.7126C15.9804 14.922 16.3273 14.9064 16.4991 14.6657C17.2023 13.6845 17.6929 12.5407 17.8929 11.3001C17.9398 11.0064 17.7085 10.7532 17.4116 10.7532C17.1554 10.7532 16.9398 10.947 16.896 11.2001C16.7179 12.2407 16.3085 13.2032 15.721 14.0314H15.7241ZM5.28664 15.772C5.07726 15.9814 5.09289 16.3282 5.33351 16.5001C6.31476 17.2032 7.45851 17.6939 8.69914 17.8939C8.99289 17.9407 9.24601 17.7095 9.24601 17.4126C9.24601 17.1564 9.05226 16.9407 8.79914 16.897C7.75851 16.7189 6.79601 16.3095 5.96789 15.722C5.75851 15.5751 5.46789 15.5876 5.28664 15.7689V15.772ZM3.49914 14.6657C3.67101 14.9064 4.01789 14.922 4.22726 14.7126C4.40851 14.5314 4.42414 14.2407 4.27414 14.0314C3.68976 13.2001 3.28039 12.2376 3.10226 11.197C3.05851 10.9439 2.84289 10.7501 2.58664 10.7501C2.28976 10.7501 2.05539 11.0064 2.10539 11.297C2.30539 12.5407 2.79601 13.6845 3.49914 14.6657ZM14.7116 4.22824C14.921 4.01886 14.9054 3.67199 14.6648 3.50011C13.6835 2.79699 12.5398 2.30636 11.2991 2.10636C11.0054 2.05636 10.7491 2.29074 10.7491 2.58761C10.7491 2.84386 10.9429 3.05949 11.196 3.10324C12.2366 3.28136 13.1991 3.69074 14.0304 4.27511C14.2398 4.42199 14.5304 4.40949 14.7116 4.22824ZM15.7241 5.96886C16.3085 6.79699 16.7179 7.75949 16.8991 8.80011C16.9429 9.05324 17.1554 9.24699 17.4148 9.24699C17.7116 9.24699 17.946 8.99074 17.896 8.70011C17.6929 7.45949 17.2054 6.31261 16.5023 5.33449C16.3304 5.09386 15.9835 5.07824 15.7741 5.28761C15.5929 5.46886 15.5773 5.75949 15.7273 5.96886H15.7241Z"/>
</svg>
