<svg viewBox="0 0 20 20" fill="currentColor" xmlns="http://www.w3.org/2000/svg">
<path d="M4 9.17169V4.49982C4 4.22482 4.225 3.99982 4.5 3.99982H9.17188C9.4375 3.99982 9.69063 4.10607 9.87813 4.29357L15.3781 9.79357C15.7688 10.1842 15.7688 10.8186 15.3781 11.2092L11.2063 15.3779C10.8156 15.7686 10.1813 15.7686 9.79063 15.3779L4.29063 9.87794C4.10313 9.69044 3.99688 9.43732 3.99688 9.17169H4ZM3 9.17169C3 9.70294 3.20938 10.2123 3.58438 10.5873L9.08438 16.0873C9.86563 16.8686 11.1313 16.8686 11.9125 16.0873L16.0844 11.9154C16.8656 11.1342 16.8656 9.86857 16.0844 9.08732L10.5844 3.58732C10.2094 3.21232 9.7 3.00294 9.16875 3.00294H4.5C3.67188 2.99982 3 3.67169 3 4.49982V9.17169ZM6.5 7.24982C6.69891 7.24982 6.88968 7.1708 7.03033 7.03015C7.17098 6.88949 7.25 6.69873 7.25 6.49982C7.25 6.3009 7.17098 6.11014 7.03033 5.96949C6.88968 5.82883 6.69891 5.74982 6.5 5.74982C6.30109 5.74982 6.11032 5.82883 5.96967 5.96949C5.82902 6.11014 5.75 6.3009 5.75 6.49982C5.75 6.69873 5.82902 6.88949 5.96967 7.03015C6.11032 7.1708 6.30109 7.24982 6.5 7.24982Z"/>
</svg>
