<svg viewBox="0 0 20 20" fill="currentColor" xmlns="http://www.w3.org/2000/svg">
<path d="M5 15.3125V3.725C5 3.325 5.325 3 5.725 3C5.90313 3 6.075 3.06563 6.20625 3.18438L14.7688 10.7969C14.9156 10.9281 15 11.1156 15 11.3125C15 11.6938 14.6906 12.0031 14.3094 12.0031H10.0469L11.9563 16.3C12.0688 16.5531 11.9563 16.8469 11.7031 16.9594C11.45 17.0719 11.1562 16.9594 11.0437 16.7063L9.1375 12.4188L6.20625 15.7656C6.075 15.9156 5.8875 16 5.6875 16C5.30625 16 5 15.6906 5 15.3125ZM6 4.25V14.5L8.7 11.35C8.89063 11.1281 9.16875 11 9.45937 11H13.5L6 4.25Z"/>
</svg>
