<svg width="24" height="24" viewBox="0 0 24 24" fill="currentColor" xmlns="http://www.w3.org/2000/svg">
<path d="M3.60039 12.0004C3.60039 7.36164 7.36164 3.60039 12.0004 3.60039C14.6366 3.60039 16.9879 4.81539 18.5291 6.71289C18.7391 6.97164 19.1141 7.00914 19.3729 6.80289C19.6316 6.59664 19.6691 6.21789 19.4629 5.95914C17.7041 3.78789 15.0116 2.40039 12.0004 2.40039C6.69789 2.40039 2.40039 6.69789 2.40039 12.0004V13.8004C2.40039 14.1304 2.67039 14.4004 3.00039 14.4004C3.33039 14.4004 3.60039 14.1304 3.60039 13.8004V12.0004ZM21.2554 9.43914C21.1654 9.12039 20.8354 8.93289 20.5166 9.01914C20.1979 9.10539 20.0104 9.43914 20.0966 9.75789C20.2916 10.4704 20.4004 11.2204 20.4004 11.9966V13.7966C20.4004 14.1266 20.6704 14.3966 21.0004 14.3966C21.3304 14.3966 21.6004 14.1266 21.6004 13.7966V12.0004C21.6004 11.1154 21.4804 10.2566 21.2554 9.43914ZM12.0004 5.40039C11.1454 5.40039 10.3279 5.56164 9.57789 5.85789C9.21414 6.00039 9.12789 6.46164 9.38289 6.76164C9.56289 6.97164 9.86289 7.03164 10.1216 6.93414C10.7066 6.71664 11.3404 6.59664 12.0004 6.59664C14.9816 6.59664 17.4004 9.01539 17.4004 11.9966V12.9304C17.4004 13.9916 17.3329 15.0529 17.1941 16.1029C17.1454 16.4666 17.4266 16.7966 17.7941 16.7966C18.0904 16.7966 18.3416 16.5791 18.3791 16.2866C18.5254 15.1766 18.5966 14.0554 18.5966 12.9304V12.0004C18.5966 8.35539 15.6416 5.40039 11.9966 5.40039H12.0004ZM7.84164 7.72914C7.61664 7.46664 7.21164 7.44414 6.98664 7.71039C5.99664 8.86164 5.40039 10.3616 5.40039 12.0004V12.9341C5.40039 13.9766 5.27289 15.0116 5.01789 16.0204C4.92039 16.4104 5.20539 16.8004 5.60664 16.8004C5.86914 16.8004 6.10164 16.6279 6.16914 16.3729C6.45789 15.2516 6.60414 14.0966 6.60414 12.9341V12.0004C6.60414 10.6991 7.06539 9.50664 7.83039 8.57289C8.03289 8.32914 8.05164 7.96914 7.84164 7.72914ZM12.0004 8.40039C10.0129 8.40039 8.40039 10.0129 8.40039 12.0004V12.9341C8.40039 14.3816 8.19789 15.8216 7.80414 17.2091C7.69164 17.5991 7.98039 18.0004 8.38539 18.0004C8.64414 18.0004 8.87289 17.8316 8.94414 17.5841C9.37914 16.0766 9.60039 14.5091 9.60039 12.9341V12.0004C9.60039 10.6766 10.6766 9.60039 12.0004 9.60039C13.3241 9.60039 14.4004 10.6766 14.4004 12.0004V12.9341C14.4004 14.3891 14.2541 15.8404 13.9616 17.2616C13.8829 17.6404 14.1679 18.0004 14.5541 18.0004C14.8316 18.0004 15.0754 17.8091 15.1316 17.5354C15.4429 16.0241 15.6004 14.4829 15.6004 12.9341V12.0004C15.6004 10.0129 13.9879 8.40039 12.0004 8.40039ZM12.6004 12.0004C12.6004 11.6704 12.3304 11.4004 12.0004 11.4004C11.6704 11.4004 11.4004 11.6704 11.4004 12.0004V12.9341C11.4004 15.2179 10.9804 17.4791 10.1591 19.6129L9.93789 20.1866C9.81789 20.4941 9.97164 20.8429 10.2829 20.9629C10.5941 21.0829 10.9391 20.9291 11.0591 20.6179L11.2804 20.0441C12.1541 17.7754 12.6004 15.3641 12.6004 12.9341V12.0004Z" fill="black"/>
</svg>
