<svg width="24" height="24" viewBox="0 0 24 24" fill="none" xmlns="http://www.w3.org/2000/svg">
<path d="M5 7C5 6.44687 5.44687 6 6 6H9.87813C10.1438 6 10.3969 6.10625 10.5844 6.29375L11.7063 7.41563C12.0813 7.79063 12.5906 8 13.1219 8H18C18.5531 8 19 8.44688 19 9V10H5V7ZM5 11H19V17C19 17.5531 18.5531 18 18 18H6C5.44687 18 5 17.5531 5 17V11ZM6 5C4.89688 5 4 5.89688 4 7V17C4 18.1031 4.89688 19 6 19H18C19.1031 19 20 18.1031 20 17V9C20 7.89687 19.1031 7 18 7H13.1219C12.8562 7 12.6031 6.89375 12.4156 6.70625L11.2937 5.58438C10.9187 5.20938 10.4094 5 9.87813 5H6Z" fill="black"/>
</svg>
