<svg width="20" height="20" viewBox="0 0 20 20" fill="none" xmlns="http://www.w3.org/2000/svg">
<path d="M4.45833 6.04166C4.45833 5.60377 4.8121 5.24999 5.25 5.24999H8.32019C8.53051 5.24999 8.73088 5.33411 8.87932 5.48255L9.76749 6.3707C10.0644 6.66758 10.4676 6.83333 10.8882 6.83333H14.75C15.1879 6.83333 15.5417 7.18711 15.5417 7.62499V8.41666H4.45833V6.04166ZM4.45833 9.20833H15.5417V13.9583C15.5417 14.3962 15.1879 14.75 14.75 14.75H5.25C4.8121 14.75 4.45833 14.3962 4.45833 13.9583V9.20833ZM5.25 4.45833C4.3767 4.45833 3.66667 5.16836 3.66667 6.04166V13.9583C3.66667 14.8316 4.3767 15.5417 5.25 15.5417H14.75C15.6233 15.5417 16.3333 14.8316 16.3333 13.9583V7.62499C16.3333 6.75168 15.6233 6.04166 14.75 6.04166H10.8882C10.6778 6.04166 10.4775 5.95755 10.329 5.80911L9.44085 4.92096C9.14397 4.62409 8.74077 4.45833 8.32019 4.45833H5.25Z" fill="black"/>
</svg>
