<svg width="20" height="20" viewBox="0 0 20 20"  xmlns="http://www.w3.org/2000/svg">
<path d="M9.19131 4.60183C9.20121 4.56471 9.22346 4.53256 9.25069 4.50782C9.49563 4.47566 9.74548 4.45834 10.0003 4.45834C10.2552 4.45834 10.505 4.47566 10.7499 4.50782C10.7771 4.53256 10.7969 4.56471 10.8093 4.60183L11.1482 5.78191C11.2348 6.08125 11.45 6.30391 11.7049 6.42761C11.8929 6.51667 12.071 6.62058 12.2417 6.73685C12.4743 6.89766 12.7786 6.97188 13.0804 6.89766L14.2729 6.60079C14.3099 6.59089 14.347 6.59337 14.3817 6.60573C14.5153 6.77644 14.639 6.95704 14.7503 7.14506L14.8567 7.32813C14.9606 7.51368 15.0521 7.70665 15.1338 7.90457C15.1264 7.94167 15.109 7.97631 15.0818 8.00352L14.2258 8.88676C14.0106 9.10938 13.924 9.40871 13.9463 9.69078C13.9537 9.79219 13.9587 9.89614 13.9587 10C13.9587 10.104 13.9537 10.2078 13.9463 10.3092C13.924 10.5913 14.0106 10.8906 14.2258 11.1132L15.0793 11.9965C15.1066 12.0237 15.1239 12.0583 15.1313 12.0955C15.0496 12.2934 14.9581 12.4863 14.8542 12.6743L14.7503 12.8549C14.6365 13.043 14.5128 13.2211 14.3817 13.3943C14.347 13.4066 14.3099 13.4066 14.2729 13.3992L13.0804 13.1023C12.7786 13.0281 12.4767 13.1023 12.2417 13.2632C12.071 13.3795 11.8929 13.4833 11.7049 13.5724C11.45 13.6936 11.2323 13.9188 11.1482 14.2181L10.8093 15.3982C10.7994 15.4353 10.7771 15.4674 10.7499 15.4922C10.505 15.5243 10.2552 15.5417 10.0003 15.5417C9.74548 15.5417 9.49563 15.5243 9.25069 15.4922C9.22346 15.4674 9.20366 15.4353 9.19131 15.3982L8.8524 14.2181C8.76579 13.9188 8.55054 13.6961 8.29575 13.5724C8.10773 13.4833 7.9296 13.3795 7.7589 13.2632C7.52635 13.1023 7.22205 13.0281 6.92023 13.1023L5.72778 13.3992C5.69067 13.4091 5.65356 13.4066 5.61893 13.3943C5.48533 13.2211 5.36163 13.043 5.24783 12.8549L5.14393 12.6743C5.04002 12.4888 4.94849 12.2958 4.86684 12.0955C4.87427 12.0583 4.89158 12.0237 4.9188 11.9965L5.77479 11.1132C5.99002 10.8906 6.07661 10.5913 6.05434 10.3092C6.04692 10.2078 6.04198 10.104 6.04198 10C6.04198 9.89614 6.04692 9.79219 6.05434 9.69078C6.07661 9.40871 5.99002 9.10938 5.77479 8.88676L4.92127 8.00105C4.89406 7.97383 4.87674 7.93919 4.86932 7.90209C4.95096 7.70417 5.0425 7.5112 5.1464 7.32318L5.25031 7.14258C5.36411 6.95456 5.48781 6.77643 5.6214 6.60326C5.65604 6.59089 5.69314 6.59089 5.73026 6.59831L6.92271 6.89518C7.22453 6.96941 7.52635 6.89518 7.76137 6.73438C7.93208 6.61811 8.11021 6.51419 8.29823 6.42514C8.55307 6.30391 8.77078 6.07878 8.85486 5.77943L9.19377 4.59936L9.19131 4.60183ZM10.0003 3.66667C9.67866 3.66667 9.35954 3.69141 9.05032 3.73842C9.00828 3.74584 8.96616 3.75821 8.92658 3.778C8.69161 3.89922 8.5085 4.11446 8.43179 4.38412L8.09288 5.56419C8.07804 5.61862 8.03104 5.67553 7.95434 5.71263C7.72922 5.81902 7.51398 5.94518 7.31111 6.08373C7.24184 6.13073 7.16762 6.1431 7.1132 6.12826L5.92075 5.83139C5.65109 5.76459 5.37401 5.81655 5.15135 5.95756C5.11424 5.97983 5.08208 6.00951 5.05486 6.04414C4.87922 6.26433 4.71593 6.4944 4.56997 6.73685L4.5675 6.74428L4.45864 6.9323L4.45617 6.93972C4.32257 7.18217 4.20382 7.43204 4.10239 7.6918C4.08755 7.73139 4.07765 7.77344 4.07518 7.8155C4.06281 8.08268 4.15682 8.34988 4.35226 8.55276L5.20578 9.43594C5.24536 9.47798 5.27257 9.5448 5.26515 9.62887C5.25526 9.75261 5.25031 9.87635 5.25031 10C5.25031 10.1237 5.25526 10.2499 5.26515 10.3711C5.27257 10.4552 5.24536 10.5245 5.20578 10.5641L4.35226 11.4498C4.15682 11.6526 4.06281 11.9198 4.07518 12.187C4.07765 12.229 4.08755 12.2711 4.10239 12.3106C4.20382 12.5705 4.32257 12.8203 4.45617 13.0627L4.45864 13.0702L4.5675 13.2582L4.56997 13.2656C4.71593 13.508 4.87674 13.7406 5.05486 13.9608C5.08208 13.9955 5.11424 14.0252 5.15135 14.0474C5.37401 14.1884 5.65109 14.2404 5.92075 14.1736L7.1132 13.8767C7.16762 13.8618 7.24184 13.8743 7.31111 13.9212C7.51398 14.0623 7.72922 14.1859 7.95434 14.2923C8.03104 14.3295 8.07557 14.3863 8.09288 14.4408L8.43179 15.6159C8.5085 15.883 8.69161 16.0983 8.92658 16.222C8.96616 16.2418 9.00575 16.2566 9.05032 16.2616C9.35954 16.3086 9.67866 16.3333 10.0003 16.3333C10.3219 16.3333 10.6411 16.3086 10.9503 16.2616C10.9924 16.2542 11.0344 16.2418 11.074 16.222C11.309 16.1008 11.4921 15.8856 11.5688 15.6159L11.9078 14.4358C11.9226 14.3814 11.9696 14.3245 12.0463 14.2874C12.2714 14.181 12.4866 14.0548 12.6895 13.9163C12.7588 13.8693 12.833 13.8569 12.8874 13.8717L14.0799 14.1686C14.3495 14.2354 14.6266 14.1859 14.8493 14.0424C14.8864 14.0202 14.9185 13.9905 14.9458 13.9559C15.1214 13.7357 15.2822 13.5056 15.4281 13.2632L15.4307 13.2557L15.542 13.0677L15.5444 13.0603C15.6781 12.8203 15.7968 12.5679 15.8982 12.3082C15.913 12.2686 15.9229 12.2266 15.9255 12.1845C15.9378 11.9173 15.8438 11.6502 15.6484 11.4473L14.7948 10.5641C14.7552 10.522 14.7281 10.4552 14.7354 10.3711C14.7453 10.2474 14.7503 10.1237 14.7503 10C14.7503 9.87635 14.7453 9.75016 14.7354 9.62887C14.7281 9.5448 14.7552 9.47553 14.7948 9.43594L15.6484 8.55276C15.8438 8.34988 15.9378 8.08268 15.9255 7.8155C15.9229 7.77344 15.913 7.73139 15.8982 7.6918C15.7968 7.43204 15.6781 7.18217 15.5444 6.93972L15.542 6.9323L15.4331 6.74428L15.4307 6.73685C15.2847 6.4944 15.1239 6.26186 14.9482 6.04414C14.921 6.00951 14.8889 5.97983 14.8517 5.95756C14.6291 5.81655 14.352 5.76459 14.0823 5.83139L12.8899 6.12826C12.8354 6.1431 12.7613 6.13073 12.692 6.08373C12.4891 5.94271 12.2739 5.81902 12.0488 5.71263C11.972 5.67553 11.9276 5.61862 11.9102 5.56419L11.5688 4.38412C11.4921 4.11693 11.309 3.9017 11.074 3.778C11.0344 3.75821 10.9948 3.74337 10.9503 3.73842C10.6411 3.69141 10.3219 3.66667 10.0003 3.66667ZM8.6149 10C8.6149 9.63259 8.76088 9.28022 9.02071 9.0204C9.28046 8.76057 9.63291 8.61459 10.0003 8.61459C10.3677 8.61459 10.7201 8.76057 10.9799 9.0204C11.2398 9.28022 11.3857 9.63259 11.3857 10C11.3857 10.3674 11.2398 10.7198 10.9799 10.9796C10.7201 11.2394 10.3677 11.3854 10.0003 11.3854C9.63291 11.3854 9.28046 11.2394 9.02071 10.9796C8.76088 10.7198 8.6149 10.3674 8.6149 10ZM12.1774 10C12.1774 9.42264 11.9481 8.86887 11.5397 8.46061C11.1315 8.05229 10.5777 7.82292 10.0003 7.82292C9.42288 7.82292 8.86919 8.05229 8.46084 8.46061C8.0526 8.86887 7.82323 9.42264 7.82323 10C7.82323 10.5774 8.0526 11.1311 8.46084 11.5394C8.86919 11.9477 9.42288 12.1771 10.0003 12.1771C10.5777 12.1771 11.1315 11.9477 11.5397 11.5394C11.9481 11.1311 12.1774 10.5774 12.1774 10Z" fill="currentColor"/>
</svg>
