<svg width="24" height="24" viewBox="0 0 24 24" fill="none" xmlns="http://www.w3.org/2000/svg">
<path d="M10.9785 5.18125C10.991 5.13437 11.0191 5.09375 11.0535 5.0625C11.3629 5.02188 11.6785 5 12.0004 5C12.3223 5 12.6379 5.02188 12.9473 5.0625C12.9816 5.09375 13.0066 5.13437 13.0223 5.18125L13.4504 6.67188C13.5598 7.05 13.8316 7.33125 14.1535 7.4875C14.391 7.6 14.616 7.73125 14.8316 7.87812C15.1254 8.08125 15.5098 8.175 15.891 8.08125L17.3973 7.70625C17.4441 7.69375 17.491 7.69688 17.5348 7.7125C17.7035 7.92813 17.8598 8.15625 18.0004 8.39375L18.1348 8.625C18.266 8.85938 18.3816 9.10313 18.4848 9.35313C18.4754 9.4 18.4535 9.44375 18.4191 9.47813L17.3379 10.5938C17.066 10.875 16.9566 11.2531 16.9848 11.6094C16.9941 11.7375 17.0004 11.8688 17.0004 12C17.0004 12.1313 16.9941 12.2625 16.9848 12.3906C16.9566 12.7469 17.066 13.125 17.3379 13.4062L18.416 14.5219C18.4504 14.5563 18.4723 14.6 18.4816 14.6469C18.3785 14.8969 18.2629 15.1406 18.1316 15.3781L18.0004 15.6062C17.8566 15.8438 17.7004 16.0688 17.5348 16.2875C17.491 16.3031 17.4441 16.3031 17.3973 16.2937L15.891 15.9187C15.5098 15.825 15.1285 15.9187 14.8316 16.1219C14.616 16.2688 14.391 16.4 14.1535 16.5125C13.8316 16.6656 13.5566 16.95 13.4504 17.3281L13.0223 18.8188C13.0098 18.8656 12.9816 18.9062 12.9473 18.9375C12.6379 18.9781 12.3223 19 12.0004 19C11.6785 19 11.3629 18.9781 11.0535 18.9375C11.0191 18.9062 10.9941 18.8656 10.9785 18.8188L10.5504 17.3281C10.441 16.95 10.1691 16.6687 9.84726 16.5125C9.60976 16.4 9.38476 16.2688 9.16914 16.1219C8.87539 15.9187 8.49101 15.825 8.10976 15.9187L6.60351 16.2937C6.55664 16.3062 6.50976 16.3031 6.46601 16.2875C6.29726 16.0688 6.14101 15.8438 5.99726 15.6062L5.86601 15.3781C5.73476 15.1438 5.61914 14.9 5.51601 14.6469C5.52539 14.6 5.54726 14.5563 5.58164 14.5219L6.66289 13.4062C6.93476 13.125 7.04414 12.7469 7.01601 12.3906C7.00664 12.2625 7.00039 12.1313 7.00039 12C7.00039 11.8688 7.00664 11.7375 7.01601 11.6094C7.04414 11.2531 6.93476 10.875 6.66289 10.5938L5.58476 9.475C5.55039 9.44062 5.52851 9.39687 5.51914 9.35C5.62226 9.1 5.73789 8.85625 5.86914 8.61875L6.00039 8.39062C6.14414 8.15312 6.30039 7.92812 6.46914 7.70937C6.51289 7.69375 6.55976 7.69375 6.60664 7.70312L8.11289 8.07812C8.49414 8.17188 8.87539 8.07812 9.17226 7.875C9.38789 7.72813 9.61289 7.59687 9.85039 7.48438C10.1723 7.33125 10.4473 7.04688 10.5535 6.66875L10.9816 5.17813L10.9785 5.18125ZM12.0004 4C11.5941 4 11.191 4.03125 10.8004 4.09063C10.7473 4.1 10.6941 4.11563 10.6441 4.14062C10.3473 4.29375 10.116 4.56563 10.0191 4.90625L9.59101 6.39687C9.57226 6.46562 9.51289 6.5375 9.41601 6.58437C9.13164 6.71875 8.85976 6.87812 8.60351 7.05312C8.51601 7.1125 8.42226 7.12812 8.35351 7.10938L6.84726 6.73438C6.50664 6.65 6.15664 6.71563 5.87539 6.89375C5.82851 6.92188 5.78789 6.95937 5.75351 7.00312C5.53164 7.28125 5.32539 7.57187 5.14101 7.87812L5.13789 7.8875L5.00039 8.125L4.99726 8.13438C4.82851 8.44063 4.67851 8.75625 4.55039 9.08437C4.53164 9.13438 4.51914 9.1875 4.51601 9.24062C4.50039 9.57812 4.61914 9.91563 4.86601 10.1719L5.94414 11.2875C5.99414 11.3406 6.02851 11.425 6.01914 11.5312C6.00664 11.6875 6.00039 11.8438 6.00039 12C6.00039 12.1562 6.00664 12.3156 6.01914 12.4688C6.02851 12.575 5.99414 12.6625 5.94414 12.7125L4.86601 13.8313C4.61914 14.0875 4.50039 14.425 4.51601 14.7625C4.51914 14.8156 4.53164 14.8687 4.55039 14.9187C4.67851 15.2469 4.82851 15.5625 4.99726 15.8687L5.00039 15.8781L5.13789 16.1156L5.14101 16.125C5.32539 16.4312 5.52851 16.725 5.75351 17.0031C5.78789 17.0469 5.82851 17.0844 5.87539 17.1125C6.15664 17.2906 6.50664 17.3563 6.84726 17.2719L8.35351 16.8969C8.42226 16.8781 8.51601 16.8938 8.60351 16.9531C8.85976 17.1313 9.13164 17.2875 9.41601 17.4219C9.51289 17.4688 9.56914 17.5406 9.59101 17.6094L10.0191 19.0938C10.116 19.4312 10.3473 19.7031 10.6441 19.8594C10.6941 19.8844 10.7441 19.9031 10.8004 19.9094C11.191 19.9688 11.5941 20 12.0004 20C12.4066 20 12.8098 19.9688 13.2004 19.9094C13.2535 19.9 13.3066 19.8844 13.3566 19.8594C13.6535 19.7063 13.8848 19.4344 13.9816 19.0938L14.4098 17.6031C14.4285 17.5344 14.4879 17.4625 14.5848 17.4156C14.8691 17.2812 15.141 17.1219 15.3973 16.9469C15.4848 16.8875 15.5785 16.8719 15.6473 16.8906L17.1535 17.2656C17.4941 17.35 17.8441 17.2875 18.1254 17.1062C18.1723 17.0781 18.2129 17.0406 18.2473 16.9969C18.4691 16.7188 18.6723 16.4281 18.8566 16.1219L18.8598 16.1125L19.0004 15.875L19.0035 15.8656C19.1723 15.5625 19.3223 15.2437 19.4504 14.9156C19.4691 14.8656 19.4816 14.8125 19.4848 14.7594C19.5004 14.4219 19.3816 14.0844 19.1348 13.8281L18.0566 12.7125C18.0066 12.6594 17.9723 12.575 17.9816 12.4688C17.9941 12.3125 18.0004 12.1562 18.0004 12C18.0004 11.8438 17.9941 11.6844 17.9816 11.5312C17.9723 11.425 18.0066 11.3375 18.0566 11.2875L19.1348 10.1719C19.3816 9.91563 19.5004 9.57812 19.4848 9.24062C19.4816 9.1875 19.4691 9.13438 19.4504 9.08437C19.3223 8.75625 19.1723 8.44063 19.0035 8.13438L19.0004 8.125L18.8629 7.8875L18.8598 7.87812C18.6754 7.57187 18.4723 7.27813 18.2504 7.00312C18.216 6.95937 18.1754 6.92188 18.1285 6.89375C17.8473 6.71563 17.4973 6.65 17.1566 6.73438L15.6504 7.10938C15.5816 7.12812 15.4879 7.1125 15.4004 7.05312C15.1441 6.875 14.8723 6.71875 14.5879 6.58437C14.491 6.5375 14.4348 6.46562 14.4129 6.39687L13.9816 4.90625C13.8848 4.56875 13.6535 4.29688 13.3566 4.14062C13.3066 4.11563 13.2566 4.09688 13.2004 4.09063C12.8098 4.03125 12.4066 4 12.0004 4ZM10.2504 12C10.2504 11.5359 10.4348 11.0908 10.763 10.7626C11.0911 10.4344 11.5363 10.25 12.0004 10.25C12.4645 10.25 12.9096 10.4344 13.2378 10.7626C13.566 11.0908 13.7504 11.5359 13.7504 12C13.7504 12.4641 13.566 12.9092 13.2378 13.2374C12.9096 13.5656 12.4645 13.75 12.0004 13.75C11.5363 13.75 11.0911 13.5656 10.763 13.2374C10.4348 12.9092 10.2504 12.4641 10.2504 12ZM14.7504 12C14.7504 11.2707 14.4607 10.5712 13.9449 10.0555C13.4292 9.53973 12.7297 9.25 12.0004 9.25C11.271 9.25 10.5716 9.53973 10.0558 10.0555C9.54012 10.5712 9.25039 11.2707 9.25039 12C9.25039 12.7293 9.54012 13.4288 10.0558 13.9445C10.5716 14.4603 11.271 14.75 12.0004 14.75C12.7297 14.75 13.4292 14.4603 13.9449 13.9445C14.4607 13.4288 14.7504 12.7293 14.7504 12Z" fill="black"/>
</svg>
