<svg viewBox="0 0 24 24" xmlns="http://www.w3.org/2000/svg">
    <path d="M6.5 6C6.225 6 6 6.225 6 6.5V9.5C6 9.775 6.225 10 6.5 10H9.5C9.775 10 10 9.775 10 9.5V6.5C10 6.225 9.775 6 9.5 6H6.5ZM5 6.5C5 5.67188 5.67188 5 6.5 5H9.5C10.3281 5 11 5.67188 11 6.5V9.5C11 10.3281 10.3281 11 9.5 11H6.5C5.67188 11 5 10.3281 5 9.5V6.5ZM6.5 14C6.225 14 6 14.225 6 14.5V17.5C6 17.775 6.225 18 6.5 18H9.5C9.775 18 10 17.775 10 17.5V14.5C10 14.225 9.775 14 9.5 14H6.5ZM5 14.5C5 13.6719 5.67188 13 6.5 13H9.5C10.3281 13 11 13.6719 11 14.5V17.5C11 18.3281 10.3281 19 9.5 19H6.5C5.67188 19 5 18.3281 5 17.5V14.5ZM17.5 6H14.5C14.225 6 14 6.225 14 6.5V9.5C14 9.775 14.225 10 14.5 10H17.5C17.775 10 18 9.775 18 9.5V6.5C18 6.225 17.775 6 17.5 6ZM14.5 5H17.5C18.3281 5 19 5.67188 19 6.5V9.5C19 10.3281 18.3281 11 17.5 11H14.5C13.6719 11 13 10.3281 13 9.5V6.5C13 5.67188 13.6719 5 14.5 5ZM14.5 14C14.225 14 14 14.225 14 14.5V17.5C14 17.775 14.225 18 14.5 18H17.5C17.775 18 18 17.775 18 17.5V14.5C18 14.225 17.775 14 17.5 14H14.5ZM13 14.5C13 13.6719 13.6719 13 14.5 13H17.5C18.3281 13 19 13.6719 19 14.5V17.5C19 18.3281 18.3281 19 17.5 19H14.5C13.6719 19 13 18.3281 13 17.5V14.5Z"
          fill="currentColor"/>
</svg>