<svg  viewBox="0 0 20 20"  xmlns="http://www.w3.org/2000/svg">
<path d="M5.64584 5.25C5.42814 5.25 5.25001 5.42813 5.25001 5.64584V8.02084C5.25001 8.23854 5.42814 8.41667 5.64584 8.41667H8.02084C8.23855 8.41667 8.41668 8.23854 8.41668 8.02084V5.64584C8.41668 5.42813 8.23855 5.25 8.02084 5.25H5.64584ZM4.45834 5.64584C4.45834 4.99024 4.99025 4.45834 5.64584 4.45834H8.02084C8.67642 4.45834 9.20834 4.99024 9.20834 5.64584V8.02084C9.20834 8.67642 8.67642 9.20834 8.02084 9.20834H5.64584C4.99025 9.20834 4.45834 8.67642 4.45834 8.02084V5.64584ZM5.64584 11.5833C5.42814 11.5833 5.25001 11.7615 5.25001 11.9792V14.3542C5.25001 14.5719 5.42814 14.75 5.64584 14.75H8.02084C8.23855 14.75 8.41668 14.5719 8.41668 14.3542V11.9792C8.41668 11.7615 8.23855 11.5833 8.02084 11.5833H5.64584ZM4.45834 11.9792C4.45834 11.3236 4.99025 10.7917 5.64584 10.7917H8.02084C8.67642 10.7917 9.20834 11.3236 9.20834 11.9792V14.3542C9.20834 15.0097 8.67642 15.5417 8.02084 15.5417H5.64584C4.99025 15.5417 4.45834 15.0097 4.45834 14.3542V11.9792ZM14.3542 5.25H11.9792C11.7615 5.25 11.5833 5.42813 11.5833 5.64584V8.02084C11.5833 8.23854 11.7615 8.41667 11.9792 8.41667H14.3542C14.5719 8.41667 14.75 8.23854 14.75 8.02084V5.64584C14.75 5.42813 14.5719 5.25 14.3542 5.25ZM11.9792 4.45834H14.3542C15.0098 4.45834 15.5417 4.99024 15.5417 5.64584V8.02084C15.5417 8.67642 15.0098 9.20834 14.3542 9.20834H11.9792C11.3236 9.20834 10.7917 8.67642 10.7917 8.02084V5.64584C10.7917 4.99024 11.3236 4.45834 11.9792 4.45834ZM11.9792 11.5833C11.7615 11.5833 11.5833 11.7615 11.5833 11.9792V14.3542C11.5833 14.5719 11.7615 14.75 11.9792 14.75H14.3542C14.5719 14.75 14.75 14.5719 14.75 14.3542V11.9792C14.75 11.7615 14.5719 11.5833 14.3542 11.5833H11.9792ZM10.7917 11.9792C10.7917 11.3236 11.3236 10.7917 11.9792 10.7917H14.3542C15.0098 10.7917 15.5417 11.3236 15.5417 11.9792V14.3542C15.5417 15.0097 15.0098 15.5417 14.3542 15.5417H11.9792C11.3236 15.5417 10.7917 15.0097 10.7917 14.3542V11.9792Z" fill="currentColor"/>
</svg>
