<svg  viewBox="0 0 20 20"  xmlns="http://www.w3.org/2000/svg">
<path d="M9.70313 6.89749L9.40625 6.56351L9.30239 6.44723C8.65916 5.72483 7.68685 5.38838 6.73438 5.56155C5.41576 5.80153 4.45834 6.94945 4.45834 8.29033V8.37692C4.45834 9.17603 4.78985 9.93801 5.37617 10.4823L9.92575 14.7202C9.94562 14.7375 9.97277 14.7498 10 14.7498C10.0272 14.7498 10.0545 14.7399 10.0743 14.7202L14.6263 10.4823C15.2102 9.93801 15.5417 9.17603 15.5417 8.37692V8.29033C15.5417 6.94945 14.5842 5.80153 13.2656 5.56155C12.3132 5.38838 11.3409 5.72483 10.6977 6.44723L10.5938 6.56351L10.2969 6.89749C10.2226 6.98161 10.1138 7.03108 10 7.03108C9.88616 7.03108 9.77984 6.98161 9.70313 6.89749ZM10.5665 5.48486C11.3607 4.8639 12.3923 4.59919 13.4066 4.78226C15.1013 5.0915 16.3333 6.56846 16.3333 8.29033V8.37692C16.3333 9.26755 16.0092 10.1235 15.4278 10.7891C15.3438 10.883 15.2571 10.9745 15.1632 11.0612L10.6111 15.299C10.5913 15.3188 10.5691 15.3362 10.5467 15.3535C10.3909 15.4747 10.1979 15.5391 10 15.5391C9.7724 15.5391 9.55469 15.4524 9.38646 15.299L4.83438 11.0636C4.74037 10.9771 4.65379 10.8855 4.56966 10.7915C3.99076 10.1235 3.66667 9.26755 3.66667 8.37692V8.29033C3.66667 6.56846 4.8987 5.0915 6.59337 4.78226C7.60521 4.59919 8.63683 4.86143 9.43096 5.48486C9.59673 5.61598 9.75261 5.75947 9.8936 5.92028L9.99755 6.03655L10.1014 5.92028C10.2054 5.804 10.3142 5.69515 10.4304 5.59619C10.475 5.55908 10.5195 5.52197 10.5641 5.48486H10.5665Z" fill="currentColor"/>
</svg>
