<svg viewBox="0 0 24 24" xmlns="http://www.w3.org/2000/svg">
    <path d="M11.625 8.08104L11.25 7.65917L11.1188 7.51229C10.3063 6.59979 9.07812 6.17479 7.875 6.39354C6.20937 6.69667 5 8.14667 5 9.84042V9.94979C5 10.9592 5.41875 11.9217 6.15937 12.6092L11.9062 17.9623C11.9313 17.9842 11.9656 17.9998 12 17.9998C12.0344 17.9998 12.0688 17.9873 12.0938 17.9623L17.8438 12.6092C18.5813 11.9217 19 10.9592 19 9.94979V9.84042C19 8.14667 17.7906 6.69667 16.125 6.39354C14.9219 6.17479 13.6938 6.59979 12.8813 7.51229L12.75 7.65917L12.375 8.08104C12.2812 8.18729 12.1438 8.24979 12 8.24979C11.8562 8.24979 11.7219 8.18729 11.625 8.08104ZM12.7156 6.29667C13.7188 5.51229 15.0219 5.17792 16.3031 5.40917C18.4438 5.79979 20 7.66542 20 9.84042V9.94979C20 11.0748 19.5906 12.156 18.8562 12.9967C18.75 13.1154 18.6406 13.231 18.5219 13.3404L12.7719 18.6935C12.7469 18.7185 12.7188 18.7404 12.6906 18.7623C12.4938 18.9154 12.25 18.9967 12 18.9967C11.7125 18.9967 11.4375 18.8873 11.225 18.6935L5.475 13.3435C5.35625 13.2342 5.24688 13.1185 5.14062 12.9998C4.40938 12.156 4 11.0748 4 9.94979V9.84042C4 7.66542 5.55625 5.79979 7.69688 5.40917C8.975 5.17792 10.2781 5.50917 11.2812 6.29667C11.4906 6.46229 11.6875 6.64354 11.8656 6.84667L11.9969 6.99354L12.1281 6.84667C12.2594 6.69979 12.3969 6.56229 12.5437 6.43729C12.6 6.39042 12.6562 6.34354 12.7125 6.29667H12.7156Z"
          fill="currentColor"/>
</svg>