<svg viewBox="0 0 20 20" fill="currentColor" xmlns="http://www.w3.org/2000/svg">
<path d="M17 10C17 8.14348 16.2625 6.36301 14.9497 5.05025C13.637 3.7375 11.8565 3 10 3C8.14348 3 6.36301 3.7375 5.05025 5.05025C3.7375 6.36301 3 8.14348 3 10C3 11.8565 3.7375 13.637 5.05025 14.9497C6.36301 16.2625 8.14348 17 10 17C11.8565 17 13.637 16.2625 14.9497 14.9497C16.2625 13.637 17 11.8565 17 10ZM2 10C2 7.87827 2.84285 5.84344 4.34315 4.34315C5.84344 2.84285 7.87827 2 10 2C12.1217 2 14.1566 2.84285 15.6569 4.34315C17.1571 5.84344 18 7.87827 18 10C18 12.1217 17.1571 14.1566 15.6569 15.6569C14.1566 17.1571 12.1217 18 10 18C7.87827 18 5.84344 17.1571 4.34315 15.6569C2.84285 14.1566 2 12.1217 2 10ZM7.27187 7.30625C7.475 6.5375 8.16875 6 8.96562 6H10.75C11.8594 6 12.75 6.90625 12.75 8.00938C12.75 8.75938 12.3313 9.45312 11.6594 9.79688L10.5 10.3844V11C10.5 11.275 10.275 11.5 10 11.5C9.725 11.5 9.5 11.275 9.5 11V10.0781C9.5 9.89062 9.60625 9.71875 9.77187 9.63125L11.2031 8.9C11.5375 8.73125 11.75 8.38125 11.75 8.00313C11.75 7.44688 11.3 6.99375 10.75 6.99375H8.96562C8.625 6.99375 8.325 7.225 8.24062 7.55312L8.23438 7.575C8.16563 7.84062 7.89062 8.00313 7.625 7.93125C7.35938 7.85938 7.19688 7.5875 7.26875 7.32188L7.275 7.3L7.27187 7.30625ZM9.25 13C9.25 12.8011 9.32902 12.6103 9.46967 12.4697C9.61032 12.329 9.80109 12.25 10 12.25C10.1989 12.25 10.3897 12.329 10.5303 12.4697C10.671 12.6103 10.75 12.8011 10.75 13C10.75 13.1989 10.671 13.3897 10.5303 13.5303C10.3897 13.671 10.1989 13.75 10 13.75C9.80109 13.75 9.61032 13.671 9.46967 13.5303C9.32902 13.3897 9.25 13.1989 9.25 13Z"/>
</svg>
