<svg width="20" height="20" viewBox="0 0 20 20" fill="none" xmlns="http://www.w3.org/2000/svg">
<path d="M12.9267 10.0519C13.3275 9.47552 13.5625 8.7779 13.5625 8.02083C13.5625 6.05403 11.9668 4.45833 10 4.45833C8.03319 4.45833 6.43749 6.05403 6.43749 8.02083C6.43749 8.7779 6.67252 9.47552 7.0733 10.0519C7.17473 10.1979 7.29101 10.3562 7.40976 10.522C7.72395 10.955 8.0802 11.4423 8.34987 11.9347C8.57009 12.3354 8.68884 12.7585 8.75067 13.1691H7.94661C7.89218 12.8722 7.80064 12.5828 7.65468 12.3156C7.40976 11.8703 7.10546 11.4522 6.80117 11.0341C6.67253 10.8585 6.54387 10.6828 6.42017 10.5047C5.93281 9.79963 5.64583 8.9436 5.64583 8.02083C5.64583 5.61614 7.59531 3.66666 10 3.66666C12.4047 3.66666 14.3542 5.61614 14.3542 8.02083C14.3542 8.9436 14.0672 9.79963 13.5774 10.5022C13.4536 10.6804 13.325 10.856 13.1964 11.0316C12.892 11.4472 12.5878 11.8653 12.3429 12.3132C12.1969 12.5804 12.1054 12.8698 12.0509 13.1667H11.2493C11.3112 12.7559 11.43 12.333 11.6501 11.9321C11.9198 11.4373 12.276 10.95 12.5902 10.5195C12.7115 10.3538 12.8252 10.1979 12.9267 10.0495V10.0519ZM10 6.04166C8.90655 6.04166 8.02083 6.92734 8.02083 8.02083C8.02083 8.23854 7.8427 8.41666 7.625 8.41666C7.40729 8.41666 7.22916 8.23854 7.22916 8.02083C7.22916 6.48945 8.4686 5.25 10 5.25C10.2177 5.25 10.3958 5.42812 10.3958 5.64583C10.3958 5.86354 10.2177 6.04166 10 6.04166ZM8.87931 14.75C9.04255 15.2102 9.48296 15.5417 10 15.5417C10.517 15.5417 10.9574 15.2102 11.1207 14.75H8.87931ZM8.02083 14.3542V14.2231C8.02083 14.0771 8.13958 13.9583 8.28554 13.9583H11.7144C11.8604 13.9583 11.9792 14.0771 11.9792 14.2231V14.3542C11.9792 15.4477 11.0934 16.3333 10 16.3333C8.90655 16.3333 8.02083 15.4477 8.02083 14.3542Z" fill="black"/>
</svg>
