<svg width="24" height="24" viewBox="0 0 24 24" fill="none" xmlns="http://www.w3.org/2000/svg">
<path d="M15.6969 12.0656C16.2031 11.3375 16.5 10.4563 16.5 9.5C16.5 7.01562 14.4844 5 12 5C9.51562 5 7.5 7.01562 7.5 9.5C7.5 10.4563 7.79687 11.3375 8.30312 12.0656C8.43125 12.25 8.57812 12.45 8.72813 12.6594C9.125 13.2063 9.575 13.8219 9.91563 14.4438C10.1938 14.95 10.3438 15.4844 10.4219 16.0031H9.40625C9.3375 15.6281 9.22187 15.2625 9.0375 14.925C8.72812 14.3625 8.34375 13.8344 7.95938 13.3062C7.79688 13.0844 7.63437 12.8625 7.47812 12.6375C6.8625 11.7469 6.5 10.6656 6.5 9.5C6.5 6.4625 8.9625 4 12 4C15.0375 4 17.5 6.4625 17.5 9.5C17.5 10.6656 17.1375 11.7469 16.5188 12.6344C16.3625 12.8594 16.2 13.0813 16.0375 13.3031C15.6531 13.8281 15.2688 14.3562 14.9594 14.9219C14.775 15.2594 14.6594 15.625 14.5906 16H13.5781C13.6562 15.4812 13.8063 14.9469 14.0844 14.4406C14.425 13.8156 14.875 13.2 15.2719 12.6562C15.425 12.4469 15.5687 12.25 15.6969 12.0625V12.0656ZM12 7C10.6188 7 9.5 8.11875 9.5 9.5C9.5 9.775 9.275 10 9 10C8.725 10 8.5 9.775 8.5 9.5C8.5 7.56562 10.0656 6 12 6C12.275 6 12.5 6.225 12.5 6.5C12.5 6.775 12.275 7 12 7ZM10.5844 18C10.7906 18.5813 11.3469 19 12 19C12.6531 19 13.2094 18.5813 13.4156 18H10.5844ZM9.5 17.5V17.3344C9.5 17.15 9.65 17 9.83437 17H14.1656C14.35 17 14.5 17.15 14.5 17.3344V17.5C14.5 18.8813 13.3812 20 12 20C10.6188 20 9.5 18.8813 9.5 17.5Z" fill="black"/>
</svg>
