<svg width="24" height="24" viewBox="0 0 24 24" fill="currentColor" xmlns="http://www.w3.org/2000/svg">
<path d="M10.2004 3.60039C11.0671 3.60039 11.9254 3.7711 12.7261 4.10279C13.5268 4.43447 14.2544 4.92062 14.8673 5.53349C15.4802 6.14635 15.9663 6.87393 16.298 7.67468C16.6297 8.47543 16.8004 9.33367 16.8004 10.2004C16.8004 11.0671 16.6297 11.9254 16.298 12.7261C15.9663 13.5268 15.4802 14.2544 14.8673 14.8673C14.2544 15.4802 13.5268 15.9663 12.7261 16.298C11.9254 16.6297 11.0671 16.8004 10.2004 16.8004C9.33367 16.8004 8.47543 16.6297 7.67468 16.298C6.87393 15.9663 6.14635 15.4802 5.53349 14.8673C4.92062 14.2544 4.43447 13.5268 4.10279 12.7261C3.7711 11.9254 3.60039 11.0671 3.60039 10.2004C3.60039 9.33367 3.7711 8.47543 4.10279 7.67468C4.43447 6.87393 4.92062 6.14635 5.53349 5.53349C6.14635 4.92062 6.87393 4.43447 7.67468 4.10279C8.47543 3.7711 9.33367 3.60039 10.2004 3.60039ZM10.2004 18.0004C12.1391 18.0004 13.9129 17.2954 15.2741 16.1254L20.5766 21.4241C20.8091 21.6566 21.1916 21.6566 21.4241 21.4241C21.6566 21.1916 21.6566 20.8091 21.4241 20.5766L16.1254 15.2741C17.2954 13.9091 18.0004 12.1354 18.0004 10.2004C18.0004 5.89164 14.5091 2.40039 10.2004 2.40039C5.89164 2.40039 2.40039 5.89164 2.40039 10.2004C2.40039 14.5091 5.89164 18.0004 10.2004 18.0004ZM9.60039 6.60039C9.60039 6.27039 9.33039 6.00039 9.00039 6.00039C8.67039 6.00039 8.40039 6.27039 8.40039 6.60039V13.8004C8.40039 14.1304 8.67039 14.4004 9.00039 14.4004C9.33039 14.4004 9.60039 14.1304 9.60039 13.8004V6.60039ZM7.20039 7.80039C7.20039 7.47039 6.93039 7.20039 6.60039 7.20039C6.27039 7.20039 6.00039 7.47039 6.00039 7.80039V12.6004C6.00039 12.9304 6.27039 13.2004 6.60039 13.2004C6.93039 13.2004 7.20039 12.9304 7.20039 12.6004V7.80039ZM12.0004 7.80039C12.0004 7.47039 11.7304 7.20039 11.4004 7.20039C11.0704 7.20039 10.8004 7.47039 10.8004 7.80039V12.6004C10.8004 12.9304 11.0704 13.2004 11.4004 13.2004C11.7304 13.2004 12.0004 12.9304 12.0004 12.6004V7.80039ZM14.4004 9.00039C14.4004 8.67039 14.1304 8.40039 13.8004 8.40039C13.4704 8.40039 13.2004 8.67039 13.2004 9.00039V11.4004C13.2004 11.7304 13.4704 12.0004 13.8004 12.0004C14.1304 12.0004 14.4004 11.7304 14.4004 11.4004V9.00039Z" fill="black"/>
</svg>
