<svg width="20" height="20" viewBox="0 0 20 20" fill="none" xmlns="http://www.w3.org/2000/svg">
<path d="M8.41667 13.9583C8.41667 13.5205 8.06289 13.1667 7.625 13.1667H5.25C4.8121 13.1667 4.45833 12.8129 4.45833 12.375V5.25C4.45833 4.8121 4.8121 4.45833 5.25 4.45833H14.75C15.1879 4.45833 15.5417 4.8121 15.5417 5.25V12.375C15.5417 12.8129 15.1879 13.1667 14.75 13.1667H11.3186C11.1479 13.1667 10.9797 13.2211 10.8436 13.325L8.41667 15.1458V13.9583ZM5.25 3.66666C4.3767 3.66666 3.66667 4.37669 3.66667 5.25V12.375C3.66667 13.2483 4.3767 13.9583 5.25 13.9583H6.83333H7.625V14.75V15.9375C7.625 16.0884 7.70911 16.2245 7.84271 16.2913C7.9763 16.358 8.13711 16.3432 8.25833 16.2542L11.3186 13.9583H14.75C15.6233 13.9583 16.3333 13.2483 16.3333 12.375V5.25C16.3333 4.37669 15.6233 3.66666 14.75 3.66666H5.25ZM7.84023 6.67995L7.83528 6.69726C7.78086 6.90755 7.90703 7.12526 8.11731 7.17969C8.3276 7.23411 8.54531 7.10794 8.5997 6.89765L8.60469 6.88033C8.67396 6.61809 8.909 6.4375 9.17864 6.4375H10.5937C11.0292 6.4375 11.3854 6.79622 11.3854 7.23659C11.3854 7.53594 11.2172 7.81055 10.9525 7.94661L9.81942 8.52552C9.68579 8.59233 9.60417 8.72834 9.60417 8.87931V9.60416C9.60417 9.82187 9.78229 10 10 10C10.2177 10 10.3958 9.82187 10.3958 9.60416V9.11681L11.3137 8.64918C11.8456 8.37708 12.1771 7.82786 12.1771 7.23411C12.1771 6.36328 11.472 5.64583 10.5937 5.64583H9.1811C8.55022 5.64583 8.00104 6.07135 7.84023 6.67995ZM10.5937 11.1875C10.5937 11.03 10.5312 10.879 10.4198 10.7677C10.3085 10.6563 10.1575 10.5937 10 10.5937C9.84254 10.5937 9.69149 10.6563 9.58018 10.7677C9.46879 10.879 9.40625 11.03 9.40625 11.1875C9.40625 11.345 9.46879 11.496 9.58018 11.6073C9.69149 11.7187 9.84254 11.7812 10 11.7812C10.1575 11.7812 10.3085 11.7187 10.4198 11.6073C10.5312 11.496 10.5937 11.345 10.5937 11.1875Z" fill="black"/>
</svg>
