<svg viewBox="0 0 24 24" xmlns="http://www.w3.org/2000/svg">
    <path d="M10 17C10 16.4469 9.55312 16 9 16H6C5.44687 16 5 15.5531 5 15V6C5 5.44687 5.44687 5 6 5H18C18.5531 5 19 5.44687 19 6V15C19 15.5531 18.5531 16 18 16H13.6656C13.45 16 13.2375 16.0687 13.0656 16.2L10 18.5V17ZM6 4C4.89688 4 4 4.89688 4 6V15C4 16.1031 4.89688 17 6 17H8H9V18V19.5C9 19.6906 9.10625 19.8625 9.275 19.9469C9.44375 20.0312 9.64688 20.0125 9.8 19.9L13.6656 17H18C19.1031 17 20 16.1031 20 15V6C20 4.89688 19.1031 4 18 4H6ZM9.27187 7.80625L9.26562 7.82812C9.19688 8.09375 9.35625 8.36875 9.62187 8.4375C9.8875 8.50625 10.1625 8.34688 10.2312 8.08125L10.2375 8.05937C10.325 7.72812 10.6219 7.5 10.9625 7.5H12.75C13.3 7.5 13.75 7.95312 13.75 8.50938C13.75 8.8875 13.5375 9.23438 13.2031 9.40625L11.7719 10.1375C11.6031 10.2219 11.5 10.3937 11.5 10.5844V11.5C11.5 11.775 11.725 12 12 12C12.275 12 12.5 11.775 12.5 11.5V10.8844L13.6594 10.2937C14.3313 9.95 14.75 9.25625 14.75 8.50625C14.75 7.40625 13.8594 6.5 12.75 6.5H10.9656C10.1687 6.5 9.475 7.0375 9.27187 7.80625ZM12.75 13.5C12.75 13.3011 12.671 13.1103 12.5303 12.9697C12.3897 12.829 12.1989 12.75 12 12.75C11.8011 12.75 11.6103 12.829 11.4697 12.9697C11.329 13.1103 11.25 13.3011 11.25 13.5C11.25 13.6989 11.329 13.8897 11.4697 14.0303C11.6103 14.171 11.8011 14.25 12 14.25C12.1989 14.25 12.3897 14.171 12.5303 14.0303C12.671 13.8897 12.75 13.6989 12.75 13.5Z"
          fill="currentColor"/>
</svg>