<svg width="118" height="24" viewBox="0 0 118 24" fill="none" xmlns="http://www.w3.org/2000/svg">
<path fill-rule="evenodd" clip-rule="evenodd" d="M9.99435e-06 5.99524L9.4782 0V5.99524L18.9564 1.78382e-05L18.9564 5.99526L9.47819 11.9905L9.47819 5.99526L9.99435e-06 11.9905V5.99524ZM9.47819 18.0048L0 24V18.0048L9.47819 11.9905V18.0048ZM18.9564 11.9905V5.99526L28.4155 1.78382e-05V5.99526L18.9564 11.9905ZM18.9564 18.0048L9.47819 24L9.47819 18.0048L18.9564 11.9905L18.9564 18.0048ZM18.9564 18.0048L28.4155 11.9905V18.0048L18.9564 24L18.9564 18.0048Z" fill="#0F0E0E"/>
<path fill-rule="evenodd" clip-rule="evenodd" d="M104.182 16.6725H106.637V3.10229H104.182V16.6725ZM89.755 16.6725H92.2101V7.61301H89.755V16.6725ZM89.6979 6.39493H92.2673V3.90167H89.6979V6.39493ZM88.3085 9.64947V7.61299H86.272V4.58682H83.8359V7.61299H81.9326V9.64947H83.8359V16.6725H86.272V9.64947H88.3085ZM51.8041 11.0008V16.6915H49.3679V11.1911C49.3679 10.0682 48.835 9.53528 47.8263 9.53528C47.065 9.53528 46.4179 9.85884 45.8469 10.5059V16.6915H43.3917V11.1911C43.3917 10.0682 42.8779 9.53528 41.8691 9.53528C41.0888 9.53528 40.4417 9.87787 39.8707 10.563V16.6915H37.4155V7.613H39.7185V8.46946C40.4798 7.80332 41.5266 7.44171 42.5924 7.44171C43.8295 7.44171 44.743 7.86042 45.2569 8.67882C46.2466 7.84139 47.3505 7.44171 48.5305 7.44171C50.6622 7.44171 51.8041 8.69785 51.8041 11.0008ZM60.7304 12.1237C60.7304 10.525 59.6074 9.51625 58.3132 9.51625C57.4948 9.51625 56.7906 9.8398 56.2387 10.4488V13.8937C56.7906 14.4837 57.4377 14.7883 58.2181 14.7883C59.6265 14.7883 60.7304 13.7795 60.7304 12.1237ZM62.5575 9.66851C62.9762 10.3917 63.2046 11.1911 63.2046 12.1237C63.2046 13.5131 62.6336 14.7692 61.7962 15.5876C60.9588 16.406 59.8168 16.8818 58.6368 16.8818C57.7232 16.8818 56.9429 16.5963 56.2958 16.0444V20.8977H53.8406V7.613H56.2387V8.3172C56.9619 7.72719 57.7613 7.44171 58.6558 7.44171C60.2355 7.44171 61.682 8.24107 62.5575 9.66851ZM71.1221 10.3917V13.9128C70.5892 14.5028 69.904 14.7883 69.1047 14.7692C67.7724 14.7692 66.6685 13.7605 66.6685 12.1427C66.6685 10.525 67.7914 9.49722 69.1047 9.49722C69.904 9.49722 70.5702 9.80174 71.1221 10.3917ZM71.2363 16.6725H73.5393H73.5773V7.613H71.2363V8.39333C70.5702 7.76526 69.7518 7.44171 68.7811 7.44171C67.9818 7.44171 67.2395 7.63203 66.5353 8.03171C65.1269 8.79302 64.1943 10.3346 64.1943 12.1618C64.1943 13.0944 64.4036 13.8937 64.8414 14.617C65.6979 16.0634 67.1443 16.8818 68.7621 16.8818C69.7328 16.8818 70.5512 16.5583 71.2363 15.8921V16.6725ZM77.9358 7.613V8.45043C78.678 7.70816 79.4774 7.44171 80.8668 7.44171V9.7827C80.6955 9.72561 80.448 9.70657 80.1816 9.70657C79.4203 9.70657 78.64 10.0872 78.088 10.7534V16.6915H75.6328V7.613H77.9358ZM98.548 16.8628C100.223 16.8628 101.707 16.0825 102.564 14.8454L100.775 13.6463C100.204 14.3886 99.4615 14.7692 98.548 14.7692C97.0825 14.7692 96.1689 13.7415 96.1689 12.1998C96.1689 10.6582 97.1396 9.53528 98.567 9.53528C99.4615 9.53528 100.147 9.91593 100.68 10.6772L102.564 9.49722C101.669 8.12687 100.337 7.44171 98.548 7.44171C97.6534 7.44171 96.8541 7.65106 96.1118 8.05074C94.6082 8.85011 93.6947 10.3917 93.6947 12.1808C93.6947 13.0753 93.9231 13.8747 94.3608 14.5979C95.2173 16.0254 96.7779 16.8628 98.548 16.8628ZM115.068 11.0959C114.764 9.99206 114.04 9.44012 112.898 9.44012C111.718 9.44012 110.9 10.0301 110.577 11.0959H115.068ZM112.841 14.7502C113.755 14.7502 114.516 14.3886 115.106 13.7034L116.838 14.8454C115.925 16.1205 114.497 16.8438 112.841 16.8438C111.433 16.8438 110.177 16.3299 109.358 15.4734C108.559 14.636 108.064 13.4369 108.064 12.1618C108.064 10.4108 108.883 8.92624 110.348 8.06977C111.071 7.63203 111.909 7.42267 112.841 7.42267C115.563 7.42267 117.428 9.34495 117.428 12.3521C117.428 12.4663 117.428 12.5995 117.409 12.7327H110.462C110.653 14.046 111.566 14.7502 112.841 14.7502Z" fill="#0F0E0E"/>
</svg>
