<svg viewBox="0 0 20 20" xmlns="http://www.w3.org/2000/svg" fill="currentColor">
<path d="M7.22188 3C6.54688 3 6 3.54687 6 4.22187C6 4.525 6.1125 4.81875 6.31875 5.04375L11 10.1938V13.2469C11 13.5656 11.1531 13.8687 11.4125 14.0562L13.9062 15.8687C14.025 15.9531 14.1656 16 14.3125 16C14.6937 16 15 15.6906 15 15.3125V10.1938L19.6812 5.04375C19.8844 4.81875 20 4.525 20 4.22187C20 3.54687 19.4531 3 18.7781 3H7.22188ZM7 4.22187C7 4.1 7.1 4 7.22188 4H18.7781C18.9 4 19 4.1 19 4.22187C19 4.27812 18.9781 4.33125 18.9438 4.37188L14.1313 9.66563C14.0469 9.75625 14 9.87813 14 10.0031V14.7L12 13.2469V10C12 9.875 11.9531 9.75625 11.8687 9.6625L7.05625 4.36875C7.01875 4.32813 7 4.275 7 4.21875V4.22187ZM5.14062 5H1.22187C0.546875 5 0 5.54688 0 6.22188C0 6.525 0.1125 6.81875 0.31875 7.04375L5 12.1938V14.2469C5 14.5656 5.15312 14.8687 5.4125 15.0562L7.90625 16.8687C8.025 16.9531 8.16563 17 8.3125 17C8.69375 17 9 16.6906 9 16.3125V12.1938L10 11.0938V10.5813L9.55625 10.0938L8.12813 11.6656C8.04375 11.7562 7.99687 11.8781 7.99687 12.0031V15.7L5.99687 14.2469V12C5.99687 11.875 5.95 11.7563 5.86562 11.6625L1.05625 6.36875C1.01875 6.32813 1 6.275 1 6.21875C1 6.09687 1.1 5.99688 1.22187 5.99688H5.8375L5.57812 5.7125C5.3875 5.50313 5.24063 5.25938 5.14062 4.99688V5Z"></path>
</svg>