<svg viewBox="0 0 20 20" xmlns="http://www.w3.org/2000/svg" fill="currentColor">
<path d="M11.1469 8.14687C10.9531 8.34062 10.9531 8.65938 11.1469 8.85313C11.3406 9.04688 11.6594 9.04688 11.8531 8.85313L17 3.70625V7C17 7.275 17.225 7.5 17.5 7.5C17.775 7.5 18 7.275 18 7V2.5C18 2.225 17.775 2 17.5 2H13C12.725 2 12.5 2.225 12.5 2.5C12.5 2.775 12.725 3 13 3H16.2937L11.1469 8.14687ZM8.85313 11.8531C9.04688 11.6594 9.04688 11.3406 8.85313 11.1469C8.65938 10.9531 8.34062 10.9531 8.14687 11.1469L3 16.2937V13C3 12.725 2.775 12.5 2.5 12.5C2.225 12.5 2 12.725 2 13V17.5C2 17.775 2.225 18 2.5 18H7C7.275 18 7.5 17.775 7.5 17.5C7.5 17.225 7.275 17 7 17H3.70625L8.85313 11.8531Z"></path>
</svg>