<svg viewBox="0 0 20 20" xmlns="http://www.w3.org/2000/svg" fill="currentColor">
<path d="M4.50025 2.99988C4.22525 2.99988 4.00025 3.22488 4.00025 3.49988C4.00025 3.77488 4.22525 3.99988 4.50025 3.99988H15.50025C15.77525 3.99988 16.00025 3.77488 16.00025 3.49988C16.00025 3.22488 15.77525 2.99988 15.50025 2.99988H4.50025ZM10.353375 6.146875C10.159625 5.953125 9.840875 5.953125 9.647125 6.146875L5.647125 10.146875C5.453375 10.340625 5.453375 10.659375 5.647125 10.853125C5.840875 11.046875 6.159625 11.046875 6.353375 10.853125L9.50025 7.706125V10.99988V16.49988C9.50025 16.77488 9.72525 16.99988 10.00025 16.99988C10.27525 16.99988 10.50025 16.77488 10.50025 16.49988V10.99988V7.706125L13.647125 10.853125C13.840875 11.046875 14.159625 11.046875 14.353375 10.853125C14.547125 10.659375 14.547125 10.340625 14.353375 10.146875L10.353375 6.146875Z"></path>
</svg>