<svg viewBox="0 0 20 20" xmlns="http://www.w3.org/2000/svg" fill="currentColor">
<path d="M16 10C16 10.2652 15.8946 10.5196 15.7071 10.7071C15.5196 10.8946 15.2652 11 15 11C14.7348 11 14.4804 10.8946 14.2929 10.7071C14.1054 10.5196 14 10.2652 14 10C14 9.73478 14.1054 9.48043 14.2929 9.29289C14.4804 9.10536 14.7348 9 15 9C15.2652 9 15.5196 9.10536 15.7071 9.29289C15.8946 9.48043 16 9.73478 16 10ZM11 10C11 10.2652 10.8946 10.5196 10.7071 10.7071C10.5196 10.8946 10.2652 11 10 11C9.73478 11 9.48043 10.8946 9.29289 10.7071C9.10536 10.5196 9 10.2652 9 10C9 9.73478 9.10536 9.48043 9.29289 9.29289C9.48043 9.10536 9.73478 9 10 9C10.2652 9 10.5196 9.10536 10.7071 9.29289C10.8946 9.48043 11 9.73478 11 10ZM5 11C4.73478 11 4.48043 10.8946 4.29289 10.7071C4.10536 10.5196 4 10.2652 4 10C4 9.73478 4.10536 9.48043 4.29289 9.29289C4.48043 9.10536 4.73478 9 5 9C5.26522 9 5.51957 9.10536 5.70711 9.29289C5.89464 9.48043 6 9.73478 6 10C6 10.2652 5.89464 10.5196 5.70711 10.7071C5.51957 10.8946 5.26522 11 5 11Z"></path>
</svg>