<svg viewBox="0 0 20 20" xmlns="http://www.w3.org/2000/svg">
<path d="M8 3.5C8 3.225 7.775 3 7.5 3C7.225 3 7 3.225 7 3.5V7H3.5C3.225 7 3 7.225 3 7.5C3 7.775 3.225 8 3.5 8H7.5C7.775 8 8 7.775 8 7.5V3.5ZM3.5 12C3.225 12 3 12.225 3 12.5C3 12.775 3.225 13 3.5 13H7V16.5C7 16.775 7.225 17 7.5 17C7.775 17 8 16.775 8 16.5V12.5C8 12.225 7.775 12 7.5 12H3.5ZM13 3.5C13 3.225 12.775 3 12.5 3C12.225 3 12 3.225 12 3.5V7.5C12 7.775 12.225 8 12.5 8H16.5C16.775 8 17 7.775 17 7.5C17 7.225 16.775 7 16.5 7H13V3.5ZM12.5 12C12.225 12 12 12.225 12 12.5V16.5C12 16.775 12.225 17 12.5 17C12.775 17 13 16.775 13 16.5V13H16.5C16.775 13 17 12.775 17 12.5C17 12.225 16.775 12 16.5 12H12.5Z"></path>
</svg>