<svg viewBox="0 0 20 20" xmlns="http://www.w3.org/2000/svg" fill="currentColor">
<path d="M7.35352 16.8531C7.15977 17.0469 6.84102 17.0469 6.64727 16.8531L3.64727 13.8531C3.45352 13.6594 3.45352 13.3406 3.64727 13.1469C3.84102 12.9531 4.15977 12.9531 4.35352 13.1469L6.50039 15.2937V3.5C6.50039 3.225 6.72539 3 7.00039 3C7.27539 3 7.50039 3.225 7.50039 3.5V15.2937L9.64727 13.1469C9.84102 12.9531 10.1598 12.9531 10.3535 13.1469C10.5473 13.3406 10.5473 13.6594 10.3535 13.8531L7.35352 16.8531ZM18.3535 6.14687C18.5473 6.34062 18.5473 6.65938 18.3535 6.85313C18.1598 7.04688 17.841 7.04688 17.6473 6.85313L15.5004 4.70625V16.5C15.5004 16.775 15.2754 17 15.0004 17C14.7254 17 14.5004 16.775 14.5004 16.5V4.70625L12.3535 6.85313C12.1598 7.04688 11.841 7.04688 11.6473 6.85313C11.4535 6.65938 11.4535 6.34062 11.6473 6.14687L14.6473 3.14688C14.841 2.95313 15.1598 2.95313 15.3535 3.14688L18.3535 6.14687Z"></path>
</svg>