<svg viewBox="0 0 20 20" xmlns="http://www.w3.org/2000/svg" fill="currentColor">
<path d="M5.25 3.99998C5.66563 3.99998 6 4.33435 6 4.74998V5.49998V6.49998V7.24998C6 7.66561 5.66563 7.99998 5.25 7.99998H2.75C2.33438 7.99998 2 7.66561 2 7.24998V4.74998C2 4.33435 2.33438 3.99998 2.75 3.99998H5.25ZM7 7.24998V6.49998H13V7.24998C13 8.21561 13.7843 9 14.75 9H17.25C18.2156 9 19 8.21561 19 7.24998V4.74998C19 3.78435 18.2156 2.99998 17.25 2.99998H14.75C13.7843 2.99998 13 3.78435 13 4.74998V5.49998H7V4.74998C7 3.78435 6.21563 2.99998 5.25 2.99998H2.75C1.78438 2.99998 1 3.78435 1 4.74998V7.24998C1 8.21561 1.78438 9 2.75 9H5.25C5.51875 9 5.77188 8.94058 6 8.83125L8.25625 11.8406C8.09375 12.1063 8 12.4188 8 12.75V15.25C8 16.2156 8.78438 17 9.75 17H12.25C13.2156 17 14 16.2156 14 15.25V12.75C14 11.7844 13.2156 11 12.25 11H9.75C9.48125 11 9.22813 11.0594 9 11.1688L6.74375 8.15935C6.90625 7.89373 7 7.58123 7 7.24998ZM14 7.24998V6.49998V5.49998V4.74998C14 4.33435 14.3344 3.99998 14.75 3.99998H17.25C17.6656 3.99998 18 4.33435 18 4.74998V7.24998C18 7.66561 17.6656 7.99998 17.25 7.99998H14.75C14.3344 7.99998 14 7.66561 14 7.24998ZM12.25 12C12.6656 12 13 12.3344 13 12.75V15.25C13 15.6656 12.6656 16 12.25 16H9.75C9.33438 16 9 15.6656 9 15.25V12.75C9 12.3344 9.33438 12 9.75 12H12.25Z" fill="black"/>
</svg>