<svg viewBox="0 0 20 20" xmlns="http://www.w3.org/2000/svg" fill="currentColor">
<path d="M10 3C11.8565 3 13.637 3.7375 14.9497 5.05025C16.2625 6.36301 17 8.14348 17 10C17 11.8565 16.2625 13.637 14.9497 14.9497C13.637 16.2625 11.8565 17 10 17C8.14348 17 6.36301 16.2625 5.05025 14.9497C3.7375 13.637 3 11.8565 3 10C3 8.14348 3.7375 6.36301 5.05025 5.05025C6.36301 3.7375 8.14348 3 10 3ZM10 18C12.1217 18 14.1566 17.1571 15.6569 15.6569C17.1571 14.1566 18 12.1217 18 10C18 7.87827 17.1571 5.84344 15.6569 4.34315C14.1566 2.84285 12.1217 2 10 2C7.87827 2 5.84344 2.84285 4.34315 4.34315C2.84285 5.84344 2 7.87827 2 10C2 12.1217 2.84285 14.1566 4.34315 15.6569C5.84344 17.1571 7.87827 18 10 18ZM13.3531 8.35313C13.5469 8.15938 13.5469 7.84062 13.3531 7.64687C13.1594 7.45312 12.8406 7.45312 12.6469 7.64687L9 11.2937L7.35313 9.64687C7.15938 9.45312 6.84062 9.45312 6.64687 9.64687C6.45312 9.84062 6.45312 10.1594 6.64687 10.3531L8.64687 12.3531C8.84062 12.5469 9.15938 12.5469 9.35313 12.3531L13.3531 8.35313Z"></path>
</svg>