<svg viewBox="0 0 20 20" xmlns="http://www.w3.org/2000/svg" fill="currentColor">
<path d="M17 10C17 8.14348 16.2625 6.36301 14.9497 5.05025C13.637 3.7375 11.8565 3 10 3C8.14348 3 6.36301 3.7375 5.05025 5.05025C3.7375 6.36301 3 8.14348 3 10C3 11.8565 3.7375 13.637 5.05025 14.9497C6.36301 16.2625 8.14348 17 10 17C11.8565 17 13.637 16.2625 14.9497 14.9497C16.2625 13.637 17 11.8565 17 10ZM2 10C2 7.87827 2.84285 5.84344 4.34315 4.34315C5.84344 2.84285 7.87827 2 10 2C12.1217 2 14.1566 2.84285 15.6569 4.34315C17.1571 5.84344 18 7.87827 18 10C18 12.1217 17.1571 14.1566 15.6569 15.6569C14.1566 17.1571 12.1217 18 10 18C7.87827 18 5.84344 17.1571 4.34315 15.6569C2.84285 14.1566 2 12.1217 2 10ZM9 7.5V12.5C9 12.775 8.775 13 8.5 13C8.225 13 8 12.775 8 12.5V7.5C8 7.225 8.225 7 8.5 7C8.775 7 9 7.225 9 7.5ZM12 7.5V12.5C12 12.775 11.775 13 11.5 13C11.225 13 11 12.775 11 12.5V7.5C11 7.225 11.225 7 11.5 7C11.775 7 12 7.225 12 7.5Z"></path>
</svg>