<svg viewBox="0 0 20 20" xmlns="http://www.w3.org/2000/svg" fill="currentColor">
<path d="M8.07733 7.275L9.99608 3.32187L11.9148 7.275C12.0586 7.57188 12.3398 7.77812 12.668 7.82812L16.9617 8.4625L13.843 11.55C13.6117 11.7781 13.5055 12.1063 13.5617 12.4281L14.2961 16.7875L10.468 14.7406C10.1742 14.5844 9.82108 14.5844 9.5242 14.7406L5.69295 16.7875L6.42733 12.4281C6.48045 12.1063 6.37733 11.7812 6.14608 11.55L3.03045 8.4625L7.3242 7.82812C7.65233 7.78125 7.93358 7.57188 8.07733 7.275ZM14.2773 17.9094C14.5305 18.0438 14.8367 18.025 15.068 17.8562C15.2992 17.6875 15.418 17.4031 15.3711 17.1219L14.5492 12.2625L18.0242 8.81875C18.2273 8.61875 18.2961 8.32188 18.2086 8.05312C18.1211 7.78437 17.8867 7.5875 17.6055 7.54375L12.8148 6.8375L10.6711 2.42188C10.5461 2.1625 10.2836 2 9.99608 2C9.70858 2 9.44608 2.1625 9.32108 2.42188L7.17733 6.8375L2.38983 7.54688C2.10858 7.5875 1.8742 7.78437 1.7867 8.05625C1.6992 8.32812 1.77108 8.62188 1.97108 8.82188L5.44295 12.2625L4.6242 17.1219C4.57733 17.4031 4.69295 17.6875 4.92733 17.8562C5.1617 18.025 5.46795 18.0438 5.71795 17.9094L9.9992 15.6219L14.2805 17.9094H14.2773Z"></path>
</svg>