<svg viewBox="0 0 20 20" xmlns="http://www.w3.org/2000/svg" fill="currentColor">
<path d="M3.6002 2.3999C3.3802 2.3999 3.2002 2.5799 3.2002 2.7999C3.2002 3.0199 3.3802 3.1999 3.6002 3.1999H12.4002C12.6202 3.1999 12.8002 3.0199 12.8002 2.7999C12.8002 2.5799 12.6202 2.3999 12.4002 2.3999H3.6002ZM8.2827 4.9174C8.1277 4.7624 7.8727 4.7624 7.7177 4.9174L4.5177 8.1174C4.3627 8.2724 4.3627 8.5274 4.5177 8.6824C4.6727 8.8374 4.9277 8.8374 5.0827 8.6824L7.6002 6.1649V8.7999V13.1999C7.6002 13.4199 7.7802 13.5999 8.0002 13.5999C8.2202 13.5999 8.4002 13.4199 8.4002 13.1999V8.7999V6.1649L10.9177 8.6824C11.0727 8.8374 11.3277 8.8374 11.4827 8.6824C11.6377 8.5274 11.6377 8.2724 11.4827 8.1174L8.2827 4.9174Z"/>
</svg>