<svg width="20" height="20" viewBox="0 0 20 20" fill="none" xmlns="http://www.w3.org/2000/svg">
    <path d="M12.5 2C12.225 2 12 2.225 12 2.5C12 2.775 12.225 3 12.5 3H16.2937L8.64687 10.6469C8.45312 10.8406 8.45312 11.1594 8.64687 11.3531C8.84062 11.5469 9.15938 11.5469 9.35313 11.3531L17 3.70625V7.5C17 7.775 17.225 8 17.5 8C17.775 8 18 7.775 18 7.5V2.5C18 2.225 17.775 2 17.5 2H12.5ZM4 3C2.89688 3 2 3.89688 2 5V16C2 17.1031 2.89688 18 4 18H15C16.1031 18 17 17.1031 17 16V11.5C17 11.225 16.775 11 16.5 11C16.225 11 16 11.225 16 11.5V16C16 16.5531 15.5531 17 15 17H4C3.44687 17 3 16.5531 3 16V5C3 4.44688 3.44687 4 4 4H8.5C8.775 4 9 3.775 9 3.5C9 3.225 8.775 3 8.5 3H4Z"
          fill="currentColor"/>
</svg>