<svg viewBox="0 0 20 20" xmlns="http://www.w3.org/2000/svg" fill="currentColor">
<path opacity="0.4" d="M12.6389 4.46004C12.8014 3.64754 12.2732 2.85691 11.4607 2.69441C10.6482 2.53191 9.85762 3.06004 9.69512 3.87254L9.62324 4.22879C9.41699 5.26629 8.84824 6.19754 8.02324 6.86004L7.79199 7.04441C7.07949 7.61316 6.66699 8.47566 6.66699 9.38816V10.1663V11.6663V12.8632C6.66699 13.8663 7.16699 14.8038 8.00137 15.36L9.20449 16.1632C9.69824 16.4913 10.2764 16.6663 10.8701 16.6663H13.917C14.7451 16.6663 15.417 15.9944 15.417 15.1663C15.417 15.0538 15.4045 14.9475 15.3826 14.8413C15.9826 14.6444 16.417 14.0819 16.417 13.4163C16.417 13.1319 16.3389 12.8663 16.2014 12.6382C16.8951 12.5069 17.417 11.8975 17.417 11.1663C17.417 10.6944 17.1982 10.2725 16.8576 9.99754C17.3389 9.74754 17.667 9.24441 17.667 8.66629C17.667 7.83816 16.9951 7.16629 16.167 7.16629H11.667C12.0951 6.44441 12.4014 5.65066 12.567 4.81629L12.6389 4.46004Z"></path>
<path d="M1.66699 8.66699C1.66699 8.11387 2.11387 7.66699 2.66699 7.66699H4.66699C5.22012 7.66699 5.66699 8.11387 5.66699 8.66699V15.667C5.66699 16.2201 5.22012 16.667 4.66699 16.667H2.66699C2.11387 16.667 1.66699 16.2201 1.66699 15.667V8.66699Z"></path>
</svg>