<svg viewBox="0 0 20 20" xmlns="http://www.w3.org/2000/svg" fill="currentColor">
<path d="M7 6V8H13V6C13 4.34375 11.6562 3 10 3C8.34375 3 7 4.34375 7 6ZM6 8V6C6 3.79063 7.79063 2 10 2C12.2094 2 14 3.79063 14 6V8H14.5C15.8813 8 17 9.11875 17 10.5V15.5C17 16.8813 15.8813 18 14.5 18H5.5C4.11875 18 3 16.8813 3 15.5V10.5C3 9.11875 4.11875 8 5.5 8H6ZM4 10.5V15.5C4 16.3281 4.67188 17 5.5 17H14.5C15.3281 17 16 16.3281 16 15.5V10.5C16 9.67188 15.3281 9 14.5 9H5.5C4.67188 9 4 9.67188 4 10.5Z"></path>
</svg>