<svg xmlns="http://www.w3.org/2000/svg" fill="currentColor" viewBox="0 0 20 20">
    <path d="M2.476 10.5A.504.504 0 0 1 2 9.975l.012-.25A5.5 5.5 0 0 1 7.507 4.5h6.7l-1.794-1.632a.5.5 0 0 1-.034-.706.5.5 0 0 1 .706-.034l2.75 2.5a.5.5 0 0 1 0 .737l-2.75 2.5a.5.5 0 1 1-.672-.74L14.207 5.5h-6.7a4.5 4.5 0 0 0-4.494 4.275l-.012.25a.5.5 0 0 1-.525.475m15.05-1c.274.012.487.25.474.525l-.012.25a5.5 5.5 0 0 1-5.494 5.225h-6.7l1.794 1.63a.5.5 0 0 1 .034.707.5.5 0 0 1-.706.035l-2.75-2.5a.5.5 0 0 1 0-.738l2.75-2.5a.5.5 0 1 1 .672.74L5.794 14.5h6.7a4.5 4.5 0 0 0 4.494-4.275l.012-.25a.5.5 0 0 1 .526-.475"/>
</svg>
