<svg viewBox="0 0 20 20" xmlns="http://www.w3.org/2000/svg" fill="currentColor">
<path d="M17.9885 3.15305C18.0479 2.77492 17.8822 2.39367 17.5666 2.17805C17.251 1.96242 16.8385 1.94367 16.5041 2.1343L2.50411 10.1343C2.17286 10.3218 1.97911 10.6812 2.00411 11.0624C2.02911 11.4437 2.26661 11.778 2.61661 11.9249L7.00099 13.7499V16.6562C7.00099 17.3999 7.60411 17.9999 8.34474 17.9999C8.75411 17.9999 9.13849 17.8155 9.39474 17.4968L11.0447 15.4343H11.0479L14.6166 16.9218C14.901 17.0405 15.2229 17.0218 15.4916 16.8718C15.7604 16.7218 15.9447 16.4562 15.9916 16.153L17.9916 3.15305H17.9885ZM10.0822 15.0343L8.61349 16.8718C8.54786 16.953 8.44786 16.9999 8.34474 16.9999C8.15411 16.9999 8.00099 16.8468 8.00099 16.6562V14.1655L10.0822 15.0343ZM11.4291 14.5124L8.41036 13.253L16.8166 4.20305L15.001 15.9999L11.4322 14.5124H11.4291ZM16.0791 3.52492L7.42599 12.8437L3.00099 10.9999L16.0791 3.52492Z"></path>
</svg>