<svg viewBox="0 0 20 20" xmlns="http://www.w3.org/2000/svg" fill="currentColor">
<path d="M8.55312 3H11.4438C11.6156 3 11.775 3.0875 11.8687 3.23438L12.3469 4H7.65312L8.13125 3.23438C8.22187 3.0875 8.38438 3 8.55625 3H8.55312ZM13.5281 4L12.7188 2.70625C12.4437 2.26562 11.9625 2 11.4469 2H8.55312C8.0375 2 7.55625 2.26562 7.28125 2.70625L6.47187 4H5.00312H4H3.5C3.225 4 3 4.225 3 4.5C3 4.775 3.225 5 3.5 5H4.07187L4.86875 16.1438C4.94062 17.1906 5.8125 18 6.8625 18H13.1375C14.1875 18 15.0563 17.1906 15.1313 16.1438L15.9281 5H16.5C16.775 5 17 4.775 17 4.5C17 4.225 16.775 4 16.5 4H16H14.9969H13.5281ZM14.9281 5L14.1344 16.0719C14.0969 16.5937 13.6625 17 13.1375 17H6.8625C6.3375 17 5.90312 16.5937 5.86562 16.0719L5.075 5H14.925H14.9281Z"></path>
</svg>