<svg viewBox="0 0 20 20" xmlns="http://www.w3.org/2000/svg" fill="currentColor">
<path opacity="0.4" d="M10.7365 2.22949C10.5709 1.88574 10.2209 1.66699 9.83653 1.66699C9.45215 1.66699 9.10528 1.88574 8.93653 2.22949L6.92715 6.36387L2.43965 7.02637C2.06465 7.08262 1.75215 7.34512 1.63653 7.70449C1.5209 8.06387 1.61465 8.46074 1.8834 8.72637L5.13965 11.9482L4.3709 16.5014C4.3084 16.8764 4.46465 17.2576 4.77403 17.4795C5.0834 17.7014 5.49278 17.7295 5.83028 17.5514L9.83965 15.4107L13.849 17.5514C14.1865 17.7295 14.5959 17.7045 14.9053 17.4795C15.2147 17.2545 15.3709 16.8764 15.3084 16.5014L14.5365 11.9482L17.7928 8.72637C18.0615 8.46074 18.1584 8.06387 18.0397 7.70449C17.9209 7.34512 17.6115 7.08262 17.2365 7.02637L12.7459 6.36387L10.7365 2.22949Z"></path>
</svg>