<svg viewBox="0 0 20 20" xmlns="http://www.w3.org/2000/svg" fill="currentColor">
<path d="M8 5C8 4.86739 7.94732 4.74021 7.85355 4.64645C7.75979 4.55268 7.63261 4.5 7.5 4.5C7.36739 4.5 7.24021 4.55268 7.14645 4.64645C7.05268 4.74021 7 4.86739 7 5C7 5.13261 7.05268 5.25979 7.14645 5.35355C7.24021 5.44732 7.36739 5.5 7.5 5.5C7.63261 5.5 7.75979 5.44732 7.85355 5.35355C7.94732 5.25979 8 5.13261 8 5ZM6 5C6 4.60218 6.15804 4.22064 6.43934 3.93934C6.72064 3.65804 7.10218 3.5 7.5 3.5C7.89782 3.5 8.27936 3.65804 8.56066 3.93934C8.84196 4.22064 9 4.60218 9 5C9 5.39782 8.84196 5.77936 8.56066 6.06066C8.27936 6.34196 7.89782 6.5 7.5 6.5C7.10218 6.5 6.72064 6.34196 6.43934 6.06066C6.15804 5.77936 6 5.39782 6 5ZM8 10C8 9.86739 7.94732 9.74021 7.85355 9.64645C7.75979 9.55268 7.63261 9.5 7.5 9.5C7.36739 9.5 7.24021 9.55268 7.14645 9.64645C7.05268 9.74021 7 9.86739 7 10C7 10.1326 7.05268 10.2598 7.14645 10.3536C7.24021 10.4473 7.36739 10.5 7.5 10.5C7.63261 10.5 7.75979 10.4473 7.85355 10.3536C7.94732 10.2598 8 10.1326 8 10ZM6 10C6 9.60218 6.15804 9.22064 6.43934 8.93934C6.72064 8.65804 7.10218 8.5 7.5 8.5C7.89782 8.5 8.27936 8.65804 8.56066 8.93934C8.84196 9.22064 9 9.60218 9 10C9 10.3978 8.84196 10.7794 8.56066 11.0607C8.27936 11.342 7.89782 11.5 7.5 11.5C7.10218 11.5 6.72064 11.342 6.43934 11.0607C6.15804 10.7794 6 10.3978 6 10ZM7.5 15.5C7.63261 15.5 7.75979 15.4473 7.85355 15.3536C7.94732 15.2598 8 15.1326 8 15C8 14.8674 7.94732 14.7402 7.85355 14.6464C7.75979 14.5527 7.63261 14.5 7.5 14.5C7.36739 14.5 7.24021 14.5527 7.14645 14.6464C7.05268 14.7402 7 14.8674 7 15C7 15.1326 7.05268 15.2598 7.14645 15.3536C7.24021 15.4473 7.36739 15.5 7.5 15.5ZM7.5 13.5C7.89782 13.5 8.27936 13.658 8.56066 13.9393C8.84196 14.2206 9 14.6022 9 15C9 15.3978 8.84196 15.7794 8.56066 16.0607C8.27936 16.342 7.89782 16.5 7.5 16.5C7.10218 16.5 6.72064 16.342 6.43934 16.0607C6.15804 15.7794 6 15.3978 6 15C6 14.6022 6.15804 14.2206 6.43934 13.9393C6.72064 13.658 7.10218 13.5 7.5 13.5ZM13 5C13 4.86739 12.9473 4.74021 12.8536 4.64645C12.7598 4.55268 12.6326 4.5 12.5 4.5C12.3674 4.5 12.2402 4.55268 12.1464 4.64645C12.0527 4.74021 12 4.86739 12 5C12 5.13261 12.0527 5.25979 12.1464 5.35355C12.2402 5.44732 12.3674 5.5 12.5 5.5C12.6326 5.5 12.7598 5.44732 12.8536 5.35355C12.9473 5.25979 13 5.13261 13 5ZM11 5C11 4.60218 11.158 4.22064 11.4393 3.93934C11.7206 3.65804 12.1022 3.5 12.5 3.5C12.8978 3.5 13.2794 3.65804 13.5607 3.93934C13.842 4.22064 14 4.60218 14 5C14 5.39782 13.842 5.77936 13.5607 6.06066C13.2794 6.34196 12.8978 6.5 12.5 6.5C12.1022 6.5 11.7206 6.34196 11.4393 6.06066C11.158 5.77936 11 5.39782 11 5ZM12.5 10.5C12.6326 10.5 12.7598 10.4473 12.8536 10.3536C12.9473 10.2598 13 10.1326 13 10C13 9.86739 12.9473 9.74021 12.8536 9.64645C12.7598 9.55268 12.6326 9.5 12.5 9.5C12.3674 9.5 12.2402 9.55268 12.1464 9.64645C12.0527 9.74021 12 9.86739 12 10C12 10.1326 12.0527 10.2598 12.1464 10.3536C12.2402 10.4473 12.3674 10.5 12.5 10.5ZM12.5 8.5C12.8978 8.5 13.2794 8.65804 13.5607 8.93934C13.842 9.22064 14 9.60218 14 10C14 10.3978 13.842 10.7794 13.5607 11.0607C13.2794 11.342 12.8978 11.5 12.5 11.5C12.1022 11.5 11.7206 11.342 11.4393 11.0607C11.158 10.7794 11 10.3978 11 10C11 9.60218 11.158 9.22064 11.4393 8.93934C11.7206 8.65804 12.1022 8.5 12.5 8.5ZM13 15C13 14.8674 12.9473 14.7402 12.8536 14.6464C12.7598 14.5527 12.6326 14.5 12.5 14.5C12.3674 14.5 12.2402 14.5527 12.1464 14.6464C12.0527 14.7402 12 14.8674 12 15C12 15.1326 12.0527 15.2598 12.1464 15.3536C12.2402 15.4473 12.3674 15.5 12.5 15.5C12.6326 15.5 12.7598 15.4473 12.8536 15.3536C12.9473 15.2598 13 15.1326 13 15ZM11 15C11 14.6022 11.158 14.2206 11.4393 13.9393C11.7206 13.658 12.1022 13.5 12.5 13.5C12.8978 13.5 13.2794 13.658 13.5607 13.9393C13.842 14.2206 14 14.6022 14 15C14 15.3978 13.842 15.7794 13.5607 16.0607C13.2794 16.342 12.8978 16.5 12.5 16.5C12.1022 16.5 11.7206 16.342 11.4393 16.0607C11.158 15.7794 11 15.3978 11 15Z"></path>
</svg>