<svg viewBox="0 0 20 20" xmlns="http://www.w3.org/2000/svg" fill="currentColor">
<path d="M10.3531 2.14629C10.1594 1.95254 9.84062 1.95254 9.64687 2.14629L5.64687 6.14629C5.45312 6.34004 5.45312 6.65879 5.64687 6.85254C5.84062 7.04629 6.15938 7.04629 6.35313 6.85254L9.5 3.70566V12.4994C9.5 12.7744 9.725 12.9994 10 12.9994C10.275 12.9994 10.5 12.7744 10.5 12.4994V3.70566L13.6469 6.85254C13.8406 7.04629 14.1594 7.04629 14.3531 6.85254C14.5469 6.65879 14.5469 6.34004 14.3531 6.14629L10.3531 2.14629ZM4 12.4994C4 12.2244 3.775 11.9994 3.5 11.9994C3.225 11.9994 3 12.2244 3 12.4994V15.4994C3 16.8807 4.11875 17.9994 5.5 17.9994H14.5C15.8813 17.9994 17 16.8807 17 15.4994V12.4994C17 12.2244 16.775 11.9994 16.5 11.9994C16.225 11.9994 16 12.2244 16 12.4994V15.4994C16 16.3275 15.3281 16.9994 14.5 16.9994H5.5C4.67188 16.9994 4 16.3275 4 15.4994V12.4994Z"></path>
</svg>