<svg viewBox="0 0 20 20" xmlns="http://www.w3.org/2000/svg" fill="currentColor">
<path d="M10 3C11.8565 3 13.637 3.7375 14.9497 5.05025C16.2625 6.36301 17 8.14348 17 10C17 11.8565 16.2625 13.637 14.9497 14.9497C13.637 16.2625 11.8565 17 10 17C8.14348 17 6.36301 16.2625 5.05025 14.9497C3.7375 13.637 3 11.8565 3 10C3 8.14348 3.7375 6.36301 5.05025 5.05025C6.36301 3.7375 8.14348 3 10 3ZM10 18C12.1217 18 14.1566 17.1571 15.6569 15.6569C17.1571 14.1566 18 12.1217 18 10C18 7.87827 17.1571 5.84344 15.6569 4.34315C14.1566 2.84285 12.1217 2 10 2C7.87827 2 5.84344 2.84285 4.34315 4.34315C2.84285 5.84344 2 7.87827 2 10C2 12.1217 2.84285 14.1566 4.34315 15.6569C5.84344 17.1571 7.87827 18 10 18ZM12.2719 10L8.5 12.3031V7.69688L12.2719 10ZM8.64062 6.60938C8.40937 6.46875 8.11875 6.4625 7.88125 6.59375C7.64375 6.725 7.49687 6.97812 7.49687 7.24687V12.75C7.49687 13.0219 7.64375 13.2719 7.88125 13.4031C8.11875 13.5344 8.40625 13.5312 8.64062 13.3875L13.1406 10.6375C13.3625 10.5 13.5 10.2594 13.5 9.99687C13.5 9.73437 13.3625 9.49375 13.1406 9.35625L8.64062 6.60625V6.60938Z"></path>
</svg>