<svg viewBox="0 0 20 20" xmlns="http://www.w3.org/2000/svg" fill="currentColor">
<path opacity="0.4" d="M12.6389 14.8732C12.8014 15.6857 12.2732 16.4764 11.4607 16.6389C10.6482 16.8014 9.85762 16.2732 9.69512 15.4607L9.62324 15.1045C9.41699 14.067 8.84824 13.1357 8.02324 12.4732L7.79199 12.2889C7.07949 11.7201 6.66699 10.8576 6.66699 9.94512V9.16699V7.66699V6.47012C6.66699 5.46699 7.16699 4.52949 8.00137 3.97324L9.20449 3.17012C9.70137 2.84199 10.2795 2.66699 10.8701 2.66699H13.917C14.7451 2.66699 15.417 3.33887 15.417 4.16699C15.417 4.27949 15.4045 4.38574 15.3826 4.49199C15.9826 4.68574 16.417 5.25137 16.417 5.91699C16.417 6.20137 16.3389 6.46699 16.2014 6.69512C16.8951 6.82637 17.417 7.43574 17.417 8.16699C17.417 8.63887 17.1982 9.06074 16.8576 9.33574C17.3389 9.58574 17.667 10.0889 17.667 10.667C17.667 11.4951 16.9951 12.167 16.167 12.167H11.667C12.0951 12.8889 12.4014 13.6826 12.567 14.517L12.6389 14.8732Z"></path>
<path d="M1.66699 12.667C1.66699 13.2201 2.11387 13.667 2.66699 13.667H4.66699C5.22012 13.667 5.66699 13.2201 5.66699 12.667V5.66699C5.66699 5.11387 5.22012 4.66699 4.66699 4.66699H2.66699C2.11387 4.66699 1.66699 5.11387 1.66699 5.66699V12.667Z"></path>
</svg>