<svg viewBox="0 0 20 20" xmlns="http://www.w3.org/2000/svg" fill="currentColor">
<path d="M2.7999 18.8999H11.1999C11.8637 18.8999 12.3999 18.3637 12.3999 17.6999V15.2999H13.5999V17.6999C13.5999 19.0237 12.5237 20.0999 11.1999 20.0999H2.7999C1.47615 20.0999 0.399902 19.0237 0.399902 17.6999V9.2999C0.399902 7.97615 1.47615 6.8999 2.7999 6.8999H5.1999V8.0999H2.7999C2.13615 8.0999 1.5999 8.63615 1.5999 9.2999V17.6999C1.5999 18.3637 2.13615 18.8999 2.7999 18.8999ZM8.7999 12.8999H17.1999C17.8637 12.8999 18.3999 12.3637 18.3999 11.6999V3.2999C18.3999 2.63615 17.8637 2.0999 17.1999 2.0999H8.7999C8.13615 2.0999 7.5999 2.63615 7.5999 3.2999V11.6999C7.5999 12.3637 8.13615 12.8999 8.7999 12.8999ZM6.3999 11.6999V3.2999C6.3999 1.97615 7.47615 0.899902 8.7999 0.899902H17.1999C18.5237 0.899902 19.5999 1.97615 19.5999 3.2999V11.6999C19.5999 13.0237 18.5237 14.0999 17.1999 14.0999H8.7999C7.47615 14.0999 6.3999 13.0237 6.3999 11.6999Z"></path>
</svg>