<svg viewBox="0 0 20 20" xmlns="http://www.w3.org/2000/svg" fill="currentColor">
<path d="M15 13H10C9.44688 13 9 12.5531 9 12V4C9 3.44687 9.44688 3 10 3H13.3781C13.5094 3 13.6375 3.05313 13.7312 3.14688L15.8531 5.26875C15.9469 5.3625 16 5.49063 16 5.62188V12C16 12.5531 15.5531 13 15 13ZM16.5594 4.55938L14.4406 2.44063C14.1594 2.15938 13.7781 2 13.3813 2H10C8.89687 2 8 2.89688 8 4V12C8 13.1031 8.89687 14 10 14H15C16.1031 14 17 13.1031 17 12V5.62188C17 5.225 16.8406 4.84375 16.5594 4.5625V4.55938ZM5 6C3.89688 6 3 6.89687 3 8V16C3 17.1031 3.89688 18 5 18H10C11.1031 18 12 17.1031 12 16V15H11V16C11 16.5531 10.5531 17 10 17H5C4.44687 17 4 16.5531 4 16V8C4 7.44688 4.44687 7 5 7H7V6H5Z"></path>
</svg>