<svg viewBox="0 0 20 20" xmlns="http://www.w3.org/2000/svg" fill="currentColor">
<path d="M12 6C12 4.34375 13.3438 3 15 3C16.6562 3 18 4.34375 18 6V8.5C18 8.775 18.225 9 18.5 9C18.775 9 19 8.775 19 8.5V6C19 3.79063 17.2094 2 15 2C12.7906 2 11 3.79063 11 6V8H3.5C2.11875 8 1 9.11875 1 10.5V15.5C1 16.8813 2.11875 18 3.5 18H12.5C13.8813 18 15 16.8813 15 15.5V10.5C15 9.11875 13.8813 8 12.5 8H12V6ZM11.5 9H12.5C13.3281 9 14 9.67188 14 10.5V15.5C14 16.3281 13.3281 17 12.5 17H3.5C2.67188 17 2 16.3281 2 15.5V10.5C2 9.67188 2.67188 9 3.5 9H11.5Z"></path>
</svg>