<svg viewBox="0 0 20 20" xmlns="http://www.w3.org/2000/svg" fill="currentColor">
<path d="M14.3698 3.23809C14.6636 2.94434 15.1386 2.94434 15.4292 3.23809L16.7604 4.56934C17.0542 4.86309 17.0542 5.33809 16.7604 5.62871L15.0511 7.34434L12.6573 4.95059L14.3698 3.23809ZM11.9511 5.65684L14.3448 8.05059L6.98855 15.4037C6.75105 15.6412 6.46043 15.8131 6.13855 15.9068L3.23855 16.7631L4.09168 13.8631C4.18543 13.5412 4.36043 13.2506 4.5948 13.0131L11.9511 5.65684ZM16.1386 2.53184C15.4542 1.84746 14.3479 1.84746 13.6636 2.53184L3.88855 12.3037C3.5323 12.66 3.27293 13.0975 3.1323 13.5787L2.02293 17.36C1.9698 17.535 2.0198 17.7256 2.14793 17.8537C2.27605 17.9818 2.46668 18.0318 2.64168 17.9787L6.42293 16.8662C6.90418 16.7256 7.34168 16.4631 7.69793 16.11L17.4698 6.33809C18.1542 5.65371 18.1542 4.54746 17.4698 3.86309L16.1386 2.53184Z"></path>
</svg>