<svg viewBox="0 0 20 20" xmlns="http://www.w3.org/2000/svg" fill="currentColor">
<path d="M14 6C16.2094 6 18 7.79063 18 10C18 12.2094 16.2094 14 14 14H6C3.79063 14 2 12.2094 2 10C2 7.79063 3.79063 6 6 6H14ZM19 10C19 7.2375 16.7625 5 14 5H6C3.2375 5 1 7.2375 1 10C1 12.7625 3.2375 15 6 15H14C16.7625 15 19 12.7625 19 10ZM8 10C8 10.5304 7.78929 11.0391 7.41421 11.4142C7.03914 11.7893 6.53043 12 6 12C5.46957 12 4.96086 11.7893 4.58579 11.4142C4.21071 11.0391 4 10.5304 4 10C4 9.46957 4.21071 8.96086 4.58579 8.58579C4.96086 8.21071 5.46957 8 6 8C6.53043 8 7.03914 8.21071 7.41421 8.58579C7.78929 8.96086 8 9.46957 8 10ZM3 10C3 10.7956 3.31607 11.5587 3.87868 12.1213C4.44129 12.6839 5.20435 13 6 13C6.79565 13 7.55871 12.6839 8.12132 12.1213C8.68393 11.5587 9 10.7956 9 10C9 9.20435 8.68393 8.44129 8.12132 7.87868C7.55871 7.31607 6.79565 7 6 7C5.20435 7 4.44129 7.31607 3.87868 7.87868C3.31607 8.44129 3 9.20435 3 10Z"></path>
</svg>