<svg viewBox="0 0 20 20" xmlns="http://www.w3.org/2000/svg" fill="currentColor">
<path d="M9.31875 2.14687C9.53125 2.05 9.76562 2 10 2C10.2344 2 10.4687 2.05 10.6812 2.14687L17.475 5.19375C17.7938 5.3375 18 5.65313 18 6.00313C18 6.35313 17.7938 6.66875 17.475 6.8125L10.6812 9.85313C10.4656 9.95 10.2344 10 10 10C9.76562 10 9.53125 9.95 9.31875 9.85313L2.525 6.80937C2.20625 6.66562 2 6.35 2 6C2 5.65 2.20625 5.33437 2.525 5.19062L9.31875 2.14687ZM10 3C9.90625 3 9.8125 3.01875 9.725 3.05938L3.16563 6L9.72812 8.94063C9.81562 8.97813 9.90625 9 10.0031 9C10.1 9 10.1906 8.98125 10.2781 8.94063L16.8406 6L10.2781 3.05938C10.1875 3.01875 10.0938 3 10 3ZM2.525 13.1906L3.95937 12.5469L5.18125 13.0938L3.16563 14L9.72812 16.9406C9.81562 16.9781 9.90625 17 10.0031 17C10.1 17 10.1906 16.9813 10.2781 16.9406L16.8406 14L14.825 13.0969L16.0469 12.55L17.4813 13.1938C17.8 13.3375 18.0063 13.6531 18.0063 14.0031C18.0063 14.3531 17.8 14.6688 17.4813 14.8125L10.6812 17.8531C10.4656 17.95 10.2344 18 10 18C9.76562 18 9.53125 17.95 9.31875 17.8531L2.525 14.8094C2.20625 14.6656 2 14.35 2 14C2 13.65 2.20625 13.3344 2.525 13.1906ZM3.95937 8.54688L5.18125 9.09375L3.16563 10L9.72812 12.9406C9.81562 12.9781 9.90625 13 10.0031 13C10.1 13 10.1906 12.9813 10.2781 12.9406L16.8406 10L14.825 9.09688L16.0469 8.55L17.4813 9.19375C17.8 9.3375 18.0063 9.65313 18.0063 10.0031C18.0063 10.3531 17.8 10.6688 17.4813 10.8125L10.6812 13.8531C10.4656 13.95 10.2344 14 10 14C9.76562 14 9.53125 13.95 9.31875 13.8531L2.525 10.8094C2.20625 10.6656 2 10.35 2 10C2 9.65 2.20625 9.33438 2.525 9.19063L3.95937 8.54688Z"></path>
</svg>