<svg viewBox="0 0 20 20" xmlns="http://www.w3.org/2000/svg" fill="currentColor">
<path d="M3.5 5.5V4.5H4.5V5.5H3.5ZM2.5 4.25V5.75C2.5 6.16563 2.83437 6.5 3.25 6.5H4.75C5.16563 6.5 5.5 6.16563 5.5 5.75V4.25C5.5 3.83437 5.16563 3.5 4.75 3.5H3.25C2.83437 3.5 2.5 3.83437 2.5 4.25ZM7.5 4.5C7.225 4.5 7 4.725 7 5C7 5.275 7.225 5.5 7.5 5.5H17.5C17.775 5.5 18 5.275 18 5C18 4.725 17.775 4.5 17.5 4.5H7.5ZM7.5 9.5C7.225 9.5 7 9.725 7 10C7 10.275 7.225 10.5 7.5 10.5H17.5C17.775 10.5 18 10.275 18 10C18 9.725 17.775 9.5 17.5 9.5H7.5ZM7.5 14.5C7.225 14.5 7 14.725 7 15C7 15.275 7.225 15.5 7.5 15.5H17.5C17.775 15.5 18 15.275 18 15C18 14.725 17.775 14.5 17.5 14.5H7.5ZM3.5 9.5H4.5V10.5H3.5V9.5ZM3.25 8.5C2.83437 8.5 2.5 8.83437 2.5 9.25V10.75C2.5 11.1656 2.83437 11.5 3.25 11.5H4.75C5.16563 11.5 5.5 11.1656 5.5 10.75V9.25C5.5 8.83437 5.16563 8.5 4.75 8.5H3.25ZM3.5 15.5V14.5H4.5V15.5H3.5ZM2.5 14.25V15.75C2.5 16.1656 2.83437 16.5 3.25 16.5H4.75C5.16563 16.5 5.5 16.1656 5.5 15.75V14.25C5.5 13.8344 5.16563 13.5 4.75 13.5H3.25C2.83437 13.5 2.5 13.8344 2.5 14.25Z"></path>
</svg>