<svg viewBox="0 0 20 20" xmlns="http://www.w3.org/2000/svg" fill="currentColor">
<path d="M5.96523 3.32188C5.89335 3.12812 5.70585 3 5.4996 3C5.29335 3 5.10585 3.12812 5.03398 3.32188L0.0339754 16.3219C-0.0660246 16.5781 0.0621004 16.8688 0.321475 16.9688C0.58085 17.0688 0.86835 16.9406 0.96835 16.6813L2.38085 13H8.61835L10.034 16.6781C10.134 16.9344 10.4215 17.0656 10.6809 16.9656C10.9402 16.8656 11.0684 16.5781 10.9684 16.3188L5.96835 3.31875L5.96523 3.32188ZM8.23398 12H2.76523L5.4996 4.89375L8.23398 12ZM19.4996 7C19.2246 7 18.9996 7.225 18.9996 7.5V8.58438C18.2933 7.62188 17.1559 7 15.8746 7C13.734 7 11.9996 8.73438 11.9996 10.875V13.125C11.9996 15.2656 13.734 17 15.8746 17C17.1559 17 18.2933 16.3781 18.9996 15.4156V16.5C18.9996 16.775 19.2246 17 19.4996 17C19.7746 17 19.9996 16.775 19.9996 16.5V7.5C19.9996 7.225 19.7746 7 19.4996 7ZM12.9996 10.875C12.9996 9.2875 14.2871 8 15.8746 8C17.4621 8 18.7496 9.2875 18.7496 10.875V13.125C18.7496 14.7125 17.4621 16 15.8746 16C14.2871 16 12.9996 14.7125 12.9996 13.125V10.875Z"></path>
</svg>