<svg viewBox="0 0 20 20" xmlns="http://www.w3.org/2000/svg" fill="currentColor">
<path d="M9.4875 3.61204C9.55 3.34329 9.38125 3.07454 9.1125 3.01204C8.84375 2.94954 8.575 3.11829 8.5125 3.38704L7.79375 6.49954H4.5C4.225 6.49954 4 6.72454 4 6.99954C4 7.27454 4.225 7.49954 4.5 7.49954H7.5625L6.40937 12.4995H3.5C3.225 12.4995 3 12.7245 3 12.9995C3 13.2745 3.225 13.4995 3.5 13.4995H6.17812L5.5125 16.387C5.45 16.6558 5.61875 16.9245 5.8875 16.987C6.15625 17.0495 6.425 16.8808 6.4875 16.612L7.20625 13.4995H11.1781L10.5125 16.387C10.45 16.6558 10.6187 16.9245 10.8875 16.987C11.1562 17.0495 11.425 16.8808 11.4875 16.612L12.2063 13.4995H15.5C15.775 13.4995 16 13.2745 16 12.9995C16 12.7245 15.775 12.4995 15.5 12.4995H12.4375L13.5906 7.49954H16.5C16.775 7.49954 17 7.27454 17 6.99954C17 6.72454 16.775 6.49954 16.5 6.49954H13.8219L14.4875 3.61204C14.55 3.34329 14.3813 3.07454 14.1125 3.01204C13.8438 2.94954 13.575 3.11829 13.5125 3.38704L12.7937 6.49954H8.82188L9.4875 3.61204ZM8.59062 7.49954H12.5625L11.4094 12.4995H7.4375L8.59062 7.49954Z"></path>
</svg>