<svg width="20" height="20" viewBox="0 0 20 20" fill="none" xmlns="http://www.w3.org/2000/svg">
    <path d="M5.75937 4.07157C5.60625 3.97782 5.4125 3.9747 5.25312 4.0622C5.09375 4.1497 4.99687 4.31845 4.99687 4.4997V15.4997C4.99687 15.6809 5.09375 15.8466 5.25312 15.9372C5.4125 16.0278 5.60312 16.0216 5.75937 15.9278L14.7594 10.4278C14.9094 10.3372 15 10.1747 15 9.9997C15 9.8247 14.9094 9.66532 14.7594 9.57157L5.75937 4.07157ZM4.76562 3.19032C5.24063 2.9247 5.81875 2.9372 6.28125 3.21845L15.2812 8.71845C15.7281 8.99032 16 9.4747 16 9.9997C16 10.5247 15.7281 11.0059 15.2812 11.2809L6.28125 16.7809C5.81875 17.0653 5.2375 17.0747 4.76562 16.8091C4.29375 16.5434 4 16.0434 4 15.4997V4.4997C4 3.95595 4.29375 3.45595 4.76562 3.19032Z"
          fill="currentColor"/>
</svg>