<svg viewBox="0 0 20 20" xmlns="http://www.w3.org/2000/svg" fill="currentColor">
<path d="M4 6C4 6.53043 4.21071 7.03914 4.58579 7.41421C4.96086 7.78929 5.46957 8 6 8C6.53043 8 7.03914 7.78929 7.41421 7.41421C7.78929 7.03914 8 6.53043 8 6C8 5.46957 7.78929 4.96086 7.41421 4.58579C7.03914 4.21071 6.53043 4 6 4C5.46957 4 4.96086 4.21071 4.58579 4.58579C4.21071 4.96086 4 5.46957 4 6ZM6 9C5.60603 9 5.21593 8.9224 4.85195 8.77164C4.48797 8.62087 4.15726 8.3999 3.87868 8.12132C3.6001 7.84274 3.37913 7.51203 3.22836 7.14805C3.0776 6.78407 3 6.39397 3 6C3 5.60603 3.0776 5.21593 3.22836 4.85195C3.37913 4.48797 3.6001 4.15726 3.87868 3.87868C4.15726 3.6001 4.48797 3.37913 4.85195 3.22836C5.21593 3.0776 5.60603 3 6 3C6.39397 3 6.78407 3.0776 7.14805 3.22836C7.51203 3.37913 7.84274 3.6001 8.12132 3.87868C8.3999 4.15726 8.62087 4.48797 8.77164 4.85195C8.9224 5.21593 9 5.60603 9 6C9 6.39397 8.9224 6.78407 8.77164 7.14805C8.62087 7.51203 8.3999 7.84274 8.12132 8.12132C7.84274 8.3999 7.51203 8.62087 7.14805 8.77164C6.78407 8.9224 6.39397 9 6 9ZM4 14C4 14.5304 4.21071 15.0391 4.58579 15.4142C4.96086 15.7893 5.46957 16 6 16C6.53043 16 7.03914 15.7893 7.41421 15.4142C7.78929 15.0391 8 14.5304 8 14C8 13.4696 7.78929 12.9609 7.41421 12.5858C7.03914 12.2107 6.53043 12 6 12C5.46957 12 4.96086 12.2107 4.58579 12.5858C4.21071 12.9609 4 13.4696 4 14ZM6 17C5.20435 17 4.44129 16.6839 3.87868 16.1213C3.31607 15.5587 3 14.7956 3 14C3 13.2044 3.31607 12.4413 3.87868 11.8787C4.44129 11.3161 5.20435 11 6 11C6.79565 11 7.55871 11.3161 8.12132 11.8787C8.68393 12.4413 9 13.2044 9 14C9 14.7956 8.68393 15.5587 8.12132 16.1213C7.55871 16.6839 6.79565 17 6 17ZM14 8C14.5304 8 15.0391 7.78929 15.4142 7.41421C15.7893 7.03914 16 6.53043 16 6C16 5.46957 15.7893 4.96086 15.4142 4.58579C15.0391 4.21071 14.5304 4 14 4C13.4696 4 12.9609 4.21071 12.5858 4.58579C12.2107 4.96086 12 5.46957 12 6C12 6.53043 12.2107 7.03914 12.5858 7.41421C12.9609 7.78929 13.4696 8 14 8ZM17 6C17 6.79565 16.6839 7.55871 16.1213 8.12132C15.5587 8.68393 14.7956 9 14 9C13.2044 9 12.4413 8.68393 11.8787 8.12132C11.3161 7.55871 11 6.79565 11 6C11 5.20435 11.3161 4.44129 11.8787 3.87868C12.4413 3.31607 13.2044 3 14 3C14.7956 3 15.5587 3.31607 16.1213 3.87868C16.6839 4.44129 17 5.20435 17 6ZM14 10.5C14.275 10.5 14.5 10.725 14.5 11V13.5H17C17.275 13.5 17.5 13.725 17.5 14C17.5 14.275 17.275 14.5 17 14.5H14.5V17C14.5 17.275 14.275 17.5 14 17.5C13.725 17.5 13.5 17.275 13.5 17V14.5H11C10.725 14.5 10.5 14.275 10.5 14C10.5 13.725 10.725 13.5 11 13.5H13.5V11C13.5 10.725 13.725 10.5 14 10.5Z"></path>
</svg>