<svg viewBox="0 0 20 20" xmlns="http://www.w3.org/2000/svg" fill="currentColor">
<path d="M10.1719 3.09746C10.0594 3.05684 9.9375 3.05684 9.82812 3.09746L3.37812 5.45996L10 8.06309L16.6219 5.46309L10.1719 3.09746ZM3 14.0537C3 14.2631 3.13125 14.4506 3.32812 14.5225L9.5 16.785V8.93809L3 6.38496V14.0537ZM10.5 16.785L16.6719 14.5225C16.8688 14.4506 17 14.2631 17 14.0537V6.38496L10.5 8.93809V16.7818V16.785ZM9.48438 2.15684C9.81875 2.03496 10.1844 2.03496 10.5156 2.15684L17.0156 4.54121C17.6062 4.75684 18 5.31934 18 5.95059V14.0537C18 14.6818 17.6062 15.2443 17.0156 15.4631L10.5156 17.8443C10.1813 17.9662 9.81563 17.9662 9.48438 17.8443L2.98438 15.46C2.39375 15.2443 2 14.6818 2 14.0537V5.95059C2 5.32246 2.39375 4.75996 2.98438 4.54121L9.48438 2.15684Z"></path>
</svg>