<svg width="20" height="20" viewBox="0 0 20 20" fill="currentColor" xmlns="http://www.w3.org/2000/svg">
<path d="M4.74063 4.03437L10 9.29375L15.2594 4.03437C15.1781 4.0125 15.0906 4 15 4H5C4.90937 4 4.825 4.0125 4.74063 4.03437ZM4.03437 4.74062C4.0125 4.825 4 4.90937 4 5V15C4 15.0906 4.0125 15.175 4.03437 15.2594L9.29375 10L4.03437 4.74062ZM4.74063 15.9656C4.82188 15.9875 4.90937 16 5 16H15C15.0906 16 15.175 15.9875 15.2594 15.9656L10 10.7063L4.74063 15.9656ZM15.9656 15.2594C15.9875 15.1781 16 15.0906 16 15V5C16 4.90937 15.9875 4.825 15.9656 4.74062L10.7063 10L15.9656 15.2594ZM3 5C3 3.89688 3.89688 3 5 3H15C16.1031 3 17 3.89688 17 5V15C17 16.1031 16.1031 17 15 17H5C3.89688 17 3 16.1031 3 15V5Z"/>
</svg>
