<svg viewBox="0 0 20 20" xmlns="http://www.w3.org/2000/svg" fill="currentColor">
<path d="M4.6627 6.25C6.00957 5 7.8002 4 10.0002 4C12.2002 4 13.9908 5 15.3377 6.25C16.6846 7.5 17.5846 9 18.0002 10C17.5846 11 16.6846 12.5 15.3377 13.75C13.9908 15 12.2002 16 10.0002 16C7.8002 16 6.00957 15 4.6627 13.75C3.31582 12.5 2.41582 11 2.0002 10C2.41582 9 3.31582 7.5 4.6627 6.25ZM10.0002 3C7.4752 3 5.45332 4.15 3.98145 5.51875C2.51895 6.875 1.54082 8.5 1.07832 9.61562C0.975195 9.8625 0.975195 10.1375 1.07832 10.3844C1.54082 11.5 2.51895 13.125 3.98145 14.4812C5.45332 15.85 7.4752 17 10.0002 17C12.5252 17 14.5471 15.85 16.0189 14.4812C17.4814 13.1219 18.4596 11.5 18.9252 10.3844C19.0283 10.1375 19.0283 9.8625 18.9252 9.61562C18.4596 8.5 17.4814 6.875 16.0189 5.51875C14.5471 4.15 12.5252 3 10.0002 3ZM7.0002 10C7.0002 9.20435 7.31627 8.44129 7.87888 7.87868C8.44148 7.31607 9.20455 7 10.0002 7C10.7958 7 11.5589 7.31607 12.1215 7.87868C12.6841 8.44129 13.0002 9.20435 13.0002 10C13.0002 10.7956 12.6841 11.5587 12.1215 12.1213C11.5589 12.6839 10.7958 13 10.0002 13C9.20455 13 8.44148 12.6839 7.87888 12.1213C7.31627 11.5587 7.0002 10.7956 7.0002 10ZM14.0002 10C14.0002 8.93913 13.5788 7.92172 12.8286 7.17157C12.0785 6.42143 11.0611 6 10.0002 6C8.93933 6 7.92191 6.42143 7.17177 7.17157C6.42162 7.92172 6.0002 8.93913 6.0002 10C6.0002 11.0609 6.42162 12.0783 7.17177 12.8284C7.92191 13.5786 8.93933 14 10.0002 14C11.0611 14 12.0785 13.5786 12.8286 12.8284C13.5788 12.0783 14.0002 11.0609 14.0002 10Z"></path>
</svg>