<svg viewBox="0 0 20 20" xmlns="http://www.w3.org/2000/svg" fill="currentColor">
<path d="M14 17H6C5.44687 17 5 16.5531 5 16L5 4C5 3.44687 5.44687 3 6 3L10 3V6.5C10 7.32812 10.6719 8 11.5 8L15 8V16C15 16.5531 14.5531 17 14 17ZM11.5 7C11.225 7 11 6.775 11 6.5V3.01562C11.0875 3.0375 11.1687 3.08125 11.2312 3.14688L14.8531 6.76875C14.9187 6.83438 14.9625 6.9125 14.9844 7L11.5 7ZM6 2C4.89688 2 4 2.89688 4 4L4 16C4 17.1031 4.89688 18 6 18H14C15.1031 18 16 17.1031 16 16V7.12187C16 6.725 15.8406 6.34375 15.5594 6.0625L11.9406 2.44063C11.6594 2.15938 11.2781 2 10.8812 2L6 2ZM7.5 10C7.225 10 7 10.225 7 10.5C7 10.775 7.225 11 7.5 11L12.5 11C12.775 11 13 10.775 13 10.5C13 10.225 12.775 10 12.5 10L7.5 10ZM7.5 12C7.225 12 7 12.225 7 12.5C7 12.775 7.225 13 7.5 13L12.5 13C12.775 13 13 12.775 13 12.5C13 12.225 12.775 12 12.5 12L7.5 12ZM7.5 14C7.225 14 7 14.225 7 14.5C7 14.775 7.225 15 7.5 15L12.5 15C12.775 15 13 14.775 13 14.5C13 14.225 12.775 14 12.5 14L7.5 14Z"></path>
</svg>