<svg viewBox="0 0 20 20" xmlns="http://www.w3.org/2000/svg" fill="currentColor">
	<path opacity="0.4" d="M4.55824 1.32031C4.73402 1.08203 5.01527 0.9375 5.31215 0.9375H14.6871C14.984 0.9375 15.2653 1.07812 15.4411 1.32031L19.8161 7.25781C20.0817 7.61719 20.0543 8.11328 19.7575 8.44531L10.695 18.4453C10.5192 18.6406 10.2653 18.7539 9.99965 18.7539C9.73402 18.7539 9.48402 18.6406 9.30434 18.4453L0.241836 8.44531C-0.0589454 8.11328 -0.0823829 7.61719 0.183242 7.25781L4.55824 1.32031ZM6.06215 2.875C5.93324 2.97266 5.89809 3.14844 5.98012 3.28516L8.22231 7.01953L2.4723 7.5C2.31215 7.51172 2.18715 7.64844 2.18715 7.8125C2.18715 7.97656 2.31215 8.10938 2.4723 8.125L9.97231 8.75C9.98793 8.75 10.0075 8.75 10.0231 8.75L17.5231 8.125C17.6832 8.11328 17.8082 7.97656 17.8082 7.8125C17.8082 7.64844 17.6832 7.51562 17.5231 7.5L11.777 7.02344L14.0192 3.28906C14.1012 3.15234 14.0661 2.97266 13.9371 2.87891C13.8082 2.78516 13.6286 2.80078 13.5192 2.91797L9.99965 6.72656L6.48012 2.91406C6.37074 2.79688 6.19105 2.78125 6.06215 2.875Z"></path>
	<path d="M6.48047 2.91441C6.37109 2.79723 6.19141 2.7816 6.0625 2.87535C5.93359 2.9691 5.89844 3.14879 5.98047 3.28551L8.22266 7.01988L2.47266 7.50035C2.3125 7.51207 2.1875 7.64879 2.1875 7.81285C2.1875 7.97691 2.3125 8.10973 2.47266 8.12535L9.97266 8.75035C9.98828 8.75035 10.0078 8.75035 10.0234 8.75035L17.5234 8.12535C17.6836 8.11363 17.8086 7.97691 17.8086 7.81285C17.8086 7.64879 17.6836 7.51598 17.5234 7.50035L11.7773 7.02379L14.0195 3.28941C14.1016 3.15269 14.0664 2.97301 13.9375 2.87926C13.8086 2.78551 13.6289 2.80113 13.5195 2.91832L10 6.72691L6.48047 2.91441Z"></path>
</svg>