<svg viewBox="0 0 20 20" xmlns="http://www.w3.org/2000/svg" fill="currentColor">
<path d="M9 16C8.725 16 8.5 15.775 8.5 15.5L8.5 13.5C8.5 13.225 8.725 13 9 13L11 13C11.275 13 11.5 13.225 11.5 13.5L11.5 15.5C11.5 15.775 11.275 16 11 16L9 16ZM11 12L10.5 12L10.5 10.5L15.5 10.5C16.3281 10.5 17 9.82813 17 9L17 8L17.5 8C18.3281 8 19 7.32813 19 6.5L19 4.5C19 3.67188 18.3281 3 17.5 3L15.5 3C14.6719 3 14 3.67187 14 4.5L14 6.5C14 7.32812 14.6719 8 15.5 8L16 8L16 9C16 9.275 15.775 9.5 15.5 9.5L10.5 9.5L10.5 8L11 8C11.8281 8 12.5 7.32812 12.5 6.5L12.5 4.5C12.5 3.67187 11.8281 3 11 3L9 3C8.17187 3 7.5 3.67187 7.5 4.5L7.5 6.5C7.5 7.32812 8.17187 8 9 8L9.5 8L9.5 9.5L4.5 9.5C4.225 9.5 4 9.275 4 9L4 8L4.5 8C5.32812 8 6 7.32812 6 6.5L6 4.5C6 3.67187 5.32812 3 4.5 3L2.5 3C1.67187 3 0.999999 3.67187 0.999999 4.5L0.999999 6.5C0.999999 7.32812 1.67187 8 2.5 8L3 8L3 9C3 9.82812 3.67187 10.5 4.5 10.5L9.5 10.5L9.5 12L9 12C8.17187 12 7.5 12.6719 7.5 13.5L7.5 15.5C7.5 16.3281 8.17187 17 9 17L11 17C11.8281 17 12.5 16.3281 12.5 15.5L12.5 13.5C12.5 12.6719 11.8281 12 11 12ZM17.5 7L15.5 7C15.225 7 15 6.775 15 6.5L15 4.5C15 4.225 15.225 4 15.5 4L17.5 4C17.775 4 18 4.225 18 4.5L18 6.5C18 6.775 17.775 7 17.5 7ZM11 7L9 7C8.725 7 8.5 6.775 8.5 6.5L8.5 4.5C8.5 4.225 8.725 4 9 4L11 4C11.275 4 11.5 4.225 11.5 4.5L11.5 6.5C11.5 6.775 11.275 7 11 7ZM4.5 7L2.5 7C2.225 7 2 6.775 2 6.5L2 4.5C2 4.225 2.225 4 2.5 4L4.5 4C4.775 4 5 4.225 5 4.5L5 6.5C5 6.775 4.775 7 4.5 7Z"></path>
</svg>