<svg viewBox="0 0 20 20" fill="none" xmlns="http://www.w3.org/2000/svg">
    <path d="M3 4.5C3 4.10218 3.15804 3.72064 3.43934 3.43934C3.72064 3.15804 4.10218 3 4.5 3C4.89782 3 5.27936 3.15804 5.56066 3.43934C5.84196 3.72064 6 4.10218 6 4.5C6 4.89782 5.84196 5.27936 5.56066 5.56066C5.27936 5.84196 4.89782 6 4.5 6C4.10218 6 3.72064 5.84196 3.43934 5.56066C3.15804 5.27936 3 4.89782 3 4.5ZM7 4.5C7 3.83696 6.73661 3.20107 6.26777 2.73223C5.79893 2.26339 5.16304 2 4.5 2C3.83696 2 3.20107 2.26339 2.73223 2.73223C2.26339 3.20107 2 3.83696 2 4.5C2 5.16304 2.26339 5.79893 2.73223 6.26777C3.20107 6.73661 3.83696 7 4.5 7C5.16304 7 5.79893 6.73661 6.26777 6.26777C6.73661 5.79893 7 5.16304 7 4.5ZM10 7C10.5304 7 11.0391 7.21071 11.4142 7.58579C11.7893 7.96086 12 8.46957 12 9C12 9.53043 11.7893 10.0391 11.4142 10.4142C11.0391 10.7893 10.5304 11 10 11C9.46957 11 8.96086 10.7893 8.58579 10.4142C8.21071 10.0391 8 9.53043 8 9C8 8.46957 8.21071 7.96086 8.58579 7.58579C8.96086 7.21071 9.46957 7 10 7ZM10 12C10.394 12 10.7841 11.9224 11.1481 11.7716C11.512 11.6209 11.8427 11.3999 12.1213 11.1213C12.3999 10.8427 12.6209 10.512 12.7716 10.1481C12.9224 9.78407 13 9.39397 13 9C13 8.60603 12.9224 8.21593 12.7716 7.85195C12.6209 7.48797 12.3999 7.15726 12.1213 6.87868C11.8427 6.6001 11.512 6.37913 11.1481 6.22836C10.7841 6.0776 10.394 6 10 6C9.60603 6 9.21593 6.0776 8.85195 6.22836C8.48797 6.37913 8.15726 6.6001 7.87868 6.87868C7.6001 7.15726 7.37913 7.48797 7.22836 7.85195C7.0776 8.21593 7 8.60603 7 9C7 9.39397 7.0776 9.78407 7.22836 10.1481C7.37913 10.512 7.6001 10.8427 7.87868 11.1213C8.15726 11.3999 8.48797 11.6209 8.85195 11.7716C9.21593 11.9224 9.60603 12 10 12ZM8.16562 14H11.8344C13.5281 14 14.9094 15.3281 14.9969 17H5.00313C5.09063 15.3281 6.47187 14 8.16562 14ZM8.16562 13C5.86562 13 4 14.8656 4 17.1656C4 17.625 4.37187 18 4.83437 18H15.1656C15.625 18 16 17.6281 16 17.1656C16 14.8656 14.1344 13 11.8344 13H8.16562ZM16 3C16.3978 3 16.7794 3.15804 17.0607 3.43934C17.342 3.72064 17.5 4.10218 17.5 4.5C17.5 4.89782 17.342 5.27936 17.0607 5.56066C16.7794 5.84196 16.3978 6 16 6C15.6022 6 15.2206 5.84196 14.9393 5.56066C14.658 5.27936 14.5 4.89782 14.5 4.5C14.5 4.10218 14.658 3.72064 14.9393 3.43934C15.2206 3.15804 15.6022 3 16 3ZM16 7C16.663 7 17.2989 6.73661 17.7678 6.26777C18.2366 5.79893 18.5 5.16304 18.5 4.5C18.5 3.83696 18.2366 3.20107 17.7678 2.73223C17.2989 2.26339 16.663 2 16 2C15.337 2 14.7011 2.26339 14.2322 2.73223C13.7634 3.20107 13.5 3.83696 13.5 4.5C13.5 5.16304 13.7634 5.79893 14.2322 6.26777C14.7011 6.73661 15.337 7 16 7ZM16.5 9C17.8813 9 19 10.1187 19 11.5C19 11.775 19.225 12 19.5 12C19.775 12 20 11.775 20 11.5C20 9.56563 18.4344 8 16.5 8H13.875C13.9563 8.31875 14 8.65625 14 9H16.5ZM6 9C6 8.65625 6.04375 8.31875 6.125 8H3.5C1.56562 8 0 9.56563 0 11.5C0 11.775 0.225 12 0.5 12C0.775 12 1 11.775 1 11.5C1 10.1187 2.11875 9 3.5 9H6Z"
          fill="currentColor"/>
</svg>