<svg viewBox="0 0 20 20" xmlns="http://www.w3.org/2000/svg" fill="currentColor">
<path d="M10.5 2.5C10.5 2.225 10.275 2 10 2C9.725 2 9.5 2.225 9.5 2.5V10.5C9.5 10.775 9.725 11 10 11C10.275 11 10.5 10.775 10.5 10.5V2.5ZM7.13438 4.44375C7.37813 4.31562 7.475 4.01562 7.35 3.76875C7.225 3.52187 6.92188 3.42813 6.675 3.55313C4.34375 4.75937 2.75 7.19375 2.75 10C2.75 14.0031 5.99687 17.25 10 17.25C14.0031 17.25 17.25 14.0031 17.25 10C17.25 7.19375 15.6562 4.75937 13.325 3.55625C13.0812 3.42812 12.7781 3.525 12.65 3.77188C12.5219 4.01875 12.6188 4.31875 12.8656 4.44688C14.8781 5.48438 16.25 7.58125 16.25 10C16.25 13.4531 13.4531 16.25 10 16.25C6.54688 16.25 3.75 13.4531 3.75 10C3.75 7.58125 5.12188 5.48437 7.13438 4.44375Z"></path>
</svg>