<svg viewBox="0 0 20 20" xmlns="http://www.w3.org/2000/svg" fill="currentColor">
  <path d="M5 3H4C3.44688 3 3 3.44688 3 4V5H2V4C2 2.89688 2.89688 2 4 2H5V3ZM6 3V2H9V3H6ZM2 6H3V9H2V6ZM11 3H10V2H11C12.1031 2 13 2.89688 13 4V6H12V4C12 3.44688 11.5531 3 11 3ZM12 7H13V11C13 12.1031 12.1031 13 11 13H7V9C7 7.89688 7.89688 7 9 7H12ZM7 14H8V16C8 16.5531 8.44688 17 9 17H10V18H9C7.89688 18 7 17.1031 7 16V14ZM6 13H4C2.89688 13 2 12.1031 2 11V10H3V11C3 11.5531 3.44688 12 4 12H6V13ZM14 7H16C17.1031 7 18 7.89688 18 9V10H17V9C17 8.44688 16.5531 8 16 8H14V7ZM11 18V17H14V18H11ZM16 18H15V17H16C16.5531 17 17 16.5531 17 16V15H18V16C18 17.1031 17.1031 18 16 18ZM18 14H17V11H18V14ZM9 8C8.44688 8 8 8.44688 8 9V12H11C11.5531 12 12 11.5531 12 11V8H9Z"></path>
</svg>

