<svg viewBox="0 0 20 20" xmlns="http://www.w3.org/2000/svg" fill="currentColor">
<path d="M10 3C11.8565 3 13.637 3.7375 14.9497 5.05025C16.2625 6.36301 17 8.14348 17 10C17 11.8565 16.2625 13.637 14.9497 14.9497C13.637 16.2625 11.8565 17 10 17C8.14348 17 6.36301 16.2625 5.05025 14.9497C3.7375 13.637 3 11.8565 3 10C3 8.14348 3.7375 6.36301 5.05025 5.05025C6.36301 3.7375 8.14348 3 10 3ZM10 18C12.1217 18 14.1566 17.1571 15.6569 15.6569C17.1571 14.1566 18 12.1217 18 10C18 7.87827 17.1571 5.84344 15.6569 4.34315C14.1566 2.84285 12.1217 2 10 2C7.87827 2 5.84344 2.84285 4.34315 4.34315C2.84285 5.84344 2 7.87827 2 10C2 12.1217 2.84285 14.1566 4.34315 15.6569C5.84344 17.1571 7.87827 18 10 18ZM8.5 13C8.225 13 8 13.225 8 13.5C8 13.775 8.225 14 8.5 14H11.5C11.775 14 12 13.775 12 13.5C12 13.225 11.775 13 11.5 13H10.5V9.5C10.5 9.225 10.275 9 10 9H8.75C8.475 9 8.25 9.225 8.25 9.5C8.25 9.775 8.475 10 8.75 10H9.5V13H8.5ZM10 7.75C10.1989 7.75 10.3897 7.67098 10.5303 7.53033C10.671 7.38968 10.75 7.19891 10.75 7C10.75 6.80109 10.671 6.61032 10.5303 6.46967C10.3897 6.32902 10.1989 6.25 10 6.25C9.80109 6.25 9.61032 6.32902 9.46967 6.46967C9.32902 6.61032 9.25 6.80109 9.25 7C9.25 7.19891 9.32902 7.38968 9.46967 7.53033C9.61032 7.67098 9.80109 7.75 10 7.75Z"></path>
</svg>