<svg width="20" height="20" viewBox="0 0 20 20" fill="none" xmlns="http://www.w3.org/2000/svg">
    <path d="M10 3.3625L8.475 8.15312C8.40937 8.35938 8.21875 8.5 8 8.5H3.35313L7.29063 11.3438C7.4625 11.4688 7.5375 11.6906 7.475 11.8938L6.10938 16.3938L9.69375 13.6062C9.875 13.4656 10.1281 13.4656 10.3062 13.6062L13.8906 16.3938L12.5219 11.8969C12.4594 11.6937 12.5344 11.4719 12.7063 11.3469L16.6438 8.50312H12C11.7812 8.50312 11.5906 8.3625 11.525 8.15625L10 3.3625ZM9.19687 2.5875C9.30937 2.2375 9.63438 2 10 2C10.3656 2 10.6906 2.2375 10.8031 2.5875L12.3656 7.5H17.1688C17.6281 7.5 18 7.87188 18 8.33125C18 8.59688 17.8719 8.85 17.6562 9.00625L13.5813 11.9469L15.1688 17.1656C15.2969 17.5812 14.9844 18.0031 14.55 18.0031C14.4062 18.0031 14.2656 17.9563 14.1531 17.8656L10 14.6344L5.84688 17.8625C5.73438 17.95 5.59375 18 5.45 18C5.01562 18 4.70312 17.5813 4.83125 17.1625L6.41875 11.9438L2.34375 9.00312C2.12812 8.84687 2 8.59687 2 8.32812C2 7.87187 2.37187 7.5 2.83125 7.5H7.63438L9.19687 2.5875Z"
          fill="currentColor"/>
</svg>