<svg viewBox="0 0 20 20" xmlns="http://www.w3.org/2000/svg" fill="currentColor">
<path d="M15 7V16C15 16.5531 14.5531 17 14 17H6C5.44687 17 5 16.5531 5 16V7H15ZM15 6H5V4C5 3.44687 5.44687 3 6 3H14C14.5531 3 15 3.44687 15 4V6ZM16 6V4C16 2.89688 15.1031 2 14 2H6C4.89688 2 4 2.89688 4 4V6V6.5V7V16C4 17.1031 4.89688 18 6 18H14C15.1031 18 16 17.1031 16 16V7V6.5V6ZM6.25 9C6.25 9.19891 6.32902 9.38968 6.46967 9.53033C6.61032 9.67098 6.80109 9.75 7 9.75C7.19891 9.75 7.38968 9.67098 7.53033 9.53033C7.67098 9.38968 7.75 9.19891 7.75 9C7.75 8.80109 7.67098 8.61032 7.53033 8.46967C7.38968 8.32902 7.19891 8.25 7 8.25C6.80109 8.25 6.61032 8.32902 6.46967 8.46967C6.32902 8.61032 6.25 8.80109 6.25 9ZM7 11.25C6.80109 11.25 6.61032 11.329 6.46967 11.4697C6.32902 11.6103 6.25 11.8011 6.25 12C6.25 12.1989 6.32902 12.3897 6.46967 12.5303C6.61032 12.671 6.80109 12.75 7 12.75C7.19891 12.75 7.38968 12.671 7.53033 12.5303C7.67098 12.3897 7.75 12.1989 7.75 12C7.75 11.8011 7.67098 11.6103 7.53033 11.4697C7.38968 11.329 7.19891 11.25 7 11.25ZM9.25 9C9.25 9.19891 9.32902 9.38968 9.46967 9.53033C9.61032 9.67098 9.80109 9.75 10 9.75C10.1989 9.75 10.3897 9.67098 10.5303 9.53033C10.671 9.38968 10.75 9.19891 10.75 9C10.75 8.80109 10.671 8.61032 10.5303 8.46967C10.3897 8.32902 10.1989 8.25 10 8.25C9.80109 8.25 9.61032 8.32902 9.46967 8.46967C9.32902 8.61032 9.25 8.80109 9.25 9ZM10 11.25C9.80109 11.25 9.61032 11.329 9.46967 11.4697C9.32902 11.6103 9.25 11.8011 9.25 12C9.25 12.1989 9.32902 12.3897 9.46967 12.5303C9.61032 12.671 9.80109 12.75 10 12.75C10.1989 12.75 10.3897 12.671 10.5303 12.5303C10.671 12.3897 10.75 12.1989 10.75 12C10.75 11.8011 10.671 11.6103 10.5303 11.4697C10.3897 11.329 10.1989 11.25 10 11.25ZM12.25 9C12.25 9.19891 12.329 9.38968 12.4697 9.53033C12.6103 9.67098 12.8011 9.75 13 9.75C13.1989 9.75 13.3897 9.67098 13.5303 9.53033C13.671 9.38968 13.75 9.19891 13.75 9C13.75 8.80109 13.671 8.61032 13.5303 8.46967C13.3897 8.32902 13.1989 8.25 13 8.25C12.8011 8.25 12.6103 8.32902 12.4697 8.46967C12.329 8.61032 12.25 8.80109 12.25 9ZM13 11.25C12.8011 11.25 12.6103 11.329 12.4697 11.4697C12.329 11.6103 12.25 11.8011 12.25 12C12.25 12.1989 12.329 12.3897 12.4697 12.5303C12.6103 12.671 12.8011 12.75 13 12.75C13.1989 12.75 13.3897 12.671 13.5303 12.5303C13.671 12.3897 13.75 12.1989 13.75 12C13.75 11.8011 13.671 11.6103 13.5303 11.4697C13.3897 11.329 13.1989 11.25 13 11.25ZM12.25 15C12.25 15.1989 12.329 15.3897 12.4697 15.5303C12.6103 15.671 12.8011 15.75 13 15.75C13.1989 15.75 13.3897 15.671 13.5303 15.5303C13.671 15.3897 13.75 15.1989 13.75 15C13.75 14.8011 13.671 14.6103 13.5303 14.4697C13.3897 14.329 13.1989 14.25 13 14.25C12.8011 14.25 12.6103 14.329 12.4697 14.4697C12.329 14.6103 12.25 14.8011 12.25 15ZM6.5 14.5C6.225 14.5 6 14.725 6 15C6 15.275 6.225 15.5 6.5 15.5H10.5C10.775 15.5 11 15.275 11 15C11 14.725 10.775 14.5 10.5 14.5H6.5Z"></path>
</svg>