<svg viewBox="0 0 20 20" xmlns="http://www.w3.org/2000/svg" fill="currentColor">
<path d="M10.75 3C10.8875 3 11 3.1125 11 3.25V3.575V4.59063V4.75C11 4.8875 10.8875 5 10.75 5H9.25C9.1125 5 9 4.8875 9 4.75V3.25C9 3.1125 9.1125 3 9.25 3H10.75ZM12 3.8125V3.25C12 2.55937 11.4406 2 10.75 2H9.25C8.55937 2 8 2.55937 8 3.25V3.8125C6.01875 4.45312 4.45312 6.01875 3.8125 8H3.25C2.55937 8 2 8.55937 2 9.25V10.75C2 11.4406 2.55937 12 3.25 12H3.8125C4.45312 13.9813 6.01875 15.5469 8 16.1875V16.75C8 17.4406 8.55937 18 9.25 18H10.75C11.4406 18 12 17.4406 12 16.75V16.1875C13.9813 15.5469 15.5469 13.9813 16.1875 12H16.75C17.4406 12 18 11.4406 18 10.75V9.25C18 8.55937 17.4406 8 16.75 8H16.1875C15.5469 6.01875 13.9813 4.45312 12 3.8125ZM11.9937 4.87188C13.4281 5.43125 14.5688 6.57187 15.1281 8.00625C14.4969 8.06875 14 8.6 14 9.25V10.75C14 11.4 14.4938 11.9312 15.1281 11.9937C14.5688 13.4281 13.4281 14.5688 11.9937 15.1281C11.9312 14.4969 11.4 14 10.75 14H9.25C8.6 14 8.06875 14.4938 8.00625 15.1281C6.57187 14.5688 5.43125 13.4281 4.87188 11.9937C5.50313 11.9312 6 11.4 6 10.75V9.25C6 8.6 5.50625 8.06875 4.87188 8.00625C5.43125 6.57187 6.57187 5.43125 8.00625 4.87188C8.06875 5.50313 8.6 6 9.25 6H10.75C11.4 6 11.9312 5.50625 11.9937 4.87188ZM15.4094 9H16.425H16.75C16.8875 9 17 9.1125 17 9.25V10.75C17 10.8875 16.8875 11 16.75 11H15.25C15.1125 11 15 10.8875 15 10.75V9.25C15 9.1125 15.1125 9 15.25 9H15.4094ZM11 15.4094V16.425V16.75C11 16.8875 10.8875 17 10.75 17H9.25C9.1125 17 9 16.8875 9 16.75V15.25C9 15.1125 9.1125 15 9.25 15H10.75C10.8875 15 11 15.1125 11 15.25V15.4094ZM3.575 9H4.59063H4.75C4.8875 9 5 9.1125 5 9.25V10.75C5 10.8875 4.8875 11 4.75 11H3.25C3.1125 11 3 10.8875 3 10.75V9.25C3 9.1125 3.1125 9 3.25 9H3.575Z"></path>
</svg>