<svg viewBox="0 0 20 20" xmlns="http://www.w3.org/2000/svg" fill="currentColor">
<path d="M8,3C7.7,3,7.3,3.1,7.1,3.4L3.4,7.1C3.1,7.3,3,7.7,3,8v4c0,0.3,0.1,0.7,0.4,0.9l-0.7,0.7C2.2,13.2,2,12.6,2,12V8
	c0-0.6,0.2-1.2,0.7-1.6l3.7-3.7C6.8,2.2,7.4,2,8,2h4c0.6,0,1.2,0.2,1.6,0.7l3.7,3.7C17.8,6.8,18,7.4,18,8v4c0,0.6-0.2,1.2-0.7,1.6
	l-3.7,3.7c-0.4,0.4-1,0.7-1.6,0.7H8c-0.6,0-1.2-0.2-1.6-0.7l-3.7-3.7l0.7-0.7l3.7,3.7C7.3,16.9,7.7,17,8,17h4c0.3,0,0.7-0.1,0.9-0.4
	l3.7-3.7c0.2-0.2,0.4-0.6,0.4-0.9V8c0-0.3-0.1-0.7-0.4-0.9l-3.7-3.7C12.7,3.1,12.3,3,12,3H8z M10,6c0.3,0,0.5,0.2,0.5,0.5v4
	c0,0.3-0.2,0.5-0.5,0.5s-0.5-0.2-0.5-0.5v-4C9.5,6.2,9.7,6,10,6z M9.2,13c0-0.4,0.3-0.8,0.8-0.8s0.8,0.3,0.8,0.8
	c0,0.4-0.3,0.8-0.8,0.8S9.2,13.4,9.2,13z"></path>
</svg>