<svg viewBox="0 0 20 20" xmlns="http://www.w3.org/2000/svg" fill="currentColor">
<path d="M8 15C8 14.4469 7.55313 14 7 14H4C3.44687 14 3 13.5531 3 13V4C3 3.44688 3.44687 3 4 3H16C16.5531 3 17 3.44688 17 4V13C17 13.5531 16.5531 14 16 14H11.6656C11.45 14 11.2375 14.0688 11.0656 14.2L8 16.5V15ZM4 2C2.89688 2 2 2.89688 2 4V13C2 14.1031 2.89688 15 4 15H6H7V16V17.5C7 17.6906 7.10625 17.8625 7.275 17.9469C7.44375 18.0313 7.64688 18.0125 7.8 17.9L11.6656 15H16C17.1031 15 18 14.1031 18 13V4C18 2.89688 17.1031 2 16 2H4ZM8 6C7.725 6 7.5 6.225 7.5 6.5C7.5 6.775 7.725 7 8 7H9.5V10.5C9.5 10.775 9.725 11 10 11C10.275 11 10.5 10.775 10.5 10.5V7H12C12.275 7 12.5 6.775 12.5 6.5C12.5 6.225 12.275 6 12 6H10H8Z"></path>
</svg>