<svg viewBox="0 0 20 20" xmlns="http://www.w3.org/2000/svg" fill="currentColor">
<path d="M18.4844 10C20.0469 8.4375 20.0469 5.90625 18.4844 4.34375C16.9219 2.78125 14.3906 2.78125 12.8281 4.34375L12.1219 5.05C11.9281 5.24375 11.9281 5.5625 12.1219 5.75625C12.3156 5.95 12.6344 5.95 12.8281 5.75625L13.5344 5.05C14.7063 3.87812 16.6063 3.87812 17.7781 5.05C18.95 6.22187 18.95 8.12187 17.7781 9.29375L13.8844 13.1844C12.7156 14.3531 10.8188 14.3531 9.64688 13.1844C8.53438 12.0719 8.47187 10.2906 9.5 9.10313L9.66562 8.9125C9.84687 8.70312 9.825 8.3875 9.61563 8.20625C9.40625 8.025 9.09063 8.04687 8.90938 8.25625L8.74375 8.44688C7.37187 10.0313 7.45625 12.4062 8.9375 13.8875C10.4969 15.4469 13.0281 15.4469 14.5875 13.8875L18.4844 10ZM1.51562 10C-0.046875 11.5625 -0.046875 14.0938 1.51562 15.6562C3.07812 17.2188 5.60938 17.2188 7.17188 15.6562L7.87813 14.95C8.07188 14.7562 8.07188 14.4375 7.87813 14.2437C7.68438 14.05 7.36562 14.05 7.17188 14.2437L6.46562 14.95C5.29375 16.1219 3.39375 16.1219 2.22187 14.95C1.05 13.7781 1.05 11.8781 2.22187 10.7063L6.11562 6.81563C7.28437 5.64688 9.18125 5.64688 10.3531 6.81563C11.4656 7.92813 11.5281 9.70938 10.5 10.8969L10.3344 11.0875C10.1531 11.2969 10.175 11.6125 10.3844 11.7937C10.5937 11.975 10.9094 11.9531 11.0906 11.7437L11.2563 11.5531C12.6281 9.96875 12.5438 7.59375 11.0625 6.1125C9.49688 4.54688 6.96875 4.54687 5.40625 6.10625L1.51562 10Z"></path>
</svg>