<svg viewBox="0 0 20 20" xmlns="http://www.w3.org/2000/svg" fill="currentColor">
<path d="M13 6C13 5.60603 12.9224 5.21593 12.7716 4.85195C12.6209 4.48797 12.3999 4.15726 12.1213 3.87868C11.8427 3.6001 11.512 3.37913 11.1481 3.22836C10.7841 3.0776 10.394 3 10 3C9.60603 3 9.21593 3.0776 8.85195 3.22836C8.48797 3.37913 8.15726 3.6001 7.87868 3.87868C7.6001 4.15726 7.37913 4.48797 7.22836 4.85195C7.0776 5.21593 7 5.60603 7 6C7 6.39397 7.0776 6.78407 7.22836 7.14805C7.37913 7.51203 7.6001 7.84274 7.87868 8.12132C8.15726 8.3999 8.48797 8.62087 8.85195 8.77164C9.21593 8.9224 9.60603 9 10 9C10.394 9 10.7841 8.9224 11.1481 8.77164C11.512 8.62087 11.8427 8.3999 12.1213 8.12132C12.3999 7.84274 12.6209 7.51203 12.7716 7.14805C12.9224 6.78407 13 6.39397 13 6ZM6 6C6 4.93913 6.42143 3.92172 7.17157 3.17157C7.92172 2.42143 8.93913 2 10 2C11.0609 2 12.0783 2.42143 12.8284 3.17157C13.5786 3.92172 14 4.93913 14 6C14 7.06087 13.5786 8.07828 12.8284 8.82843C12.0783 9.57857 11.0609 10 10 10C8.93913 10 7.92172 9.57857 7.17157 8.82843C6.42143 8.07828 6 7.06087 6 6ZM4 17H16C15.9625 14.5094 13.9313 12.5 11.4281 12.5H8.57188C6.07188 12.5 4.04062 14.5094 4 17ZM3 17.0719C3 13.9937 5.49375 11.5 8.57188 11.5H11.4281C14.5063 11.5 17 13.9937 17 17.0719C17 17.5844 16.5844 18 16.0719 18H3.92813C3.41563 18 3 17.5844 3 17.0719Z"></path>
</svg>