<svg viewBox="0 0 20 20" xmlns="http://www.w3.org/2000/svg" fill="currentColor">
<path d="M6 5C6.26522 5 6.51957 5.10536 6.70711 5.29289C6.89464 5.48043 7 5.73478 7 6C7 6.26522 6.89464 6.51957 6.70711 6.70711C6.51957 6.89464 6.26522 7 6 7C5.73478 7 5.48043 6.89464 5.29289 6.70711C5.10536 6.51957 5 6.26522 5 6C5 5.73478 5.10536 5.48043 5.29289 5.29289C5.48043 5.10536 5.73478 5 6 5ZM6 8C6.53043 8 7.03914 7.78929 7.41421 7.41421C7.78929 7.03914 8 6.53043 8 6C8 5.46957 7.78929 4.96086 7.41421 4.58579C7.03914 4.21071 6.53043 4 6 4C5.46957 4 4.96086 4.21071 4.58579 4.58579C4.21071 4.96086 4 5.46957 4 6C4 6.53043 4.21071 7.03914 4.58579 7.41421C4.96086 7.78929 5.46957 8 6 8ZM14 13C14.2652 13 14.5196 13.1054 14.7071 13.2929C14.8946 13.4804 15 13.7348 15 14C15 14.2652 14.8946 14.5196 14.7071 14.7071C14.5196 14.8946 14.2652 15 14 15C13.7348 15 13.4804 14.8946 13.2929 14.7071C13.1054 14.5196 13 14.2652 13 14C13 13.7348 13.1054 13.4804 13.2929 13.2929C13.4804 13.1054 13.7348 13 14 13ZM14 16C14.5304 16 15.0391 15.7893 15.4142 15.4142C15.7893 15.0391 16 14.5304 16 14C16 13.4696 15.7893 12.9609 15.4142 12.5858C15.0391 12.2107 14.5304 12 14 12C13.4696 12 12.9609 12.2107 12.5858 12.5858C12.2107 12.9609 12 13.4696 12 14C12 14.5304 12.2107 15.0391 12.5858 15.4142C12.9609 15.7893 13.4696 16 14 16ZM15.8531 4.85313C16.0469 4.65938 16.0469 4.34062 15.8531 4.14687C15.6594 3.95312 15.3406 3.95312 15.1469 4.14687L4.14687 15.1469C3.95312 15.3406 3.95312 15.6594 4.14687 15.8531C4.34062 16.0469 4.65937 16.0469 4.85312 15.8531L15.8531 4.85313Z"></path>
</svg>