<svg xmlns="http://www.w3.org/2000/svg" viewBox="0 0 20 20" version="1.1" fill="currentColor">
    <path d="M 12.5 5.5 C 12.5 5.226562 12.726562 5 13 5 L 18.5 5 C 18.773438 5 19 5.226562 19 5.5 L 19 11 C 19 11.273438 18.773438 11.5 18.5 11.5 C 18.226562 11.5 18 11.273438 18 11 L 18 6.707031 L 11.351562 13.351562 C 11.160156 13.546875 10.839844 13.546875 10.648438 13.351562 L 7 9.707031 L 1.851562 14.851562 C 1.660156 15.046875 1.339844 15.046875 1.148438 14.851562 C 0.953125 14.660156 0.953125 14.339844 1.148438 14.148438 L 6.648438 8.648438 C 6.839844 8.453125 7.160156 8.453125 7.351562 8.648438 L 11 12.292969 L 17.292969 6 L 13 6 C 12.726562 6 12.5 5.773438 12.5 5.5 Z M 12.5 5.5 "></path>
</svg>