<svg viewBox="0 0 20 20" xmlns="http://www.w3.org/2000/svg" fill="currentColor">
<path d="M4 4C3.44687 4 3 4.44687 3 5L3 15C3 15.5531 3.44687 16 4 16L16 16C16.5531 16 17 15.5531 17 15V7C17 6.44687 16.5531 6 16 6H11.1219C10.5906 6 10.0813 5.79063 9.70625 5.41563L8.58437 4.29375C8.39687 4.10625 8.14375 4 7.87813 4L4 4ZM2 5C2 3.89688 2.89688 3 4 3L7.87813 3C8.40938 3 8.91875 3.20938 9.29375 3.58438L10.4156 4.70625C10.6031 4.89375 10.8562 5 11.1219 5H16C17.1031 5 18 5.89688 18 7L18 15C18 16.1031 17.1031 17 16 17H4C2.89688 17 2 16.1031 2 15L2 5Z"></path>
</svg>