<svg viewBox="0 0 20 20" xmlns="http://www.w3.org/2000/svg" fill="currentColor">
<path d="M15,3.1l3,5.2l-2.8,1.6l-3-5.2L15,3.1L15,3.1z M11.8,5.9l2.1,3.6l-1.2,0.6c-0.4-0.7-1.2-1.2-2.1-1.2C9.1,8.9,8,10.1,8,11.4
	c0,0.4,0.1,0.7,0.2,1.1l-3,1.6c0,0,0,0,0,0l0,0l0,0h0c0,0,0,0,0,0l0,0l0,0l-1.7-2.9c0,0,0,0,0,0l0,0v0c0,0,0,0,0,0l0,0l0,0L11.8,5.9
	z M14.3,10.3L14.3,10.3c0.3,0.5,0.9,0.7,1.4,0.4l2.8-1.6c0.5-0.3,0.6-0.9,0.4-1.4l-3-5.2c-0.3-0.5-0.9-0.6-1.4-0.4l-2.8,1.6
	c-0.4,0.3-0.6,0.8-0.4,1.3L3,10.3c-0.5,0.3-0.6,0.9-0.3,1.3l1.7,3c0.3,0.5,0.9,0.6,1.3,0.4l3-1.6l-1.7,3.9c-0.1,0.3,0,0.5,0.3,0.7
	c0.3,0.1,0.5,0,0.7-0.3l1.7-3.9c0.3,0.1,0.6,0.2,0.9,0.2c0.3,0,0.6-0.1,0.9-0.2l1.7,3.9c0.1,0.3,0.4,0.4,0.7,0.3
	c0.3-0.1,0.4-0.4,0.3-0.7l-1.7-4c0.5-0.5,0.8-1.1,0.8-1.8c0-0.1,0-0.3,0-0.4L14.3,10.3L14.3,10.3z M10.5,9.9c0.8,0,1.5,0.7,1.5,1.5
	c0,0.8-0.7,1.5-1.5,1.5c-0.8,0-1.5-0.7-1.5-1.5C9,10.6,9.7,9.9,10.5,9.9z M1.9,12.9c-0.1-0.2-0.4-0.3-0.7-0.2s-0.3,0.4-0.2,0.7
	l1,1.7c0.1,0.2,0.4,0.3,0.7,0.2c0.2-0.1,0.3-0.4,0.2-0.7C2.9,14.7,1.9,12.9,1.9,12.9z"></path>
</svg>