<svg viewBox="0 0 20 20" xmlns="http://www.w3.org/2000/svg" fill="currentColor">
<path d="M3,15v-2.8c0-0.1,0-0.2,0-0.2v0h3.2l0.7,1.4C7.1,13.8,7.4,14,7.8,14h4.4c0.4,0,0.7-0.2,0.9-0.6l0.7-1.4H17v0
	c0,0.1,0,0.2,0,0.2V15c0,0.6-0.4,1-1,1H4C3.4,16,3,15.6,3,15z M16.7,11h-2.9c-0.4,0-0.7,0.2-0.9,0.6L12.2,13H7.8l-0.7-1.4
	C6.9,11.2,6.6,11,6.2,11H3.3l1.6-6.2C5,4.3,5.4,4,5.8,4h8.4c0.5,0,0.9,0.3,1,0.8L16.7,11z M2,12.2V15c0,1.1,0.9,2,2,2h12
	c1.1,0,2-0.9,2-2v-2.8c0-0.2,0-0.3-0.1-0.5l-1.8-7.2c-0.2-0.9-1-1.5-1.9-1.5H5.8C4.9,3,4.1,3.6,3.9,4.5l-1.8,7.2
	C2,11.9,2,12.1,2,12.2z"></path>
</svg>