<svg xmlns="http://www.w3.org/2000/svg" fill="currentColor" viewBox="0 0 24 24">
    <path d="M4.8 4.8a.9.9 0 1 1 0 1.8.9.9 0 0 1 0-1.8m0 3a2.1 2.1 0 1 0 0-4.2 2.1 2.1 0 0 0 0 4.2M0 12.9c0 1.624.99 3.015 2.4 3.6v1.8c0 .499.401.9.9.9h3c.499 0 .9-.401.9-.9v-1.5c0-.33-.27-.6-.6-.6s-.6.27-.6.6V18H3.6v-7.785q.147-.016.3-.015h1.8c.349 0 .679.064.982.184a.6.6 0 0 0 .777-.341.6.6 0 0 0-.341-.777A3.9 3.9 0 0 0 5.7 9H3.9A3.9 3.9 0 0 0 0 12.9m2.4 2.246a2.7 2.7 0 0 1 0-4.492zM19.2 4.8a.9.9 0 1 1 0 1.8.9.9 0 0 1 0-1.8m0 3a2.1 2.1 0 1 0 0-4.199 2.1 2.1 0 0 0 0 4.199m4.8 5.1c0-2.152-1.747-3.9-3.9-3.9h-1.8c-.499 0-.979.094-1.418.266a.6.6 0 0 0-.34.777.6.6 0 0 0 .775.34q.458-.181.983-.183h1.8q.152 0 .3.015V18H18v-1.2c0-.33-.27-.6-.6-.6s-.6.27-.6.6v1.5c0 .499.401.9.9.9h3c.499 0 .9-.401.9-.9v-1.8a3.9 3.9 0 0 0 2.4-3.6m-2.4 2.246v-4.492a2.7 2.7 0 0 1 0 4.493M10.8 6a1.2 1.2 0 1 1 2.4 0 1.2 1.2 0 0 1-2.4 0m3.6 0a2.4 2.4 0 1 0-4.8 0 2.4 2.4 0 0 0 4.8 0m-3 3.6a3.902 3.902 0 0 0-1.8 7.361V19.5c0 .499.401.9.9.9h3c.499 0 .9-.401.9-.9v-2.539A3.902 3.902 0 0 0 12.6 9.6zm-1.8 1.886v4.028a2.702 2.702 0 0 1 0-4.028m1.2 7.714v-8.332c.191-.046.394-.068.6-.068h1.2c.206 0 .409.022.6.067V19.2zm3.6-3.686v-4.028a2.702 2.702 0 0 1 0 4.028"/>
</svg>
