<svg viewBox="0 0 20 20" xmlns="http://www.w3.org/2000/svg" fill="currentColor">
<path d="M10 3C11.6562 3 13 4.34375 13 6V8H7V6C7 4.34375 8.34375 3 10 3ZM6 6V8H5.5C4.11875 8 3 9.11875 3 10.5V15.5C3 16.8813 4.11875 18 5.5 18H14.5C15.8813 18 17 16.8813 17 15.5V10.5C17 9.11875 15.8813 8 14.5 8H14V6C14 3.79063 12.2094 2 10 2C7.79063 2 6 3.79063 6 6ZM5.5 9H14.5C15.3281 9 16 9.67188 16 10.5V15.5C16 16.3281 15.3281 17 14.5 17H5.5C4.67188 17 4 16.3281 4 15.5V10.5C4 9.67188 4.67188 9 5.5 9ZM10.5 11.75C10.5 11.475 10.275 11.25 10 11.25C9.725 11.25 9.5 11.475 9.5 11.75V14.25C9.5 14.525 9.725 14.75 10 14.75C10.275 14.75 10.5 14.525 10.5 14.25V11.75Z"></path>
</svg>