<svg viewBox="0 0 20 20" xmlns="http://www.w3.org/2000/svg" fill="currentColor">
<path d="M4 6C4 5.60603 4.0776 5.21593 4.22836 4.85195C4.37913 4.48797 4.6001 4.15726 4.87868 3.87868C5.15726 3.6001 5.48797 3.37913 5.85195 3.22836C6.21593 3.0776 6.60603 3 7 3C7.39397 3 7.78407 3.0776 8.14805 3.22836C8.51203 3.37913 8.84274 3.6001 9.12132 3.87868C9.3999 4.15726 9.62087 4.48797 9.77164 4.85195C9.9224 5.21593 10 5.60603 10 6C10 6.39397 9.9224 6.78407 9.77164 7.14805C9.62087 7.51203 9.3999 7.84274 9.12132 8.12132C8.84274 8.3999 8.51203 8.62087 8.14805 8.77164C7.78407 8.9224 7.39397 9 7 9C6.60603 9 6.21593 8.9224 5.85195 8.77164C5.48797 8.62087 5.15726 8.3999 4.87868 8.12132C4.6001 7.84274 4.37913 7.51203 4.22836 7.14805C4.0776 6.78407 4 6.39397 4 6ZM11 6C11 4.93913 10.5786 3.92172 9.82843 3.17157C9.07828 2.42143 8.06087 2 7 2C5.93913 2 4.92172 2.42143 4.17157 3.17157C3.42143 3.92172 3 4.93913 3 6C3 7.06087 3.42143 8.07828 4.17157 8.82843C4.92172 9.57857 5.93913 10 7 10C8.06087 10 9.07828 9.57857 9.82843 8.82843C10.5786 8.07828 11 7.06087 11 6ZM1 17C1.0375 14.5094 3.06875 12.5 5.57188 12.5H8.42813C9.87188 12.5 11.1625 13.1719 12 14.2188V13C12 12.9344 12.0031 12.8688 12.0094 12.8031C11.0406 11.9906 9.79063 11.5 8.42813 11.5H5.57188C2.49375 11.5 0 13.9937 0 17.0719C0 17.5844 0.415625 18 0.928125 18H12.2688C12.1 17.7063 12 17.3656 12 17H1ZM16.5 9C17.3281 9 18 9.67188 18 10.5V12H15V10.5C15 9.67188 15.6719 9 16.5 9ZM14 10.5V12C13.4469 12 13 12.4469 13 13V17C13 17.5531 13.4469 18 14 18H19C19.5531 18 20 17.5531 20 17V13C20 12.4469 19.5531 12 19 12V10.5C19 9.11875 17.8813 8 16.5 8C15.1187 8 14 9.11875 14 10.5ZM14 13H19V17H14V13Z"></path>
</svg>