<svg viewBox="0 0 20 20" xmlns="http://www.w3.org/2000/svg" fill="currentColor">
<path d="M7 2.5C7 2.225 7.225 2 7.5 2H12.5C12.775 2 13 2.225 13 2.5C13 2.775 12.775 3 12.5 3H10.5V5.01875C12.0438 5.1375 13.4375 5.79375 14.4906 6.8L15.6469 5.64375C15.8406 5.45 16.1594 5.45 16.3531 5.64375C16.5469 5.8375 16.5469 6.15625 16.3531 6.35L15.1594 7.54375C16 8.64375 16.5 10.0125 16.5 11.5C16.5 15.0906 13.5906 18 10 18C6.40937 18 3.5 15.0906 3.5 11.5C3.5 8.07812 6.14375 5.275 9.5 5.01875V3H7.5C7.225 3 7 2.775 7 2.5ZM4.5 11.5C4.5 12.9587 5.07946 14.3576 6.11091 15.3891C7.14236 16.4205 8.54131 17 10 17C11.4587 17 12.8576 16.4205 13.8891 15.3891C14.9205 14.3576 15.5 12.9587 15.5 11.5C15.5 10.0413 14.9205 8.64236 13.8891 7.61091C12.8576 6.57946 11.4587 6 10 6C8.54131 6 7.14236 6.57946 6.11091 7.61091C5.07946 8.64236 4.5 10.0413 4.5 11.5ZM10.5 8.5V12C10.5 12.275 10.275 12.5 10 12.5C9.725 12.5 9.5 12.275 9.5 12V8.5C9.5 8.225 9.725 8 10 8C10.275 8 10.5 8.225 10.5 8.5Z"></path>
</svg>