<svg viewBox="0 0 20 20" xmlns="http://www.w3.org/2000/svg" fill="currentColor">
<path d="M3 6.125L3 3.5C3 3.225 2.775 3 2.5 3C2.225 3 2 3.225 2 3.5L2 7.5C2 7.775 2.225 8 2.5 8L6.5 8C6.775 8 7 7.775 7 7.5C7 7.225 6.775 7 6.5 7L3.675 7C4.79688 4.63438 7.20937 3 10 3C13.8656 3 17 6.13438 17 10C17 13.8656 13.8656 17 10 17C7.70937 17 5.67813 15.9 4.4 14.2C4.23438 13.9781 3.92188 13.9344 3.7 14.1C3.47813 14.2656 3.43438 14.5781 3.6 14.8C5.05938 16.7438 7.38125 18 10 18C14.4187 18 18 14.4187 18 10C18 5.58125 14.4187 2 10 2C6.9875 2 4.36563 3.66563 3 6.125ZM10 6C9.725 6 9.5 6.225 9.5 6.5V10C9.5 10.1312 9.55312 10.2594 9.64687 10.3531L12.1469 12.8531C12.3406 13.0469 12.6594 13.0469 12.8531 12.8531C13.0469 12.6594 13.0469 12.3406 12.8531 12.1469L10.5 9.79375L10.5 6.5C10.5 6.225 10.275 6 10 6Z"></path>
</svg>