<svg viewBox="0 0 20 20" xmlns="http://www.w3.org/2000/svg" fill="currentColor">
<path d="M2 4.23438C2 3.55313 2.55313 3 3.23438 3H16.7656C17.4469 3 18 3.55313 18 4.23438C18 4.52187 17.9 4.8 17.7156 5.02187L12 11.9312V15.9406C12 16.525 11.525 17 10.9406 17C10.7063 17 10.4781 16.9219 10.2906 16.7781L8.38438 15.2969C8.14063 15.1063 7.99687 14.8156 7.99687 14.5063V11.9312L2.28438 5.02187C2.1 4.8 2 4.52187 2 4.23438ZM3.23438 4C3.10313 4 3 4.10625 3 4.23438C3 4.29062 3.01875 4.34063 3.05313 4.38438L8.88438 11.4312C8.95938 11.5219 9 11.6344 9 11.75V14.5063L10.9062 15.9875C10.9156 15.9969 10.9281 16 10.9406 16C10.9719 16 11 15.975 11 15.9406V11.75C11 11.6344 11.0406 11.5219 11.1156 11.4312L16.9469 4.38438C16.9812 4.34375 17 4.29062 17 4.23438C17 4.10313 16.8937 4 16.7656 4H3.23438Z"></path>
</svg>