<svg viewBox="0 0 20 20" xmlns="http://www.w3.org/2000/svg" fill="currentColor">
<path d="M17 4C17.5531 4 18 4.44687 18 5V15C18 15.5531 17.5531 16 17 16H3C2.44687 16 2 15.5531 2 15V5C2 4.44687 2.44687 4 3 4H17ZM3 3C1.89688 3 1 3.89688 1 5V15C1 16.1031 1.89688 17 3 17H17C18.1031 17 19 16.1031 19 15V5C19 3.89688 18.1031 3 17 3H3ZM6 8C6 7.73478 6.10536 7.48043 6.29289 7.29289C6.48043 7.10536 6.73478 7 7 7C7.26522 7 7.51957 7.10536 7.70711 7.29289C7.89464 7.48043 8 7.73478 8 8C8 8.26522 7.89464 8.51957 7.70711 8.70711C7.51957 8.89464 7.26522 9 7 9C6.73478 9 6.48043 8.89464 6.29289 8.70711C6.10536 8.51957 6 8.26522 6 8ZM9 8C9 7.46957 8.78929 6.96086 8.41421 6.58579C8.03914 6.21071 7.53043 6 7 6C6.46957 6 5.96086 6.21071 5.58579 6.58579C5.21071 6.96086 5 7.46957 5 8C5 8.53043 5.21071 9.03914 5.58579 9.41421C5.96086 9.78929 6.46957 10 7 10C7.53043 10 8.03914 9.78929 8.41421 9.41421C8.78929 9.03914 9 8.53043 9 8ZM4.5 13.5C4.5 12.6719 5.17188 12 6 12H8C8.82812 12 9.5 12.6719 9.5 13.5C9.5 13.775 9.725 14 10 14C10.275 14 10.5 13.775 10.5 13.5C10.5 12.1187 9.38125 11 8 11H6C4.61875 11 3.5 12.1187 3.5 13.5C3.5 13.775 3.725 14 4 14C4.275 14 4.5 13.775 4.5 13.5ZM12 7C11.725 7 11.5 7.225 11.5 7.5C11.5 7.775 11.725 8 12 8H16C16.275 8 16.5 7.775 16.5 7.5C16.5 7.225 16.275 7 16 7H12ZM12 9C11.725 9 11.5 9.225 11.5 9.5C11.5 9.775 11.725 10 12 10H16C16.275 10 16.5 9.775 16.5 9.5C16.5 9.225 16.275 9 16 9H12ZM12 11C11.725 11 11.5 11.225 11.5 11.5C11.5 11.775 11.725 12 12 12H16C16.275 12 16.5 11.775 16.5 11.5C16.5 11.225 16.275 11 16 11H12Z"></path>
</svg>