<svg viewBox="0 0 20 20" xmlns="http://www.w3.org/2000/svg" fill="currentColor">
<path d="M6 3C5.44687 3 5 3.44687 5 4V16C5 16.5531 5.44687 17 6 17H8V15C8 13.8969 8.89688 13 10 13C11.1031 13 12 13.8969 12 15V17H14C14.5531 17 15 16.5531 15 16V4C15 3.44687 14.5531 3 14 3H6ZM11 15C11 14.4469 10.5531 14 10 14C9.44687 14 9 14.4469 9 15V17H11V15ZM8 18H6C4.89688 18 4 17.1031 4 16V4C4 2.89688 4.89688 2 6 2H14C15.1031 2 16 2.89688 16 4V16C16 17.1031 15.1031 18 14 18H12H11H9H8ZM6 5.75C6 5.33437 6.33437 5 6.75 5H8.25C8.66563 5 9 5.33437 9 5.75V7.25C9 7.66563 8.66563 8 8.25 8H6.75C6.33437 8 6 7.66563 6 7.25V5.75ZM7 6V7H8V6H7ZM11.75 5H13.25C13.6656 5 14 5.33437 14 5.75V7.25C14 7.66563 13.6656 8 13.25 8H11.75C11.3344 8 11 7.66563 11 7.25V5.75C11 5.33437 11.3344 5 11.75 5ZM12 7H13V6H12V7ZM6 9.75C6 9.33437 6.33437 9 6.75 9H8.25C8.66563 9 9 9.33437 9 9.75V11.25C9 11.6656 8.66563 12 8.25 12H6.75C6.33437 12 6 11.6656 6 11.25V9.75ZM7 10V11H8V10H7ZM11.75 9H13.25C13.6656 9 14 9.33437 14 9.75V11.25C14 11.6656 13.6656 12 13.25 12H11.75C11.3344 12 11 11.6656 11 11.25V9.75C11 9.33437 11.3344 9 11.75 9ZM12 11H13V10H12V11Z"></path>
</svg>