<svg viewBox="0 0 20 20" xmlns="http://www.w3.org/2000/svg" fill="currentColor">
<path opacity="0.4" d="M7 4.5C7 3.83696 6.73661 3.20107 6.26777 2.73223C5.79893 2.26339 5.16304 2 4.5 2C3.83696 2 3.20107 2.26339 2.73223 2.73223C2.26339 3.20107 2 3.83696 2 4.5C2 5.16304 2.26339 5.79893 2.73223 6.26777C3.20107 6.73661 3.83696 7 4.5 7C5.16304 7 5.79893 6.73661 6.26777 6.26777C6.73661 5.79893 7 5.16304 7 4.5ZM18.5 4.5C18.5 3.83696 18.2366 3.20107 17.7678 2.73223C17.2989 2.26339 16.663 2 16 2C15.337 2 14.7011 2.26339 14.2322 2.73223C13.7634 3.20107 13.5 3.83696 13.5 4.5C13.5 5.16304 13.7634 5.79893 14.2322 6.26777C14.7011 6.73661 15.337 7 16 7C16.663 7 17.2989 6.73661 17.7678 6.26777C18.2366 5.79893 18.5 5.16304 18.5 4.5ZM3.33437 8C1.49375 8 0 9.49375 0 11.3344C0 11.7 0.3 12 0.665625 12H7.33437C7.34062 12 7.34687 12 7.35625 12C6.525 11.2656 6.00313 10.1938 6.00313 9C6.00313 8.7625 6.025 8.53125 6.0625 8.30312C5.6375 8.10625 5.16562 8 4.66875 8H3.33437ZM12.6469 12C12.6531 12 12.6594 12 12.6687 12H19.3344C19.7031 12 20 11.7 20 11.3344C20 9.49375 18.5063 8 16.6656 8H15.3344C14.8375 8 14.3656 8.10938 13.9406 8.30312C13.9812 8.52812 14 8.7625 14 9C14 10.1938 13.475 11.2656 12.6469 12Z"></path>
<path d="M10 12C10.394 12 10.7841 11.9224 11.1481 11.7716C11.512 11.6209 11.8427 11.3999 12.1213 11.1213C12.3999 10.8427 12.6209 10.512 12.7716 10.1481C12.9224 9.78407 13 9.39397 13 9C13 8.60603 12.9224 8.21593 12.7716 7.85195C12.6209 7.48797 12.3999 7.15726 12.1213 6.87868C11.8427 6.6001 11.512 6.37913 11.1481 6.22836C10.7841 6.0776 10.394 6 10 6C9.60603 6 9.21593 6.0776 8.85195 6.22836C8.48797 6.37913 8.15726 6.6001 7.87868 6.87868C7.6001 7.15726 7.37913 7.48797 7.22836 7.85195C7.0776 8.21593 7 8.60603 7 9C7 9.39397 7.0776 9.78407 7.22836 10.1481C7.37913 10.512 7.6001 10.8427 7.87868 11.1213C8.15726 11.3999 8.48797 11.6209 8.85195 11.7716C9.21593 11.9224 9.60603 12 10 12ZM8.16562 13C5.86562 13 4 14.8656 4 17.1656C4 17.625 4.37187 18 4.83437 18H15.1656C15.625 18 16 17.6281 16 17.1656C16 14.8656 14.1344 13 11.8344 13H8.16562Z"></path>
</svg>