<svg viewBox="0 0 24 24" xmlns="http://www.w3.org/2000/svg" fill="currentColor">
  <path d="M11.4 2.9999C11.4 2.6699 11.67 2.3999 12 2.3999C12.33 2.3999 12.6 2.6699 12.6 2.9999V3.6299C15.6338 3.9299 18 6.4874 18 9.5999V10.6912C18 12.3299 18.6525 13.9012 19.8113 15.0637L19.9163 15.1687C20.2275 15.4799 20.4038 15.9037 20.4038 16.3424C20.4038 17.2612 19.6613 18.0037 18.7425 18.0037H5.26125C4.3425 17.9999 3.6 17.2574 3.6 16.3387C3.6 15.8999 3.77625 15.4762 4.0875 15.1649L4.1925 15.0599C5.3475 13.9012 6 12.3299 6 10.6912V9.5999C6 6.4874 8.36625 3.9299 11.4 3.6299V2.9999ZM12 4.7999C9.34875 4.7999 7.2 6.94865 7.2 9.5999V10.6912C7.2 12.6487 6.42375 14.5274 5.03625 15.9112L4.935 16.0124C4.84875 16.0987 4.8 16.2149 4.8 16.3387C4.8 16.5937 5.00625 16.7999 5.26125 16.7999H18.7388C18.9938 16.7999 19.2 16.5937 19.2 16.3387C19.2 16.2149 19.1513 16.0987 19.065 16.0124L18.96 15.9074C17.5763 14.5237 16.7963 12.6449 16.7963 10.6874V9.5999C16.7963 6.94865 14.6475 4.7999 11.9963 4.7999H12ZM10.8675 19.6012C11.0325 20.0662 11.4788 20.3999 12 20.3999C12.5213 20.3999 12.9675 20.0662 13.1325 19.6012C13.2413 19.2899 13.5863 19.1249 13.8975 19.2337C14.2088 19.3424 14.3738 19.6874 14.265 19.9987C13.935 20.9324 13.0463 21.5999 12 21.5999C10.9538 21.5999 10.065 20.9324 9.735 19.9987C9.62625 19.6874 9.7875 19.3424 10.1025 19.2337C10.4175 19.1249 10.7588 19.2862 10.8675 19.6012ZM6.8775 3.2174C7.09125 3.4724 7.05375 3.85115 6.79875 4.06115C5.20875 5.38115 4.2 7.3724 4.2 9.5999C4.2 9.9299 3.93 10.1999 3.6 10.1999C3.27 10.1999 3 9.9299 3 9.5999C3 7.00115 4.18125 4.6799 6.03375 3.13865C6.28875 2.9249 6.6675 2.9624 6.8775 3.2174ZM17.3175 4.06115C17.0625 3.8474 17.0288 3.4724 17.2388 3.2174C17.4488 2.9624 17.8275 2.92865 18.0825 3.13865C19.935 4.6799 21.1163 7.00115 21.1163 9.5999C21.1163 9.9299 20.8463 10.1999 20.5163 10.1999C20.1863 10.1999 19.9163 9.9299 19.9163 9.5999C19.9163 7.3724 18.9075 5.38115 17.3175 4.06115Z"/>
</svg>