<svg viewBox="0 0 20 20" xmlns="http://www.w3.org/2000/svg" fill="currentColor">
<path d="M10 17C10.5219 17 11.2625 16.55 11.9344 15.2094C12.2437 14.5906 12.5031 13.8438 12.6875 13H7.3125C7.49688 13.8438 7.75625 14.5906 8.06563 15.2094C8.7375 16.55 9.47812 17 10 17ZM7.13438 12H12.8656C12.9531 11.3687 13 10.6969 13 10C13 9.30313 12.9531 8.63125 12.8656 8H7.13438C7.04688 8.63125 7 9.30313 7 10C7 10.6969 7.04688 11.3687 7.13438 12ZM7.3125 7H12.6875C12.5031 6.15625 12.2437 5.40938 11.9344 4.79063C11.2625 3.45 10.5219 3 10 3C9.47812 3 8.7375 3.45 8.06563 4.79063C7.75625 5.40938 7.49688 6.15625 7.3125 7ZM13.875 8C13.9562 8.64062 14 9.30937 14 10C14 10.6906 13.9562 11.3594 13.875 12H16.7125C16.9 11.3656 17.0031 10.6938 17.0031 10C17.0031 9.30625 16.9031 8.63437 16.7125 8H13.875ZM16.3281 7C15.5188 5.29688 14.0438 3.97188 12.2375 3.36563C12.8938 4.25 13.4125 5.51562 13.7125 7H16.3313H16.3281ZM6.29375 7C6.59375 5.5125 7.1125 4.25 7.76875 3.36563C5.95938 3.97188 4.48125 5.29688 3.675 7H6.29063H6.29375ZM3.29375 8C3.10625 8.63437 3.00312 9.30625 3.00312 10C3.00312 10.6938 3.10313 11.3656 3.29375 12H6.125C6.04375 11.3594 6 10.6906 6 10C6 9.30937 6.04375 8.64062 6.125 8H3.29062H3.29375ZM12.2344 16.6344C14.0406 16.025 15.5156 14.7031 16.325 13H13.7094C13.4094 14.4875 12.8906 15.75 12.2344 16.6344ZM7.76562 16.6344C7.10938 15.75 6.59375 14.4844 6.29063 13H3.675C4.48437 14.7031 5.95938 16.0281 7.76562 16.6344ZM10 18C7.87827 18 5.84344 17.1571 4.34315 15.6569C2.84285 14.1566 2 12.1217 2 10C2 7.87827 2.84285 5.84344 4.34315 4.34315C5.84344 2.84285 7.87827 2 10 2C12.1217 2 14.1566 2.84285 15.6569 4.34315C17.1571 5.84344 18 7.87827 18 10C18 12.1217 17.1571 14.1566 15.6569 15.6569C14.1566 17.1571 12.1217 18 10 18Z"></path>
</svg>