<svg viewBox="0 0 20 20" xmlns="http://www.w3.org/2000/svg" fill="currentColor">
<path d="M3.07812 15.1375C3.02813 15.225 3 15.325 3 15.4281C3 15.7469 3.25625 16.0031 3.575 16.0031H16.425C16.7438 16.0031 17 15.7469 17 15.4281C17 15.325 16.9719 15.2281 16.9219 15.1375L10.6406 4.36875C10.5063 4.14063 10.2625 4 10 4C9.7375 4 9.49375 4.14063 9.35938 4.36875L3.07812 15.1375ZM2.21563 14.6313L8.49687 3.8625C8.80937 3.32812 9.38125 3 10 3C10.6187 3 11.1906 3.32812 11.5031 3.8625L17.7844 14.6313C17.925 14.8719 18 15.1469 18 15.425C18 16.2937 17.2937 17 16.425 17H3.575C2.70625 17 2 16.2937 2 15.425C2 15.1469 2.075 14.8719 2.21563 14.6313ZM10 7C10.275 7 10.5 7.225 10.5 7.5V11.5C10.5 11.775 10.275 12 10 12C9.725 12 9.5 11.775 9.5 11.5V7.5C9.5 7.225 9.725 7 10 7ZM9.25 14C9.25 13.8011 9.32902 13.6103 9.46967 13.4697C9.61032 13.329 9.80109 13.25 10 13.25C10.1989 13.25 10.3897 13.329 10.5303 13.4697C10.671 13.6103 10.75 13.8011 10.75 14C10.75 14.1989 10.671 14.3897 10.5303 14.5303C10.3897 14.671 10.1989 14.75 10 14.75C9.80109 14.75 9.61032 14.671 9.46967 14.5303C9.32902 14.3897 9.25 14.1989 9.25 14Z"></path>
</svg>