<svg viewBox="0 0 20 20" xmlns="http://www.w3.org/2000/svg" fill="currentColor">
<path d="M7.28438 2.54062C7.74375 2.19687 8.35 2 9 2C9.65 2 10.2562 2.19687 10.7156 2.54062C11.175 2.88437 11.5 3.39375 11.5 4C11.5 4.60938 11.1688 5.12188 10.7094 5.4625C10.5469 5.58125 10.5 5.70312 10.5 5.775C10.5 5.9 10.6 6 10.725 6H12.5C13.3281 6 14 6.67188 14 7.5V9.275C14 9.4 14.1 9.5 14.225 9.5C14.2969 9.5 14.4156 9.45 14.5375 9.29063C14.8813 8.83125 15.3938 8.5 16 8.5C16.6062 8.5 17.1188 8.82812 17.4594 9.28438C17.8 9.74063 18 10.35 18 11C18 11.65 17.8031 12.2562 17.4594 12.7156C17.1156 13.175 16.6062 13.5 16 13.5C15.3906 13.5 14.8781 13.1688 14.5375 12.7094C14.4188 12.5469 14.2969 12.5 14.225 12.5C14.1 12.5 14 12.6 14 12.725V16.5C14 17.3281 13.3281 18 12.5 18H10.725C10.05 18 9.5 17.4531 9.5 16.775C9.5 16.2687 9.80938 15.8875 10.1125 15.6625C10.3813 15.4625 10.5 15.2219 10.5 15C10.5 14.7781 10.3813 14.5406 10.1156 14.3406C9.85 14.1406 9.45625 14 9 14C8.54375 14 8.15313 14.1375 7.88438 14.3406C7.61562 14.5437 7.5 14.7812 7.5 15C7.5 15.2219 7.61875 15.4625 7.8875 15.6625C8.19062 15.8875 8.5 16.2687 8.5 16.775C8.5 17.4531 7.95312 18 7.275 18H3.5C2.67188 18 2 17.3281 2 16.5V12.725C2 12.0469 2.54688 11.5 3.225 11.5C3.73125 11.5 4.1125 11.8094 4.3375 12.1125C4.5375 12.3813 4.77813 12.5 5 12.5C5.22187 12.5 5.45937 12.3813 5.65937 12.1156C5.85938 11.85 6 11.4563 6 11C6 10.5437 5.8625 10.1531 5.65937 9.88438C5.45625 9.61562 5.22187 9.5 5 9.5C4.77813 9.5 4.5375 9.61875 4.3375 9.8875C4.1125 10.1906 3.73125 10.5 3.225 10.5C2.54688 10.5 2 9.95312 2 9.275V7.5C2 6.67188 2.67188 6 3.5 6H7.275C7.4 6 7.5 5.9 7.5 5.775C7.5 5.70312 7.45 5.58438 7.29063 5.4625C6.83125 5.12188 6.5 4.60938 6.5 4C6.5 3.39375 6.82812 2.88125 7.28438 2.54062ZM7.88438 3.34063C7.61875 3.54063 7.5 3.77813 7.5 4C7.5 4.22187 7.61875 4.4625 7.8875 4.6625C8.19062 4.8875 8.5 5.26875 8.5 5.775C8.5 6.45 7.95312 7 7.275 7H3.5C3.225 7 3 7.225 3 7.5V9.275C3 9.4 3.1 9.5 3.225 9.5C3.29688 9.5 3.41562 9.45 3.5375 9.29063C3.87812 8.83125 4.39062 8.5 5 8.5C5.60625 8.5 6.11875 8.82812 6.45937 9.28438C6.8 9.74063 7 10.35 7 11C7 11.65 6.80312 12.2562 6.45937 12.7156C6.11562 13.175 5.60625 13.5 5 13.5C4.39062 13.5 3.87812 13.1688 3.5375 12.7094C3.41875 12.5469 3.29688 12.5 3.225 12.5C3.1 12.5 3 12.6 3 12.725V16.5C3 16.775 3.225 17 3.5 17H7.275C7.4 17 7.5 16.9 7.5 16.775C7.5 16.7031 7.45 16.5844 7.29063 16.4625C6.83125 16.1187 6.5 15.6062 6.5 15C6.5 14.3938 6.82812 13.8812 7.28438 13.5406C7.74063 13.2 8.35 13 9 13C9.65 13 10.2562 13.1969 10.7156 13.5406C11.175 13.8844 11.5 14.3938 11.5 15C11.5 15.6094 11.1688 16.1219 10.7094 16.4625C10.5469 16.5812 10.5 16.7031 10.5 16.775C10.5 16.9 10.6 17 10.725 17H12.5C12.775 17 13 16.775 13 16.5V12.725C13 12.0469 13.5469 11.5 14.225 11.5C14.7313 11.5 15.1125 11.8094 15.3375 12.1125C15.5375 12.3813 15.7781 12.5 16 12.5C16.2219 12.5 16.4594 12.3813 16.6594 12.1156C16.8594 11.85 17 11.4563 17 11C17 10.5437 16.8625 10.1531 16.6594 9.88438C16.4563 9.61562 16.2188 9.5 16 9.5C15.7781 9.5 15.5375 9.61875 15.3375 9.8875C15.1125 10.1906 14.7313 10.5 14.225 10.5C13.5469 10.5 13 9.95312 13 9.275V7.5C13 7.225 12.775 7 12.5 7H10.725C10.05 7 9.5 6.45312 9.5 5.775C9.5 5.26875 9.80938 4.8875 10.1125 4.6625C10.3813 4.4625 10.5 4.22187 10.5 4C10.5 3.77813 10.3813 3.54063 10.1156 3.34063C9.85 3.14062 9.45312 3 9 3C8.54688 3 8.15313 3.1375 7.88438 3.34063Z"></path>
</svg>