<svg viewBox="0 0 20 20" xmlns="http://www.w3.org/2000/svg" fill="currentColor">
<path d="M2 15C2 15.275 2.225 15.5 2.5 15.5H4.55C4.78125 16.6406 5.79063 17.5 7 17.5C8.20937 17.5 9.21875 16.6406 9.45 15.5H17.5C17.775 15.5 18 15.275 18 15C18 14.725 17.775 14.5 17.5 14.5H9.45C9.21875 13.3594 8.20937 12.5 7 12.5C5.79063 12.5 4.78125 13.3594 4.55 14.5H2.5C2.225 14.5 2 14.725 2 15ZM5.5 15C5.5 14.6022 5.65804 14.2206 5.93934 13.9393C6.22064 13.658 6.60218 13.5 7 13.5C7.39782 13.5 7.77936 13.658 8.06066 13.9393C8.34196 14.2206 8.5 14.6022 8.5 15C8.5 15.3978 8.34196 15.7794 8.06066 16.0607C7.77936 16.342 7.39782 16.5 7 16.5C6.60218 16.5 6.22064 16.342 5.93934 16.0607C5.65804 15.7794 5.5 15.3978 5.5 15ZM11.5 10C11.5 9.80302 11.5388 9.60796 11.6142 9.42597C11.6896 9.24399 11.8001 9.07863 11.9393 8.93934C12.0786 8.80005 12.244 8.68956 12.426 8.61418C12.608 8.5388 12.803 8.5 13 8.5C13.197 8.5 13.392 8.5388 13.574 8.61418C13.756 8.68956 13.9214 8.80005 14.0607 8.93934C14.1999 9.07863 14.3104 9.24399 14.3858 9.42597C14.4612 9.60796 14.5 9.80302 14.5 10C14.5 10.197 14.4612 10.392 14.3858 10.574C14.3104 10.756 14.1999 10.9214 14.0607 11.0607C13.9214 11.1999 13.756 11.3104 13.574 11.3858C13.392 11.4612 13.197 11.5 13 11.5C12.803 11.5 12.608 11.4612 12.426 11.3858C12.244 11.3104 12.0786 11.1999 11.9393 11.0607C11.8001 10.9214 11.6896 10.756 11.6142 10.574C11.5388 10.392 11.5 10.197 11.5 10ZM13 7.5C11.7906 7.5 10.7812 8.35938 10.55 9.5H2.5C2.225 9.5 2 9.725 2 10C2 10.275 2.225 10.5 2.5 10.5H10.55C10.7812 11.6406 11.7906 12.5 13 12.5C14.2094 12.5 15.2188 11.6406 15.45 10.5H17.5C17.775 10.5 18 10.275 18 10C18 9.725 17.775 9.5 17.5 9.5H15.45C15.2188 8.35938 14.2094 7.5 13 7.5ZM8 6.5C7.60218 6.5 7.22064 6.34196 6.93934 6.06066C6.65804 5.77936 6.5 5.39782 6.5 5C6.5 4.60218 6.65804 4.22064 6.93934 3.93934C7.22064 3.65804 7.60218 3.5 8 3.5C8.39782 3.5 8.77936 3.65804 9.06066 3.93934C9.34196 4.22064 9.5 4.60218 9.5 5C9.5 5.39782 9.34196 5.77936 9.06066 6.06066C8.77936 6.34196 8.39782 6.5 8 6.5ZM10.45 4.5C10.2188 3.35938 9.20937 2.5 8 2.5C6.79063 2.5 5.78125 3.35938 5.55 4.5H2.5C2.225 4.5 2 4.725 2 5C2 5.275 2.225 5.5 2.5 5.5H5.55C5.78125 6.64062 6.79063 7.5 8 7.5C9.20937 7.5 10.2188 6.64062 10.45 5.5H17.5C17.775 5.5 18 5.275 18 5C18 4.725 17.775 4.5 17.5 4.5H10.45Z"></path>
</svg>