<svg viewBox="0 0 20 20" xmlns="http://www.w3.org/2000/svg" fill="currentColor">
<g opacity="0.4">
<path d="M4.14018 18.3336C3.69439 18.3336 3.33301 17.9605 3.33301 17.5002V7.81283C3.33301 7.35259 3.69439 6.97949 4.14018 6.97949H6.0572C6.50299 6.97949 6.86438 7.35259 6.86438 7.81283V17.5002C6.86438 17.9605 6.50299 18.3336 6.0572 18.3336H4.14018Z"></path>
<path d="M15.8339 12.2918H13.937C13.4912 12.2918 13.1299 12.6649 13.1299 13.1252V17.5001C13.1299 17.9603 13.4912 18.3334 13.937 18.3334H15.8339C16.2797 18.3334 16.641 17.9603 16.641 17.5001V13.1252C16.641 12.6649 16.2797 12.2918 15.8339 12.2918Z"></path>
<path d="M9.03368 13.0211C8.58789 13.0211 8.2265 12.648 8.2265 12.1878V7.81283C8.2265 7.35259 8.58789 6.97949 9.03368 6.97949H10.9507C11.3965 6.97949 11.7579 7.35259 11.7579 7.81283V12.1878C11.7579 12.648 11.3965 13.0211 10.9507 13.0211H9.03368Z"></path>
</g>
<path d="M10.9305 14.7086H9.03368C8.58789 14.7086 8.2265 15.0817 8.2265 15.542V17.5003C8.2265 17.9605 8.58789 18.3336 9.03368 18.3336H10.9305C11.3763 18.3336 11.7377 17.9605 11.7377 17.5003V15.542C11.7377 15.0817 11.3763 14.7086 10.9305 14.7086Z"></path>
<path d="M6.03702 1.66699H4.14018C3.69439 1.66699 3.33301 2.04009 3.33301 2.50033V4.45863C3.33301 4.91887 3.69439 5.29196 4.14018 5.29196H6.03702C6.48281 5.29196 6.8442 4.91887 6.8442 4.45863V2.50033C6.8442 2.04009 6.48281 1.66699 6.03702 1.66699Z"></path>
<path d="M13.9364 10.6053C13.4929 10.602 13.135 10.2299 13.135 9.77194V7.81292C13.135 7.35268 13.4964 6.97959 13.9421 6.97959H15.8592C16.305 6.97959 16.6663 7.35268 16.6663 7.81292V9.78608C16.6663 10.2486 16.3014 10.6227 15.8534 10.6194L13.9364 10.6053Z"></path>
</svg>