<svg viewBox="0 0 20 20" xmlns="http://www.w3.org/2000/svg" fill="currentColor">
<path d="M10 17C11.8565 17 13.637 16.2625 14.9497 14.9497C16.2625 13.637 17 11.8565 17 10C17 8.14348 16.2625 6.36301 14.9497 5.05025C13.637 3.7375 11.8565 3 10 3C8.14348 3 6.36301 3.7375 5.05025 5.05025C3.7375 6.36301 3 8.14348 3 10C3 11.8565 3.7375 13.637 5.05025 14.9497C6.36301 16.2625 8.14348 17 10 17ZM10 2C12.1217 2 14.1566 2.84285 15.6569 4.34315C17.1571 5.84344 18 7.87827 18 10C18 12.1217 17.1571 14.1566 15.6569 15.6569C14.1566 17.1571 12.1217 18 10 18C7.87827 18 5.84344 17.1571 4.34315 15.6569C2.84285 14.1566 2 12.1217 2 10C2 7.87827 2.84285 5.84344 4.34315 4.34315C5.84344 2.84285 7.87827 2 10 2ZM10.75 5C10.75 5.19891 10.671 5.38968 10.5303 5.53033C10.3897 5.67098 10.1989 5.75 10 5.75C9.80109 5.75 9.61032 5.67098 9.46967 5.53033C9.32902 5.38968 9.25 5.19891 9.25 5C9.25 4.80109 9.32902 4.61032 9.46967 4.46967C9.61032 4.32902 9.80109 4.25 10 4.25C10.1989 4.25 10.3897 4.32902 10.5303 4.46967C10.671 4.61032 10.75 4.80109 10.75 5ZM9 13C9 13.2652 9.10536 13.5196 9.29289 13.7071C9.48043 13.8946 9.73478 14 10 14C10.2652 14 10.5196 13.8946 10.7071 13.7071C10.8946 13.5196 11 13.2652 11 13C11 12.7348 10.8946 12.4804 10.7071 12.2929C10.5196 12.1054 10.2652 12 10 12C9.73478 12 9.48043 12.1054 9.29289 12.2929C9.10536 12.4804 9 12.7348 9 13ZM8 13C8 12.4187 8.24687 11.8969 8.64062 11.5312L6.05937 6.7375C5.92812 6.49375 6.01875 6.19062 6.2625 6.05937C6.50625 5.92812 6.80938 6.01875 6.94063 6.2625L9.52187 11.0562C9.675 11.0187 9.83437 11 10 11C11.1031 11 12 11.8969 12 13C12 14.1031 11.1031 15 10 15C8.89688 15 8 14.1031 8 13ZM14.25 6.5C14.25 6.69891 14.171 6.88968 14.0303 7.03033C13.8897 7.17098 13.6989 7.25 13.5 7.25C13.3011 7.25 13.1103 7.17098 12.9697 7.03033C12.829 6.88968 12.75 6.69891 12.75 6.5C12.75 6.30109 12.829 6.11032 12.9697 5.96967C13.1103 5.82902 13.3011 5.75 13.5 5.75C13.6989 5.75 13.8897 5.82902 14.0303 5.96967C14.171 6.11032 14.25 6.30109 14.25 6.5ZM15 9.25C15.1989 9.25 15.3897 9.32902 15.5303 9.46967C15.671 9.61032 15.75 9.80109 15.75 10C15.75 10.1989 15.671 10.3897 15.5303 10.5303C15.3897 10.671 15.1989 10.75 15 10.75C14.8011 10.75 14.6103 10.671 14.4697 10.5303C14.329 10.3897 14.25 10.1989 14.25 10C14.25 9.80109 14.329 9.61032 14.4697 9.46967C14.6103 9.32902 14.8011 9.25 15 9.25ZM5.75 10C5.75 10.1989 5.67098 10.3897 5.53033 10.5303C5.38968 10.671 5.19891 10.75 5 10.75C4.80109 10.75 4.61032 10.671 4.46967 10.5303C4.32902 10.3897 4.25 10.1989 4.25 10C4.25 9.80109 4.32902 9.61032 4.46967 9.46967C4.61032 9.32902 4.80109 9.25 5 9.25C5.19891 9.25 5.38968 9.32902 5.53033 9.46967C5.67098 9.61032 5.75 9.80109 5.75 10Z"></path>
</svg>