<svg xmlns="http://www.w3.org/2000/svg" viewBox="0 0 20 20" fill="currentColor">
    <path d="M9.668 2.125a.504.504 0 0 1 .663 0l2.668 2.356v-.73c0-.416.335-.75.75-.75h2.5c.416 0 .75.334.75.75V8.01l1.832 1.615a.5.5 0 1 1-.663.75L17 9.344V15.5a2.5 2.5 0 0 1-2.5 2.5h-9A2.5 2.5 0 0 1 3 15.5V9.344l-1.168 1.031a.503.503 0 0 1-.707-.044.503.503 0 0 1 .044-.706zM16 7.128V4h-2v1.363zM4 8.46v7.04A1.5 1.5 0 0 0 5.5 17h2v-5c0-.553.447-1 1-1h3c.553 0 1 .447 1 1v5h2a1.5 1.5 0 0 0 1.5-1.5V8.46l-6-5.294zM11.5 12h-3v5h3z"/>
</svg>
