<svg viewBox="0 0 20 20" xmlns="http://www.w3.org/2000/svg" fill="currentColor">
<path d="M8.5 3C9.22227 3 9.93747 3.14226 10.6048 3.41866C11.272 3.69506 11.8784 4.10019 12.3891 4.61091C12.8998 5.12163 13.3049 5.72795 13.5813 6.39524C13.8577 7.06253 14 7.77773 14 8.5C14 9.22227 13.8577 9.93747 13.5813 10.6048C13.3049 11.272 12.8998 11.8784 12.3891 12.3891C11.8784 12.8998 11.272 13.3049 10.6048 13.5813C9.93747 13.8577 9.22227 14 8.5 14C7.77773 14 7.06253 13.8577 6.39524 13.5813C5.72795 13.3049 5.12163 12.8998 4.61091 12.3891C4.10019 11.8784 3.69506 11.272 3.41866 10.6048C3.14226 9.93747 3 9.22227 3 8.5C3 7.77773 3.14226 7.06253 3.41866 6.39524C3.69506 5.72795 4.10019 5.12163 4.61091 4.61091C5.12163 4.10019 5.72795 3.69506 6.39524 3.41866C7.06253 3.14226 7.77773 3 8.5 3ZM8.5 15C10.1156 15 11.5937 14.4125 12.7281 13.4375L17.1469 17.8531C17.3406 18.0469 17.6594 18.0469 17.8531 17.8531C18.0469 17.6594 18.0469 17.3406 17.8531 17.1469L13.4375 12.7281C14.4125 11.5906 15 10.1125 15 8.5C15 4.90937 12.0906 2 8.5 2C4.90937 2 2 4.90937 2 8.5C2 12.0906 4.90937 15 8.5 15ZM6 9V11C6 11.275 6.225 11.5 6.5 11.5C6.775 11.5 7 11.275 7 11V9C7 8.725 6.775 8.5 6.5 8.5C6.225 8.5 6 8.725 6 9ZM8 6V11C8 11.275 8.225 11.5 8.5 11.5C8.775 11.5 9 11.275 9 11V6C9 5.725 8.775 5.5 8.5 5.5C8.225 5.5 8 5.725 8 6ZM10 8V11C10 11.275 10.225 11.5 10.5 11.5C10.775 11.5 11 11.275 11 11V8C11 7.725 10.775 7.5 10.5 7.5C10.225 7.5 10 7.725 10 8Z"></path>
</svg>