<svg viewBox="0 0 20 20" xmlns="http://www.w3.org/2000/svg">
<path d="M3 3.5C3 3.225 2.775 3 2.5 3C2.225 3 2 3.225 2 3.5V14.5C2 15.8813 3.11875 17 4.5 17H17.5C17.775 17 18 16.775 18 16.5C18 16.225 17.775 16 17.5 16H4.5C3.67188 16 3 15.3281 3 14.5V3.5ZM16.8531 6.85313C17.0469 6.65938 17.0469 6.34062 16.8531 6.14687C16.6594 5.95312 16.3406 5.95312 16.1469 6.14687L12 10.2937L9.35313 7.64687C9.15938 7.45312 8.84062 7.45312 8.64687 7.64687L5.14687 11.1469C4.95312 11.3406 4.95312 11.6594 5.14687 11.8531C5.34062 12.0469 5.65938 12.0469 5.85313 11.8531L9 8.70625L11.6469 11.3531C11.8406 11.5469 12.1594 11.5469 12.3531 11.3531L16.8531 6.85313Z"></path>
</svg>