<svg viewBox="0 0 20 20" xmlns="http://www.w3.org/2000/svg" fill="currentColor">
<path opacity="0.4" d="M10.0524 9.77044L8.75033 9.77044L8.75033 11.0635L10.0524 11.0635L10.0524 15.1584C10.0524 15.2769 9.93522 15.3739 9.79199 15.3739L8.75033 15.3739L8.75033 16.667L9.79199 16.667C10.7979 16.667 11.6149 15.9908 11.6149 15.1584L11.6149 11.0635L12.917 11.0635L12.917 9.77044L11.6149 9.77044L11.6149 5.67561C11.6149 4.84318 10.7979 4.16699 9.79199 4.16699L8.75033 4.16699L8.75033 5.4601L9.79199 5.4601C9.93522 5.4601 10.0524 5.55708 10.0524 5.67561L10.0524 9.77044Z"></path>
<path d="M15.417 7.71759C16.1071 7.71759 16.667 8.30859 16.667 9.03704L16.667 10.7963C16.667 11.5247 16.1071 12.1157 15.417 12.1157L13.7503 12.1157C13.0602 12.1157 12.5003 11.5247 12.5003 10.7963L12.5003 9.03704C12.5003 8.30859 13.0602 7.71759 13.7503 7.71759L15.417 7.71759ZM9.16699 3.31944L9.16699 5.0787C9.16699 5.80715 8.6071 6.39815 7.91699 6.39815L6.25033 6.39815C5.56022 6.39815 5.00033 5.80715 5.00033 5.0787L5.00033 3.31944C5.00033 2.591 5.56022 2 6.25033 2L7.91699 2C8.6071 2 9.16699 2.591 9.16699 3.31944ZM9.16699 9.03704L9.16699 10.7963C9.16699 11.5247 8.6071 12.1157 7.91699 12.1157L6.25033 12.1157C5.56022 12.1157 5.00033 11.5247 5.00033 10.7963L5.00033 9.03704C5.00033 8.30859 5.56022 7.71759 6.25033 7.71759L7.91699 7.71759C8.6071 7.71759 9.16699 8.30859 9.16699 9.03704ZM9.16699 14.7546L9.16699 16.5139C9.16699 17.2423 8.6071 17.8333 7.91699 17.8333L6.25033 17.8333C5.56022 17.8333 5.00033 17.2423 5.00033 16.5139L5.00033 14.7546C5.00033 14.0262 5.56022 13.4352 6.25033 13.4352L7.91699 13.4352C8.6071 13.4352 9.16699 14.0262 9.16699 14.7546Z"></path>
</svg>