<svg viewBox="0 0 20 20" xmlns="http://www.w3.org/2000/svg" fill="currentColor">
<path d="M10.5 4C10.775 4 11 4.225 11 4.5V15.5C11 15.775 10.775 16 10.5 16H9.5C9.225 16 9 15.775 9 15.5V4.5C9 4.225 9.225 4 9.5 4H10.5ZM9.5 3C8.67188 3 8 3.67188 8 4.5V15.5C8 16.3281 8.67188 17 9.5 17H10.5C11.3281 17 12 16.3281 12 15.5V4.5C12 3.67188 11.3281 3 10.5 3H9.5ZM5.5 10C5.775 10 6 10.225 6 10.5V15.5C6 15.775 5.775 16 5.5 16H4.5C4.225 16 4 15.775 4 15.5V10.5C4 10.225 4.225 10 4.5 10H5.5ZM4.5 9C3.67188 9 3 9.67188 3 10.5V15.5C3 16.3281 3.67188 17 4.5 17H5.5C6.32812 17 7 16.3281 7 15.5V10.5C7 9.67188 6.32812 9 5.5 9H4.5ZM14.5 6H15.5C15.775 6 16 6.225 16 6.5V15.5C16 15.775 15.775 16 15.5 16H14.5C14.225 16 14 15.775 14 15.5V6.5C14 6.225 14.225 6 14.5 6ZM13 6.5V15.5C13 16.3281 13.6719 17 14.5 17H15.5C16.3281 17 17 16.3281 17 15.5V6.5C17 5.67188 16.3281 5 15.5 5H14.5C13.6719 5 13 5.67188 13 6.5Z"></path>
</svg>