<svg viewBox="0 0 20 20" xmlns="http://www.w3.org/2000/svg" fill="currentColor">
<path d="M10.3319 2.1252C10.1444 1.95957 9.86002 1.95957 9.66939 2.1252L1.16939 9.6252C0.963141 9.80645 0.941266 10.1252 1.12564 10.3314C1.31002 10.5377 1.62564 10.5596 1.83189 10.3752L3.00064 9.34395V15.5002C3.00064 16.8814 4.11939 18.0002 5.50064 18.0002H14.5006C15.8819 18.0002 17.0006 16.8814 17.0006 15.5002V9.34395L18.1694 10.3752C18.3756 10.5564 18.6913 10.5377 18.8756 10.3314C19.06 10.1252 19.0381 9.80957 18.8319 9.6252L10.3319 2.1252ZM4.00064 15.5002V8.45957L10.0006 3.16582L16.0006 8.45957V15.5002C16.0006 16.3283 15.3288 17.0002 14.5006 17.0002H12.5006V12.0002C12.5006 11.4471 12.0538 11.0002 11.5006 11.0002H8.50064C7.94752 11.0002 7.50064 11.4471 7.50064 12.0002V17.0002H5.50064C4.67252 17.0002 4.00064 16.3283 4.00064 15.5002ZM8.50064 17.0002V12.0002H11.5006V17.0002H8.50064Z"></path>
</svg>