<svg viewBox="0 0 20 20" xmlns="http://www.w3.org/2000/svg" fill="currentColor">
<path d="M16 11C16 11.275 15.775 11.5 15.5 11.5H13.5C13.225 11.5 13 11.275 13 11V9C13 8.725 13.225 8.5 13.5 8.5H15.5C15.775 8.5 16 8.725 16 9V11ZM12 9V9.5H10.5V4.5C10.5 3.67188 9.82813 3 9 3H8V2.5C8 1.67188 7.32813 1 6.5 1H4.5C3.67188 1 3 1.67188 3 2.5V4.5C3 5.32813 3.67188 6 4.5 6H6.5C7.32813 6 8 5.32813 8 4.5V4H9C9.275 4 9.5 4.225 9.5 4.5V9.5H8V9C8 8.17188 7.32813 7.5 6.5 7.5H4.5C3.67188 7.5 3 8.17188 3 9V11C3 11.8281 3.67188 12.5 4.5 12.5H6.5C7.32813 12.5 8 11.8281 8 11V10.5H9.5V15.5C9.5 15.775 9.275 16 9 16H8V15.5C8 14.6719 7.32813 14 6.5 14H4.5C3.67188 14 3 14.6719 3 15.5V17.5C3 18.3281 3.67188 19 4.5 19H6.5C7.32813 19 8 18.3281 8 17.5V17H9C9.82813 17 10.5 16.3281 10.5 15.5V10.5H12V11C12 11.8281 12.6719 12.5 13.5 12.5H15.5C16.3281 12.5 17 11.8281 17 11V9C17 8.17188 16.3281 7.5 15.5 7.5H13.5C12.6719 7.5 12 8.17188 12 9ZM7 2.5V4.5C7 4.775 6.775 5 6.5 5H4.5C4.225 5 4 4.775 4 4.5V2.5C4 2.225 4.225 2 4.5 2H6.5C6.775 2 7 2.225 7 2.5ZM7 9V11C7 11.275 6.775 11.5 6.5 11.5H4.5C4.225 11.5 4 11.275 4 11V9C4 8.725 4.225 8.5 4.5 8.5H6.5C6.775 8.5 7 8.725 7 9ZM7 15.5V17.5C7 17.775 6.775 18 6.5 18H4.5C4.225 18 4 17.775 4 17.5V15.5C4 15.225 4.225 15 4.5 15H6.5C6.775 15 7 15.225 7 15.5Z"></path>
</svg>