<svg viewBox="0 0 20 20" xmlns="http://www.w3.org/2000/svg" fill="currentColor">
<g clip-path="url(#clip0_2158_111)">
<path opacity="0.4" d="M10.5235 0.113281C10.3594 0.0390625 10.1836 0 10 0C9.81642 0 9.64064 0.0390625 9.47658 0.113281L2.12111 3.23438C1.26174 3.59766 0.621112 4.44531 0.625018 5.46875C0.644549 9.34375 2.2383 16.4336 8.96877 19.6562C9.62111 19.9688 10.3789 19.9688 11.0313 19.6562C17.7617 16.4336 19.3555 9.34375 19.375 5.46875C19.3789 4.44531 18.7383 3.59766 17.8789 3.23438L10.5235 0.113281ZM12.1875 8.125C12.1875 8.99609 11.6758 9.75 10.9375 10.1016V12.8125C10.9375 13.332 10.5195 13.75 10 13.75C9.48049 13.75 9.06252 13.332 9.06252 12.8125V10.1016C8.32424 9.75 7.81252 8.99609 7.81252 8.125C7.81252 6.91797 8.79299 5.9375 10 5.9375C11.207 5.9375 12.1875 6.91797 12.1875 8.125Z"></path>
<path d="M10.9375 10.1016C11.6758 9.75 12.1875 8.99609 12.1875 8.125C12.1875 6.91797 11.207 5.9375 10 5.9375C8.79297 5.9375 7.8125 6.91797 7.8125 8.125C7.8125 8.99609 8.32422 9.75 9.0625 10.1016V12.8125C9.0625 13.332 9.48047 13.75 10 13.75C10.5195 13.75 10.9375 13.332 10.9375 12.8125V10.1016Z"></path>
</g>
<defs>
<clipPath id="clip0_2158_111">
<rect width="20" height="20" fill="white"></rect>
</clipPath>
</defs>
</svg>