<svg viewBox="0 0 20 20" xmlns="http://www.w3.org/2000/svg" fill="currentColor">
<g id="square-user">
<path id="Vector" d="M15 4C15.5531 4 16 4.44687 16 5V15C16 15.5531 15.5531 16 15 16C15 13.7906 13.2094 12 11 12H9C6.79063 12 5 13.7906 5 16C4.44687 16 4 15.5531 4 15V5C4 4.44687 4.44687 4 5 4H15ZM14 16H6C6 14.3438 7.34375 13 9 13H11C12.6562 13 14 14.3438 14 16ZM5 3C3.89688 3 3 3.89688 3 5V15C3 16.1031 3.89688 17 5 17H15C16.1031 17 17 16.1031 17 15V5C17 3.89688 16.1031 3 15 3H5ZM10 10C9.60218 10 9.22064 9.84196 8.93934 9.56066C8.65804 9.27936 8.5 8.89782 8.5 8.5C8.5 8.10218 8.65804 7.72064 8.93934 7.43934C9.22064 7.15804 9.60218 7 10 7C10.3978 7 10.7794 7.15804 11.0607 7.43934C11.342 7.72064 11.5 8.10218 11.5 8.5C11.5 8.89782 11.342 9.27936 11.0607 9.56066C10.7794 9.84196 10.3978 10 10 10ZM7.5 8.5C7.5 9.16304 7.76339 9.79893 8.23223 10.2678C8.70107 10.7366 9.33696 11 10 11C10.663 11 11.2989 10.7366 11.7678 10.2678C12.2366 9.79893 12.5 9.16304 12.5 8.5C12.5 7.83696 12.2366 7.20107 11.7678 6.73223C11.2989 6.26339 10.663 6 10 6C9.33696 6 8.70107 6.26339 8.23223 6.73223C7.76339 7.20107 7.5 7.83696 7.5 8.5Z"></path>
</g>
</svg>