<svg width="20" height="20" viewBox="0 0 20 20" fill="none" xmlns="http://www.w3.org/2000/svg">
    <path d="M15.5 3C15.775 3 16 3.225 16 3.5V5H17.5C17.775 5 18 5.225 18 5.5C18 5.775 17.775 6 17.5 6H16V7.5C16 7.775 15.775 8 15.5 8C15.225 8 15 7.775 15 7.5V6H13.5C13.225 6 13 5.775 13 5.5C13 5.225 13.225 5 13.5 5H15V3.5C15 3.225 15.225 3 15.5 3ZM15.5 12C15.775 12 16 12.225 16 12.5V14H17.5C17.775 14 18 14.225 18 14.5C18 14.775 17.775 15 17.5 15H16V16.5C16 16.775 15.775 17 15.5 17C15.225 17 15 16.775 15 16.5V15H13.5C13.225 15 13 14.775 13 14.5C13 14.225 13.225 14 13.5 14H15V12.5C15 12.225 15.225 12 15.5 12ZM6.275 8.7625L3.69375 9.95625L6.275 11.1469C6.49062 11.2469 6.6625 11.4187 6.7625 11.6344L7.95312 14.2156L9.14375 11.6344C9.24375 11.4187 9.41563 11.2469 9.63125 11.1469L12.2125 9.95625L9.63125 8.76562C9.41563 8.66563 9.24375 8.49375 9.14375 8.27812L7.95312 5.69688L6.7625 8.27812C6.6625 8.49375 6.49062 8.66563 6.275 8.76562V8.7625ZM5.85625 12.0562L2.29063 10.4094C2.1125 10.3281 2 10.15 2 9.95625C2 9.7625 2.1125 9.58438 2.29063 9.50313L5.85625 7.85625L7.5 4.29063C7.58125 4.1125 7.75938 4 7.95312 4C8.14687 4 8.325 4.1125 8.40625 4.29063L10.0531 7.85625L13.6187 9.5C13.7969 9.58125 13.9094 9.75938 13.9094 9.95312C13.9094 10.1469 13.7969 10.325 13.6187 10.4062L10.0562 12.0562L8.40938 15.6187C8.32812 15.7969 8.15 15.9094 7.95625 15.9094C7.7625 15.9094 7.58438 15.7969 7.50313 15.6187L5.85625 12.0562Z"
          fill="currentColor"/>
</svg>