<svg viewBox="0 0 20 20" xmlns="http://www.w3.org/2000/svg" fill="currentColor">
<path d="M16 16C16 16.5531 15.5531 17 15 17H7C6.44687 17 6 16.5531 6 16V14H5V16C5 17.1031 5.89688 18 7 18H15C16.1031 18 17 17.1031 17 16V7.12187C17 6.725 16.8406 6.34375 16.5594 6.0625L12.9406 2.44063C12.6594 2.15938 12.2781 2 11.8813 2H7C5.89688 2 5 2.89688 5 4V11H6V4C6 3.44687 6.44687 3 7 3H11V6.5C11 7.32812 11.6719 8 12.5 8H16V16ZM15.9844 7H12.5C12.225 7 12 6.775 12 6.5V3.01562C12.0875 3.0375 12.1687 3.08125 12.2312 3.14688L15.8531 6.76875C15.9187 6.83438 15.9625 6.9125 15.9844 7ZM11.4469 10.275C11.3625 10.1062 11.1875 10 11 10C10.8125 10 10.6375 10.1062 10.5531 10.275L8.91563 13.5531L7.9 12.2C7.80625 12.075 7.65625 12 7.5 12H3.5C3.225 12 3 12.225 3 12.5C3 12.775 3.225 13 3.5 13H7.25L8.6 14.8C8.70312 14.9375 8.87187 15.0125 9.04375 14.9969C9.21562 14.9812 9.36875 14.8781 9.44688 14.7219L11 11.6187L11.5531 12.725C11.6375 12.8938 11.8125 13 12 13H14C14.275 13 14.5 12.775 14.5 12.5C14.5 12.225 14.275 12 14 12H12.3094L11.4469 10.275Z"></path>
</svg>