<svg viewBox="0 0 20 20" xmlns="http://www.w3.org/2000/svg" fill="currentColor">
<path opacity="0.4" d="M2.22222 2C0.996528 2 0 2.99653 0 4.22222V15.3333C0 16.559 0.996528 17.5556 2.22222 17.5556H17.7778C19.0035 17.5556 20 16.559 20 15.3333V4.22222C20 2.99653 19.0035 2 17.7778 2H2.22222ZM5 10.8889H7.22222C8.75694 10.8889 10 12.1319 10 13.6667C10 13.9722 9.75 14.2222 9.44444 14.2222H2.77778C2.47222 14.2222 2.22222 13.9722 2.22222 13.6667C2.22222 12.1319 3.46528 10.8889 5 10.8889ZM3.88889 7.55556C3.88889 6.96619 4.12302 6.40095 4.53976 5.98421C4.95651 5.56746 5.52174 5.33333 6.11111 5.33333C6.70048 5.33333 7.26571 5.56746 7.68246 5.98421C8.09921 6.40095 8.33333 6.96619 8.33333 7.55556C8.33333 8.14493 8.09921 8.71016 7.68246 9.1269C7.26571 9.54365 6.70048 9.77778 6.11111 9.77778C5.52174 9.77778 4.95651 9.54365 4.53976 9.1269C4.12302 8.71016 3.88889 8.14493 3.88889 7.55556ZM12.7778 6.44444H17.2222C17.5278 6.44444 17.7778 6.69444 17.7778 7C17.7778 7.30556 17.5278 7.55556 17.2222 7.55556H12.7778C12.4722 7.55556 12.2222 7.30556 12.2222 7C12.2222 6.69444 12.4722 6.44444 12.7778 6.44444ZM12.7778 8.66667H17.2222C17.5278 8.66667 17.7778 8.91667 17.7778 9.22222C17.7778 9.52778 17.5278 9.77778 17.2222 9.77778H12.7778C12.4722 9.77778 12.2222 9.52778 12.2222 9.22222C12.2222 8.91667 12.4722 8.66667 12.7778 8.66667ZM12.7778 10.8889H17.2222C17.5278 10.8889 17.7778 11.1389 17.7778 11.4444C17.7778 11.75 17.5278 12 17.2222 12H12.7778C12.4722 12 12.2222 11.75 12.2222 11.4444C12.2222 11.1389 12.4722 10.8889 12.7778 10.8889Z"></path>
<path d="M6.11154 9.77745C6.70091 9.77745 7.26615 9.54333 7.68289 9.12658C8.09964 8.70983 8.33377 8.1446 8.33377 7.55523C8.33377 6.96586 8.09964 6.40063 7.68289 5.98388C7.26615 5.56713 6.70091 5.33301 6.11154 5.33301C5.52217 5.33301 4.95694 5.56713 4.5402 5.98388C4.12345 6.40063 3.88932 6.96586 3.88932 7.55523C3.88932 8.1446 4.12345 8.70983 4.5402 9.12658C4.95694 9.54333 5.52217 9.77745 6.11154 9.77745ZM5.00043 10.8886C3.46571 10.8886 2.22266 12.1316 2.22266 13.6663C2.22266 13.9719 2.47266 14.2219 2.77821 14.2219H9.44488C9.75043 14.2219 10.0004 13.9719 10.0004 13.6663C10.0004 12.1316 8.75738 10.8886 7.22266 10.8886H5.00043Z"></path>
</svg>