<svg viewBox="0 0 20 20" xmlns="http://www.w3.org/2000/svg">
<path d="M14.6469 3.14629C14.8406 2.95254 15.1594 2.95254 15.3531 3.14629L17.8531 5.64629C18.0469 5.84004 18.0469 6.15879 17.8531 6.35254L15.3531 8.85254C15.1594 9.04629 14.8406 9.04629 14.6469 8.85254C14.4531 8.65879 14.4531 8.34004 14.6469 8.14629L16.2937 6.49941H14.5H12.6219C12.3562 6.49941 12.1031 6.60566 11.9156 6.79316L8.70625 9.99941L11.9156 13.2057C12.1031 13.3932 12.3562 13.4994 12.6219 13.4994H14.5H16.2937L14.6469 11.8525C14.4531 11.6588 14.4531 11.34 14.6469 11.1463C14.8406 10.9525 15.1594 10.9525 15.3531 11.1463L17.8531 13.6463C18.0469 13.84 18.0469 14.1588 17.8531 14.3525L15.3531 16.8525C15.1594 17.0463 14.8406 17.0463 14.6469 16.8525C14.4531 16.6588 14.4531 16.34 14.6469 16.1463L16.2937 14.4994H14.5H12.6219C12.0906 14.4994 11.5812 14.29 11.2062 13.915L7.94062 10.6463C7.84687 10.5525 7.71875 10.4994 7.5875 10.4994H3.5H2.5C2.225 10.4994 2 10.2744 2 9.99941C2 9.72441 2.225 9.49941 2.5 9.49941H3.5H7.58437C7.71562 9.49941 7.84375 9.44629 7.9375 9.35254L11.2062 6.08379C11.5812 5.70879 12.0906 5.49941 12.6219 5.49941H14.5H16.2937L14.6469 3.85254C14.4531 3.65879 14.4531 3.34004 14.6469 3.14629Z"></path>
</svg>