<svg viewBox="0 0 20 20" xmlns="http://www.w3.org/2000/svg" fill="currentColor">
<path opacity="0.4" d="M12.2344 4.6625L14 4L14.6625 2.23438C14.7156 2.09375 14.85 2 15 2C15.15 2 15.2844 2.09375 15.3375 2.23438L16 4L17.7656 4.6625C17.9062 4.71562 18 4.85 18 5C18 5.15 17.9062 5.28438 17.7656 5.3375L16 6L15.3375 7.76562C15.2844 7.90625 15.15 8 15 8C14.85 8 14.7156 7.90625 14.6625 7.76562L14 6L12.2344 5.3375C12.0938 5.28438 12 5.15 12 5C12 4.85 12.0938 4.71562 12.2344 4.6625ZM12.2344 14.6625L14 14L14.6625 12.2344C14.7156 12.0938 14.85 12 15 12C15.15 12 15.2844 12.0938 15.3375 12.2344L16 14L17.7656 14.6625C17.9062 14.7156 18 14.85 18 15C18 15.15 17.9062 15.2844 17.7656 15.3375L16 16L15.3375 17.7656C15.2844 17.9062 15.15 18 15 18C14.85 18 14.7156 17.9062 14.6625 17.7656L14 16L12.2344 15.3375C12.0938 15.2844 12 15.15 12 15C12 14.85 12.0938 14.7156 12.2344 14.6625Z"></path>
<path d="M8.40938 4.29063C8.32812 4.1125 8.15 4 7.95625 4C7.7625 4 7.58438 4.1125 7.50313 4.29063L5.85625 7.85625L2.29063 9.5C2.1125 9.58125 2 9.75938 2 9.95625C2 10.1531 2.1125 10.3281 2.29063 10.4094L5.85625 12.0562L7.5 15.6187C7.58125 15.7969 7.75938 15.9094 7.95312 15.9094C8.14687 15.9094 8.325 15.7969 8.40625 15.6187L10.0531 12.0531L13.6187 10.4062C13.7969 10.325 13.9094 10.1469 13.9094 9.95312C13.9094 9.75938 13.7969 9.58125 13.6187 9.5L10.0562 7.85625L8.40938 4.29063Z"></path>
</svg>