<svg viewBox="0 0 20 20" xmlns="http://www.w3.org/2000/svg" fill="currentColor">
<path d="M5.875 3C7.26875 3 8.67812 3.26875 10 3.70625C11.3219 3.26875 12.7312 3 14.125 3C15.8562 3 17.475 3.45625 18.1531 3.675C18.6781 3.84375 19 4.32812 19 4.84687V14.5781C19 15.4187 18.2156 15.9781 17.4688 15.8469C16.8906 15.7469 15.8656 15.6219 14.375 15.6219C12.5344 15.6219 11.3187 16.3812 10.9 16.6875C10.6656 16.8594 10.3625 16.9875 10.0188 16.9969C10.0125 16.9969 10.0031 16.9969 9.99687 16.9969C9.99375 16.9969 9.99375 16.9969 9.99063 16.9969C9.9875 16.9969 9.98438 16.9969 9.98125 16.9969C9.6625 16.9969 9.36875 16.8906 9.1375 16.7344C8.67188 16.4219 7.3125 15.625 5.625 15.625C4.2125 15.625 3.12188 15.7625 2.5 15.8656C1.75 15.9906 1 15.425 1 14.6094V4.84687C1 4.32812 1.32188 3.84375 1.84688 3.675C2.525 3.45625 4.14375 3 5.875 3ZM10.5 15.75C11.1344 15.3281 12.4719 14.625 14.375 14.625C15.9219 14.625 17.0031 14.7562 17.6375 14.8625C17.7156 14.875 17.8156 14.8531 17.8937 14.7906C17.9625 14.7344 18 14.6656 18 14.5781V4.84687C18 4.7375 17.9344 4.65625 17.8469 4.62812C17.2062 4.42187 15.7031 4 14.125 4C12.9187 4 11.6844 4.22187 10.5 4.59375V15.75ZM9.5 4.59375C8.31563 4.21875 7.08125 4 5.875 4C4.29688 4 2.79375 4.42187 2.15313 4.625C2.06563 4.65312 2 4.7375 2 4.84375V14.6094C2 14.6937 2.03437 14.7625 2.09687 14.8125C2.16562 14.8687 2.25625 14.8906 2.33438 14.8781C3 14.7656 4.14687 14.6219 5.625 14.6219C7.4 14.6219 8.8375 15.3625 9.5 15.775V4.59375Z"></path>
</svg>