<svg viewBox="0 0 20 20" xmlns="http://www.w3.org/2000/svg">
<path d="M17 7C17 6.66563 16.9594 6.34062 16.8813 6.03125L15.3531 7.55937C15.0719 7.84062 14.6906 8 14.2937 8H13.5C12.6719 8 12 7.32812 12 6.5V5.70625C12 5.30938 12.1594 4.92812 12.4406 4.64687L13.9688 3.11875C13.6594 3.04062 13.3344 3 13 3C10.7906 3 9 4.79063 9 7C9 7.2875 9.03125 7.56562 9.0875 7.83437C9.1875 8.30937 9.06875 8.84688 8.67812 9.2375L3.43125 14.4812C3.15625 14.7594 3 15.1344 3 15.525C3 16.3406 3.65937 17 4.475 17C4.86562 17 5.24062 16.8438 5.51875 16.5688L10.7656 11.3219C11.1531 10.9344 11.6937 10.8125 12.1687 10.9125C12.4375 10.9688 12.7156 11 13.0031 11C15.2125 11 17.0031 9.20937 17.0031 7H17ZM18 7C18 9.7625 15.7625 12 13 12C12.6438 12 12.2938 11.9625 11.9594 11.8906C11.7844 11.8531 11.6 11.9 11.4719 12.0281L6.225 17.275C5.75937 17.7406 5.13125 18 4.475 18C3.10937 18 2 16.8906 2 15.525C2 14.8687 2.25938 14.2406 2.725 13.775L7.97188 8.52812C8.1 8.4 8.14687 8.21563 8.10938 8.04063C8.0375 7.70625 8 7.35625 8 7C8 4.2375 10.2375 2 13 2C13.775 2 14.5094 2.17812 15.1656 2.49062C15.4531 2.62813 15.4938 3.00625 15.2688 3.23125L13.1469 5.35313C13.0531 5.44688 13 5.575 13 5.70625V6.5C13 6.775 13.225 7 13.5 7H14.2937C14.425 7 14.5531 6.94688 14.6469 6.85313L16.7688 4.73125C16.9938 4.50625 17.3719 4.54688 17.5094 4.83437C17.825 5.49062 18 6.225 18 7ZM4.75 14.75C4.88261 14.75 5.00979 14.8027 5.10355 14.8964C5.19732 14.9902 5.25 15.1174 5.25 15.25C5.25 15.3826 5.19732 15.5098 5.10355 15.6036C5.00979 15.6973 4.88261 15.75 4.75 15.75C4.61739 15.75 4.49021 15.6973 4.39645 15.6036C4.30268 15.5098 4.25 15.3826 4.25 15.25C4.25 15.1174 4.30268 14.9902 4.39645 14.8964C4.49021 14.8027 4.61739 14.75 4.75 14.75Z"></path>
</svg>