<svg viewBox="0 0 20 20" xmlns="http://www.w3.org/2000/svg" fill="currentColor">
<g clip-path="url(#clip0_2946_241)">
<path opacity="0.4" d="M10 20C12.6522 20 15.1957 18.9464 17.0711 17.0711C18.9464 15.1957 20 12.6522 20 10C20 7.34784 18.9464 4.8043 17.0711 2.92893C15.1957 1.05357 12.6522 0 10 0C7.34784 0 4.8043 1.05357 2.92893 2.92893C1.05357 4.8043 0 7.34784 0 10C0 12.6522 1.05357 15.1957 2.92893 17.0711C4.8043 18.9464 7.34784 20 10 20ZM6.34375 14.8672C5.58594 15.1602 4.83984 14.4141 5.13281 13.6563L7.30078 8.01953C7.42969 7.6875 7.6875 7.42969 8.01953 7.30078L13.6563 5.13281C14.4141 4.83984 15.1602 5.58594 14.8672 6.34375L12.6992 11.9805C12.5742 12.3125 12.3125 12.5703 11.9805 12.6992L6.34375 14.8672Z"></path>
<path d="M6.3435 14.8669L11.9802 12.699C12.3123 12.5701 12.5701 12.3123 12.699 11.9802L14.8669 6.3435C15.1599 5.58569 14.4138 4.8396 13.656 5.13257L8.01928 7.30053C7.68725 7.42944 7.42944 7.68725 7.30053 8.01928L5.13257 13.656C4.8396 14.4138 5.58569 15.1599 6.3435 14.8669ZM9.99975 8.74975C10.3313 8.74975 10.6492 8.88145 10.8836 9.11587C11.1181 9.35029 11.2498 9.66823 11.2498 9.99975C11.2498 10.3313 11.1181 10.6492 10.8836 10.8836C10.6492 11.1181 10.3313 11.2498 9.99975 11.2498C9.66823 11.2498 9.35029 11.1181 9.11587 10.8836C8.88145 10.6492 8.74975 10.3313 8.74975 9.99975C8.74975 9.66823 8.88145 9.35029 9.11587 9.11587C9.35029 8.88145 9.66823 8.74975 9.99975 8.74975Z"></path>
</g>
<defs>
<clipPath id="clip0_2946_241">
<rect width="20" height="20" fill="white"></rect>
</clipPath>
</defs>
</svg>