<svg viewBox="0 0 20 20" xmlns="http://www.w3.org/2000/svg" fill="currentColor">
<path d="M4 6C4 5.60603 4.0776 5.21593 4.22836 4.85195C4.37913 4.48797 4.6001 4.15726 4.87868 3.87868C5.15726 3.6001 5.48797 3.37913 5.85195 3.22836C6.21593 3.0776 6.60603 3 7 3C7.39397 3 7.78407 3.0776 8.14805 3.22836C8.51203 3.37913 8.84274 3.6001 9.12132 3.87868C9.3999 4.15726 9.62087 4.48797 9.77164 4.85195C9.9224 5.21593 10 5.60603 10 6C10 6.39397 9.9224 6.78407 9.77164 7.14805C9.62087 7.51203 9.3999 7.84274 9.12132 8.12132C8.84274 8.3999 8.51203 8.62087 8.14805 8.77164C7.78407 8.9224 7.39397 9 7 9C6.60603 9 6.21593 8.9224 5.85195 8.77164C5.48797 8.62087 5.15726 8.3999 4.87868 8.12132C4.6001 7.84274 4.37913 7.51203 4.22836 7.14805C4.0776 6.78407 4 6.39397 4 6ZM11 6C11 4.93913 10.5786 3.92172 9.82843 3.17157C9.07828 2.42143 8.06087 2 7 2C5.93913 2 4.92172 2.42143 4.17157 3.17157C3.42143 3.92172 3 4.93913 3 6C3 7.06087 3.42143 8.07828 4.17157 8.82843C4.92172 9.57857 5.93913 10 7 10C8.06087 10 9.07828 9.57857 9.82843 8.82843C10.5786 8.07828 11 7.06087 11 6ZM1 17C1.0375 14.5094 3.06875 12.5 5.57188 12.5H8.42813C8.93125 12.5 9.41875 12.5813 9.87187 12.7312C9.60938 12.4344 9.45937 12.0312 9.50937 11.6031C9.15937 11.5344 8.8 11.5 8.43125 11.5H5.57188C2.49375 11.5 0 13.9937 0 17.0719C0 17.5844 0.415625 18 0.928125 18H12.8719C12.7125 17.7563 12.625 17.4656 12.625 17.1781V17.15C12.1219 17.4281 11.4563 17.4094 10.9688 17H1ZM11.6719 14.3156C12.0719 13.9594 12.25 13.45 12.25 12.9906C12.25 12.5312 12.0719 12.0219 11.6719 11.6656L12.2094 10.7125C12.7063 10.9094 13.2406 10.8281 13.6469 10.5969C14.0406 10.3719 14.3844 9.96875 14.4781 9.45H15.5312C15.625 9.96875 15.9656 10.3719 16.3594 10.5969C16.7625 10.8281 17.2969 10.9062 17.7938 10.7094L18.3312 11.6625C17.9281 12.0219 17.75 12.5312 17.75 12.9906C17.75 13.45 17.9281 13.9594 18.3281 14.3156L17.7906 15.2688C17.2937 15.0719 16.7625 15.1531 16.3563 15.3813C15.9625 15.6063 15.6219 16.0125 15.5281 16.5281H14.4781C14.3812 16.0094 14.0406 15.6063 13.6469 15.3813C13.2406 15.15 12.7094 15.0719 12.2094 15.2656L11.6719 14.3125V14.3156ZM12.4875 16.2437C12.6906 16.1219 12.9437 16.1375 13.15 16.2531C13.3562 16.3719 13.5031 16.5844 13.5031 16.8219V16.8656C13.5031 17.2313 13.8 17.5312 14.1687 17.5312H15.8375C16.2062 17.5312 16.5063 17.2312 16.5063 16.8625V16.8125C16.5063 16.5781 16.65 16.3687 16.8531 16.25C17.0562 16.1344 17.3062 16.1188 17.5094 16.2406L17.5656 16.2719C17.9 16.4688 18.3281 16.3531 18.5187 16.0156L19.3438 14.5531C19.5219 14.2344 19.4156 13.8313 19.1 13.6469C18.8719 13.5125 18.75 13.2531 18.75 12.9906C18.75 12.7281 18.8719 12.4688 19.1 12.3344C19.4125 12.15 19.5219 11.7469 19.3438 11.4281L18.5187 9.9625C18.3281 9.625 17.8969 9.50938 17.5656 9.70625L17.5094 9.7375C17.3062 9.85625 17.0562 9.84375 16.8531 9.72813C16.65 9.6125 16.5063 9.40313 16.5063 9.16563V9.11562C16.5063 8.74687 16.2062 8.44688 15.8375 8.44688H14.1687C13.8031 8.44688 13.5031 8.74375 13.5031 9.1125V9.15625C13.5031 9.39375 13.3594 9.60625 13.15 9.725C12.9437 9.84062 12.6906 9.85625 12.4875 9.73438L12.4375 9.70312C12.1031 9.50625 11.675 9.62187 11.4844 9.95937L10.6562 11.4281C10.4781 11.7469 10.5844 12.15 10.9 12.3344C11.1281 12.4688 11.25 12.7281 11.25 12.9906C11.25 13.2531 11.1281 13.5125 10.9 13.6469C10.5875 13.8313 10.4781 14.2344 10.6562 14.5531L11.4812 16.0188C11.6719 16.3562 12.1031 16.4719 12.4344 16.275L12.4844 16.2437H12.4875ZM15.0031 14.7406C15.4673 14.7406 15.9124 14.5563 16.2406 14.2281C16.5688 13.8999 16.7531 13.4548 16.7531 12.9906C16.7531 12.5265 16.5688 12.0814 16.2406 11.7532C15.9124 11.425 15.4673 11.2406 15.0031 11.2406C14.539 11.2406 14.0939 11.425 13.7657 11.7532C13.4375 12.0814 13.2531 12.5265 13.2531 12.9906C13.2531 13.4548 13.4375 13.8999 13.7657 14.2281C14.0939 14.5563 14.539 14.7406 15.0031 14.7406ZM15.0031 12.2406C15.202 12.2406 15.3928 12.3196 15.5335 12.4603C15.6741 12.6009 15.7531 12.7917 15.7531 12.9906C15.7531 13.1895 15.6741 13.3803 15.5335 13.521C15.3928 13.6616 15.202 13.7406 15.0031 13.7406C14.8042 13.7406 14.6134 13.6616 14.4728 13.521C14.3321 13.3803 14.2531 13.1895 14.2531 12.9906C14.2531 12.7917 14.3321 12.6009 14.4728 12.4603C14.6134 12.3196 14.8042 12.2406 15.0031 12.2406Z"></path>
</svg>