<svg viewBox="0 0 20 20" xmlns="http://www.w3.org/2000/svg" fill="currentColor">
<path d="M3 10C3 6.13438 6.13438 3 10 3C12.1969 3 14.1562 4.0125 15.4406 5.59375C15.6156 5.80938 15.9281 5.84063 16.1438 5.66875C16.3594 5.49688 16.3906 5.18125 16.2188 4.96563C14.7531 3.15625 12.5094 2 10 2C5.58125 2 2 5.58125 2 10V11.5C2 11.775 2.225 12 2.5 12C2.775 12 3 11.775 3 11.5V10ZM17.7125 7.86562C17.6375 7.6 17.3625 7.44375 17.0969 7.51562C16.8313 7.5875 16.675 7.86562 16.7469 8.13125C16.9094 8.725 17 9.35 17 9.99687V11.4969C17 11.7719 17.225 11.9969 17.5 11.9969C17.775 11.9969 18 11.7719 18 11.4969V10C18 9.2625 17.9 8.54688 17.7125 7.86562ZM10 4.5C9.2875 4.5 8.60625 4.63437 7.98125 4.88125C7.67812 5 7.60625 5.38438 7.81875 5.63438C7.96875 5.80938 8.21875 5.85938 8.43437 5.77813C8.92188 5.59687 9.45 5.49688 10 5.49688C12.4844 5.49688 14.5 7.5125 14.5 9.99687V10.775C14.5 11.6594 14.4438 12.5437 14.3281 13.4187C14.2875 13.7219 14.5219 13.9969 14.8281 13.9969C15.075 13.9969 15.2844 13.8156 15.3156 13.5719C15.4375 12.6469 15.4969 11.7125 15.4969 10.775V10C15.4969 6.9625 13.0344 4.5 9.99687 4.5H10ZM6.53438 6.44063C6.34688 6.22188 6.00938 6.20312 5.82188 6.425C4.99688 7.38438 4.5 8.63438 4.5 10V10.7781C4.5 11.6469 4.39375 12.5094 4.18125 13.35C4.1 13.675 4.3375 14 4.67188 14C4.89062 14 5.08437 13.8562 5.14062 13.6438C5.38125 12.7094 5.50312 11.7469 5.50312 10.7781V10C5.50312 8.91563 5.8875 7.92188 6.525 7.14375C6.69375 6.94063 6.70938 6.64062 6.53438 6.44063ZM10 7C8.34375 7 7 8.34375 7 10V10.7781C7 11.9844 6.83125 13.1844 6.50313 14.3406C6.40938 14.6656 6.65 15 6.9875 15C7.20312 15 7.39375 14.8594 7.45312 14.6531C7.81563 13.3969 8 12.0906 8 10.7781V10C8 8.89687 8.89687 8 10 8C11.1031 8 12 8.89687 12 10V10.7781C12 11.9906 11.8781 13.2 11.6344 14.3844C11.5687 14.7 11.8063 15 12.1281 15C12.3594 15 12.5625 14.8406 12.6094 14.6125C12.8687 13.3531 13 12.0687 13 10.7781V10C13 8.34375 11.6562 7 10 7ZM10.5 10C10.5 9.725 10.275 9.5 10 9.5C9.725 9.5 9.5 9.725 9.5 10V10.7781C9.5 12.6812 9.15 14.5656 8.46562 16.3438L8.28125 16.8219C8.18125 17.0781 8.30937 17.3687 8.56875 17.4688C8.82812 17.5688 9.11562 17.4406 9.21562 17.1812L9.4 16.7031C10.1281 14.8125 10.5 12.8031 10.5 10.7781V10Z"></path>
</svg>