<svg xmlns="http://www.w3.org/2000/svg" viewBox="0 0 20 20" fill="currentColor"><path d="M9.5 2.5c0 -0.275 0.225 -0.5 0.5 -0.5s0.5 0.225 0.5 0.5v0.525c2.528 0.25 4.5 2.381 4.5 4.975v0.909c0 1.366 0.543 2.675 1.509 3.644l0.087 0.087a1.383 1.383 0 0 1 -0.978 2.363H4.385a1.387 1.387 0 0 1 -0.978 -2.366l0.087 -0.087A5.167 5.167 0 0 0 5 8.908V8a4.998 4.998 0 0 1 4.5 -4.975zm0.5 1.5a4 4 0 0 0 -4 4v0.909a6.142 6.142 0 0 1 -1.803 4.35l-0.084 0.084a0.383 0.383 0 0 0 0.272 0.657H15.617a0.383 0.383 0 0 0 0.272 -0.657l-0.087 -0.087a6.158 6.158 0 0 1 -1.803 -4.35V8a4 4 0 0 0 -4 -4zM9.056 16.333a1.003 1.003 0 0 0 1.888 0 0.5 0.5 0 0 1 0.638 -0.306 0.5 0.5 0 0 1 0.306 0.638 2.001 2.001 0 0 1 -3.775 0 0.5 0.5 0 0 1 0.306 -0.638 0.5 0.5 0 0 1 0.638 0.306M10 7c0.275 0 0.5 0.225 0.5 0.5v1.5h1.5c0.275 0 0.5 0.225 0.5 0.5s-0.225 0.5 -0.5 0.5h-1.5v1.5c0 0.275 -0.225 0.5 -0.5 0.5s-0.5 -0.225 -0.5 -0.5V10H8c-0.275 0 -0.5 -0.225 -0.5 -0.5s0.225 -0.5 0.5 -0.5h1.5V7.5c0 -0.275 0.225 -0.5 0.5 -0.5"/></svg>