<svg viewBox="0 0 20 20" xmlns="http://www.w3.org/2000/svg" fill="currentColor">
<path d="M9.5 2.5C9.5 2.225 9.725 2 10 2C10.275 2 10.5 2.225 10.5 2.5V3.025C13.0281 3.275 15 5.40625 15 8V8.90938C15 10.275 15.5437 11.5844 16.5094 12.5531L16.5969 12.6406C16.8563 12.9 17.0031 13.2531 17.0031 13.6187C17.0031 14.3844 16.3844 15.0031 15.6187 15.0031H4.38437C3.61875 15 3 14.3813 3 13.6156C3 13.25 3.14687 12.8969 3.40625 12.6375L3.49375 12.55C4.45625 11.5844 5 10.275 5 8.90938V8C5 5.40625 6.97187 3.275 9.5 3.025V2.5ZM10 4C7.79063 4 6 5.79063 6 8V8.90938C6 10.5406 5.35312 12.1062 4.19687 13.2594L4.1125 13.3438C4.04062 13.4156 4 13.5125 4 13.6156C4 13.8281 4.17187 14 4.38437 14H15.6156C15.8281 14 16 13.8281 16 13.6156C16 13.5125 15.9594 13.4156 15.8875 13.3438L15.8 13.2563C14.6469 12.1031 13.9969 10.5375 13.9969 8.90625V8C13.9969 5.79063 12.2062 4 9.99687 4H10ZM9.05625 16.3344C9.19375 16.7219 9.56563 17 10 17C10.4344 17 10.8062 16.7219 10.9437 16.3344C11.0344 16.075 11.3219 15.9375 11.5813 16.0281C11.8406 16.1187 11.9781 16.4062 11.8875 16.6656C11.6125 17.4437 10.8719 18 10 18C9.12813 18 8.3875 17.4437 8.1125 16.6656C8.02188 16.4062 8.15625 16.1187 8.41875 16.0281C8.68125 15.9375 8.96563 16.0719 9.05625 16.3344Z"/>
</svg>