<svg viewBox="0 0 20 20" xmlns="http://www.w3.org/2000/svg" fill="currentColor">
<path d="M3 3.5C3 3.225 2.775 3 2.5 3C2.225 3 2 3.225 2 3.5V14.5C2 15.8813 3.11875 17 4.5 17H17.5C17.775 17 18 16.775 18 16.5C18 16.225 17.775 16 17.5 16H4.5C3.67188 16 3 15.3281 3 14.5V3.5ZM13.5 5H15.2937L11 9.29375L8.85313 7.14687C8.75938 7.05312 8.63125 7 8.5 7C8.36875 7 8.24062 7.05312 8.14687 7.14687L5.14687 10.1469C4.95312 10.3406 4.95312 10.6594 5.14687 10.8531C5.34062 11.0469 5.65938 11.0469 5.85313 10.8531L8.5 8.20625L10.6469 10.3531C10.8406 10.5469 11.1594 10.5469 11.3531 10.3531L16 5.70625V7.5C16 7.775 16.225 8 16.5 8C16.775 8 17 7.775 17 7.5V4.5C17 4.225 16.775 4 16.5 4H13.5C13.225 4 13 4.225 13 4.5C13 4.775 13.225 5 13.5 5ZM13.5 14H16.5C16.775 14 17 13.775 17 13.5V10.5C17 10.225 16.775 10 16.5 10C16.225 10 16 10.225 16 10.5V12.2937L13.8531 10.1469L13.1469 10.8531L15.2937 13H13.5C13.225 13 13 13.225 13 13.5C13 13.775 13.225 14 13.5 14Z"></path>
</svg>