<svg viewBox="0 0 20 20" xmlns="http://www.w3.org/2000/svg" fill="currentColor">
<path d="M9.60939 3.16621C9.85939 3.05996 10.1406 3.05996 10.3906 3.16621L15.9125 5.50996C16.2656 5.65996 16.5031 5.99434 16.5 6.37246C16.4844 9.30996 15.2688 14.4912 10.3906 16.8256C10.1438 16.9443 9.85314 16.9443 9.60626 16.8256C4.72814 14.4881 3.51564 9.30684 3.50001 6.36934C3.49689 5.99121 3.73439 5.65684 4.08751 5.50684L9.60939 3.16309V3.16621ZM10.7813 2.24434C10.2813 2.03184 9.71876 2.03184 9.21876 2.24434L3.69689 4.58809C3.00939 4.87871 2.49689 5.55684 2.50001 6.37559C2.51564 9.47559 3.79064 15.1475 9.17501 17.7256C9.69689 17.9756 10.3031 17.9756 10.825 17.7256C16.2094 15.1475 17.4844 9.47559 17.5 6.37559C17.5031 5.55684 16.9906 4.87871 16.3031 4.58809L10.7813 2.24434ZM10 7.75059C10.1989 7.75059 10.3897 7.8296 10.5303 7.97026C10.671 8.11091 10.75 8.30167 10.75 8.50059C10.75 8.6995 10.671 8.89026 10.5303 9.03092C10.3897 9.17157 10.1989 9.25059 10 9.25059C9.8011 9.25059 9.61034 9.17157 9.46968 9.03092C9.32903 8.89026 9.25001 8.6995 9.25001 8.50059C9.25001 8.30167 9.32903 8.11091 9.46968 7.97026C9.61034 7.8296 9.8011 7.75059 10 7.75059ZM11.75 8.50059C11.75 7.53496 10.9656 6.75059 10 6.75059C9.03439 6.75059 8.25001 7.53496 8.25001 8.50059C8.25001 9.29434 8.77814 9.96309 9.50001 10.1787V12.5006C9.50001 12.7756 9.72501 13.0006 10 13.0006C10.275 13.0006 10.5 12.7756 10.5 12.5006V10.1787C11.2219 9.96309 11.75 9.29434 11.75 8.50059Z"></path>
</svg>