<svg viewBox="0 0 20 20" xmlns="http://www.w3.org/2000/svg">
<path d="M9.9875 2.00018C10.2219 1.99393 10.4281 2.1533 10.4844 2.3783L13.1094 12.8783L14.2844 9.94393C14.5125 9.37518 15.0625 9.00018 15.6781 9.00018H19.5C19.775 9.00018 20 9.22518 20 9.50018C20 9.77518 19.775 10.0002 19.5 10.0002H15.6781C15.475 10.0002 15.2906 10.1252 15.2125 10.3158L13.4625 14.6877C13.3812 14.8877 13.1812 15.0158 12.9656 15.0002C12.75 14.9846 12.5656 14.8314 12.5156 14.6221L10.0562 4.7783L7.49375 17.5971C7.44688 17.8252 7.25 17.9939 7.01562 18.0002C6.78125 18.0064 6.575 17.8471 6.51875 17.6221L4.70312 10.3783C4.65 10.1564 4.45 10.0002 4.21875 10.0002H0.5C0.225 10.0002 0 9.77518 0 9.50018C0 9.22518 0.225 9.00018 0.5 9.00018H4.21875C4.90625 9.00018 5.50625 9.46893 5.675 10.1377L6.94688 15.2221L9.50937 2.4033C9.55625 2.17205 9.75313 2.00643 9.9875 2.00018Z"></path>
</svg>