<svg viewBox="0 0 20 20" xmlns="http://www.w3.org/2000/svg" fill="currentColor">
<path d="M6.31563 3.03441C6.41875 2.99379 6.53125 2.98754 6.6375 3.01879L13.4719 4.97191L17.9719 3.17191C18.4656 2.97504 19 3.33754 19 3.86879V14.3313C19 14.6375 18.8125 14.9125 18.5281 15.0282L13.6844 16.9657C13.5812 17.0063 13.4688 17.0125 13.3625 16.9813L6.52812 15.0282L2.02813 16.8282C1.53438 17.025 1 16.6625 1 16.1313V5.66879C1 5.36254 1.1875 5.08754 1.47188 4.97191L6.31563 3.03441ZM2 5.83754V15.7625L6 14.1625V4.23754L2 5.83754ZM13 15.8375V5.87816L7 4.16254V14.1219L13 15.8375ZM14 15.7625L18 14.1625V4.23754L14 5.83754V15.7625Z"></path>
</svg>