<svg viewBox="0 0 20 20" xmlns="http://www.w3.org/2000/svg" fill="currentColor">
<path d="M16.8531 10.3531C17.0469 10.1594 17.0469 9.84062 16.8531 9.64687L12.8531 5.64687C12.6594 5.45312 12.3406 5.45312 12.1469 5.64687C11.9531 5.84062 11.9531 6.15938 12.1469 6.35313L15.2937 9.5H12H6.5C6.225 9.5 6 9.725 6 10C6 10.275 6.225 10.5 6.5 10.5H12H15.2937L12.1469 13.6469C11.9531 13.8406 11.9531 14.1594 12.1469 14.3531C12.3406 14.5469 12.6594 14.5469 12.8531 14.3531L16.8531 10.3531ZM4 4.5C4 4.225 3.775 4 3.5 4C3.225 4 3 4.225 3 4.5V15.5C3 15.775 3.225 16 3.5 16C3.775 16 4 15.775 4 15.5V4.5Z"></path>
</svg>