<svg viewBox="0 0 20 20" xmlns="http://www.w3.org/2000/svg" fill="currentColor">
<path d="M4 3H14C14.5531 3 15 3.44687 15 4V5H16V4C16 2.89688 15.1031 2 14 2H4C2.89688 2 2 2.89688 2 4V11H0.6C0.26875 11 0 11.2688 0 11.6C0 12.925 1.075 14 2.4 14H11V13H2.4C1.76563 13 1.23125 12.5781 1.05938 12H2H3H11V11H3V4C3 3.44687 3.44687 3 4 3ZM13 7.5C13 7.225 13.225 7 13.5 7H18.5C18.775 7 19 7.225 19 7.5V16.5C19 16.775 18.775 17 18.5 17H13.5C13.225 17 13 16.775 13 16.5V7.5ZM12 7.5V16.5C12 17.3281 12.6719 18 13.5 18H18.5C19.3281 18 20 17.3281 20 16.5V7.5C20 6.67188 19.3281 6 18.5 6H13.5C12.6719 6 12 6.67188 12 7.5Z"></path>
</svg>