<svg viewBox="0 0 20 20" xmlns="http://www.w3.org/2000/svg" fill="currentColor">
<path d="M10 2C10.275 2 10.5 2.225 10.5 2.5V3.51875C13.6906 3.7625 16.2375 6.30938 16.4812 9.5H17.5C17.775 9.5 18 9.725 18 10C18 10.275 17.775 10.5 17.5 10.5H16.4812C16.2375 13.6906 13.6906 16.2375 10.5 16.4812V17.5C10.5 17.775 10.275 18 10 18C9.725 18 9.5 17.775 9.5 17.5V16.4812C6.30938 16.2375 3.7625 13.6906 3.51875 10.5H2.5C2.225 10.5 2 10.275 2 10C2 9.725 2.225 9.5 2.5 9.5H3.51875C3.7625 6.30938 6.30938 3.7625 9.5 3.51875V2.5C9.5 2.225 9.725 2 10 2ZM4.52187 10.5C4.75937 13.1375 6.85938 15.2406 9.5 15.4781V14C9.5 13.725 9.725 13.5 10 13.5C10.275 13.5 10.5 13.725 10.5 14V15.4781C13.1375 15.2406 15.2406 13.1406 15.4781 10.5H14C13.725 10.5 13.5 10.275 13.5 10C13.5 9.725 13.725 9.5 14 9.5H15.4781C15.2406 6.8625 13.1375 4.75937 10.5 4.52187V6C10.5 6.275 10.275 6.5 10 6.5C9.725 6.5 9.5 6.275 9.5 6V4.52187C6.8625 4.75937 4.75937 6.8625 4.52187 9.5H6C6.275 9.5 6.5 9.725 6.5 10C6.5 10.275 6.275 10.5 6 10.5H4.52187ZM10 9.25C10.1989 9.25 10.3897 9.32902 10.5303 9.46967C10.671 9.61032 10.75 9.80109 10.75 10C10.75 10.1989 10.671 10.3897 10.5303 10.5303C10.3897 10.671 10.1989 10.75 10 10.75C9.80109 10.75 9.61032 10.671 9.46967 10.5303C9.32902 10.3897 9.25 10.1989 9.25 10C9.25 9.80109 9.32902 9.61032 9.46967 9.46967C9.61032 9.32902 9.80109 9.25 10 9.25Z"></path>
</svg>