<svg viewBox="0 0 20 20" xmlns="http://www.w3.org/2000/svg">
<path d="M11.025 4.5535C11.1344 4.1535 11.5469 3.91912 11.9469 4.0285C12.3469 4.13787 12.5813 4.55037 12.4719 4.95037L12.3313 5.46287C12.1594 6.09412 11.8969 6.691 11.5594 7.241C11.4625 7.39412 11.4594 7.58787 11.5469 7.74725C11.6344 7.90662 11.8031 8.0035 11.9844 8.0035H16C16.5531 8.0035 17 8.45037 17 9.0035C17 9.35662 16.8156 9.66912 16.5375 9.84725C16.3125 9.991 16.2406 10.2816 16.3719 10.5129C16.4531 10.6566 16.5 10.8254 16.5 11.0035C16.5 11.391 16.2813 11.7254 15.9594 11.8941C15.8281 11.9629 15.7312 12.0847 15.7 12.2316C15.6687 12.3785 15.7031 12.5285 15.7937 12.6441C15.925 12.8129 16.0031 13.0254 16.0031 13.2535C16.0031 13.6972 15.7156 14.0754 15.3125 14.2035C15.0688 14.2816 14.925 14.5347 14.9781 14.7847C14.9938 14.8535 15 14.9254 15 15.0004C15 15.5535 14.5531 16.0004 14 16.0004H11.2031C10.7094 16.0004 10.2281 15.8535 9.81563 15.5816L8.6125 14.7785C8.33125 14.591 8.09375 14.3504 7.9125 14.0722C7.75938 13.841 7.45 13.7785 7.21875 13.9285C6.9875 14.0785 6.925 14.391 7.075 14.6222C7.32812 15.0066 7.65938 15.3441 8.05625 15.6097L9.25938 16.4129C9.83437 16.7972 10.5094 17.0004 11.2 17.0004H14C15.1031 17.0004 16 16.1035 16 15.0004V14.9816C16.5969 14.6347 17 13.991 17 13.2504C17 12.9785 16.9438 12.716 16.8469 12.4785C17.2469 12.1129 17.5 11.5879 17.5 11.0004C17.5 10.7972 17.4688 10.6004 17.4125 10.416C17.775 10.0535 18 9.5535 18 9.00037C18 7.89725 17.1031 7.00037 16 7.00037H12.825C13.0188 6.591 13.1781 6.166 13.2969 5.72225L13.4375 5.20975C13.6906 4.2785 13.1406 3.316 12.2094 3.05975C11.2781 2.8035 10.3156 3.35662 10.0594 4.28787L9.91875 4.80037C9.64063 5.81912 8.99375 6.70037 8.1 7.26912L8.00313 7.33162C7.63438 7.566 7.325 7.866 7.08125 8.21287C6.92188 8.43787 6.97813 8.75037 7.20625 8.90975C7.43438 9.06912 7.74375 9.01287 7.90313 8.78475C8.07188 8.54412 8.28438 8.33475 8.54063 8.17537L8.6375 8.11287C9.74062 7.41287 10.5406 6.32537 10.8844 5.066L11.025 4.5535ZM3 9.00037H5V16.0004H3V9.00037ZM2 9.00037V16.0004C2 16.5535 2.44687 17.0004 3 17.0004H5C5.55313 17.0004 6 16.5535 6 16.0004V9.00037C6 8.44725 5.55313 8.00037 5 8.00037H3C2.44687 8.00037 2 8.44725 2 9.00037Z" fill="black"/>
</svg>