<svg width="20" height="20" viewBox="0 0 20 20" fill="none" xmlns="http://www.w3.org/2000/svg">
<path d="M11.025 15.4469C11.1344 15.8469 11.5469 16.0812 11.9469 15.9719C12.3469 15.8625 12.5813 15.45 12.4719 15.05L12.3313 14.5375C12.1594 13.9062 11.8969 13.3094 11.5594 12.7594C11.4625 12.6062 11.4594 12.4125 11.5469 12.2531C11.6344 12.0937 11.8031 11.9969 11.9844 11.9969H16C16.5531 11.9969 17 11.55 17 10.9969C17 10.6437 16.8156 10.3312 16.5375 10.1531C16.3125 10.0094 16.2406 9.71875 16.3719 9.4875C16.4531 9.34375 16.5 9.175 16.5 8.99687C16.5 8.60937 16.2812 8.275 15.9594 8.10625C15.8281 8.0375 15.7312 7.91562 15.7 7.76875C15.6687 7.62187 15.7031 7.47187 15.7937 7.35625C15.925 7.1875 16.0031 6.975 16.0031 6.74687C16.0031 6.30312 15.7156 5.925 15.3125 5.79687C15.0688 5.71875 14.925 5.46562 14.9781 5.21562C14.9937 5.14687 15 5.075 15 5C15 4.44687 14.5531 4 14 4H11.2031C10.7094 4 10.2281 4.14687 9.81563 4.41875L8.6125 5.22187C8.33125 5.40937 8.09375 5.65 7.9125 5.92812C7.75938 6.15937 7.45 6.22187 7.21875 6.07187C6.9875 5.92187 6.925 5.60937 7.075 5.37812C7.32812 4.99375 7.65938 4.65625 8.05625 4.39062L9.25938 3.5875C9.83437 3.20312 10.5094 3 11.2 3H14C15.1031 3 16 3.89687 16 5V5.01875C16.5969 5.36562 17 6.00937 17 6.75C17 7.02187 16.9438 7.28437 16.8469 7.52187C17.2469 7.8875 17.5 8.4125 17.5 9C17.5 9.20312 17.4688 9.4 17.4125 9.58437C17.775 9.94687 18 10.4469 18 11C18 12.1031 17.1031 13 16 13H12.825C13.0188 13.4094 13.1781 13.8344 13.2969 14.2781L13.4375 14.7906C13.6906 15.7219 13.1406 16.6844 12.2094 16.9406C11.2781 17.1969 10.3156 16.6437 10.0594 15.7125L9.91875 15.2C9.64062 14.1812 8.99375 13.3 8.1 12.7312L8.00313 12.6687C7.63438 12.4344 7.325 12.1344 7.08125 11.7875C6.92188 11.5625 6.97813 11.25 7.20625 11.0906C7.43438 10.9312 7.74375 10.9875 7.90312 11.2156C8.07187 11.4562 8.28438 11.6656 8.54063 11.825L8.6375 11.8875C9.74062 12.5875 10.5406 13.675 10.8844 14.9344L11.025 15.4469ZM3 13H5V6H3V13ZM2 13V6C2 5.44687 2.44687 5 3 5H5C5.55312 5 6 5.44687 6 6V13C6 13.5531 5.55312 14 5 14H3C2.44687 14 2 13.5531 2 13Z" fill="black"/>
</svg>
