<svg xmlns="http://www.w3.org/2000/svg" viewBox="0 0 20 20" fill="currentColor">
    <switch>
        <g>
            <path d="M20 3.33v5a0.83 0.83 0 0 1-0.83 0.83H14.17a0.83 0.83 0 0 1 0-1.67h2.81c-1.12-1.09-2.01-1.96-2.26-2.21l-0.006-0.006A6.64 6.64 0 0 0 10 3.33a6.64 6.64 0 0 0-4.88 2.12 6.6 6.6 0 0 0-1.26 1.94c-0.046 0.13-0.104 0.257-0.15 0.388a0.83 0.83 0 1 1-1.57-0.55 7.6 7.6 0 0 1 0.211-0.539 8.25 8.25 0 0 1 0.584-1.11 8.35 8.35 0 0 1 1.173-1.47 8.28 8.28 0 0 1 2.757-1.83 8.32 8.32 0 0 1 1.544-0.458 8.39 8.39 0 0 1 3.182 0 8.32 8.32 0 0 1 1.544 0.458 8.27 8.27 0 0 1 2.757 1.83l0.012 0.012c0.267 0.266 1.23 1.207 2.43 2.375V3.33a0.83 0.83 0 0 1 1.67 0zM0.83 17.5a0.83 0.83 0 0 0 0.83-0.83V13.51c1.2 1.168 2.163 2.109 2.43 2.375l0.012 0.012A8.28 8.28 0 0 0 6.863 17.73a8.32 8.32 0 0 0 1.544 0.458A8.36 8.36 0 0 0 13.137 17.73a8.27 8.27 0 0 0 2.757-1.83 8.33 8.33 0 0 0 1.173-1.47 8.27 8.27 0 0 0 0.795-1.65 0.83 0.83 0 0 0-1.57-0.55c-0.046 0.131-0.104 0.258-0.15 0.388-0.682 1.61-2.009 2.914-3.63 3.572C11.71 16.5 10.9 16.67 10 16.67a6.64 6.64 0 0 1-4.714-1.952l-0.006-0.006c-0.25-0.25-1.135-1.115-2.26-2.21h2.813a0.83 0.83 0 0 0 0-1.67H0.83a0.83 0.83 0 0 0-0.83 0.83v5a0.83 0.83 0 0 0 0.83 0.83z"></path>
        </g>
    </switch>
</svg>