<svg viewBox="0 0 20 20" fill="currentColor" xmlns="http://www.w3.org/2000/svg">
<path d="M14.1406 14.8469C14.3344 15.0406 14.6531 15.0406 14.8469 14.8469C15.0406 14.6531 15.0406 14.3344 14.8469 14.1406L10.7063 10L14.8469 5.85937C15.0406 5.66562 15.0406 5.34687 14.8469 5.15312C14.6531 4.95937 14.3344 4.95937 14.1406 5.15312L10 9.29375L5.85937 5.15312C5.66562 4.95937 5.34687 4.95937 5.15312 5.15312C4.95937 5.34687 4.95937 5.66562 5.15312 5.85937L9.29375 10L5.15312 14.1406C4.95937 14.3344 4.95937 14.6531 5.15312 14.8469C5.34687 15.0406 5.66562 15.0406 5.85937 14.8469L10 10.7063L14.1406 14.8469Z"/>
</svg>
