<svg width="20" height="20" viewBox="0 0 20 20"  xmlns="http://www.w3.org/2000/svg">
<path d="M14.0003 8.50033C14.0003 7.77806 13.8581 7.06286 13.5817 6.39557C13.3053 5.72828 12.9002 5.12196 12.3894 4.61124C11.8787 4.10052 11.2723 3.69539 10.6051 3.41899C9.93784 3.14258 9.22259 3.00033 8.50034 3.00033C7.77807 3.00033 7.06287 3.14258 6.39558 3.41899C5.72829 3.69539 5.12197 4.10052 4.61125 4.61124C4.10053 5.12196 3.6954 5.72828 3.419 6.39557C3.14259 7.06286 3.00034 7.77806 3.00034 8.50033C3.00034 9.22258 3.14259 9.93783 3.419 10.6051C3.6954 11.2723 4.10053 11.8787 4.61125 12.3894C5.12197 12.9002 5.72829 13.3053 6.39558 13.5817C7.06287 13.8581 7.77807 14.0003 8.50034 14.0003C9.22259 14.0003 9.93784 13.8581 10.6051 13.5817C11.2723 13.3053 11.8787 12.9002 12.3894 12.3894C12.9002 11.8787 13.3053 11.2723 13.5817 10.6051C13.8581 9.93783 14.0003 9.22258 14.0003 8.50033ZM12.7284 13.4378C11.5941 14.4128 10.1159 15.0003 8.50034 15.0003C4.90971 15.0003 2.00034 12.0909 2.00034 8.50033C2.00034 4.9097 4.90971 2.00033 8.50034 2.00033C12.0909 2.00033 15.0003 4.9097 15.0003 8.50033C15.0003 10.1159 14.4128 11.5941 13.4378 12.7284L17.8534 17.1472C18.0472 17.3409 18.0472 17.6597 17.8534 17.8534C17.6597 18.0472 17.3409 18.0472 17.1472 17.8534L12.7284 13.4378Z" fill="currentColor"/>
</svg>
