<svg viewBox="0 0 24 24" xmlns="http://www.w3.org/2000/svg">
    <path d="M16.8004 10.2004C16.8004 9.33367 16.6297 8.47543 16.298 7.67468C15.9663 6.87393 15.4802 6.14635 14.8673 5.53349C14.2544 4.92062 13.5268 4.43447 12.7261 4.10279C11.9254 3.7711 11.0671 3.60039 10.2004 3.60039C9.33367 3.60039 8.47543 3.7711 7.67468 4.10279C6.87393 4.43447 6.14635 4.92062 5.53349 5.53349C4.92062 6.14635 4.43447 6.87393 4.10279 7.67468C3.7711 8.47543 3.60039 9.33367 3.60039 10.2004C3.60039 11.0671 3.7711 11.9254 4.10279 12.7261C4.43447 13.5268 4.92062 14.2544 5.53349 14.8673C6.14635 15.4802 6.87393 15.9663 7.67468 16.298C8.47543 16.6297 9.33367 16.8004 10.2004 16.8004C11.0671 16.8004 11.9254 16.6297 12.7261 16.298C13.5268 15.9663 14.2544 15.4802 14.8673 14.8673C15.4802 14.2544 15.9663 13.5268 16.298 12.7261C16.6297 11.9254 16.8004 11.0671 16.8004 10.2004ZM15.2741 16.1254C13.9129 17.2954 12.1391 18.0004 10.2004 18.0004C5.89164 18.0004 2.40039 14.5091 2.40039 10.2004C2.40039 5.89164 5.89164 2.40039 10.2004 2.40039C14.5091 2.40039 18.0004 5.89164 18.0004 10.2004C18.0004 12.1391 17.2954 13.9129 16.1254 15.2741L21.4241 20.5766C21.6566 20.8091 21.6566 21.1916 21.4241 21.4241C21.1916 21.6566 20.8091 21.6566 20.5766 21.4241L15.2741 16.1254Z"
          fill="currentColor"/>
</svg>