<svg viewBox="0 0 24 24" xmlns="http://www.w3.org/2000/svg">
    <path d="M11.6094 5.16621C11.8594 5.05996 12.1406 5.05996 12.3906 5.16621L17.9125 7.50996C18.2656 7.65996 18.5031 7.99434 18.5 8.37246C18.4844 11.31 17.2688 16.4912 12.3906 18.8256C12.1438 18.9443 11.8531 18.9443 11.6063 18.8256C6.72814 16.4881 5.51564 11.3068 5.50001 8.36934C5.49689 7.99121 5.73439 7.65684 6.08751 7.50684L11.6094 5.16309V5.16621ZM12.7813 4.24434C12.2813 4.03184 11.7188 4.03184 11.2188 4.24434L5.69689 6.58809C5.00939 6.87871 4.49689 7.55684 4.50001 8.37559C4.51564 11.4756 5.79064 17.1475 11.175 19.7256C11.6969 19.9756 12.3031 19.9756 12.825 19.7256C18.2094 17.1475 19.4844 11.4756 19.5 8.37559C19.5031 7.55684 18.9906 6.87871 18.3031 6.58809L12.7813 4.24434ZM12 9.75059C12.1989 9.75059 12.3897 9.8296 12.5303 9.97026C12.671 10.1109 12.75 10.3017 12.75 10.5006C12.75 10.6995 12.671 10.8903 12.5303 11.0309C12.3897 11.1716 12.1989 11.2506 12 11.2506C11.8011 11.2506 11.6103 11.1716 11.4697 11.0309C11.329 10.8903 11.25 10.6995 11.25 10.5006C11.25 10.3017 11.329 10.1109 11.4697 9.97026C11.6103 9.8296 11.8011 9.75059 12 9.75059ZM13.75 10.5006C13.75 9.53496 12.9656 8.75059 12 8.75059C11.0344 8.75059 10.25 9.53496 10.25 10.5006C10.25 11.2943 10.7781 11.9631 11.5 12.1787V14.5006C11.5 14.7756 11.725 15.0006 12 15.0006C12.275 15.0006 12.5 14.7756 12.5 14.5006V12.1787C13.2219 11.9631 13.75 11.2943 13.75 10.5006Z"
          fill="currentColor"/>
</svg>