<svg  viewBox="0 0 20 20"  xmlns="http://www.w3.org/2000/svg">
<path d="M9.6745 4.30518C9.88284 4.21663 10.1172 4.21663 10.3255 4.30518L14.9271 6.2583C15.2213 6.3833 15.4193 6.66195 15.4167 6.97705C15.4037 9.425 14.3907 13.7427 10.3255 15.688C10.1198 15.7869 9.87759 15.7869 9.67192 15.688C5.60679 13.7401 4.59637 9.42233 4.58335 6.97445C4.58075 6.65934 4.77866 6.3807 5.07293 6.2557L9.6745 4.30258V4.30518ZM10.6511 3.53695C10.2344 3.35987 9.76567 3.35987 9.349 3.53695L4.74741 5.49008C4.1745 5.73226 3.74741 6.29737 3.75001 6.97966C3.76304 9.563 4.82554 14.2896 9.3125 16.438C9.74742 16.6463 10.2526 16.6463 10.6875 16.438C15.1745 14.2896 16.237 9.563 16.25 6.97966C16.2526 6.29737 15.8255 5.73226 15.2526 5.49008L10.6511 3.53695ZM10 8.12549C10.1658 8.12549 10.3248 8.19133 10.4419 8.30855C10.5592 8.42575 10.625 8.58475 10.625 8.7505C10.625 8.91625 10.5592 9.07525 10.4419 9.19242C10.3248 9.30967 10.1658 9.3755 10 9.3755C9.83425 9.3755 9.67525 9.30967 9.55809 9.19242C9.44084 9.07525 9.375 8.91625 9.375 8.7505C9.375 8.58475 9.44084 8.42575 9.55809 8.30855C9.67525 8.19133 9.83425 8.12549 10 8.12549ZM11.4583 8.7505C11.4583 7.9458 10.8047 7.29216 10 7.29216C9.19534 7.29216 8.54167 7.9458 8.54167 8.7505C8.54167 9.41192 8.98175 9.96925 9.58334 10.1489V12.0838C9.58334 12.313 9.77084 12.5005 10 12.5005C10.2292 12.5005 10.4167 12.313 10.4167 12.0838V10.1489C11.0183 9.96925 11.4583 9.41192 11.4583 8.7505Z" fill="currentColor"/>
</svg>
