<svg width="20" height="20" viewBox="0 0 20 20"  xmlns="http://www.w3.org/2000/svg">
<path d="M17.8534 10.3528C18.0472 10.1591 18.0472 9.84033 17.8534 9.64658L13.8534 5.64655C13.6597 5.4528 13.3409 5.4528 13.1472 5.64655C12.9534 5.8403 12.9534 6.15905 13.1472 6.3528L16.2941 9.49967H7.50032C7.22532 9.49967 7.00032 9.72467 7.00032 9.99967C7.00032 10.2747 7.22532 10.4997 7.50032 10.4997H16.2941L13.1472 13.6466C12.9534 13.8403 12.9534 14.1591 13.1472 14.3528C13.3409 14.5466 13.6597 14.5466 13.8534 14.3528L17.8534 10.3528ZM7.50032 3.99967C7.77532 3.99967 8.00032 3.77467 8.00032 3.49967C8.00032 3.22467 7.77532 2.99967 7.50032 2.99967H4.50032C3.11907 2.99967 2.00032 4.11842 2.00032 5.49967V14.4997C2.00032 15.8809 3.11907 16.9997 4.50032 16.9997H7.50032C7.77532 16.9997 8.00032 16.7747 8.00032 16.4997C8.00032 16.2247 7.77532 15.9997 7.50032 15.9997H4.50032C3.6722 15.9997 3.00032 15.3278 3.00032 14.4997V5.49967C3.00032 4.67155 3.6722 3.99967 4.50032 3.99967H7.50032Z" fill="currentColor"/>
</svg>
