<svg width="24" height="24" viewBox="0 0 24 24" fill="none" xmlns="http://www.w3.org/2000/svg">
    <g id="logout">
        <path id="Vector"
              d="M21.4241 12.4234C21.6566 12.1909 21.6566 11.8084 21.4241 11.5759L16.6241 6.77586C16.3916 6.54336 16.0091 6.54336 15.7766 6.77586C15.5441 7.00836 15.5441 7.39086 15.7766 7.62336L19.5529 11.3996H9.00039C8.67039 11.3996 8.40039 11.6696 8.40039 11.9996C8.40039 12.3296 8.67039 12.5996 9.00039 12.5996H19.5529L15.7766 16.3759C15.5441 16.6084 15.5441 16.9909 15.7766 17.2234C16.0091 17.4559 16.3916 17.4559 16.6241 17.2234L21.4241 12.4234ZM9.00039 4.79961C9.33039 4.79961 9.60039 4.52961 9.60039 4.19961C9.60039 3.86961 9.33039 3.59961 9.00039 3.59961H5.40039C3.74289 3.59961 2.40039 4.94211 2.40039 6.59961V17.3996C2.40039 19.0571 3.74289 20.3996 5.40039 20.3996H9.00039C9.33039 20.3996 9.60039 20.1296 9.60039 19.7996C9.60039 19.4696 9.33039 19.1996 9.00039 19.1996H5.40039C4.40664 19.1996 3.60039 18.3934 3.60039 17.3996V6.59961C3.60039 5.60586 4.40664 4.79961 5.40039 4.79961H9.00039Z"
              fill="black"/>
    </g>
</svg>