<svg width="24" height="24" viewBox="0 0 24 24" fill="currentColor" xmlns="http://www.w3.org/2000/svg">
<path d="M2.40039 18C2.40039 18.33 2.67039 18.6 3.00039 18.6H5.46039C5.73789 19.9688 6.94914 21 8.40039 21C9.85164 21 11.0629 19.9688 11.3404 18.6H21.0004C21.3304 18.6 21.6004 18.33 21.6004 18C21.6004 17.67 21.3304 17.4 21.0004 17.4H11.3404C11.0629 16.0313 9.85164 15 8.40039 15C6.94914 15 5.73789 16.0313 5.46039 17.4H3.00039C2.67039 17.4 2.40039 17.67 2.40039 18ZM6.60039 18C6.60039 17.5226 6.79003 17.0648 7.1276 16.7272C7.46516 16.3896 7.923 16.2 8.40039 16.2C8.87778 16.2 9.33562 16.3896 9.67318 16.7272C10.0107 17.0648 10.2004 17.5226 10.2004 18C10.2004 18.4774 10.0107 18.9352 9.67318 19.2728C9.33562 19.6104 8.87778 19.8 8.40039 19.8C7.923 19.8 7.46516 19.6104 7.1276 19.2728C6.79003 18.9352 6.60039 18.4774 6.60039 18ZM13.8004 12C13.8004 11.7636 13.8469 11.5296 13.9374 11.3112C14.0279 11.0928 14.1605 10.8944 14.3276 10.7272C14.4947 10.5601 14.6932 10.4275 14.9116 10.337C15.1299 10.2466 15.364 10.2 15.6004 10.2C15.8368 10.2 16.0708 10.2466 16.2892 10.337C16.5076 10.4275 16.706 10.5601 16.8732 10.7272C17.0403 10.8944 17.1729 11.0928 17.2634 11.3112C17.3538 11.5296 17.4004 11.7636 17.4004 12C17.4004 12.2364 17.3538 12.4704 17.2634 12.6888C17.1729 12.9072 17.0403 13.1056 16.8732 13.2728C16.706 13.4399 16.5076 13.5725 16.2892 13.663C16.0708 13.7534 15.8368 13.8 15.6004 13.8C15.364 13.8 15.1299 13.7534 14.9116 13.663C14.6932 13.5725 14.4947 13.4399 14.3276 13.2728C14.1605 13.1056 14.0279 12.9072 13.9374 12.6888C13.8469 12.4704 13.8004 12.2364 13.8004 12ZM15.6004 9C14.1491 9 12.9379 10.0313 12.6604 11.4H3.00039C2.67039 11.4 2.40039 11.67 2.40039 12C2.40039 12.33 2.67039 12.6 3.00039 12.6H12.6604C12.9379 13.9688 14.1491 15 15.6004 15C17.0516 15 18.2629 13.9688 18.5404 12.6H21.0004C21.3304 12.6 21.6004 12.33 21.6004 12C21.6004 11.67 21.3304 11.4 21.0004 11.4H18.5404C18.2629 10.0313 17.0516 9 15.6004 9ZM9.60039 7.8C9.123 7.8 8.66516 7.61036 8.3276 7.27279C7.99003 6.93523 7.80039 6.47739 7.80039 6C7.80039 5.52261 7.99003 5.06477 8.3276 4.72721C8.66516 4.38964 9.123 4.2 9.60039 4.2C10.0778 4.2 10.5356 4.38964 10.8732 4.72721C11.2107 5.06477 11.4004 5.52261 11.4004 6C11.4004 6.47739 11.2107 6.93523 10.8732 7.27279C10.5356 7.61036 10.0778 7.8 9.60039 7.8ZM12.5404 5.4C12.2629 4.03125 11.0516 3 9.60039 3C8.14914 3 6.93789 4.03125 6.66039 5.4H3.00039C2.67039 5.4 2.40039 5.67 2.40039 6C2.40039 6.33 2.67039 6.6 3.00039 6.6H6.66039C6.93789 7.96875 8.14914 9 9.60039 9C11.0516 9 12.2629 7.96875 12.5404 6.6H21.0004C21.3304 6.6 21.6004 6.33 21.6004 6C21.6004 5.67 21.3304 5.4 21.0004 5.4H12.5404Z" fill="black"/>
</svg>
