<svg width="24" height="24" viewBox="0 0 20 20" fill="none" xmlns="http://www.w3.org/2000/svg">
    <path opacity="0.4"
          d="M11.8623 5.552L13.3337 4.99992L13.8857 3.52856C13.93 3.41138 14.042 3.33325 14.167 3.33325C14.292 3.33325 14.404 3.41138 14.4482 3.52856L15.0003 4.99992L16.4717 5.552C16.5889 5.59627 16.667 5.70825 16.667 5.83325C16.667 5.95825 16.5889 6.07023 16.4717 6.1145L15.0003 6.66659L14.4482 8.13794C14.404 8.25513 14.292 8.33325 14.167 8.33325C14.042 8.33325 13.93 8.25513 13.8857 8.13794L13.3337 6.66659L11.8623 6.1145C11.7451 6.07023 11.667 5.95825 11.667 5.83325C11.667 5.70825 11.7451 5.59627 11.8623 5.552ZM11.8623 13.8853L13.3337 13.3333L13.8857 11.8619C13.93 11.7447 14.042 11.6666 14.167 11.6666C14.292 11.6666 14.404 11.7447 14.4482 11.8619L15.0003 13.3333L16.4717 13.8853C16.5889 13.9296 16.667 14.0416 16.667 14.1666C16.667 14.2916 16.5889 14.4036 16.4717 14.4478L15.0003 14.9999L14.4482 16.4713C14.404 16.5885 14.292 16.6666 14.167 16.6666C14.042 16.6666 13.93 16.5885 13.8857 16.4713L13.3337 14.9999L11.8623 14.4478C11.7451 14.4036 11.667 14.2916 11.667 14.1666C11.667 14.0416 11.7451 13.9296 11.8623 13.8853Z"
          fill="black" fill-opacity="0.88"/>
    <path d="M8.67415 5.24219C8.60645 5.09375 8.45801 5 8.29655 5C8.13509 5 7.98665 5.09375 7.91895 5.24219L6.54655 8.21354L3.5752 9.58333C3.42676 9.65104 3.33301 9.79948 3.33301 9.96354C3.33301 10.1276 3.42676 10.2734 3.5752 10.3411L6.54655 11.7135L7.91634 14.6823C7.98405 14.8307 8.13249 14.9245 8.29395 14.9245C8.4554 14.9245 8.60384 14.8307 8.67155 14.6823L10.0439 11.7109L13.0153 10.3385C13.1637 10.2708 13.2575 10.1224 13.2575 9.96094C13.2575 9.79948 13.1637 9.65104 13.0153 9.58333L10.0465 8.21354L8.67415 5.24219Z"
          fill="black"/>
</svg>