<svg width="24" height="24" viewBox="0 0 24 24" fill="none" xmlns="http://www.w3.org/2000/svg">
<path d="M16.6469 5.14629C16.8406 4.95254 17.1594 4.95254 17.3531 5.14629L19.8531 7.64629C20.0469 7.84004 20.0469 8.15879 19.8531 8.35254L17.3531 10.8525C17.1594 11.0463 16.8406 11.0463 16.6469 10.8525C16.4531 10.6588 16.4531 10.34 16.6469 10.1463L18.2937 8.49941H16.5H14.6219C14.3562 8.49941 14.1031 8.60566 13.9156 8.79316L10.7063 11.9994L13.9156 15.2057C14.1031 15.3932 14.3562 15.4994 14.6219 15.4994H16.5H18.2937L16.6469 13.8525C16.4531 13.6588 16.4531 13.34 16.6469 13.1463C16.8406 12.9525 17.1594 12.9525 17.3531 13.1463L19.8531 15.6463C20.0469 15.84 20.0469 16.1588 19.8531 16.3525L17.3531 18.8525C17.1594 19.0463 16.8406 19.0463 16.6469 18.8525C16.4531 18.6588 16.4531 18.34 16.6469 18.1463L18.2937 16.4994H16.5H14.6219C14.0906 16.4994 13.5813 16.29 13.2063 15.915L9.94063 12.6463C9.84688 12.5525 9.71875 12.4994 9.5875 12.4994H5.5H4.5C4.225 12.4994 4 12.2744 4 11.9994C4 11.7244 4.225 11.4994 4.5 11.4994H5.5H9.58437C9.71562 11.4994 9.84375 11.4463 9.9375 11.3525L13.2063 8.08379C13.5813 7.70879 14.0906 7.49941 14.6219 7.49941H16.5H18.2937L16.6469 5.85254C16.4531 5.65879 16.4531 5.34004 16.6469 5.14629Z" fill="black"/>
</svg>
