<svg width="20" height="20" viewBox="0 0 20 20" fill="none" xmlns="http://www.w3.org/2000/svg">
<path d="M13.8724 4.28858C14.0338 4.12712 14.2995 4.12712 14.4609 4.28858L16.5442 6.37191C16.7057 6.53337 16.7057 6.79899 16.5442 6.96045L14.4609 9.04375C14.2995 9.20525 14.0338 9.20525 13.8724 9.04375C13.7109 8.88233 13.7109 8.61667 13.8724 8.45525L15.2447 7.08284H13.75H12.1849C11.9635 7.08284 11.7526 7.17138 11.5963 7.32763L8.92192 9.9995L11.5963 12.6714C11.7526 12.8277 11.9635 12.9162 12.1849 12.9162H13.75H15.2447L13.8724 11.5437C13.7109 11.3823 13.7109 11.1167 13.8724 10.9553C14.0338 10.7938 14.2995 10.7938 14.4609 10.9553L16.5442 13.0386C16.7057 13.2 16.7057 13.4657 16.5442 13.6271L14.4609 15.7104C14.2995 15.8719 14.0338 15.8719 13.8724 15.7104C13.7109 15.549 13.7109 15.2833 13.8724 15.1219L15.2447 13.7495H13.75H12.1849C11.7422 13.7495 11.3177 13.575 11.0052 13.2625L8.28386 10.5386C8.20573 10.4604 8.09896 10.4162 7.98958 10.4162H4.58333H3.75C3.52083 10.4162 3.33333 10.2287 3.33333 9.9995C3.33333 9.77033 3.52083 9.58283 3.75 9.58283H4.58333H7.98697C8.09635 9.58283 8.20312 9.53858 8.28125 9.46042L11.0052 6.73649C11.3177 6.42399 11.7422 6.24951 12.1849 6.24951H13.75H15.2447L13.8724 4.87712C13.7109 4.71566 13.7109 4.45003 13.8724 4.28858Z" fill="black"/>
</svg>
