<svg width="24" height="24" viewBox="0 0 24 24" fill="currentColor" xmlns="http://www.w3.org/2000/svg">
<path d="M17.9996 4.79961C18.6634 4.79961 19.1996 5.33586 19.1996 5.99961V17.9996C19.1996 18.6634 18.6634 19.1996 17.9996 19.1996C17.9996 16.5484 15.8509 14.3996 13.1996 14.3996H10.7996C8.14836 14.3996 5.99961 16.5484 5.99961 19.1996C5.33586 19.1996 4.79961 18.6634 4.79961 17.9996V5.99961C4.79961 5.33586 5.33586 4.79961 5.99961 4.79961H17.9996ZM16.7996 19.1996H7.19961C7.19961 17.2121 8.81211 15.5996 10.7996 15.5996H13.1996C15.1871 15.5996 16.7996 17.2121 16.7996 19.1996ZM5.99961 3.59961C4.67586 3.59961 3.59961 4.67586 3.59961 5.99961V17.9996C3.59961 19.3234 4.67586 20.3996 5.99961 20.3996H17.9996C19.3234 20.3996 20.3996 19.3234 20.3996 17.9996V5.99961C20.3996 4.67586 19.3234 3.59961 17.9996 3.59961H5.99961ZM11.9996 11.9996C11.5222 11.9996 11.0644 11.81 10.7268 11.4724C10.3893 11.1348 10.1996 10.677 10.1996 10.1996C10.1996 9.72222 10.3893 9.26438 10.7268 8.92682C11.0644 8.58925 11.5222 8.39961 11.9996 8.39961C12.477 8.39961 12.9348 8.58925 13.2724 8.92682C13.61 9.26438 13.7996 9.72222 13.7996 10.1996C13.7996 10.677 13.61 11.1348 13.2724 11.4724C12.9348 11.81 12.477 11.9996 11.9996 11.9996ZM8.99961 10.1996C8.99961 10.9953 9.31568 11.7583 9.87829 12.3209C10.4409 12.8835 11.204 13.1996 11.9996 13.1996C12.7953 13.1996 13.5583 12.8835 14.1209 12.3209C14.6835 11.7583 14.9996 10.9953 14.9996 10.1996C14.9996 9.40396 14.6835 8.6409 14.1209 8.07829C13.5583 7.51568 12.7953 7.19961 11.9996 7.19961C11.204 7.19961 10.4409 7.51568 9.87829 8.07829C9.31568 8.6409 8.99961 9.40396 8.99961 10.1996Z" fill="black"/>
</svg>
