<svg width="24" height="24" viewBox="0 0 24 24" fill="currentColor" xmlns="http://www.w3.org/2000/svg">
<path d="M3.69414 18.1646C3.63414 18.2696 3.60039 18.3896 3.60039 18.5134C3.60039 18.8959 3.90789 19.2034 4.29039 19.2034H19.7104C20.0929 19.2034 20.4004 18.8959 20.4004 18.5134C20.4004 18.3896 20.3666 18.2734 20.3066 18.1646L12.7691 5.24211C12.6079 4.96836 12.3154 4.79961 12.0004 4.79961C11.6854 4.79961 11.3929 4.96836 11.2316 5.24211L3.69414 18.1646ZM2.65914 17.5571L10.1966 4.63461C10.5716 3.99336 11.2579 3.59961 12.0004 3.59961C12.7429 3.59961 13.4291 3.99336 13.8041 4.63461L21.3416 17.5571C21.5104 17.8459 21.6004 18.1759 21.6004 18.5096C21.6004 19.5521 20.7529 20.3996 19.7104 20.3996H4.29039C3.24789 20.3996 2.40039 19.5521 2.40039 18.5096C2.40039 18.1759 2.49039 17.8459 2.65914 17.5571ZM12.0004 8.39961C12.3304 8.39961 12.6004 8.66961 12.6004 8.99961V13.7996C12.6004 14.1296 12.3304 14.3996 12.0004 14.3996C11.6704 14.3996 11.4004 14.1296 11.4004 13.7996V8.99961C11.4004 8.66961 11.6704 8.39961 12.0004 8.39961ZM11.1004 16.7996C11.1004 16.5609 11.1952 16.332 11.364 16.1632C11.5328 15.9944 11.7617 15.8996 12.0004 15.8996C12.2391 15.8996 12.468 15.9944 12.6368 16.1632C12.8056 16.332 12.9004 16.5609 12.9004 16.7996C12.9004 17.0383 12.8056 17.2672 12.6368 17.436C12.468 17.6048 12.2391 17.6996 12.0004 17.6996C11.7617 17.6996 11.5328 17.6048 11.364 17.436C11.1952 17.2672 11.1004 17.0383 11.1004 16.7996Z" fill="black"/>
</svg>
