<svg width="24" height="24" viewBox="0 0 24 24" fill="currentColor" xmlns="http://www.w3.org/2000/svg">
<path d="M4.8 7.20039C4.8 6.72763 4.89312 6.2595 5.07403 5.82273C5.25495 5.38596 5.52012 4.9891 5.85442 4.65481C6.18871 4.32052 6.58557 4.05534 7.02234 3.87442C7.45911 3.69351 7.92724 3.60039 8.4 3.60039C8.87276 3.60039 9.34089 3.69351 9.77766 3.87442C10.2144 4.05534 10.6113 4.32052 10.9456 4.65481C11.2799 4.9891 11.5451 5.38596 11.726 5.82273C11.9069 6.2595 12 6.72763 12 7.20039C12 7.67315 11.9069 8.14128 11.726 8.57805C11.5451 9.01482 11.2799 9.41168 10.9456 9.74598C10.6113 10.0803 10.2144 10.3454 9.77766 10.5264C9.34089 10.7073 8.87276 10.8004 8.4 10.8004C7.92724 10.8004 7.45911 10.7073 7.02234 10.5264C6.58557 10.3454 6.18871 10.0803 5.85442 9.74598C5.52012 9.41168 5.25495 9.01482 5.07403 8.57805C4.89312 8.14128 4.8 7.67315 4.8 7.20039ZM13.2 7.20039C13.2 5.92735 12.6943 4.70645 11.7941 3.80628C10.8939 2.9061 9.67304 2.40039 8.4 2.40039C7.12696 2.40039 5.90606 2.9061 5.00589 3.80628C4.10571 4.70645 3.6 5.92735 3.6 7.20039C3.6 8.47343 4.10571 9.69433 5.00589 10.5945C5.90606 11.4947 7.12696 12.0004 8.4 12.0004C9.67304 12.0004 10.8939 11.4947 11.7941 10.5945C12.6943 9.69433 13.2 8.47343 13.2 7.20039ZM1.2 20.4004C1.245 17.4116 3.6825 15.0004 6.68625 15.0004H10.1138C10.7175 15.0004 11.3025 15.0979 11.8463 15.2779C11.5312 14.9216 11.3512 14.4379 11.4113 13.9241C10.9913 13.8416 10.56 13.8004 10.1175 13.8004H6.68625C2.9925 13.8004 0 16.7929 0 20.4866C0 21.1016 0.49875 21.6004 1.11375 21.6004H15.4462C15.255 21.3079 15.15 20.9591 15.15 20.6141V20.5804C14.5463 20.9141 13.7475 20.8916 13.1625 20.4004H1.2ZM14.0063 17.1791C14.4863 16.7516 14.7 16.1404 14.7 15.5891C14.7 15.0379 14.4863 14.4266 14.0063 13.9991L14.6513 12.8554C15.2475 13.0916 15.8888 12.9941 16.3763 12.7166C16.8488 12.4466 17.2612 11.9629 17.3738 11.3404H18.6375C18.75 11.9629 19.1588 12.4466 19.6313 12.7166C20.115 12.9941 20.7563 13.0879 21.3525 12.8516L21.9975 13.9954C21.5138 14.4266 21.3 15.0379 21.3 15.5891C21.3 16.1404 21.5138 16.7516 21.9938 17.1791L21.3488 18.3229C20.7525 18.0866 20.115 18.1841 19.6275 18.4579C19.155 18.7279 18.7463 19.2154 18.6338 19.8341H17.3738C17.2575 19.2116 16.8488 18.7279 16.3763 18.4579C15.8888 18.1804 15.2513 18.0866 14.6513 18.3191L14.0063 17.1754V17.1791ZM14.985 19.4929C15.2288 19.3466 15.5325 19.3654 15.78 19.5041C16.0275 19.6466 16.2038 19.9016 16.2038 20.1866V20.2391C16.2038 20.6779 16.56 21.0379 17.0025 21.0379H19.005C19.4475 21.0379 19.8075 20.6779 19.8075 20.2354V20.1754C19.8075 19.8941 19.98 19.6429 20.2238 19.5004C20.4675 19.3616 20.7675 19.3429 21.0112 19.4891L21.0788 19.5266C21.48 19.7629 21.9937 19.6241 22.2225 19.2191L23.2125 17.4641C23.4263 17.0816 23.2988 16.5979 22.92 16.3766C22.6463 16.2154 22.5 15.9041 22.5 15.5891C22.5 15.2741 22.6463 14.9629 22.92 14.8016C23.295 14.5804 23.4263 14.0966 23.2125 13.7141L22.2225 11.9554C21.9937 11.5504 21.4762 11.4116 21.0788 11.6479L21.0112 11.6854C20.7675 11.8279 20.4675 11.8129 20.2238 11.6741C19.98 11.5354 19.8075 11.2841 19.8075 10.9991V10.9391C19.8075 10.4966 19.4475 10.1366 19.005 10.1366H17.0025C16.5638 10.1366 16.2038 10.4929 16.2038 10.9354V10.9879C16.2038 11.2729 16.0312 11.5279 15.78 11.6704C15.5325 11.8091 15.2288 11.8279 14.985 11.6816L14.925 11.6441C14.5238 11.4079 14.01 11.5466 13.7813 11.9516L12.7875 13.7141C12.5738 14.0966 12.7013 14.5804 13.08 14.8016C13.3538 14.9629 13.5 15.2741 13.5 15.5891C13.5 15.9041 13.3538 16.2154 13.08 16.3766C12.705 16.5979 12.5738 17.0816 12.7875 17.4641L13.7775 19.2229C14.0063 19.6279 14.5238 19.7666 14.9213 19.5304L14.9813 19.4929H14.985ZM18.0038 17.6891C18.5607 17.6891 19.0948 17.4679 19.4887 17.0741C19.8825 16.6802 20.1038 16.1461 20.1038 15.5891C20.1038 15.0322 19.8825 14.498 19.4887 14.1042C19.0948 13.7104 18.5607 13.4891 18.0038 13.4891C17.4468 13.4891 16.9127 13.7104 16.5188 14.1042C16.125 14.498 15.9038 15.0322 15.9038 15.5891C15.9038 16.1461 16.125 16.6802 16.5188 17.0741C16.9127 17.4679 17.4468 17.6891 18.0038 17.6891ZM18.0038 14.6891C18.2424 14.6891 18.4714 14.784 18.6401 14.9527C18.8089 15.1215 18.9038 15.3504 18.9038 15.5891C18.9038 15.8278 18.8089 16.0568 18.6401 16.2255C18.4714 16.3943 18.2424 16.4891 18.0038 16.4891C17.7651 16.4891 17.5361 16.3943 17.3674 16.2255C17.1986 16.0568 17.1038 15.8278 17.1038 15.5891C17.1038 15.3504 17.1986 15.1215 17.3674 14.9527C17.5361 14.784 17.7651 14.6891 18.0038 14.6891Z" fill="black"/>
</svg>
