<svg width="20" height="20" viewBox="0 0 20 20" fill="none" xmlns="http://www.w3.org/2000/svg">
<path d="M4.16666 5.41667C4.16666 5.08515 4.29836 4.7672 4.53277 4.53278C4.76719 4.29837 5.08514 4.16667 5.41666 4.16667C5.74817 4.16667 6.06612 4.29837 6.30054 4.53278C6.53496 4.7672 6.66666 5.08515 6.66666 5.41667C6.66666 5.74818 6.53496 6.06613 6.30054 6.30055C6.06612 6.53497 5.74817 6.66667 5.41666 6.66667C5.08514 6.66667 4.76719 6.53497 4.53277 6.30055C4.29836 6.06613 4.16666 5.74818 4.16666 5.41667ZM7.49999 5.41667C7.49999 4.86413 7.2805 4.33422 6.8898 3.94352C6.4991 3.55282 5.96919 3.33333 5.41666 3.33333C4.86412 3.33333 4.33421 3.55282 3.94351 3.94352C3.55281 4.33422 3.33332 4.86413 3.33332 5.41667C3.33332 5.9692 3.55281 6.49911 3.94351 6.88981C4.33421 7.28051 4.86412 7.5 5.41666 7.5C5.96919 7.5 6.4991 7.28051 6.8898 6.88981C7.2805 6.49911 7.49999 5.9692 7.49999 5.41667ZM9.99999 7.5C10.442 7.5 10.8659 7.67559 11.1785 7.98816C11.4911 8.30072 11.6667 8.72467 11.6667 9.16667C11.6667 9.60867 11.4911 10.0326 11.1785 10.3452C10.8659 10.6577 10.442 10.8333 9.99999 10.8333C9.55799 10.8333 9.13407 10.6577 8.82149 10.3452C8.50891 10.0326 8.33332 9.60867 8.33332 9.16667C8.33332 8.72467 8.50891 8.30072 8.82149 7.98816C9.13407 7.67559 9.55799 7.5 9.99999 7.5ZM9.99999 11.6667C10.3283 11.6667 10.6534 11.602 10.9567 11.4763C11.26 11.3507 11.5356 11.1666 11.7677 10.9344C11.9999 10.7022 12.1841 10.4267 12.3097 10.1234C12.4353 9.82008 12.5 9.495 12.5 9.16667C12.5 8.83833 12.4353 8.51325 12.3097 8.20996C12.1841 7.90664 11.9999 7.63105 11.7677 7.3989C11.5356 7.16675 11.26 6.98261 10.9567 6.85697C10.6534 6.73133 10.3283 6.66667 9.99999 6.66667C9.67166 6.66667 9.34657 6.73133 9.04324 6.85697C8.73999 6.98261 8.46441 7.16675 8.23222 7.3989C8.00007 7.63105 7.81593 7.90664 7.69029 8.20996C7.56466 8.51325 7.49999 8.83833 7.49999 9.16667C7.49999 9.495 7.56466 9.82008 7.69029 10.1234C7.81593 10.4267 8.00007 10.7022 8.23222 10.9344C8.46441 11.1666 8.73999 11.3507 9.04324 11.4763C9.34657 11.602 9.67166 11.6667 9.99999 11.6667ZM8.47132 13.3333H11.5287C12.9401 13.3333 14.0912 14.4401 14.1641 15.8333H5.83593C5.90885 14.4401 7.05988 13.3333 8.47132 13.3333ZM8.47132 12.5C6.55467 12.5 4.99999 14.0547 4.99999 15.9713C4.99999 16.3542 5.30988 16.6667 5.6953 16.6667H14.3047C14.6875 16.6667 15 16.3567 15 15.9713C15 14.0547 13.4453 12.5 11.5287 12.5H8.47132ZM15 4.16667C15.3315 4.16667 15.6495 4.29837 15.8839 4.53278C16.1183 4.7672 16.25 5.08515 16.25 5.41667C16.25 5.74818 16.1183 6.06613 15.8839 6.30055C15.6495 6.53497 15.3315 6.66667 15 6.66667C14.6685 6.66667 14.3505 6.53497 14.1161 6.30055C13.8817 6.06613 13.75 5.74818 13.75 5.41667C13.75 5.08515 13.8817 4.7672 14.1161 4.53278C14.3505 4.29837 14.6685 4.16667 15 4.16667ZM15 7.5C15.5525 7.5 16.0824 7.28051 16.4732 6.88981C16.8638 6.49911 17.0833 5.9692 17.0833 5.41667C17.0833 4.86413 16.8638 4.33422 16.4732 3.94352C16.0824 3.55282 15.5525 3.33333 15 3.33333C14.4475 3.33333 13.9176 3.55282 13.5268 3.94352C13.1362 4.33422 12.9167 4.86413 12.9167 5.41667C12.9167 5.9692 13.1362 6.49911 13.5268 6.88981C13.9176 7.28051 14.4475 7.5 15 7.5ZM15.4167 9.16667C16.5677 9.16667 17.5 10.0989 17.5 11.25C17.5 11.4792 17.6875 11.6667 17.9167 11.6667C18.1458 11.6667 18.3333 11.4792 18.3333 11.25C18.3333 9.638 17.0287 8.33333 15.4167 8.33333H13.2292C13.2969 8.59892 13.3333 8.88017 13.3333 9.16667H15.4167ZM6.66666 9.16667C6.66666 8.88017 6.70311 8.59892 6.77082 8.33333H4.58332C2.97134 8.33333 1.66666 9.638 1.66666 11.25C1.66666 11.4792 1.85416 11.6667 2.08332 11.6667C2.31249 11.6667 2.49999 11.4792 2.49999 11.25C2.49999 10.0989 3.43228 9.16667 4.58332 9.16667H6.66666Z" fill="black"/>
</svg>
