<svg viewBox="0 0 24 24" xmlns="http://www.w3.org/2000/svg">
    <path d="M5 6.5C5 6.10218 5.15804 5.72064 5.43934 5.43934C5.72064 5.15804 6.10218 5 6.5 5C6.89782 5 7.27936 5.15804 7.56066 5.43934C7.84196 5.72064 8 6.10218 8 6.5C8 6.89782 7.84196 7.27936 7.56066 7.56066C7.27936 7.84196 6.89782 8 6.5 8C6.10218 8 5.72064 7.84196 5.43934 7.56066C5.15804 7.27936 5 6.89782 5 6.5ZM9 6.5C9 5.83696 8.73661 5.20107 8.26777 4.73223C7.79893 4.26339 7.16304 4 6.5 4C5.83696 4 5.20107 4.26339 4.73223 4.73223C4.26339 5.20107 4 5.83696 4 6.5C4 7.16304 4.26339 7.79893 4.73223 8.26777C5.20107 8.73661 5.83696 9 6.5 9C7.16304 9 7.79893 8.73661 8.26777 8.26777C8.73661 7.79893 9 7.16304 9 6.5ZM12 9C12.5304 9 13.0391 9.21071 13.4142 9.58579C13.7893 9.96086 14 10.4696 14 11C14 11.5304 13.7893 12.0391 13.4142 12.4142C13.0391 12.7893 12.5304 13 12 13C11.4696 13 10.9609 12.7893 10.5858 12.4142C10.2107 12.0391 10 11.5304 10 11C10 10.4696 10.2107 9.96086 10.5858 9.58579C10.9609 9.21071 11.4696 9 12 9ZM12 14C12.394 14 12.7841 13.9224 13.1481 13.7716C13.512 13.6209 13.8427 13.3999 14.1213 13.1213C14.3999 12.8427 14.6209 12.512 14.7716 12.1481C14.9224 11.7841 15 11.394 15 11C15 10.606 14.9224 10.2159 14.7716 9.85195C14.6209 9.48797 14.3999 9.15726 14.1213 8.87868C13.8427 8.6001 13.512 8.37913 13.1481 8.22836C12.7841 8.0776 12.394 8 12 8C11.606 8 11.2159 8.0776 10.8519 8.22836C10.488 8.37913 10.1573 8.6001 9.87868 8.87868C9.6001 9.15726 9.37913 9.48797 9.22836 9.85195C9.0776 10.2159 9 10.606 9 11C9 11.394 9.0776 11.7841 9.22836 12.1481C9.37913 12.512 9.6001 12.8427 9.87868 13.1213C10.1573 13.3999 10.488 13.6209 10.8519 13.7716C11.2159 13.9224 11.606 14 12 14ZM10.1656 16H13.8344C15.5281 16 16.9094 17.3281 16.9969 19H7.00313C7.09063 17.3281 8.47187 16 10.1656 16ZM10.1656 15C7.86562 15 6 16.8656 6 19.1656C6 19.625 6.37187 20 6.83437 20H17.1656C17.625 20 18 19.6281 18 19.1656C18 16.8656 16.1344 15 13.8344 15H10.1656ZM18 5C18.3978 5 18.7794 5.15804 19.0607 5.43934C19.342 5.72064 19.5 6.10218 19.5 6.5C19.5 6.89782 19.342 7.27936 19.0607 7.56066C18.7794 7.84196 18.3978 8 18 8C17.6022 8 17.2206 7.84196 16.9393 7.56066C16.658 7.27936 16.5 6.89782 16.5 6.5C16.5 6.10218 16.658 5.72064 16.9393 5.43934C17.2206 5.15804 17.6022 5 18 5ZM18 9C18.663 9 19.2989 8.73661 19.7678 8.26777C20.2366 7.79893 20.5 7.16304 20.5 6.5C20.5 5.83696 20.2366 5.20107 19.7678 4.73223C19.2989 4.26339 18.663 4 18 4C17.337 4 16.7011 4.26339 16.2322 4.73223C15.7634 5.20107 15.5 5.83696 15.5 6.5C15.5 7.16304 15.7634 7.79893 16.2322 8.26777C16.7011 8.73661 17.337 9 18 9ZM18.5 11C19.8813 11 21 12.1187 21 13.5C21 13.775 21.225 14 21.5 14C21.775 14 22 13.775 22 13.5C22 11.5656 20.4344 10 18.5 10H15.875C15.9563 10.3187 16 10.6562 16 11H18.5ZM8 11C8 10.6562 8.04375 10.3187 8.125 10H5.5C3.56562 10 2 11.5656 2 13.5C2 13.775 2.225 14 2.5 14C2.775 14 3 13.775 3 13.5C3 12.1187 4.11875 11 5.5 11H8Z"
          fill="currentColor"/>
</svg>