<svg viewBox="0 0 20 20" fill="currentColor" xmlns="http://www.w3.org/2000/svg">
<path d="M4 6C4 5.60603 4.0776 5.21593 4.22836 4.85195C4.37913 4.48797 4.6001 4.15726 4.87868 3.87868C5.15726 3.6001 5.48797 3.37913 5.85195 3.22836C6.21593 3.0776 6.60603 3 7 3C7.39397 3 7.78407 3.0776 8.14805 3.22836C8.51203 3.37913 8.84274 3.6001 9.12132 3.87868C9.3999 4.15726 9.62087 4.48797 9.77164 4.85195C9.9224 5.21593 10 5.60603 10 6C10 6.39397 9.9224 6.78407 9.77164 7.14805C9.62087 7.51203 9.3999 7.84274 9.12132 8.12132C8.84274 8.3999 8.51203 8.62087 8.14805 8.77164C7.78407 8.9224 7.39397 9 7 9C6.60603 9 6.21593 8.9224 5.85195 8.77164C5.48797 8.62087 5.15726 8.3999 4.87868 8.12132C4.6001 7.84274 4.37913 7.51203 4.22836 7.14805C4.0776 6.78407 4 6.39397 4 6ZM11 6C11 4.93913 10.5786 3.92172 9.82843 3.17157C9.07828 2.42143 8.06087 2 7 2C5.93913 2 4.92172 2.42143 4.17157 3.17157C3.42143 3.92172 3 4.93913 3 6C3 7.06087 3.42143 8.07828 4.17157 8.82843C4.92172 9.57857 5.93913 10 7 10C8.06087 10 9.07828 9.57857 9.82843 8.82843C10.5786 8.07828 11 7.06087 11 6ZM1 17C1.0375 14.5094 3.06875 12.5 5.57188 12.5H8.42813C8.98125 12.5 9.50938 12.5969 10 12.7781V12.7563V11.725C9.50313 11.5781 8.975 11.5 8.42813 11.5H5.57188C2.49375 11.5 0 13.9937 0 17.0719C0 17.5844 0.415625 18 0.928125 18H13.0719C13.3844 18 13.6594 17.8469 13.8281 17.6094L12.9906 16.7719C12.9969 16.8469 12.9969 16.9219 13 16.9969H1V17ZM17.0594 17.3531L19.3531 15.0594C19.9375 14.475 19.9375 13.525 19.3531 12.9375L16 9.58437C15.625 9.20937 15.1156 9 14.5844 9H12C11.4469 9 11 9.44687 11 10V12.5844C11 13.1156 11.2094 13.625 11.5844 14L14.9406 17.3531C15.525 17.9375 16.475 17.9375 17.0625 17.3531H17.0594ZM12 10H14.5844C14.85 10 15.1031 10.1062 15.2906 10.2937L18.6469 13.6469C18.8406 13.8406 18.8406 14.1594 18.6469 14.3531L16.3531 16.6469C16.1594 16.8406 15.8406 16.8406 15.6469 16.6469L12.2937 13.2937C12.1062 13.1062 12 12.8531 12 12.5875V10ZM13.75 11.25C13.75 11.1174 13.6973 10.9902 13.6036 10.8964C13.5098 10.8027 13.3826 10.75 13.25 10.75C13.1174 10.75 12.9902 10.8027 12.8964 10.8964C12.8027 10.9902 12.75 11.1174 12.75 11.25C12.75 11.3826 12.8027 11.5098 12.8964 11.6036C12.9902 11.6973 13.1174 11.75 13.25 11.75C13.3826 11.75 13.5098 11.6973 13.6036 11.6036C13.6973 11.5098 13.75 11.3826 13.75 11.25Z"/>
</svg>
