<svg width="20" height="20" viewBox="0 0 20 20" fill="none" xmlns="http://www.w3.org/2000/svg">
<path d="M15.8333 7.5C15.8333 7.22136 15.7995 6.95052 15.7344 6.69271L14.4609 7.96614C14.2266 8.20052 13.9088 8.33333 13.5781 8.33333H12.9167C12.2266 8.33333 11.6667 7.77343 11.6667 7.08333V6.42187C11.6667 6.09115 11.7995 5.77343 12.0338 5.53906L13.3073 4.26562C13.0495 4.20052 12.7787 4.16667 12.5 4.16667C10.6588 4.16667 9.16666 5.65886 9.16666 7.5C9.16666 7.73958 9.19266 7.97135 9.23958 8.19531C9.32291 8.59116 9.22391 9.03908 8.89841 9.36458L4.52604 13.7343C4.29687 13.9662 4.16666 14.2787 4.16666 14.6042C4.16666 15.2838 4.71614 15.8333 5.39583 15.8333C5.72134 15.8333 6.03385 15.7032 6.26562 15.474L10.638 11.1016C10.9609 10.7787 11.4114 10.6771 11.8072 10.7604C12.0312 10.8073 12.263 10.8333 12.5026 10.8333C14.3437 10.8333 15.8359 9.34117 15.8359 7.5H15.8333ZM16.6667 7.5C16.6667 9.80208 14.8021 11.6667 12.5 11.6667C12.2032 11.6667 11.9115 11.6354 11.6328 11.5755C11.487 11.5442 11.3333 11.5833 11.2266 11.6901L6.85416 16.0625C6.46614 16.4505 5.9427 16.6667 5.39583 16.6667C4.2578 16.6667 3.33333 15.7422 3.33333 14.6042C3.33333 14.0572 3.54948 13.5338 3.93749 13.1458L8.30989 8.77342C8.41666 8.66667 8.45574 8.513 8.42449 8.36717C8.36458 8.08854 8.33333 7.79687 8.33333 7.5C8.33333 5.19792 10.1979 3.33333 12.5 3.33333C13.1458 3.33333 13.7578 3.48177 14.3047 3.74218C14.5442 3.85677 14.5782 4.17187 14.3907 4.35937L12.6224 6.12761C12.5442 6.20573 12.5 6.3125 12.5 6.42187V7.08333C12.5 7.3125 12.6875 7.5 12.9167 7.5H13.5781C13.6875 7.5 13.7942 7.45573 13.8724 7.37761L15.6407 5.60937C15.8282 5.42187 16.1432 5.45573 16.2578 5.69531C16.5208 6.24218 16.6667 6.85417 16.6667 7.5ZM5.62499 13.9583C5.7355 13.9583 5.84149 14.0022 5.91962 14.0803C5.99776 14.1585 6.04166 14.2645 6.04166 14.375C6.04166 14.4855 5.99776 14.5915 5.91962 14.6697C5.84149 14.7477 5.7355 14.7917 5.62499 14.7917C5.51449 14.7917 5.4085 14.7477 5.33037 14.6697C5.25223 14.5915 5.20833 14.4855 5.20833 14.375C5.20833 14.2645 5.25223 14.1585 5.33037 14.0803C5.4085 14.0022 5.51449 13.9583 5.62499 13.9583Z" fill="black"/>
</svg>
