<svg width="24" height="24" viewBox="0 0 24 24" fill="none" xmlns="http://www.w3.org/2000/svg">
<path d="M19 9C19 8.66563 18.9594 8.34062 18.8813 8.03125L17.3531 9.55937C17.0719 9.84062 16.6906 10 16.2937 10H15.5C14.6719 10 14 9.32812 14 8.5V7.70625C14 7.30938 14.1594 6.92812 14.4406 6.64687L15.9688 5.11875C15.6594 5.04062 15.3344 5 15 5C12.7906 5 11 6.79063 11 9C11 9.2875 11.0312 9.56562 11.0875 9.83437C11.1875 10.3094 11.0687 10.8469 10.6781 11.2375L5.43125 16.4812C5.15625 16.7594 5 17.1344 5 17.525C5 18.3406 5.65937 19 6.475 19C6.86562 19 7.24062 18.8438 7.51875 18.5688L12.7656 13.3219C13.1531 12.9344 13.6937 12.8125 14.1687 12.9125C14.4375 12.9688 14.7156 13 15.0031 13C17.2125 13 19.0031 11.2094 19.0031 9H19ZM20 9C20 11.7625 17.7625 14 15 14C14.6438 14 14.2938 13.9625 13.9594 13.8906C13.7844 13.8531 13.6 13.9 13.4719 14.0281L8.225 19.275C7.75937 19.7406 7.13125 20 6.475 20C5.10937 20 4 18.8906 4 17.525C4 16.8687 4.25938 16.2406 4.725 15.775L9.97188 10.5281C10.1 10.4 10.1469 10.2156 10.1094 10.0406C10.0375 9.70625 10 9.35625 10 9C10 6.2375 12.2375 4 15 4C15.775 4 16.5094 4.17812 17.1656 4.49062C17.4531 4.62813 17.4938 5.00625 17.2688 5.23125L15.1469 7.35313C15.0531 7.44688 15 7.575 15 7.70625V8.5C15 8.775 15.225 9 15.5 9H16.2937C16.425 9 16.5531 8.94688 16.6469 8.85313L18.7688 6.73125C18.9938 6.50625 19.3719 6.54688 19.5094 6.83437C19.825 7.49062 20 8.225 20 9ZM6.75 16.75C6.88261 16.75 7.00979 16.8027 7.10355 16.8964C7.19732 16.9902 7.25 17.1174 7.25 17.25C7.25 17.3826 7.19732 17.5098 7.10355 17.6036C7.00979 17.6973 6.88261 17.75 6.75 17.75C6.61739 17.75 6.49021 17.6973 6.39645 17.6036C6.30268 17.5098 6.25 17.3826 6.25 17.25C6.25 17.1174 6.30268 16.9902 6.39645 16.8964C6.49021 16.8027 6.61739 16.75 6.75 16.75Z" fill="black"/>
</svg>
